M48
; DRILL file {KiCad (7.0.0)} date Thu Jul 13 15:07:22 2023
; FORMAT={-:-/ absolute / metric / decimal}
; #@! TF.CreationDate,2023-07-13T15:07:22+05:30
; #@! TF.GenerationSoftware,Kicad,Pcbnew,(7.0.0)
; #@! TF.FileFunction,Plated,1,2,PTH
FMAT,2
METRIC
; #@! TA.AperFunction,Plated,PTH,ViaDrill
T1C0.300
; #@! TA.AperFunction,Plated,PTH,ComponentDrill
T2C1.000
; #@! TA.AperFunction,Plated,PTH,ComponentDrill
T3C1.200
%
G90
G05
T1
X154.88Y-57.24
X155.04Y-62.57
X155.15Y-95.08
X155.59Y-82.77
X156.36Y-65.94
X156.82Y-59.0
X156.93Y-77.38
X157.27Y-72.08
X157.58Y-70.29
X158.93Y-96.22
X161.45Y-65.76
X161.72Y-62.59
X161.79Y-93.63
X161.81Y-55.75
X162.12Y-69.56
X162.49Y-68.32
X162.59Y-67.33
X162.75Y-73.75
X162.935Y-83.45
X163.29Y-96.82
X163.35Y-59.66
X164.45Y-82.64
X164.6Y-63.53
X165.15Y-89.22
X165.34Y-98.71
X165.38Y-58.7
X165.89Y-69.99
X166.3Y-76.37
X166.36Y-74.52
X166.56Y-50.56
X166.64Y-52.79
X167.14Y-54.06
X167.16Y-55.29
X167.53Y-78.75
X168.34Y-94.409
X168.39Y-54.08
X168.43Y-55.29
X169.01Y-71.13
X169.365Y-89.075
X169.605Y-79.054
X169.605Y-92.15
X169.72Y-54.09
X169.74Y-55.32
X169.95Y-57.36
X170.285Y-64.915
X170.38Y-82.65
X170.57Y-50.57
X170.73Y-60.97
X170.9Y-76.45
X172.06Y-76.71
X172.12Y-93.98
X172.17Y-58.19
X172.26Y-56.36
X172.29Y-78.39
X172.41Y-72.51
X173.38Y-97.75
X173.91Y-82.43
X174.0Y-63.3
X174.51Y-61.17
X174.65Y-53.61
X175.05Y-96.07
X175.39Y-89.98
X176.67Y-89.77
X176.83Y-54.64
X176.84Y-83.33
X177.11Y-50.76
X178.61Y-92.58
X178.69Y-93.56
X178.91Y-55.58
X179.58Y-53.54
X179.59Y-54.65
X180.47Y-64.72
X180.53Y-69.54
X180.59Y-60.08
X180.895Y-91.055
X181.88Y-80.35
X181.88Y-82.63
X183.2Y-81.58
X183.21Y-54.32
X184.34Y-80.35
X184.69Y-82.85
X185.7Y-81.67
X186.45Y-67.19
X186.66Y-80.4
X187.01Y-82.98
X188.572Y-60.278
X188.99Y-64.79
X189.0Y-76.0
X190.25Y-67.2
X190.86Y-72.9
X190.87Y-74.29
X191.111Y-77.94
X192.83Y-58.74
T2
X182.66Y-93.542
X185.16Y-93.542
T3
X164.95Y-37.34
X182.55Y-37.39
T0
M30
