%TF.GenerationSoftware,KiCad,Pcbnew,(7.0.0)*%
%TF.CreationDate,2023-07-13T15:07:20+05:30*%
%TF.ProjectId,EMO current sense INA190,454d4f20-6375-4727-9265-6e742073656e,1*%
%TF.SameCoordinates,Original*%
%TF.FileFunction,Legend,Top*%
%TF.FilePolarity,Positive*%
%FSLAX46Y46*%
G04 Gerber Fmt 4.6, Leading zero omitted, Abs format (unit mm)*
G04 Created by KiCad (PCBNEW (7.0.0)) date 2023-07-13 15:07:20*
%MOMM*%
%LPD*%
G01*
G04 APERTURE LIST*
%ADD10C,0.375000*%
%ADD11C,0.150000*%
%ADD12C,0.120000*%
%ADD13C,0.200000*%
%ADD14C,0.360000*%
%ADD15C,0.152400*%
%ADD16C,0.400000*%
%TA.AperFunction,Profile*%
%ADD17C,0.100000*%
%TD*%
G04 APERTURE END LIST*
D10*
X158727500Y-65330000D02*
G75*
G03*
X158727500Y-65330000I-187500J0D01*
G01*
D11*
X158448893Y-52708893D02*
G75*
G03*
X158448893Y-52708893I-2438893J0D01*
G01*
X164460000Y-62700000D02*
X171690000Y-62700000D01*
X154080000Y-64860000D02*
X159420000Y-64860000D01*
X159420000Y-64860000D02*
X159420000Y-72270000D01*
X159420000Y-72270000D02*
X154080000Y-72270000D01*
X154080000Y-72270000D02*
X154080000Y-64860000D01*
X193910000Y-98190000D02*
G75*
G03*
X193910000Y-98190000I-2438893J0D01*
G01*
X163040000Y-79390000D02*
X163040000Y-82300000D01*
X158478893Y-98241107D02*
G75*
G03*
X158478893Y-98241107I-2438893J0D01*
G01*
X193860000Y-52770000D02*
G75*
G03*
X193860000Y-52770000I-2444013J0D01*
G01*
X161100000Y-75640000D02*
X161900000Y-73030000D01*
X154080000Y-68565000D02*
X159420000Y-68565000D01*
X155736000Y-65689523D02*
X155774095Y-65613333D01*
X155774095Y-65613333D02*
X155774095Y-65499047D01*
X155774095Y-65499047D02*
X155736000Y-65384761D01*
X155736000Y-65384761D02*
X155659809Y-65308571D01*
X155659809Y-65308571D02*
X155583619Y-65270476D01*
X155583619Y-65270476D02*
X155431238Y-65232380D01*
X155431238Y-65232380D02*
X155316952Y-65232380D01*
X155316952Y-65232380D02*
X155164571Y-65270476D01*
X155164571Y-65270476D02*
X155088380Y-65308571D01*
X155088380Y-65308571D02*
X155012190Y-65384761D01*
X155012190Y-65384761D02*
X154974095Y-65499047D01*
X154974095Y-65499047D02*
X154974095Y-65575238D01*
X154974095Y-65575238D02*
X155012190Y-65689523D01*
X155012190Y-65689523D02*
X155050285Y-65727619D01*
X155050285Y-65727619D02*
X155316952Y-65727619D01*
X155316952Y-65727619D02*
X155316952Y-65575238D01*
X154974095Y-66070476D02*
X155774095Y-66070476D01*
X155774095Y-66070476D02*
X154974095Y-66527619D01*
X154974095Y-66527619D02*
X155774095Y-66527619D01*
X154974095Y-66908571D02*
X155774095Y-66908571D01*
X155774095Y-66908571D02*
X155774095Y-67099047D01*
X155774095Y-67099047D02*
X155736000Y-67213333D01*
X155736000Y-67213333D02*
X155659809Y-67289523D01*
X155659809Y-67289523D02*
X155583619Y-67327618D01*
X155583619Y-67327618D02*
X155431238Y-67365714D01*
X155431238Y-67365714D02*
X155316952Y-67365714D01*
X155316952Y-67365714D02*
X155164571Y-67327618D01*
X155164571Y-67327618D02*
X155088380Y-67289523D01*
X155088380Y-67289523D02*
X155012190Y-67213333D01*
X155012190Y-67213333D02*
X154974095Y-67099047D01*
X154974095Y-67099047D02*
X154974095Y-66908571D01*
X154974095Y-68127618D02*
X154974095Y-67670475D01*
X154974095Y-67899047D02*
X155774095Y-67899047D01*
X155774095Y-67899047D02*
X155659809Y-67822856D01*
X155659809Y-67822856D02*
X155583619Y-67746666D01*
X155583619Y-67746666D02*
X155545523Y-67670475D01*
X158934095Y-65824285D02*
X158934095Y-66319523D01*
X158934095Y-66319523D02*
X158629333Y-66052857D01*
X158629333Y-66052857D02*
X158629333Y-66167142D01*
X158629333Y-66167142D02*
X158591238Y-66243333D01*
X158591238Y-66243333D02*
X158553142Y-66281428D01*
X158553142Y-66281428D02*
X158476952Y-66319523D01*
X158476952Y-66319523D02*
X158286476Y-66319523D01*
X158286476Y-66319523D02*
X158210285Y-66281428D01*
X158210285Y-66281428D02*
X158172190Y-66243333D01*
X158172190Y-66243333D02*
X158134095Y-66167142D01*
X158134095Y-66167142D02*
X158134095Y-65938571D01*
X158134095Y-65938571D02*
X158172190Y-65862380D01*
X158172190Y-65862380D02*
X158210285Y-65824285D01*
X158210285Y-66662381D02*
X158172190Y-66700476D01*
X158172190Y-66700476D02*
X158134095Y-66662381D01*
X158134095Y-66662381D02*
X158172190Y-66624285D01*
X158172190Y-66624285D02*
X158210285Y-66662381D01*
X158210285Y-66662381D02*
X158134095Y-66662381D01*
X158934095Y-66967142D02*
X158934095Y-67462380D01*
X158934095Y-67462380D02*
X158629333Y-67195714D01*
X158629333Y-67195714D02*
X158629333Y-67309999D01*
X158629333Y-67309999D02*
X158591238Y-67386190D01*
X158591238Y-67386190D02*
X158553142Y-67424285D01*
X158553142Y-67424285D02*
X158476952Y-67462380D01*
X158476952Y-67462380D02*
X158286476Y-67462380D01*
X158286476Y-67462380D02*
X158210285Y-67424285D01*
X158210285Y-67424285D02*
X158172190Y-67386190D01*
X158172190Y-67386190D02*
X158134095Y-67309999D01*
X158134095Y-67309999D02*
X158134095Y-67081428D01*
X158134095Y-67081428D02*
X158172190Y-67005237D01*
X158172190Y-67005237D02*
X158210285Y-66967142D01*
X158934095Y-67690952D02*
X158134095Y-67957619D01*
X158134095Y-67957619D02*
X158934095Y-68224285D01*
X157110476Y-49164761D02*
X157253333Y-49212380D01*
X157253333Y-49212380D02*
X157491428Y-49212380D01*
X157491428Y-49212380D02*
X157586666Y-49164761D01*
X157586666Y-49164761D02*
X157634285Y-49117142D01*
X157634285Y-49117142D02*
X157681904Y-49021904D01*
X157681904Y-49021904D02*
X157681904Y-48926666D01*
X157681904Y-48926666D02*
X157634285Y-48831428D01*
X157634285Y-48831428D02*
X157586666Y-48783809D01*
X157586666Y-48783809D02*
X157491428Y-48736190D01*
X157491428Y-48736190D02*
X157300952Y-48688571D01*
X157300952Y-48688571D02*
X157205714Y-48640952D01*
X157205714Y-48640952D02*
X157158095Y-48593333D01*
X157158095Y-48593333D02*
X157110476Y-48498095D01*
X157110476Y-48498095D02*
X157110476Y-48402857D01*
X157110476Y-48402857D02*
X157158095Y-48307619D01*
X157158095Y-48307619D02*
X157205714Y-48260000D01*
X157205714Y-48260000D02*
X157300952Y-48212380D01*
X157300952Y-48212380D02*
X157539047Y-48212380D01*
X157539047Y-48212380D02*
X157681904Y-48260000D01*
X158110476Y-49212380D02*
X158110476Y-48212380D01*
X158110476Y-48688571D02*
X158681904Y-48688571D01*
X158681904Y-49212380D02*
X158681904Y-48212380D01*
X159158095Y-48212380D02*
X159158095Y-49021904D01*
X159158095Y-49021904D02*
X159205714Y-49117142D01*
X159205714Y-49117142D02*
X159253333Y-49164761D01*
X159253333Y-49164761D02*
X159348571Y-49212380D01*
X159348571Y-49212380D02*
X159539047Y-49212380D01*
X159539047Y-49212380D02*
X159634285Y-49164761D01*
X159634285Y-49164761D02*
X159681904Y-49117142D01*
X159681904Y-49117142D02*
X159729523Y-49021904D01*
X159729523Y-49021904D02*
X159729523Y-48212380D01*
X160205714Y-49212380D02*
X160205714Y-48212380D01*
X160205714Y-48212380D02*
X160777142Y-49212380D01*
X160777142Y-49212380D02*
X160777142Y-48212380D01*
X161110476Y-48212380D02*
X161681904Y-48212380D01*
X161396190Y-49212380D02*
X161396190Y-48212380D01*
X162015238Y-48831428D02*
X162777143Y-48831428D01*
X162396190Y-49212380D02*
X162396190Y-48450476D01*
X156464095Y-69270476D02*
X157264095Y-69270476D01*
X157264095Y-69270476D02*
X157264095Y-69575238D01*
X157264095Y-69575238D02*
X157226000Y-69651428D01*
X157226000Y-69651428D02*
X157187904Y-69689523D01*
X157187904Y-69689523D02*
X157111714Y-69727619D01*
X157111714Y-69727619D02*
X156997428Y-69727619D01*
X156997428Y-69727619D02*
X156921238Y-69689523D01*
X156921238Y-69689523D02*
X156883142Y-69651428D01*
X156883142Y-69651428D02*
X156845047Y-69575238D01*
X156845047Y-69575238D02*
X156845047Y-69270476D01*
X157226000Y-70489523D02*
X157264095Y-70413333D01*
X157264095Y-70413333D02*
X157264095Y-70299047D01*
X157264095Y-70299047D02*
X157226000Y-70184761D01*
X157226000Y-70184761D02*
X157149809Y-70108571D01*
X157149809Y-70108571D02*
X157073619Y-70070476D01*
X157073619Y-70070476D02*
X156921238Y-70032380D01*
X156921238Y-70032380D02*
X156806952Y-70032380D01*
X156806952Y-70032380D02*
X156654571Y-70070476D01*
X156654571Y-70070476D02*
X156578380Y-70108571D01*
X156578380Y-70108571D02*
X156502190Y-70184761D01*
X156502190Y-70184761D02*
X156464095Y-70299047D01*
X156464095Y-70299047D02*
X156464095Y-70375238D01*
X156464095Y-70375238D02*
X156502190Y-70489523D01*
X156502190Y-70489523D02*
X156540285Y-70527619D01*
X156540285Y-70527619D02*
X156806952Y-70527619D01*
X156806952Y-70527619D02*
X156806952Y-70375238D01*
X156464095Y-70870476D02*
X157264095Y-70870476D01*
X157264095Y-70870476D02*
X157264095Y-71060952D01*
X157264095Y-71060952D02*
X157226000Y-71175238D01*
X157226000Y-71175238D02*
X157149809Y-71251428D01*
X157149809Y-71251428D02*
X157073619Y-71289523D01*
X157073619Y-71289523D02*
X156921238Y-71327619D01*
X156921238Y-71327619D02*
X156806952Y-71327619D01*
X156806952Y-71327619D02*
X156654571Y-71289523D01*
X156654571Y-71289523D02*
X156578380Y-71251428D01*
X156578380Y-71251428D02*
X156502190Y-71175238D01*
X156502190Y-71175238D02*
X156464095Y-71060952D01*
X156464095Y-71060952D02*
X156464095Y-70870476D01*
X154974095Y-68960476D02*
X155774095Y-68960476D01*
X155774095Y-68960476D02*
X155202666Y-69227142D01*
X155202666Y-69227142D02*
X155774095Y-69493809D01*
X155774095Y-69493809D02*
X154974095Y-69493809D01*
X155050285Y-70331905D02*
X155012190Y-70293809D01*
X155012190Y-70293809D02*
X154974095Y-70179524D01*
X154974095Y-70179524D02*
X154974095Y-70103333D01*
X154974095Y-70103333D02*
X155012190Y-69989047D01*
X155012190Y-69989047D02*
X155088380Y-69912857D01*
X155088380Y-69912857D02*
X155164571Y-69874762D01*
X155164571Y-69874762D02*
X155316952Y-69836666D01*
X155316952Y-69836666D02*
X155431238Y-69836666D01*
X155431238Y-69836666D02*
X155583619Y-69874762D01*
X155583619Y-69874762D02*
X155659809Y-69912857D01*
X155659809Y-69912857D02*
X155736000Y-69989047D01*
X155736000Y-69989047D02*
X155774095Y-70103333D01*
X155774095Y-70103333D02*
X155774095Y-70179524D01*
X155774095Y-70179524D02*
X155736000Y-70293809D01*
X155736000Y-70293809D02*
X155697904Y-70331905D01*
X154974095Y-71055714D02*
X154974095Y-70674762D01*
X154974095Y-70674762D02*
X155774095Y-70674762D01*
X154974095Y-71779524D02*
X155355047Y-71512857D01*
X154974095Y-71322381D02*
X155774095Y-71322381D01*
X155774095Y-71322381D02*
X155774095Y-71627143D01*
X155774095Y-71627143D02*
X155736000Y-71703333D01*
X155736000Y-71703333D02*
X155697904Y-71741428D01*
X155697904Y-71741428D02*
X155621714Y-71779524D01*
X155621714Y-71779524D02*
X155507428Y-71779524D01*
X155507428Y-71779524D02*
X155431238Y-71741428D01*
X155431238Y-71741428D02*
X155393142Y-71703333D01*
X155393142Y-71703333D02*
X155355047Y-71627143D01*
X155355047Y-71627143D02*
X155355047Y-71322381D01*
X158034095Y-69270476D02*
X158834095Y-69270476D01*
X158834095Y-69270476D02*
X158834095Y-69575238D01*
X158834095Y-69575238D02*
X158796000Y-69651428D01*
X158796000Y-69651428D02*
X158757904Y-69689523D01*
X158757904Y-69689523D02*
X158681714Y-69727619D01*
X158681714Y-69727619D02*
X158567428Y-69727619D01*
X158567428Y-69727619D02*
X158491238Y-69689523D01*
X158491238Y-69689523D02*
X158453142Y-69651428D01*
X158453142Y-69651428D02*
X158415047Y-69575238D01*
X158415047Y-69575238D02*
X158415047Y-69270476D01*
X158796000Y-70489523D02*
X158834095Y-70413333D01*
X158834095Y-70413333D02*
X158834095Y-70299047D01*
X158834095Y-70299047D02*
X158796000Y-70184761D01*
X158796000Y-70184761D02*
X158719809Y-70108571D01*
X158719809Y-70108571D02*
X158643619Y-70070476D01*
X158643619Y-70070476D02*
X158491238Y-70032380D01*
X158491238Y-70032380D02*
X158376952Y-70032380D01*
X158376952Y-70032380D02*
X158224571Y-70070476D01*
X158224571Y-70070476D02*
X158148380Y-70108571D01*
X158148380Y-70108571D02*
X158072190Y-70184761D01*
X158072190Y-70184761D02*
X158034095Y-70299047D01*
X158034095Y-70299047D02*
X158034095Y-70375238D01*
X158034095Y-70375238D02*
X158072190Y-70489523D01*
X158072190Y-70489523D02*
X158110285Y-70527619D01*
X158110285Y-70527619D02*
X158376952Y-70527619D01*
X158376952Y-70527619D02*
X158376952Y-70375238D01*
X158110285Y-71327619D02*
X158072190Y-71289523D01*
X158072190Y-71289523D02*
X158034095Y-71175238D01*
X158034095Y-71175238D02*
X158034095Y-71099047D01*
X158034095Y-71099047D02*
X158072190Y-70984761D01*
X158072190Y-70984761D02*
X158148380Y-70908571D01*
X158148380Y-70908571D02*
X158224571Y-70870476D01*
X158224571Y-70870476D02*
X158376952Y-70832380D01*
X158376952Y-70832380D02*
X158491238Y-70832380D01*
X158491238Y-70832380D02*
X158643619Y-70870476D01*
X158643619Y-70870476D02*
X158719809Y-70908571D01*
X158719809Y-70908571D02*
X158796000Y-70984761D01*
X158796000Y-70984761D02*
X158834095Y-71099047D01*
X158834095Y-71099047D02*
X158834095Y-71175238D01*
X158834095Y-71175238D02*
X158796000Y-71289523D01*
X158796000Y-71289523D02*
X158757904Y-71327619D01*
X184690476Y-49084761D02*
X184833333Y-49132380D01*
X184833333Y-49132380D02*
X185071428Y-49132380D01*
X185071428Y-49132380D02*
X185166666Y-49084761D01*
X185166666Y-49084761D02*
X185214285Y-49037142D01*
X185214285Y-49037142D02*
X185261904Y-48941904D01*
X185261904Y-48941904D02*
X185261904Y-48846666D01*
X185261904Y-48846666D02*
X185214285Y-48751428D01*
X185214285Y-48751428D02*
X185166666Y-48703809D01*
X185166666Y-48703809D02*
X185071428Y-48656190D01*
X185071428Y-48656190D02*
X184880952Y-48608571D01*
X184880952Y-48608571D02*
X184785714Y-48560952D01*
X184785714Y-48560952D02*
X184738095Y-48513333D01*
X184738095Y-48513333D02*
X184690476Y-48418095D01*
X184690476Y-48418095D02*
X184690476Y-48322857D01*
X184690476Y-48322857D02*
X184738095Y-48227619D01*
X184738095Y-48227619D02*
X184785714Y-48180000D01*
X184785714Y-48180000D02*
X184880952Y-48132380D01*
X184880952Y-48132380D02*
X185119047Y-48132380D01*
X185119047Y-48132380D02*
X185261904Y-48180000D01*
X185690476Y-49132380D02*
X185690476Y-48132380D01*
X185690476Y-48608571D02*
X186261904Y-48608571D01*
X186261904Y-49132380D02*
X186261904Y-48132380D01*
X186738095Y-48132380D02*
X186738095Y-48941904D01*
X186738095Y-48941904D02*
X186785714Y-49037142D01*
X186785714Y-49037142D02*
X186833333Y-49084761D01*
X186833333Y-49084761D02*
X186928571Y-49132380D01*
X186928571Y-49132380D02*
X187119047Y-49132380D01*
X187119047Y-49132380D02*
X187214285Y-49084761D01*
X187214285Y-49084761D02*
X187261904Y-49037142D01*
X187261904Y-49037142D02*
X187309523Y-48941904D01*
X187309523Y-48941904D02*
X187309523Y-48132380D01*
X187785714Y-49132380D02*
X187785714Y-48132380D01*
X187785714Y-48132380D02*
X188357142Y-49132380D01*
X188357142Y-49132380D02*
X188357142Y-48132380D01*
X188690476Y-48132380D02*
X189261904Y-48132380D01*
X188976190Y-49132380D02*
X188976190Y-48132380D01*
X189595238Y-48751428D02*
X190357143Y-48751428D01*
X157296000Y-65689523D02*
X157334095Y-65613333D01*
X157334095Y-65613333D02*
X157334095Y-65499047D01*
X157334095Y-65499047D02*
X157296000Y-65384761D01*
X157296000Y-65384761D02*
X157219809Y-65308571D01*
X157219809Y-65308571D02*
X157143619Y-65270476D01*
X157143619Y-65270476D02*
X156991238Y-65232380D01*
X156991238Y-65232380D02*
X156876952Y-65232380D01*
X156876952Y-65232380D02*
X156724571Y-65270476D01*
X156724571Y-65270476D02*
X156648380Y-65308571D01*
X156648380Y-65308571D02*
X156572190Y-65384761D01*
X156572190Y-65384761D02*
X156534095Y-65499047D01*
X156534095Y-65499047D02*
X156534095Y-65575238D01*
X156534095Y-65575238D02*
X156572190Y-65689523D01*
X156572190Y-65689523D02*
X156610285Y-65727619D01*
X156610285Y-65727619D02*
X156876952Y-65727619D01*
X156876952Y-65727619D02*
X156876952Y-65575238D01*
X156534095Y-66070476D02*
X157334095Y-66070476D01*
X157334095Y-66070476D02*
X156534095Y-66527619D01*
X156534095Y-66527619D02*
X157334095Y-66527619D01*
X156534095Y-66908571D02*
X157334095Y-66908571D01*
X157334095Y-66908571D02*
X157334095Y-67099047D01*
X157334095Y-67099047D02*
X157296000Y-67213333D01*
X157296000Y-67213333D02*
X157219809Y-67289523D01*
X157219809Y-67289523D02*
X157143619Y-67327618D01*
X157143619Y-67327618D02*
X156991238Y-67365714D01*
X156991238Y-67365714D02*
X156876952Y-67365714D01*
X156876952Y-67365714D02*
X156724571Y-67327618D01*
X156724571Y-67327618D02*
X156648380Y-67289523D01*
X156648380Y-67289523D02*
X156572190Y-67213333D01*
X156572190Y-67213333D02*
X156534095Y-67099047D01*
X156534095Y-67099047D02*
X156534095Y-66908571D01*
X157257904Y-67670475D02*
X157296000Y-67708571D01*
X157296000Y-67708571D02*
X157334095Y-67784761D01*
X157334095Y-67784761D02*
X157334095Y-67975237D01*
X157334095Y-67975237D02*
X157296000Y-68051428D01*
X157296000Y-68051428D02*
X157257904Y-68089523D01*
X157257904Y-68089523D02*
X157181714Y-68127618D01*
X157181714Y-68127618D02*
X157105523Y-68127618D01*
X157105523Y-68127618D02*
X156991238Y-68089523D01*
X156991238Y-68089523D02*
X156534095Y-67632380D01*
X156534095Y-67632380D02*
X156534095Y-68127618D01*
%TO.C,R20*%
X163137380Y-87702857D02*
X162661190Y-88036190D01*
X163137380Y-88274285D02*
X162137380Y-88274285D01*
X162137380Y-88274285D02*
X162137380Y-87893333D01*
X162137380Y-87893333D02*
X162185000Y-87798095D01*
X162185000Y-87798095D02*
X162232619Y-87750476D01*
X162232619Y-87750476D02*
X162327857Y-87702857D01*
X162327857Y-87702857D02*
X162470714Y-87702857D01*
X162470714Y-87702857D02*
X162565952Y-87750476D01*
X162565952Y-87750476D02*
X162613571Y-87798095D01*
X162613571Y-87798095D02*
X162661190Y-87893333D01*
X162661190Y-87893333D02*
X162661190Y-88274285D01*
X162232619Y-87321904D02*
X162185000Y-87274285D01*
X162185000Y-87274285D02*
X162137380Y-87179047D01*
X162137380Y-87179047D02*
X162137380Y-86940952D01*
X162137380Y-86940952D02*
X162185000Y-86845714D01*
X162185000Y-86845714D02*
X162232619Y-86798095D01*
X162232619Y-86798095D02*
X162327857Y-86750476D01*
X162327857Y-86750476D02*
X162423095Y-86750476D01*
X162423095Y-86750476D02*
X162565952Y-86798095D01*
X162565952Y-86798095D02*
X163137380Y-87369523D01*
X163137380Y-87369523D02*
X163137380Y-86750476D01*
X162137380Y-86131428D02*
X162137380Y-86036190D01*
X162137380Y-86036190D02*
X162185000Y-85940952D01*
X162185000Y-85940952D02*
X162232619Y-85893333D01*
X162232619Y-85893333D02*
X162327857Y-85845714D01*
X162327857Y-85845714D02*
X162518333Y-85798095D01*
X162518333Y-85798095D02*
X162756428Y-85798095D01*
X162756428Y-85798095D02*
X162946904Y-85845714D01*
X162946904Y-85845714D02*
X163042142Y-85893333D01*
X163042142Y-85893333D02*
X163089761Y-85940952D01*
X163089761Y-85940952D02*
X163137380Y-86036190D01*
X163137380Y-86036190D02*
X163137380Y-86131428D01*
X163137380Y-86131428D02*
X163089761Y-86226666D01*
X163089761Y-86226666D02*
X163042142Y-86274285D01*
X163042142Y-86274285D02*
X162946904Y-86321904D01*
X162946904Y-86321904D02*
X162756428Y-86369523D01*
X162756428Y-86369523D02*
X162518333Y-86369523D01*
X162518333Y-86369523D02*
X162327857Y-86321904D01*
X162327857Y-86321904D02*
X162232619Y-86274285D01*
X162232619Y-86274285D02*
X162185000Y-86226666D01*
X162185000Y-86226666D02*
X162137380Y-86131428D01*
%TO.C,R15*%
X165707380Y-61792857D02*
X165231190Y-62126190D01*
X165707380Y-62364285D02*
X164707380Y-62364285D01*
X164707380Y-62364285D02*
X164707380Y-61983333D01*
X164707380Y-61983333D02*
X164755000Y-61888095D01*
X164755000Y-61888095D02*
X164802619Y-61840476D01*
X164802619Y-61840476D02*
X164897857Y-61792857D01*
X164897857Y-61792857D02*
X165040714Y-61792857D01*
X165040714Y-61792857D02*
X165135952Y-61840476D01*
X165135952Y-61840476D02*
X165183571Y-61888095D01*
X165183571Y-61888095D02*
X165231190Y-61983333D01*
X165231190Y-61983333D02*
X165231190Y-62364285D01*
X165707380Y-60840476D02*
X165707380Y-61411904D01*
X165707380Y-61126190D02*
X164707380Y-61126190D01*
X164707380Y-61126190D02*
X164850238Y-61221428D01*
X164850238Y-61221428D02*
X164945476Y-61316666D01*
X164945476Y-61316666D02*
X164993095Y-61411904D01*
X164707380Y-59935714D02*
X164707380Y-60411904D01*
X164707380Y-60411904D02*
X165183571Y-60459523D01*
X165183571Y-60459523D02*
X165135952Y-60411904D01*
X165135952Y-60411904D02*
X165088333Y-60316666D01*
X165088333Y-60316666D02*
X165088333Y-60078571D01*
X165088333Y-60078571D02*
X165135952Y-59983333D01*
X165135952Y-59983333D02*
X165183571Y-59935714D01*
X165183571Y-59935714D02*
X165278809Y-59888095D01*
X165278809Y-59888095D02*
X165516904Y-59888095D01*
X165516904Y-59888095D02*
X165612142Y-59935714D01*
X165612142Y-59935714D02*
X165659761Y-59983333D01*
X165659761Y-59983333D02*
X165707380Y-60078571D01*
X165707380Y-60078571D02*
X165707380Y-60316666D01*
X165707380Y-60316666D02*
X165659761Y-60411904D01*
X165659761Y-60411904D02*
X165612142Y-60459523D01*
%TO.C,C5*%
X161957714Y-69063332D02*
X161995809Y-69101428D01*
X161995809Y-69101428D02*
X162033904Y-69215713D01*
X162033904Y-69215713D02*
X162033904Y-69291904D01*
X162033904Y-69291904D02*
X161995809Y-69406190D01*
X161995809Y-69406190D02*
X161919619Y-69482380D01*
X161919619Y-69482380D02*
X161843428Y-69520475D01*
X161843428Y-69520475D02*
X161691047Y-69558571D01*
X161691047Y-69558571D02*
X161576761Y-69558571D01*
X161576761Y-69558571D02*
X161424380Y-69520475D01*
X161424380Y-69520475D02*
X161348190Y-69482380D01*
X161348190Y-69482380D02*
X161272000Y-69406190D01*
X161272000Y-69406190D02*
X161233904Y-69291904D01*
X161233904Y-69291904D02*
X161233904Y-69215713D01*
X161233904Y-69215713D02*
X161272000Y-69101428D01*
X161272000Y-69101428D02*
X161310095Y-69063332D01*
X161233904Y-68339523D02*
X161233904Y-68720475D01*
X161233904Y-68720475D02*
X161614857Y-68758571D01*
X161614857Y-68758571D02*
X161576761Y-68720475D01*
X161576761Y-68720475D02*
X161538666Y-68644285D01*
X161538666Y-68644285D02*
X161538666Y-68453809D01*
X161538666Y-68453809D02*
X161576761Y-68377618D01*
X161576761Y-68377618D02*
X161614857Y-68339523D01*
X161614857Y-68339523D02*
X161691047Y-68301428D01*
X161691047Y-68301428D02*
X161881523Y-68301428D01*
X161881523Y-68301428D02*
X161957714Y-68339523D01*
X161957714Y-68339523D02*
X161995809Y-68377618D01*
X161995809Y-68377618D02*
X162033904Y-68453809D01*
X162033904Y-68453809D02*
X162033904Y-68644285D01*
X162033904Y-68644285D02*
X161995809Y-68720475D01*
X161995809Y-68720475D02*
X161957714Y-68758571D01*
%TO.C,R1*%
X176417380Y-50246666D02*
X175941190Y-50579999D01*
X176417380Y-50818094D02*
X175417380Y-50818094D01*
X175417380Y-50818094D02*
X175417380Y-50437142D01*
X175417380Y-50437142D02*
X175465000Y-50341904D01*
X175465000Y-50341904D02*
X175512619Y-50294285D01*
X175512619Y-50294285D02*
X175607857Y-50246666D01*
X175607857Y-50246666D02*
X175750714Y-50246666D01*
X175750714Y-50246666D02*
X175845952Y-50294285D01*
X175845952Y-50294285D02*
X175893571Y-50341904D01*
X175893571Y-50341904D02*
X175941190Y-50437142D01*
X175941190Y-50437142D02*
X175941190Y-50818094D01*
X176417380Y-49294285D02*
X176417380Y-49865713D01*
X176417380Y-49579999D02*
X175417380Y-49579999D01*
X175417380Y-49579999D02*
X175560238Y-49675237D01*
X175560238Y-49675237D02*
X175655476Y-49770475D01*
X175655476Y-49770475D02*
X175703095Y-49865713D01*
%TO.C,C20*%
X177447714Y-50614285D02*
X177485809Y-50652381D01*
X177485809Y-50652381D02*
X177523904Y-50766666D01*
X177523904Y-50766666D02*
X177523904Y-50842857D01*
X177523904Y-50842857D02*
X177485809Y-50957143D01*
X177485809Y-50957143D02*
X177409619Y-51033333D01*
X177409619Y-51033333D02*
X177333428Y-51071428D01*
X177333428Y-51071428D02*
X177181047Y-51109524D01*
X177181047Y-51109524D02*
X177066761Y-51109524D01*
X177066761Y-51109524D02*
X176914380Y-51071428D01*
X176914380Y-51071428D02*
X176838190Y-51033333D01*
X176838190Y-51033333D02*
X176762000Y-50957143D01*
X176762000Y-50957143D02*
X176723904Y-50842857D01*
X176723904Y-50842857D02*
X176723904Y-50766666D01*
X176723904Y-50766666D02*
X176762000Y-50652381D01*
X176762000Y-50652381D02*
X176800095Y-50614285D01*
X176800095Y-50309524D02*
X176762000Y-50271428D01*
X176762000Y-50271428D02*
X176723904Y-50195238D01*
X176723904Y-50195238D02*
X176723904Y-50004762D01*
X176723904Y-50004762D02*
X176762000Y-49928571D01*
X176762000Y-49928571D02*
X176800095Y-49890476D01*
X176800095Y-49890476D02*
X176876285Y-49852381D01*
X176876285Y-49852381D02*
X176952476Y-49852381D01*
X176952476Y-49852381D02*
X177066761Y-49890476D01*
X177066761Y-49890476D02*
X177523904Y-50347619D01*
X177523904Y-50347619D02*
X177523904Y-49852381D01*
X176723904Y-49357142D02*
X176723904Y-49280952D01*
X176723904Y-49280952D02*
X176762000Y-49204761D01*
X176762000Y-49204761D02*
X176800095Y-49166666D01*
X176800095Y-49166666D02*
X176876285Y-49128571D01*
X176876285Y-49128571D02*
X177028666Y-49090476D01*
X177028666Y-49090476D02*
X177219142Y-49090476D01*
X177219142Y-49090476D02*
X177371523Y-49128571D01*
X177371523Y-49128571D02*
X177447714Y-49166666D01*
X177447714Y-49166666D02*
X177485809Y-49204761D01*
X177485809Y-49204761D02*
X177523904Y-49280952D01*
X177523904Y-49280952D02*
X177523904Y-49357142D01*
X177523904Y-49357142D02*
X177485809Y-49433333D01*
X177485809Y-49433333D02*
X177447714Y-49471428D01*
X177447714Y-49471428D02*
X177371523Y-49509523D01*
X177371523Y-49509523D02*
X177219142Y-49547619D01*
X177219142Y-49547619D02*
X177028666Y-49547619D01*
X177028666Y-49547619D02*
X176876285Y-49509523D01*
X176876285Y-49509523D02*
X176800095Y-49471428D01*
X176800095Y-49471428D02*
X176762000Y-49433333D01*
X176762000Y-49433333D02*
X176723904Y-49357142D01*
%TO.C,TP2*%
X177033333Y-59783904D02*
X177300000Y-60583904D01*
X177300000Y-60583904D02*
X177566666Y-59783904D01*
X178099999Y-60164857D02*
X178214285Y-60202952D01*
X178214285Y-60202952D02*
X178252380Y-60241047D01*
X178252380Y-60241047D02*
X178290476Y-60317238D01*
X178290476Y-60317238D02*
X178290476Y-60431523D01*
X178290476Y-60431523D02*
X178252380Y-60507714D01*
X178252380Y-60507714D02*
X178214285Y-60545809D01*
X178214285Y-60545809D02*
X178138095Y-60583904D01*
X178138095Y-60583904D02*
X177833333Y-60583904D01*
X177833333Y-60583904D02*
X177833333Y-59783904D01*
X177833333Y-59783904D02*
X178099999Y-59783904D01*
X178099999Y-59783904D02*
X178176190Y-59822000D01*
X178176190Y-59822000D02*
X178214285Y-59860095D01*
X178214285Y-59860095D02*
X178252380Y-59936285D01*
X178252380Y-59936285D02*
X178252380Y-60012476D01*
X178252380Y-60012476D02*
X178214285Y-60088666D01*
X178214285Y-60088666D02*
X178176190Y-60126761D01*
X178176190Y-60126761D02*
X178099999Y-60164857D01*
X178099999Y-60164857D02*
X177833333Y-60164857D01*
X178633333Y-59783904D02*
X178633333Y-60431523D01*
X178633333Y-60431523D02*
X178671428Y-60507714D01*
X178671428Y-60507714D02*
X178709523Y-60545809D01*
X178709523Y-60545809D02*
X178785714Y-60583904D01*
X178785714Y-60583904D02*
X178938095Y-60583904D01*
X178938095Y-60583904D02*
X179014285Y-60545809D01*
X179014285Y-60545809D02*
X179052380Y-60507714D01*
X179052380Y-60507714D02*
X179090476Y-60431523D01*
X179090476Y-60431523D02*
X179090476Y-59783904D01*
X179433332Y-60545809D02*
X179547618Y-60583904D01*
X179547618Y-60583904D02*
X179738094Y-60583904D01*
X179738094Y-60583904D02*
X179814285Y-60545809D01*
X179814285Y-60545809D02*
X179852380Y-60507714D01*
X179852380Y-60507714D02*
X179890475Y-60431523D01*
X179890475Y-60431523D02*
X179890475Y-60355333D01*
X179890475Y-60355333D02*
X179852380Y-60279142D01*
X179852380Y-60279142D02*
X179814285Y-60241047D01*
X179814285Y-60241047D02*
X179738094Y-60202952D01*
X179738094Y-60202952D02*
X179585713Y-60164857D01*
X179585713Y-60164857D02*
X179509523Y-60126761D01*
X179509523Y-60126761D02*
X179471428Y-60088666D01*
X179471428Y-60088666D02*
X179433332Y-60012476D01*
X179433332Y-60012476D02*
X179433332Y-59936285D01*
X179433332Y-59936285D02*
X179471428Y-59860095D01*
X179471428Y-59860095D02*
X179509523Y-59822000D01*
X179509523Y-59822000D02*
X179585713Y-59783904D01*
X179585713Y-59783904D02*
X179776190Y-59783904D01*
X179776190Y-59783904D02*
X179890475Y-59822000D01*
%TO.C,R8*%
X168587380Y-61836666D02*
X168111190Y-62169999D01*
X168587380Y-62408094D02*
X167587380Y-62408094D01*
X167587380Y-62408094D02*
X167587380Y-62027142D01*
X167587380Y-62027142D02*
X167635000Y-61931904D01*
X167635000Y-61931904D02*
X167682619Y-61884285D01*
X167682619Y-61884285D02*
X167777857Y-61836666D01*
X167777857Y-61836666D02*
X167920714Y-61836666D01*
X167920714Y-61836666D02*
X168015952Y-61884285D01*
X168015952Y-61884285D02*
X168063571Y-61931904D01*
X168063571Y-61931904D02*
X168111190Y-62027142D01*
X168111190Y-62027142D02*
X168111190Y-62408094D01*
X168015952Y-61265237D02*
X167968333Y-61360475D01*
X167968333Y-61360475D02*
X167920714Y-61408094D01*
X167920714Y-61408094D02*
X167825476Y-61455713D01*
X167825476Y-61455713D02*
X167777857Y-61455713D01*
X167777857Y-61455713D02*
X167682619Y-61408094D01*
X167682619Y-61408094D02*
X167635000Y-61360475D01*
X167635000Y-61360475D02*
X167587380Y-61265237D01*
X167587380Y-61265237D02*
X167587380Y-61074761D01*
X167587380Y-61074761D02*
X167635000Y-60979523D01*
X167635000Y-60979523D02*
X167682619Y-60931904D01*
X167682619Y-60931904D02*
X167777857Y-60884285D01*
X167777857Y-60884285D02*
X167825476Y-60884285D01*
X167825476Y-60884285D02*
X167920714Y-60931904D01*
X167920714Y-60931904D02*
X167968333Y-60979523D01*
X167968333Y-60979523D02*
X168015952Y-61074761D01*
X168015952Y-61074761D02*
X168015952Y-61265237D01*
X168015952Y-61265237D02*
X168063571Y-61360475D01*
X168063571Y-61360475D02*
X168111190Y-61408094D01*
X168111190Y-61408094D02*
X168206428Y-61455713D01*
X168206428Y-61455713D02*
X168396904Y-61455713D01*
X168396904Y-61455713D02*
X168492142Y-61408094D01*
X168492142Y-61408094D02*
X168539761Y-61360475D01*
X168539761Y-61360475D02*
X168587380Y-61265237D01*
X168587380Y-61265237D02*
X168587380Y-61074761D01*
X168587380Y-61074761D02*
X168539761Y-60979523D01*
X168539761Y-60979523D02*
X168492142Y-60931904D01*
X168492142Y-60931904D02*
X168396904Y-60884285D01*
X168396904Y-60884285D02*
X168206428Y-60884285D01*
X168206428Y-60884285D02*
X168111190Y-60931904D01*
X168111190Y-60931904D02*
X168063571Y-60979523D01*
X168063571Y-60979523D02*
X168015952Y-61074761D01*
%TO.C,5V_PIC1*%
X154849047Y-72683904D02*
X155344285Y-72683904D01*
X155344285Y-72683904D02*
X155077619Y-72988666D01*
X155077619Y-72988666D02*
X155191904Y-72988666D01*
X155191904Y-72988666D02*
X155268095Y-73026761D01*
X155268095Y-73026761D02*
X155306190Y-73064857D01*
X155306190Y-73064857D02*
X155344285Y-73141047D01*
X155344285Y-73141047D02*
X155344285Y-73331523D01*
X155344285Y-73331523D02*
X155306190Y-73407714D01*
X155306190Y-73407714D02*
X155268095Y-73445809D01*
X155268095Y-73445809D02*
X155191904Y-73483904D01*
X155191904Y-73483904D02*
X154963333Y-73483904D01*
X154963333Y-73483904D02*
X154887142Y-73445809D01*
X154887142Y-73445809D02*
X154849047Y-73407714D01*
X155687143Y-73407714D02*
X155725238Y-73445809D01*
X155725238Y-73445809D02*
X155687143Y-73483904D01*
X155687143Y-73483904D02*
X155649047Y-73445809D01*
X155649047Y-73445809D02*
X155687143Y-73407714D01*
X155687143Y-73407714D02*
X155687143Y-73483904D01*
X155991904Y-72683904D02*
X156487142Y-72683904D01*
X156487142Y-72683904D02*
X156220476Y-72988666D01*
X156220476Y-72988666D02*
X156334761Y-72988666D01*
X156334761Y-72988666D02*
X156410952Y-73026761D01*
X156410952Y-73026761D02*
X156449047Y-73064857D01*
X156449047Y-73064857D02*
X156487142Y-73141047D01*
X156487142Y-73141047D02*
X156487142Y-73331523D01*
X156487142Y-73331523D02*
X156449047Y-73407714D01*
X156449047Y-73407714D02*
X156410952Y-73445809D01*
X156410952Y-73445809D02*
X156334761Y-73483904D01*
X156334761Y-73483904D02*
X156106190Y-73483904D01*
X156106190Y-73483904D02*
X156029999Y-73445809D01*
X156029999Y-73445809D02*
X155991904Y-73407714D01*
X156715714Y-72683904D02*
X156982381Y-73483904D01*
X156982381Y-73483904D02*
X157249047Y-72683904D01*
%TO.C,TP23*%
X162047714Y-77608094D02*
X162085809Y-77646190D01*
X162085809Y-77646190D02*
X162123904Y-77760475D01*
X162123904Y-77760475D02*
X162123904Y-77836666D01*
X162123904Y-77836666D02*
X162085809Y-77950952D01*
X162085809Y-77950952D02*
X162009619Y-78027142D01*
X162009619Y-78027142D02*
X161933428Y-78065237D01*
X161933428Y-78065237D02*
X161781047Y-78103333D01*
X161781047Y-78103333D02*
X161666761Y-78103333D01*
X161666761Y-78103333D02*
X161514380Y-78065237D01*
X161514380Y-78065237D02*
X161438190Y-78027142D01*
X161438190Y-78027142D02*
X161362000Y-77950952D01*
X161362000Y-77950952D02*
X161323904Y-77836666D01*
X161323904Y-77836666D02*
X161323904Y-77760475D01*
X161323904Y-77760475D02*
X161362000Y-77646190D01*
X161362000Y-77646190D02*
X161400095Y-77608094D01*
X161323904Y-77379523D02*
X161323904Y-76922380D01*
X162123904Y-77150952D02*
X161323904Y-77150952D01*
X161323904Y-76731904D02*
X162123904Y-76198570D01*
X161323904Y-76198570D02*
X162123904Y-76731904D01*
%TO.C,TP13*%
X175783810Y-81733904D02*
X175517143Y-81352952D01*
X175326667Y-81733904D02*
X175326667Y-80933904D01*
X175326667Y-80933904D02*
X175631429Y-80933904D01*
X175631429Y-80933904D02*
X175707619Y-80972000D01*
X175707619Y-80972000D02*
X175745714Y-81010095D01*
X175745714Y-81010095D02*
X175783810Y-81086285D01*
X175783810Y-81086285D02*
X175783810Y-81200571D01*
X175783810Y-81200571D02*
X175745714Y-81276761D01*
X175745714Y-81276761D02*
X175707619Y-81314857D01*
X175707619Y-81314857D02*
X175631429Y-81352952D01*
X175631429Y-81352952D02*
X175326667Y-81352952D01*
X176088571Y-81505333D02*
X176469524Y-81505333D01*
X176012381Y-81733904D02*
X176279048Y-80933904D01*
X176279048Y-80933904D02*
X176545714Y-81733904D01*
X176964762Y-80933904D02*
X177040952Y-80933904D01*
X177040952Y-80933904D02*
X177117143Y-80972000D01*
X177117143Y-80972000D02*
X177155238Y-81010095D01*
X177155238Y-81010095D02*
X177193333Y-81086285D01*
X177193333Y-81086285D02*
X177231428Y-81238666D01*
X177231428Y-81238666D02*
X177231428Y-81429142D01*
X177231428Y-81429142D02*
X177193333Y-81581523D01*
X177193333Y-81581523D02*
X177155238Y-81657714D01*
X177155238Y-81657714D02*
X177117143Y-81695809D01*
X177117143Y-81695809D02*
X177040952Y-81733904D01*
X177040952Y-81733904D02*
X176964762Y-81733904D01*
X176964762Y-81733904D02*
X176888571Y-81695809D01*
X176888571Y-81695809D02*
X176850476Y-81657714D01*
X176850476Y-81657714D02*
X176812381Y-81581523D01*
X176812381Y-81581523D02*
X176774285Y-81429142D01*
X176774285Y-81429142D02*
X176774285Y-81238666D01*
X176774285Y-81238666D02*
X176812381Y-81086285D01*
X176812381Y-81086285D02*
X176850476Y-81010095D01*
X176850476Y-81010095D02*
X176888571Y-80972000D01*
X176888571Y-80972000D02*
X176964762Y-80933904D01*
%TO.C,C10*%
X172805714Y-53977714D02*
X172767618Y-54015809D01*
X172767618Y-54015809D02*
X172653333Y-54053904D01*
X172653333Y-54053904D02*
X172577142Y-54053904D01*
X172577142Y-54053904D02*
X172462856Y-54015809D01*
X172462856Y-54015809D02*
X172386666Y-53939619D01*
X172386666Y-53939619D02*
X172348571Y-53863428D01*
X172348571Y-53863428D02*
X172310475Y-53711047D01*
X172310475Y-53711047D02*
X172310475Y-53596761D01*
X172310475Y-53596761D02*
X172348571Y-53444380D01*
X172348571Y-53444380D02*
X172386666Y-53368190D01*
X172386666Y-53368190D02*
X172462856Y-53292000D01*
X172462856Y-53292000D02*
X172577142Y-53253904D01*
X172577142Y-53253904D02*
X172653333Y-53253904D01*
X172653333Y-53253904D02*
X172767618Y-53292000D01*
X172767618Y-53292000D02*
X172805714Y-53330095D01*
X173567618Y-54053904D02*
X173110475Y-54053904D01*
X173339047Y-54053904D02*
X173339047Y-53253904D01*
X173339047Y-53253904D02*
X173262856Y-53368190D01*
X173262856Y-53368190D02*
X173186666Y-53444380D01*
X173186666Y-53444380D02*
X173110475Y-53482476D01*
X174062857Y-53253904D02*
X174139047Y-53253904D01*
X174139047Y-53253904D02*
X174215238Y-53292000D01*
X174215238Y-53292000D02*
X174253333Y-53330095D01*
X174253333Y-53330095D02*
X174291428Y-53406285D01*
X174291428Y-53406285D02*
X174329523Y-53558666D01*
X174329523Y-53558666D02*
X174329523Y-53749142D01*
X174329523Y-53749142D02*
X174291428Y-53901523D01*
X174291428Y-53901523D02*
X174253333Y-53977714D01*
X174253333Y-53977714D02*
X174215238Y-54015809D01*
X174215238Y-54015809D02*
X174139047Y-54053904D01*
X174139047Y-54053904D02*
X174062857Y-54053904D01*
X174062857Y-54053904D02*
X173986666Y-54015809D01*
X173986666Y-54015809D02*
X173948571Y-53977714D01*
X173948571Y-53977714D02*
X173910476Y-53901523D01*
X173910476Y-53901523D02*
X173872380Y-53749142D01*
X173872380Y-53749142D02*
X173872380Y-53558666D01*
X173872380Y-53558666D02*
X173910476Y-53406285D01*
X173910476Y-53406285D02*
X173948571Y-53330095D01*
X173948571Y-53330095D02*
X173986666Y-53292000D01*
X173986666Y-53292000D02*
X174062857Y-53253904D01*
%TO.C,TP21*%
X159326667Y-73823904D02*
X159060000Y-73442952D01*
X158869524Y-73823904D02*
X158869524Y-73023904D01*
X158869524Y-73023904D02*
X159174286Y-73023904D01*
X159174286Y-73023904D02*
X159250476Y-73062000D01*
X159250476Y-73062000D02*
X159288571Y-73100095D01*
X159288571Y-73100095D02*
X159326667Y-73176285D01*
X159326667Y-73176285D02*
X159326667Y-73290571D01*
X159326667Y-73290571D02*
X159288571Y-73366761D01*
X159288571Y-73366761D02*
X159250476Y-73404857D01*
X159250476Y-73404857D02*
X159174286Y-73442952D01*
X159174286Y-73442952D02*
X158869524Y-73442952D01*
X159593333Y-73023904D02*
X160126667Y-73823904D01*
X160126667Y-73023904D02*
X159593333Y-73823904D01*
%TO.C,TP14*%
X177573904Y-80046189D02*
X177192952Y-80312856D01*
X177573904Y-80503332D02*
X176773904Y-80503332D01*
X176773904Y-80503332D02*
X176773904Y-80198570D01*
X176773904Y-80198570D02*
X176812000Y-80122380D01*
X176812000Y-80122380D02*
X176850095Y-80084285D01*
X176850095Y-80084285D02*
X176926285Y-80046189D01*
X176926285Y-80046189D02*
X177040571Y-80046189D01*
X177040571Y-80046189D02*
X177116761Y-80084285D01*
X177116761Y-80084285D02*
X177154857Y-80122380D01*
X177154857Y-80122380D02*
X177192952Y-80198570D01*
X177192952Y-80198570D02*
X177192952Y-80503332D01*
X177345333Y-79741428D02*
X177345333Y-79360475D01*
X177573904Y-79817618D02*
X176773904Y-79550951D01*
X176773904Y-79550951D02*
X177573904Y-79284285D01*
X177573904Y-78598571D02*
X177573904Y-79055714D01*
X177573904Y-78827142D02*
X176773904Y-78827142D01*
X176773904Y-78827142D02*
X176888190Y-78903333D01*
X176888190Y-78903333D02*
X176964380Y-78979523D01*
X176964380Y-78979523D02*
X177002476Y-79055714D01*
%TO.C,R19*%
X161657380Y-87842857D02*
X161181190Y-88176190D01*
X161657380Y-88414285D02*
X160657380Y-88414285D01*
X160657380Y-88414285D02*
X160657380Y-88033333D01*
X160657380Y-88033333D02*
X160705000Y-87938095D01*
X160705000Y-87938095D02*
X160752619Y-87890476D01*
X160752619Y-87890476D02*
X160847857Y-87842857D01*
X160847857Y-87842857D02*
X160990714Y-87842857D01*
X160990714Y-87842857D02*
X161085952Y-87890476D01*
X161085952Y-87890476D02*
X161133571Y-87938095D01*
X161133571Y-87938095D02*
X161181190Y-88033333D01*
X161181190Y-88033333D02*
X161181190Y-88414285D01*
X161657380Y-86890476D02*
X161657380Y-87461904D01*
X161657380Y-87176190D02*
X160657380Y-87176190D01*
X160657380Y-87176190D02*
X160800238Y-87271428D01*
X160800238Y-87271428D02*
X160895476Y-87366666D01*
X160895476Y-87366666D02*
X160943095Y-87461904D01*
X161657380Y-86414285D02*
X161657380Y-86223809D01*
X161657380Y-86223809D02*
X161609761Y-86128571D01*
X161609761Y-86128571D02*
X161562142Y-86080952D01*
X161562142Y-86080952D02*
X161419285Y-85985714D01*
X161419285Y-85985714D02*
X161228809Y-85938095D01*
X161228809Y-85938095D02*
X160847857Y-85938095D01*
X160847857Y-85938095D02*
X160752619Y-85985714D01*
X160752619Y-85985714D02*
X160705000Y-86033333D01*
X160705000Y-86033333D02*
X160657380Y-86128571D01*
X160657380Y-86128571D02*
X160657380Y-86319047D01*
X160657380Y-86319047D02*
X160705000Y-86414285D01*
X160705000Y-86414285D02*
X160752619Y-86461904D01*
X160752619Y-86461904D02*
X160847857Y-86509523D01*
X160847857Y-86509523D02*
X161085952Y-86509523D01*
X161085952Y-86509523D02*
X161181190Y-86461904D01*
X161181190Y-86461904D02*
X161228809Y-86414285D01*
X161228809Y-86414285D02*
X161276428Y-86319047D01*
X161276428Y-86319047D02*
X161276428Y-86128571D01*
X161276428Y-86128571D02*
X161228809Y-86033333D01*
X161228809Y-86033333D02*
X161181190Y-85985714D01*
X161181190Y-85985714D02*
X161085952Y-85938095D01*
%TO.C,TP7*%
X176381428Y-65465809D02*
X176495714Y-65503904D01*
X176495714Y-65503904D02*
X176686190Y-65503904D01*
X176686190Y-65503904D02*
X176762381Y-65465809D01*
X176762381Y-65465809D02*
X176800476Y-65427714D01*
X176800476Y-65427714D02*
X176838571Y-65351523D01*
X176838571Y-65351523D02*
X176838571Y-65275333D01*
X176838571Y-65275333D02*
X176800476Y-65199142D01*
X176800476Y-65199142D02*
X176762381Y-65161047D01*
X176762381Y-65161047D02*
X176686190Y-65122952D01*
X176686190Y-65122952D02*
X176533809Y-65084857D01*
X176533809Y-65084857D02*
X176457619Y-65046761D01*
X176457619Y-65046761D02*
X176419524Y-65008666D01*
X176419524Y-65008666D02*
X176381428Y-64932476D01*
X176381428Y-64932476D02*
X176381428Y-64856285D01*
X176381428Y-64856285D02*
X176419524Y-64780095D01*
X176419524Y-64780095D02*
X176457619Y-64742000D01*
X176457619Y-64742000D02*
X176533809Y-64703904D01*
X176533809Y-64703904D02*
X176724286Y-64703904D01*
X176724286Y-64703904D02*
X176838571Y-64742000D01*
X177638572Y-65427714D02*
X177600476Y-65465809D01*
X177600476Y-65465809D02*
X177486191Y-65503904D01*
X177486191Y-65503904D02*
X177410000Y-65503904D01*
X177410000Y-65503904D02*
X177295714Y-65465809D01*
X177295714Y-65465809D02*
X177219524Y-65389619D01*
X177219524Y-65389619D02*
X177181429Y-65313428D01*
X177181429Y-65313428D02*
X177143333Y-65161047D01*
X177143333Y-65161047D02*
X177143333Y-65046761D01*
X177143333Y-65046761D02*
X177181429Y-64894380D01*
X177181429Y-64894380D02*
X177219524Y-64818190D01*
X177219524Y-64818190D02*
X177295714Y-64742000D01*
X177295714Y-64742000D02*
X177410000Y-64703904D01*
X177410000Y-64703904D02*
X177486191Y-64703904D01*
X177486191Y-64703904D02*
X177600476Y-64742000D01*
X177600476Y-64742000D02*
X177638572Y-64780095D01*
X177981429Y-65503904D02*
X177981429Y-64703904D01*
X178438572Y-65503904D02*
X178095714Y-65046761D01*
X178438572Y-64703904D02*
X177981429Y-65161047D01*
%TO.C,JP1*%
X177577380Y-89623333D02*
X178291666Y-89623333D01*
X178291666Y-89623333D02*
X178434523Y-89670952D01*
X178434523Y-89670952D02*
X178529761Y-89766190D01*
X178529761Y-89766190D02*
X178577380Y-89909047D01*
X178577380Y-89909047D02*
X178577380Y-90004285D01*
X178577380Y-89147142D02*
X177577380Y-89147142D01*
X177577380Y-89147142D02*
X177577380Y-88766190D01*
X177577380Y-88766190D02*
X177625000Y-88670952D01*
X177625000Y-88670952D02*
X177672619Y-88623333D01*
X177672619Y-88623333D02*
X177767857Y-88575714D01*
X177767857Y-88575714D02*
X177910714Y-88575714D01*
X177910714Y-88575714D02*
X178005952Y-88623333D01*
X178005952Y-88623333D02*
X178053571Y-88670952D01*
X178053571Y-88670952D02*
X178101190Y-88766190D01*
X178101190Y-88766190D02*
X178101190Y-89147142D01*
X178577380Y-87623333D02*
X178577380Y-88194761D01*
X178577380Y-87909047D02*
X177577380Y-87909047D01*
X177577380Y-87909047D02*
X177720238Y-88004285D01*
X177720238Y-88004285D02*
X177815476Y-88099523D01*
X177815476Y-88099523D02*
X177863095Y-88194761D01*
%TO.C,C19*%
X169612142Y-52792857D02*
X169659761Y-52840476D01*
X169659761Y-52840476D02*
X169707380Y-52983333D01*
X169707380Y-52983333D02*
X169707380Y-53078571D01*
X169707380Y-53078571D02*
X169659761Y-53221428D01*
X169659761Y-53221428D02*
X169564523Y-53316666D01*
X169564523Y-53316666D02*
X169469285Y-53364285D01*
X169469285Y-53364285D02*
X169278809Y-53411904D01*
X169278809Y-53411904D02*
X169135952Y-53411904D01*
X169135952Y-53411904D02*
X168945476Y-53364285D01*
X168945476Y-53364285D02*
X168850238Y-53316666D01*
X168850238Y-53316666D02*
X168755000Y-53221428D01*
X168755000Y-53221428D02*
X168707380Y-53078571D01*
X168707380Y-53078571D02*
X168707380Y-52983333D01*
X168707380Y-52983333D02*
X168755000Y-52840476D01*
X168755000Y-52840476D02*
X168802619Y-52792857D01*
X169707380Y-51840476D02*
X169707380Y-52411904D01*
X169707380Y-52126190D02*
X168707380Y-52126190D01*
X168707380Y-52126190D02*
X168850238Y-52221428D01*
X168850238Y-52221428D02*
X168945476Y-52316666D01*
X168945476Y-52316666D02*
X168993095Y-52411904D01*
X169707380Y-51364285D02*
X169707380Y-51173809D01*
X169707380Y-51173809D02*
X169659761Y-51078571D01*
X169659761Y-51078571D02*
X169612142Y-51030952D01*
X169612142Y-51030952D02*
X169469285Y-50935714D01*
X169469285Y-50935714D02*
X169278809Y-50888095D01*
X169278809Y-50888095D02*
X168897857Y-50888095D01*
X168897857Y-50888095D02*
X168802619Y-50935714D01*
X168802619Y-50935714D02*
X168755000Y-50983333D01*
X168755000Y-50983333D02*
X168707380Y-51078571D01*
X168707380Y-51078571D02*
X168707380Y-51269047D01*
X168707380Y-51269047D02*
X168755000Y-51364285D01*
X168755000Y-51364285D02*
X168802619Y-51411904D01*
X168802619Y-51411904D02*
X168897857Y-51459523D01*
X168897857Y-51459523D02*
X169135952Y-51459523D01*
X169135952Y-51459523D02*
X169231190Y-51411904D01*
X169231190Y-51411904D02*
X169278809Y-51364285D01*
X169278809Y-51364285D02*
X169326428Y-51269047D01*
X169326428Y-51269047D02*
X169326428Y-51078571D01*
X169326428Y-51078571D02*
X169278809Y-50983333D01*
X169278809Y-50983333D02*
X169231190Y-50935714D01*
X169231190Y-50935714D02*
X169135952Y-50888095D01*
%TO.C,R10*%
X161117380Y-65352857D02*
X160641190Y-65686190D01*
X161117380Y-65924285D02*
X160117380Y-65924285D01*
X160117380Y-65924285D02*
X160117380Y-65543333D01*
X160117380Y-65543333D02*
X160165000Y-65448095D01*
X160165000Y-65448095D02*
X160212619Y-65400476D01*
X160212619Y-65400476D02*
X160307857Y-65352857D01*
X160307857Y-65352857D02*
X160450714Y-65352857D01*
X160450714Y-65352857D02*
X160545952Y-65400476D01*
X160545952Y-65400476D02*
X160593571Y-65448095D01*
X160593571Y-65448095D02*
X160641190Y-65543333D01*
X160641190Y-65543333D02*
X160641190Y-65924285D01*
X161117380Y-64400476D02*
X161117380Y-64971904D01*
X161117380Y-64686190D02*
X160117380Y-64686190D01*
X160117380Y-64686190D02*
X160260238Y-64781428D01*
X160260238Y-64781428D02*
X160355476Y-64876666D01*
X160355476Y-64876666D02*
X160403095Y-64971904D01*
X160117380Y-63781428D02*
X160117380Y-63686190D01*
X160117380Y-63686190D02*
X160165000Y-63590952D01*
X160165000Y-63590952D02*
X160212619Y-63543333D01*
X160212619Y-63543333D02*
X160307857Y-63495714D01*
X160307857Y-63495714D02*
X160498333Y-63448095D01*
X160498333Y-63448095D02*
X160736428Y-63448095D01*
X160736428Y-63448095D02*
X160926904Y-63495714D01*
X160926904Y-63495714D02*
X161022142Y-63543333D01*
X161022142Y-63543333D02*
X161069761Y-63590952D01*
X161069761Y-63590952D02*
X161117380Y-63686190D01*
X161117380Y-63686190D02*
X161117380Y-63781428D01*
X161117380Y-63781428D02*
X161069761Y-63876666D01*
X161069761Y-63876666D02*
X161022142Y-63924285D01*
X161022142Y-63924285D02*
X160926904Y-63971904D01*
X160926904Y-63971904D02*
X160736428Y-64019523D01*
X160736428Y-64019523D02*
X160498333Y-64019523D01*
X160498333Y-64019523D02*
X160307857Y-63971904D01*
X160307857Y-63971904D02*
X160212619Y-63924285D01*
X160212619Y-63924285D02*
X160165000Y-63876666D01*
X160165000Y-63876666D02*
X160117380Y-63781428D01*
%TO.C,Y2*%
X188841190Y-67996190D02*
X189317380Y-67996190D01*
X188317380Y-68329523D02*
X188841190Y-67996190D01*
X188841190Y-67996190D02*
X188317380Y-67662857D01*
X188412619Y-67377142D02*
X188365000Y-67329523D01*
X188365000Y-67329523D02*
X188317380Y-67234285D01*
X188317380Y-67234285D02*
X188317380Y-66996190D01*
X188317380Y-66996190D02*
X188365000Y-66900952D01*
X188365000Y-66900952D02*
X188412619Y-66853333D01*
X188412619Y-66853333D02*
X188507857Y-66805714D01*
X188507857Y-66805714D02*
X188603095Y-66805714D01*
X188603095Y-66805714D02*
X188745952Y-66853333D01*
X188745952Y-66853333D02*
X189317380Y-67424761D01*
X189317380Y-67424761D02*
X189317380Y-66805714D01*
%TO.C,C6*%
X171603333Y-84092142D02*
X171555714Y-84139761D01*
X171555714Y-84139761D02*
X171412857Y-84187380D01*
X171412857Y-84187380D02*
X171317619Y-84187380D01*
X171317619Y-84187380D02*
X171174762Y-84139761D01*
X171174762Y-84139761D02*
X171079524Y-84044523D01*
X171079524Y-84044523D02*
X171031905Y-83949285D01*
X171031905Y-83949285D02*
X170984286Y-83758809D01*
X170984286Y-83758809D02*
X170984286Y-83615952D01*
X170984286Y-83615952D02*
X171031905Y-83425476D01*
X171031905Y-83425476D02*
X171079524Y-83330238D01*
X171079524Y-83330238D02*
X171174762Y-83235000D01*
X171174762Y-83235000D02*
X171317619Y-83187380D01*
X171317619Y-83187380D02*
X171412857Y-83187380D01*
X171412857Y-83187380D02*
X171555714Y-83235000D01*
X171555714Y-83235000D02*
X171603333Y-83282619D01*
X172460476Y-83187380D02*
X172270000Y-83187380D01*
X172270000Y-83187380D02*
X172174762Y-83235000D01*
X172174762Y-83235000D02*
X172127143Y-83282619D01*
X172127143Y-83282619D02*
X172031905Y-83425476D01*
X172031905Y-83425476D02*
X171984286Y-83615952D01*
X171984286Y-83615952D02*
X171984286Y-83996904D01*
X171984286Y-83996904D02*
X172031905Y-84092142D01*
X172031905Y-84092142D02*
X172079524Y-84139761D01*
X172079524Y-84139761D02*
X172174762Y-84187380D01*
X172174762Y-84187380D02*
X172365238Y-84187380D01*
X172365238Y-84187380D02*
X172460476Y-84139761D01*
X172460476Y-84139761D02*
X172508095Y-84092142D01*
X172508095Y-84092142D02*
X172555714Y-83996904D01*
X172555714Y-83996904D02*
X172555714Y-83758809D01*
X172555714Y-83758809D02*
X172508095Y-83663571D01*
X172508095Y-83663571D02*
X172460476Y-83615952D01*
X172460476Y-83615952D02*
X172365238Y-83568333D01*
X172365238Y-83568333D02*
X172174762Y-83568333D01*
X172174762Y-83568333D02*
X172079524Y-83615952D01*
X172079524Y-83615952D02*
X172031905Y-83663571D01*
X172031905Y-83663571D02*
X171984286Y-83758809D01*
%TO.C,U3*%
X166147380Y-86041904D02*
X166956904Y-86041904D01*
X166956904Y-86041904D02*
X167052142Y-85994285D01*
X167052142Y-85994285D02*
X167099761Y-85946666D01*
X167099761Y-85946666D02*
X167147380Y-85851428D01*
X167147380Y-85851428D02*
X167147380Y-85660952D01*
X167147380Y-85660952D02*
X167099761Y-85565714D01*
X167099761Y-85565714D02*
X167052142Y-85518095D01*
X167052142Y-85518095D02*
X166956904Y-85470476D01*
X166956904Y-85470476D02*
X166147380Y-85470476D01*
X166147380Y-85089523D02*
X166147380Y-84470476D01*
X166147380Y-84470476D02*
X166528333Y-84803809D01*
X166528333Y-84803809D02*
X166528333Y-84660952D01*
X166528333Y-84660952D02*
X166575952Y-84565714D01*
X166575952Y-84565714D02*
X166623571Y-84518095D01*
X166623571Y-84518095D02*
X166718809Y-84470476D01*
X166718809Y-84470476D02*
X166956904Y-84470476D01*
X166956904Y-84470476D02*
X167052142Y-84518095D01*
X167052142Y-84518095D02*
X167099761Y-84565714D01*
X167099761Y-84565714D02*
X167147380Y-84660952D01*
X167147380Y-84660952D02*
X167147380Y-84946666D01*
X167147380Y-84946666D02*
X167099761Y-85041904D01*
X167099761Y-85041904D02*
X167052142Y-85089523D01*
%TO.C,U4*%
X186008095Y-89347380D02*
X186008095Y-90156904D01*
X186008095Y-90156904D02*
X186055714Y-90252142D01*
X186055714Y-90252142D02*
X186103333Y-90299761D01*
X186103333Y-90299761D02*
X186198571Y-90347380D01*
X186198571Y-90347380D02*
X186389047Y-90347380D01*
X186389047Y-90347380D02*
X186484285Y-90299761D01*
X186484285Y-90299761D02*
X186531904Y-90252142D01*
X186531904Y-90252142D02*
X186579523Y-90156904D01*
X186579523Y-90156904D02*
X186579523Y-89347380D01*
X187484285Y-89680714D02*
X187484285Y-90347380D01*
X187246190Y-89299761D02*
X187008095Y-90014047D01*
X187008095Y-90014047D02*
X187627142Y-90014047D01*
%TO.C,C15*%
X178185714Y-52857714D02*
X178147618Y-52895809D01*
X178147618Y-52895809D02*
X178033333Y-52933904D01*
X178033333Y-52933904D02*
X177957142Y-52933904D01*
X177957142Y-52933904D02*
X177842856Y-52895809D01*
X177842856Y-52895809D02*
X177766666Y-52819619D01*
X177766666Y-52819619D02*
X177728571Y-52743428D01*
X177728571Y-52743428D02*
X177690475Y-52591047D01*
X177690475Y-52591047D02*
X177690475Y-52476761D01*
X177690475Y-52476761D02*
X177728571Y-52324380D01*
X177728571Y-52324380D02*
X177766666Y-52248190D01*
X177766666Y-52248190D02*
X177842856Y-52172000D01*
X177842856Y-52172000D02*
X177957142Y-52133904D01*
X177957142Y-52133904D02*
X178033333Y-52133904D01*
X178033333Y-52133904D02*
X178147618Y-52172000D01*
X178147618Y-52172000D02*
X178185714Y-52210095D01*
X178947618Y-52933904D02*
X178490475Y-52933904D01*
X178719047Y-52933904D02*
X178719047Y-52133904D01*
X178719047Y-52133904D02*
X178642856Y-52248190D01*
X178642856Y-52248190D02*
X178566666Y-52324380D01*
X178566666Y-52324380D02*
X178490475Y-52362476D01*
X179671428Y-52133904D02*
X179290476Y-52133904D01*
X179290476Y-52133904D02*
X179252380Y-52514857D01*
X179252380Y-52514857D02*
X179290476Y-52476761D01*
X179290476Y-52476761D02*
X179366666Y-52438666D01*
X179366666Y-52438666D02*
X179557142Y-52438666D01*
X179557142Y-52438666D02*
X179633333Y-52476761D01*
X179633333Y-52476761D02*
X179671428Y-52514857D01*
X179671428Y-52514857D02*
X179709523Y-52591047D01*
X179709523Y-52591047D02*
X179709523Y-52781523D01*
X179709523Y-52781523D02*
X179671428Y-52857714D01*
X179671428Y-52857714D02*
X179633333Y-52895809D01*
X179633333Y-52895809D02*
X179557142Y-52933904D01*
X179557142Y-52933904D02*
X179366666Y-52933904D01*
X179366666Y-52933904D02*
X179290476Y-52895809D01*
X179290476Y-52895809D02*
X179252380Y-52857714D01*
%TO.C,R5*%
X159785067Y-82031104D02*
X159518400Y-81650152D01*
X159327924Y-82031104D02*
X159327924Y-81231104D01*
X159327924Y-81231104D02*
X159632686Y-81231104D01*
X159632686Y-81231104D02*
X159708876Y-81269200D01*
X159708876Y-81269200D02*
X159746971Y-81307295D01*
X159746971Y-81307295D02*
X159785067Y-81383485D01*
X159785067Y-81383485D02*
X159785067Y-81497771D01*
X159785067Y-81497771D02*
X159746971Y-81573961D01*
X159746971Y-81573961D02*
X159708876Y-81612057D01*
X159708876Y-81612057D02*
X159632686Y-81650152D01*
X159632686Y-81650152D02*
X159327924Y-81650152D01*
X160508876Y-81231104D02*
X160127924Y-81231104D01*
X160127924Y-81231104D02*
X160089828Y-81612057D01*
X160089828Y-81612057D02*
X160127924Y-81573961D01*
X160127924Y-81573961D02*
X160204114Y-81535866D01*
X160204114Y-81535866D02*
X160394590Y-81535866D01*
X160394590Y-81535866D02*
X160470781Y-81573961D01*
X160470781Y-81573961D02*
X160508876Y-81612057D01*
X160508876Y-81612057D02*
X160546971Y-81688247D01*
X160546971Y-81688247D02*
X160546971Y-81878723D01*
X160546971Y-81878723D02*
X160508876Y-81954914D01*
X160508876Y-81954914D02*
X160470781Y-81993009D01*
X160470781Y-81993009D02*
X160394590Y-82031104D01*
X160394590Y-82031104D02*
X160204114Y-82031104D01*
X160204114Y-82031104D02*
X160127924Y-81993009D01*
X160127924Y-81993009D02*
X160089828Y-81954914D01*
%TO.C,J1*%
X156816466Y-81612580D02*
X156816466Y-82326866D01*
X156816466Y-82326866D02*
X156768847Y-82469723D01*
X156768847Y-82469723D02*
X156673609Y-82564961D01*
X156673609Y-82564961D02*
X156530752Y-82612580D01*
X156530752Y-82612580D02*
X156435514Y-82612580D01*
X157816466Y-82612580D02*
X157245038Y-82612580D01*
X157530752Y-82612580D02*
X157530752Y-81612580D01*
X157530752Y-81612580D02*
X157435514Y-81755438D01*
X157435514Y-81755438D02*
X157340276Y-81850676D01*
X157340276Y-81850676D02*
X157245038Y-81898295D01*
%TO.C,R26*%
X179153904Y-70124285D02*
X178772952Y-70390952D01*
X179153904Y-70581428D02*
X178353904Y-70581428D01*
X178353904Y-70581428D02*
X178353904Y-70276666D01*
X178353904Y-70276666D02*
X178392000Y-70200476D01*
X178392000Y-70200476D02*
X178430095Y-70162381D01*
X178430095Y-70162381D02*
X178506285Y-70124285D01*
X178506285Y-70124285D02*
X178620571Y-70124285D01*
X178620571Y-70124285D02*
X178696761Y-70162381D01*
X178696761Y-70162381D02*
X178734857Y-70200476D01*
X178734857Y-70200476D02*
X178772952Y-70276666D01*
X178772952Y-70276666D02*
X178772952Y-70581428D01*
X178430095Y-69819524D02*
X178392000Y-69781428D01*
X178392000Y-69781428D02*
X178353904Y-69705238D01*
X178353904Y-69705238D02*
X178353904Y-69514762D01*
X178353904Y-69514762D02*
X178392000Y-69438571D01*
X178392000Y-69438571D02*
X178430095Y-69400476D01*
X178430095Y-69400476D02*
X178506285Y-69362381D01*
X178506285Y-69362381D02*
X178582476Y-69362381D01*
X178582476Y-69362381D02*
X178696761Y-69400476D01*
X178696761Y-69400476D02*
X179153904Y-69857619D01*
X179153904Y-69857619D02*
X179153904Y-69362381D01*
X178353904Y-68676666D02*
X178353904Y-68829047D01*
X178353904Y-68829047D02*
X178392000Y-68905238D01*
X178392000Y-68905238D02*
X178430095Y-68943333D01*
X178430095Y-68943333D02*
X178544380Y-69019523D01*
X178544380Y-69019523D02*
X178696761Y-69057619D01*
X178696761Y-69057619D02*
X179001523Y-69057619D01*
X179001523Y-69057619D02*
X179077714Y-69019523D01*
X179077714Y-69019523D02*
X179115809Y-68981428D01*
X179115809Y-68981428D02*
X179153904Y-68905238D01*
X179153904Y-68905238D02*
X179153904Y-68752857D01*
X179153904Y-68752857D02*
X179115809Y-68676666D01*
X179115809Y-68676666D02*
X179077714Y-68638571D01*
X179077714Y-68638571D02*
X179001523Y-68600476D01*
X179001523Y-68600476D02*
X178811047Y-68600476D01*
X178811047Y-68600476D02*
X178734857Y-68638571D01*
X178734857Y-68638571D02*
X178696761Y-68676666D01*
X178696761Y-68676666D02*
X178658666Y-68752857D01*
X178658666Y-68752857D02*
X178658666Y-68905238D01*
X178658666Y-68905238D02*
X178696761Y-68981428D01*
X178696761Y-68981428D02*
X178734857Y-69019523D01*
X178734857Y-69019523D02*
X178811047Y-69057619D01*
%TO.C,TP10*%
X176203904Y-69416189D02*
X175822952Y-69682856D01*
X176203904Y-69873332D02*
X175403904Y-69873332D01*
X175403904Y-69873332D02*
X175403904Y-69568570D01*
X175403904Y-69568570D02*
X175442000Y-69492380D01*
X175442000Y-69492380D02*
X175480095Y-69454285D01*
X175480095Y-69454285D02*
X175556285Y-69416189D01*
X175556285Y-69416189D02*
X175670571Y-69416189D01*
X175670571Y-69416189D02*
X175746761Y-69454285D01*
X175746761Y-69454285D02*
X175784857Y-69492380D01*
X175784857Y-69492380D02*
X175822952Y-69568570D01*
X175822952Y-69568570D02*
X175822952Y-69873332D01*
X175975333Y-69111428D02*
X175975333Y-68730475D01*
X176203904Y-69187618D02*
X175403904Y-68920951D01*
X175403904Y-68920951D02*
X176203904Y-68654285D01*
X175403904Y-68463809D02*
X175403904Y-67930475D01*
X175403904Y-67930475D02*
X176203904Y-68273333D01*
%TO.C,R4*%
X179613904Y-65253332D02*
X179232952Y-65519999D01*
X179613904Y-65710475D02*
X178813904Y-65710475D01*
X178813904Y-65710475D02*
X178813904Y-65405713D01*
X178813904Y-65405713D02*
X178852000Y-65329523D01*
X178852000Y-65329523D02*
X178890095Y-65291428D01*
X178890095Y-65291428D02*
X178966285Y-65253332D01*
X178966285Y-65253332D02*
X179080571Y-65253332D01*
X179080571Y-65253332D02*
X179156761Y-65291428D01*
X179156761Y-65291428D02*
X179194857Y-65329523D01*
X179194857Y-65329523D02*
X179232952Y-65405713D01*
X179232952Y-65405713D02*
X179232952Y-65710475D01*
X179080571Y-64567618D02*
X179613904Y-64567618D01*
X178775809Y-64758094D02*
X179347238Y-64948571D01*
X179347238Y-64948571D02*
X179347238Y-64453332D01*
%TO.C,TP6*%
X176152857Y-63633904D02*
X176152857Y-62833904D01*
X176152857Y-62833904D02*
X176419523Y-63405333D01*
X176419523Y-63405333D02*
X176686190Y-62833904D01*
X176686190Y-62833904D02*
X176686190Y-63633904D01*
X177067143Y-63633904D02*
X177067143Y-62833904D01*
X177409999Y-63595809D02*
X177524285Y-63633904D01*
X177524285Y-63633904D02*
X177714761Y-63633904D01*
X177714761Y-63633904D02*
X177790952Y-63595809D01*
X177790952Y-63595809D02*
X177829047Y-63557714D01*
X177829047Y-63557714D02*
X177867142Y-63481523D01*
X177867142Y-63481523D02*
X177867142Y-63405333D01*
X177867142Y-63405333D02*
X177829047Y-63329142D01*
X177829047Y-63329142D02*
X177790952Y-63291047D01*
X177790952Y-63291047D02*
X177714761Y-63252952D01*
X177714761Y-63252952D02*
X177562380Y-63214857D01*
X177562380Y-63214857D02*
X177486190Y-63176761D01*
X177486190Y-63176761D02*
X177448095Y-63138666D01*
X177448095Y-63138666D02*
X177409999Y-63062476D01*
X177409999Y-63062476D02*
X177409999Y-62986285D01*
X177409999Y-62986285D02*
X177448095Y-62910095D01*
X177448095Y-62910095D02*
X177486190Y-62872000D01*
X177486190Y-62872000D02*
X177562380Y-62833904D01*
X177562380Y-62833904D02*
X177752857Y-62833904D01*
X177752857Y-62833904D02*
X177867142Y-62872000D01*
X178362381Y-62833904D02*
X178514762Y-62833904D01*
X178514762Y-62833904D02*
X178590952Y-62872000D01*
X178590952Y-62872000D02*
X178667143Y-62948190D01*
X178667143Y-62948190D02*
X178705238Y-63100571D01*
X178705238Y-63100571D02*
X178705238Y-63367238D01*
X178705238Y-63367238D02*
X178667143Y-63519619D01*
X178667143Y-63519619D02*
X178590952Y-63595809D01*
X178590952Y-63595809D02*
X178514762Y-63633904D01*
X178514762Y-63633904D02*
X178362381Y-63633904D01*
X178362381Y-63633904D02*
X178286190Y-63595809D01*
X178286190Y-63595809D02*
X178210000Y-63519619D01*
X178210000Y-63519619D02*
X178171904Y-63367238D01*
X178171904Y-63367238D02*
X178171904Y-63100571D01*
X178171904Y-63100571D02*
X178210000Y-62948190D01*
X178210000Y-62948190D02*
X178286190Y-62872000D01*
X178286190Y-62872000D02*
X178362381Y-62833904D01*
%TO.C,C17*%
X163037714Y-69134285D02*
X163075809Y-69172381D01*
X163075809Y-69172381D02*
X163113904Y-69286666D01*
X163113904Y-69286666D02*
X163113904Y-69362857D01*
X163113904Y-69362857D02*
X163075809Y-69477143D01*
X163075809Y-69477143D02*
X162999619Y-69553333D01*
X162999619Y-69553333D02*
X162923428Y-69591428D01*
X162923428Y-69591428D02*
X162771047Y-69629524D01*
X162771047Y-69629524D02*
X162656761Y-69629524D01*
X162656761Y-69629524D02*
X162504380Y-69591428D01*
X162504380Y-69591428D02*
X162428190Y-69553333D01*
X162428190Y-69553333D02*
X162352000Y-69477143D01*
X162352000Y-69477143D02*
X162313904Y-69362857D01*
X162313904Y-69362857D02*
X162313904Y-69286666D01*
X162313904Y-69286666D02*
X162352000Y-69172381D01*
X162352000Y-69172381D02*
X162390095Y-69134285D01*
X163113904Y-68372381D02*
X163113904Y-68829524D01*
X163113904Y-68600952D02*
X162313904Y-68600952D01*
X162313904Y-68600952D02*
X162428190Y-68677143D01*
X162428190Y-68677143D02*
X162504380Y-68753333D01*
X162504380Y-68753333D02*
X162542476Y-68829524D01*
X162313904Y-68105714D02*
X162313904Y-67572380D01*
X162313904Y-67572380D02*
X163113904Y-67915238D01*
%TO.C,TP1*%
X157726190Y-94965333D02*
X158107143Y-94965333D01*
X157650000Y-95193904D02*
X157916667Y-94393904D01*
X157916667Y-94393904D02*
X158183333Y-95193904D01*
X158830952Y-95193904D02*
X158450000Y-95193904D01*
X158450000Y-95193904D02*
X158450000Y-94393904D01*
X159097619Y-94774857D02*
X159364285Y-94774857D01*
X159478571Y-95193904D02*
X159097619Y-95193904D01*
X159097619Y-95193904D02*
X159097619Y-94393904D01*
X159097619Y-94393904D02*
X159478571Y-94393904D01*
X160278572Y-95193904D02*
X160011905Y-94812952D01*
X159821429Y-95193904D02*
X159821429Y-94393904D01*
X159821429Y-94393904D02*
X160126191Y-94393904D01*
X160126191Y-94393904D02*
X160202381Y-94432000D01*
X160202381Y-94432000D02*
X160240476Y-94470095D01*
X160240476Y-94470095D02*
X160278572Y-94546285D01*
X160278572Y-94546285D02*
X160278572Y-94660571D01*
X160278572Y-94660571D02*
X160240476Y-94736761D01*
X160240476Y-94736761D02*
X160202381Y-94774857D01*
X160202381Y-94774857D02*
X160126191Y-94812952D01*
X160126191Y-94812952D02*
X159821429Y-94812952D01*
X160507143Y-94393904D02*
X160964286Y-94393904D01*
X160735714Y-95193904D02*
X160735714Y-94393904D01*
X161040477Y-95270095D02*
X161650000Y-95270095D01*
X162297620Y-95117714D02*
X162259524Y-95155809D01*
X162259524Y-95155809D02*
X162145239Y-95193904D01*
X162145239Y-95193904D02*
X162069048Y-95193904D01*
X162069048Y-95193904D02*
X161954762Y-95155809D01*
X161954762Y-95155809D02*
X161878572Y-95079619D01*
X161878572Y-95079619D02*
X161840477Y-95003428D01*
X161840477Y-95003428D02*
X161802381Y-94851047D01*
X161802381Y-94851047D02*
X161802381Y-94736761D01*
X161802381Y-94736761D02*
X161840477Y-94584380D01*
X161840477Y-94584380D02*
X161878572Y-94508190D01*
X161878572Y-94508190D02*
X161954762Y-94432000D01*
X161954762Y-94432000D02*
X162069048Y-94393904D01*
X162069048Y-94393904D02*
X162145239Y-94393904D01*
X162145239Y-94393904D02*
X162259524Y-94432000D01*
X162259524Y-94432000D02*
X162297620Y-94470095D01*
X162792858Y-94393904D02*
X162945239Y-94393904D01*
X162945239Y-94393904D02*
X163021429Y-94432000D01*
X163021429Y-94432000D02*
X163097620Y-94508190D01*
X163097620Y-94508190D02*
X163135715Y-94660571D01*
X163135715Y-94660571D02*
X163135715Y-94927238D01*
X163135715Y-94927238D02*
X163097620Y-95079619D01*
X163097620Y-95079619D02*
X163021429Y-95155809D01*
X163021429Y-95155809D02*
X162945239Y-95193904D01*
X162945239Y-95193904D02*
X162792858Y-95193904D01*
X162792858Y-95193904D02*
X162716667Y-95155809D01*
X162716667Y-95155809D02*
X162640477Y-95079619D01*
X162640477Y-95079619D02*
X162602381Y-94927238D01*
X162602381Y-94927238D02*
X162602381Y-94660571D01*
X162602381Y-94660571D02*
X162640477Y-94508190D01*
X162640477Y-94508190D02*
X162716667Y-94432000D01*
X162716667Y-94432000D02*
X162792858Y-94393904D01*
X163478572Y-95193904D02*
X163478572Y-94393904D01*
X163478572Y-94393904D02*
X163935715Y-95193904D01*
X163935715Y-95193904D02*
X163935715Y-94393904D01*
%TO.C,TP11*%
X177293904Y-67503332D02*
X176912952Y-67769999D01*
X177293904Y-67960475D02*
X176493904Y-67960475D01*
X176493904Y-67960475D02*
X176493904Y-67655713D01*
X176493904Y-67655713D02*
X176532000Y-67579523D01*
X176532000Y-67579523D02*
X176570095Y-67541428D01*
X176570095Y-67541428D02*
X176646285Y-67503332D01*
X176646285Y-67503332D02*
X176760571Y-67503332D01*
X176760571Y-67503332D02*
X176836761Y-67541428D01*
X176836761Y-67541428D02*
X176874857Y-67579523D01*
X176874857Y-67579523D02*
X176912952Y-67655713D01*
X176912952Y-67655713D02*
X176912952Y-67960475D01*
X177217714Y-66703332D02*
X177255809Y-66741428D01*
X177255809Y-66741428D02*
X177293904Y-66855713D01*
X177293904Y-66855713D02*
X177293904Y-66931904D01*
X177293904Y-66931904D02*
X177255809Y-67046190D01*
X177255809Y-67046190D02*
X177179619Y-67122380D01*
X177179619Y-67122380D02*
X177103428Y-67160475D01*
X177103428Y-67160475D02*
X176951047Y-67198571D01*
X176951047Y-67198571D02*
X176836761Y-67198571D01*
X176836761Y-67198571D02*
X176684380Y-67160475D01*
X176684380Y-67160475D02*
X176608190Y-67122380D01*
X176608190Y-67122380D02*
X176532000Y-67046190D01*
X176532000Y-67046190D02*
X176493904Y-66931904D01*
X176493904Y-66931904D02*
X176493904Y-66855713D01*
X176493904Y-66855713D02*
X176532000Y-66741428D01*
X176532000Y-66741428D02*
X176570095Y-66703332D01*
X176570095Y-66398571D02*
X176532000Y-66360475D01*
X176532000Y-66360475D02*
X176493904Y-66284285D01*
X176493904Y-66284285D02*
X176493904Y-66093809D01*
X176493904Y-66093809D02*
X176532000Y-66017618D01*
X176532000Y-66017618D02*
X176570095Y-65979523D01*
X176570095Y-65979523D02*
X176646285Y-65941428D01*
X176646285Y-65941428D02*
X176722476Y-65941428D01*
X176722476Y-65941428D02*
X176836761Y-65979523D01*
X176836761Y-65979523D02*
X177293904Y-66436666D01*
X177293904Y-66436666D02*
X177293904Y-65941428D01*
%TO.C,C18*%
X173285714Y-50717714D02*
X173247618Y-50755809D01*
X173247618Y-50755809D02*
X173133333Y-50793904D01*
X173133333Y-50793904D02*
X173057142Y-50793904D01*
X173057142Y-50793904D02*
X172942856Y-50755809D01*
X172942856Y-50755809D02*
X172866666Y-50679619D01*
X172866666Y-50679619D02*
X172828571Y-50603428D01*
X172828571Y-50603428D02*
X172790475Y-50451047D01*
X172790475Y-50451047D02*
X172790475Y-50336761D01*
X172790475Y-50336761D02*
X172828571Y-50184380D01*
X172828571Y-50184380D02*
X172866666Y-50108190D01*
X172866666Y-50108190D02*
X172942856Y-50032000D01*
X172942856Y-50032000D02*
X173057142Y-49993904D01*
X173057142Y-49993904D02*
X173133333Y-49993904D01*
X173133333Y-49993904D02*
X173247618Y-50032000D01*
X173247618Y-50032000D02*
X173285714Y-50070095D01*
X174047618Y-50793904D02*
X173590475Y-50793904D01*
X173819047Y-50793904D02*
X173819047Y-49993904D01*
X173819047Y-49993904D02*
X173742856Y-50108190D01*
X173742856Y-50108190D02*
X173666666Y-50184380D01*
X173666666Y-50184380D02*
X173590475Y-50222476D01*
X174504761Y-50336761D02*
X174428571Y-50298666D01*
X174428571Y-50298666D02*
X174390476Y-50260571D01*
X174390476Y-50260571D02*
X174352380Y-50184380D01*
X174352380Y-50184380D02*
X174352380Y-50146285D01*
X174352380Y-50146285D02*
X174390476Y-50070095D01*
X174390476Y-50070095D02*
X174428571Y-50032000D01*
X174428571Y-50032000D02*
X174504761Y-49993904D01*
X174504761Y-49993904D02*
X174657142Y-49993904D01*
X174657142Y-49993904D02*
X174733333Y-50032000D01*
X174733333Y-50032000D02*
X174771428Y-50070095D01*
X174771428Y-50070095D02*
X174809523Y-50146285D01*
X174809523Y-50146285D02*
X174809523Y-50184380D01*
X174809523Y-50184380D02*
X174771428Y-50260571D01*
X174771428Y-50260571D02*
X174733333Y-50298666D01*
X174733333Y-50298666D02*
X174657142Y-50336761D01*
X174657142Y-50336761D02*
X174504761Y-50336761D01*
X174504761Y-50336761D02*
X174428571Y-50374857D01*
X174428571Y-50374857D02*
X174390476Y-50412952D01*
X174390476Y-50412952D02*
X174352380Y-50489142D01*
X174352380Y-50489142D02*
X174352380Y-50641523D01*
X174352380Y-50641523D02*
X174390476Y-50717714D01*
X174390476Y-50717714D02*
X174428571Y-50755809D01*
X174428571Y-50755809D02*
X174504761Y-50793904D01*
X174504761Y-50793904D02*
X174657142Y-50793904D01*
X174657142Y-50793904D02*
X174733333Y-50755809D01*
X174733333Y-50755809D02*
X174771428Y-50717714D01*
X174771428Y-50717714D02*
X174809523Y-50641523D01*
X174809523Y-50641523D02*
X174809523Y-50489142D01*
X174809523Y-50489142D02*
X174771428Y-50412952D01*
X174771428Y-50412952D02*
X174733333Y-50374857D01*
X174733333Y-50374857D02*
X174657142Y-50336761D01*
%TO.C,TP15*%
X177443810Y-78163904D02*
X177177143Y-77782952D01*
X176986667Y-78163904D02*
X176986667Y-77363904D01*
X176986667Y-77363904D02*
X177291429Y-77363904D01*
X177291429Y-77363904D02*
X177367619Y-77402000D01*
X177367619Y-77402000D02*
X177405714Y-77440095D01*
X177405714Y-77440095D02*
X177443810Y-77516285D01*
X177443810Y-77516285D02*
X177443810Y-77630571D01*
X177443810Y-77630571D02*
X177405714Y-77706761D01*
X177405714Y-77706761D02*
X177367619Y-77744857D01*
X177367619Y-77744857D02*
X177291429Y-77782952D01*
X177291429Y-77782952D02*
X176986667Y-77782952D01*
X177748571Y-77935333D02*
X178129524Y-77935333D01*
X177672381Y-78163904D02*
X177939048Y-77363904D01*
X177939048Y-77363904D02*
X178205714Y-78163904D01*
X178434285Y-77440095D02*
X178472381Y-77402000D01*
X178472381Y-77402000D02*
X178548571Y-77363904D01*
X178548571Y-77363904D02*
X178739047Y-77363904D01*
X178739047Y-77363904D02*
X178815238Y-77402000D01*
X178815238Y-77402000D02*
X178853333Y-77440095D01*
X178853333Y-77440095D02*
X178891428Y-77516285D01*
X178891428Y-77516285D02*
X178891428Y-77592476D01*
X178891428Y-77592476D02*
X178853333Y-77706761D01*
X178853333Y-77706761D02*
X178396190Y-78163904D01*
X178396190Y-78163904D02*
X178891428Y-78163904D01*
%TO.C,TP9*%
X180742000Y-52730476D02*
X180703904Y-52806666D01*
X180703904Y-52806666D02*
X180703904Y-52920952D01*
X180703904Y-52920952D02*
X180742000Y-53035238D01*
X180742000Y-53035238D02*
X180818190Y-53111428D01*
X180818190Y-53111428D02*
X180894380Y-53149523D01*
X180894380Y-53149523D02*
X181046761Y-53187619D01*
X181046761Y-53187619D02*
X181161047Y-53187619D01*
X181161047Y-53187619D02*
X181313428Y-53149523D01*
X181313428Y-53149523D02*
X181389619Y-53111428D01*
X181389619Y-53111428D02*
X181465809Y-53035238D01*
X181465809Y-53035238D02*
X181503904Y-52920952D01*
X181503904Y-52920952D02*
X181503904Y-52844761D01*
X181503904Y-52844761D02*
X181465809Y-52730476D01*
X181465809Y-52730476D02*
X181427714Y-52692380D01*
X181427714Y-52692380D02*
X181161047Y-52692380D01*
X181161047Y-52692380D02*
X181161047Y-52844761D01*
X181503904Y-52349523D02*
X180703904Y-52349523D01*
X180703904Y-52349523D02*
X181503904Y-51892380D01*
X181503904Y-51892380D02*
X180703904Y-51892380D01*
X181503904Y-51511428D02*
X180703904Y-51511428D01*
X180703904Y-51511428D02*
X180703904Y-51320952D01*
X180703904Y-51320952D02*
X180742000Y-51206666D01*
X180742000Y-51206666D02*
X180818190Y-51130476D01*
X180818190Y-51130476D02*
X180894380Y-51092381D01*
X180894380Y-51092381D02*
X181046761Y-51054285D01*
X181046761Y-51054285D02*
X181161047Y-51054285D01*
X181161047Y-51054285D02*
X181313428Y-51092381D01*
X181313428Y-51092381D02*
X181389619Y-51130476D01*
X181389619Y-51130476D02*
X181465809Y-51206666D01*
X181465809Y-51206666D02*
X181503904Y-51320952D01*
X181503904Y-51320952D02*
X181503904Y-51511428D01*
X180780095Y-50749524D02*
X180742000Y-50711428D01*
X180742000Y-50711428D02*
X180703904Y-50635238D01*
X180703904Y-50635238D02*
X180703904Y-50444762D01*
X180703904Y-50444762D02*
X180742000Y-50368571D01*
X180742000Y-50368571D02*
X180780095Y-50330476D01*
X180780095Y-50330476D02*
X180856285Y-50292381D01*
X180856285Y-50292381D02*
X180932476Y-50292381D01*
X180932476Y-50292381D02*
X181046761Y-50330476D01*
X181046761Y-50330476D02*
X181503904Y-50787619D01*
X181503904Y-50787619D02*
X181503904Y-50292381D01*
%TO.C,TP18*%
X177443810Y-74313904D02*
X177177143Y-73932952D01*
X176986667Y-74313904D02*
X176986667Y-73513904D01*
X176986667Y-73513904D02*
X177291429Y-73513904D01*
X177291429Y-73513904D02*
X177367619Y-73552000D01*
X177367619Y-73552000D02*
X177405714Y-73590095D01*
X177405714Y-73590095D02*
X177443810Y-73666285D01*
X177443810Y-73666285D02*
X177443810Y-73780571D01*
X177443810Y-73780571D02*
X177405714Y-73856761D01*
X177405714Y-73856761D02*
X177367619Y-73894857D01*
X177367619Y-73894857D02*
X177291429Y-73932952D01*
X177291429Y-73932952D02*
X176986667Y-73932952D01*
X177748571Y-74085333D02*
X178129524Y-74085333D01*
X177672381Y-74313904D02*
X177939048Y-73513904D01*
X177939048Y-73513904D02*
X178205714Y-74313904D01*
X178853333Y-73513904D02*
X178472381Y-73513904D01*
X178472381Y-73513904D02*
X178434285Y-73894857D01*
X178434285Y-73894857D02*
X178472381Y-73856761D01*
X178472381Y-73856761D02*
X178548571Y-73818666D01*
X178548571Y-73818666D02*
X178739047Y-73818666D01*
X178739047Y-73818666D02*
X178815238Y-73856761D01*
X178815238Y-73856761D02*
X178853333Y-73894857D01*
X178853333Y-73894857D02*
X178891428Y-73971047D01*
X178891428Y-73971047D02*
X178891428Y-74161523D01*
X178891428Y-74161523D02*
X178853333Y-74237714D01*
X178853333Y-74237714D02*
X178815238Y-74275809D01*
X178815238Y-74275809D02*
X178739047Y-74313904D01*
X178739047Y-74313904D02*
X178548571Y-74313904D01*
X178548571Y-74313904D02*
X178472381Y-74275809D01*
X178472381Y-74275809D02*
X178434285Y-74237714D01*
%TO.C,TP22*%
X160897714Y-77393332D02*
X160935809Y-77431428D01*
X160935809Y-77431428D02*
X160973904Y-77545713D01*
X160973904Y-77545713D02*
X160973904Y-77621904D01*
X160973904Y-77621904D02*
X160935809Y-77736190D01*
X160935809Y-77736190D02*
X160859619Y-77812380D01*
X160859619Y-77812380D02*
X160783428Y-77850475D01*
X160783428Y-77850475D02*
X160631047Y-77888571D01*
X160631047Y-77888571D02*
X160516761Y-77888571D01*
X160516761Y-77888571D02*
X160364380Y-77850475D01*
X160364380Y-77850475D02*
X160288190Y-77812380D01*
X160288190Y-77812380D02*
X160212000Y-77736190D01*
X160212000Y-77736190D02*
X160173904Y-77621904D01*
X160173904Y-77621904D02*
X160173904Y-77545713D01*
X160173904Y-77545713D02*
X160212000Y-77431428D01*
X160212000Y-77431428D02*
X160250095Y-77393332D01*
X160973904Y-76593332D02*
X160592952Y-76859999D01*
X160973904Y-77050475D02*
X160173904Y-77050475D01*
X160173904Y-77050475D02*
X160173904Y-76745713D01*
X160173904Y-76745713D02*
X160212000Y-76669523D01*
X160212000Y-76669523D02*
X160250095Y-76631428D01*
X160250095Y-76631428D02*
X160326285Y-76593332D01*
X160326285Y-76593332D02*
X160440571Y-76593332D01*
X160440571Y-76593332D02*
X160516761Y-76631428D01*
X160516761Y-76631428D02*
X160554857Y-76669523D01*
X160554857Y-76669523D02*
X160592952Y-76745713D01*
X160592952Y-76745713D02*
X160592952Y-77050475D01*
X160173904Y-76326666D02*
X160973904Y-75793332D01*
X160173904Y-75793332D02*
X160973904Y-76326666D01*
%TO.C,R25*%
X173575714Y-91453904D02*
X173309047Y-91072952D01*
X173118571Y-91453904D02*
X173118571Y-90653904D01*
X173118571Y-90653904D02*
X173423333Y-90653904D01*
X173423333Y-90653904D02*
X173499523Y-90692000D01*
X173499523Y-90692000D02*
X173537618Y-90730095D01*
X173537618Y-90730095D02*
X173575714Y-90806285D01*
X173575714Y-90806285D02*
X173575714Y-90920571D01*
X173575714Y-90920571D02*
X173537618Y-90996761D01*
X173537618Y-90996761D02*
X173499523Y-91034857D01*
X173499523Y-91034857D02*
X173423333Y-91072952D01*
X173423333Y-91072952D02*
X173118571Y-91072952D01*
X173880475Y-90730095D02*
X173918571Y-90692000D01*
X173918571Y-90692000D02*
X173994761Y-90653904D01*
X173994761Y-90653904D02*
X174185237Y-90653904D01*
X174185237Y-90653904D02*
X174261428Y-90692000D01*
X174261428Y-90692000D02*
X174299523Y-90730095D01*
X174299523Y-90730095D02*
X174337618Y-90806285D01*
X174337618Y-90806285D02*
X174337618Y-90882476D01*
X174337618Y-90882476D02*
X174299523Y-90996761D01*
X174299523Y-90996761D02*
X173842380Y-91453904D01*
X173842380Y-91453904D02*
X174337618Y-91453904D01*
X175061428Y-90653904D02*
X174680476Y-90653904D01*
X174680476Y-90653904D02*
X174642380Y-91034857D01*
X174642380Y-91034857D02*
X174680476Y-90996761D01*
X174680476Y-90996761D02*
X174756666Y-90958666D01*
X174756666Y-90958666D02*
X174947142Y-90958666D01*
X174947142Y-90958666D02*
X175023333Y-90996761D01*
X175023333Y-90996761D02*
X175061428Y-91034857D01*
X175061428Y-91034857D02*
X175099523Y-91111047D01*
X175099523Y-91111047D02*
X175099523Y-91301523D01*
X175099523Y-91301523D02*
X175061428Y-91377714D01*
X175061428Y-91377714D02*
X175023333Y-91415809D01*
X175023333Y-91415809D02*
X174947142Y-91453904D01*
X174947142Y-91453904D02*
X174756666Y-91453904D01*
X174756666Y-91453904D02*
X174680476Y-91415809D01*
X174680476Y-91415809D02*
X174642380Y-91377714D01*
%TO.C,R17*%
X169997380Y-61802857D02*
X169521190Y-62136190D01*
X169997380Y-62374285D02*
X168997380Y-62374285D01*
X168997380Y-62374285D02*
X168997380Y-61993333D01*
X168997380Y-61993333D02*
X169045000Y-61898095D01*
X169045000Y-61898095D02*
X169092619Y-61850476D01*
X169092619Y-61850476D02*
X169187857Y-61802857D01*
X169187857Y-61802857D02*
X169330714Y-61802857D01*
X169330714Y-61802857D02*
X169425952Y-61850476D01*
X169425952Y-61850476D02*
X169473571Y-61898095D01*
X169473571Y-61898095D02*
X169521190Y-61993333D01*
X169521190Y-61993333D02*
X169521190Y-62374285D01*
X169997380Y-60850476D02*
X169997380Y-61421904D01*
X169997380Y-61136190D02*
X168997380Y-61136190D01*
X168997380Y-61136190D02*
X169140238Y-61231428D01*
X169140238Y-61231428D02*
X169235476Y-61326666D01*
X169235476Y-61326666D02*
X169283095Y-61421904D01*
X168997380Y-60517142D02*
X168997380Y-59850476D01*
X168997380Y-59850476D02*
X169997380Y-60279047D01*
%TO.C,TP3*%
X175589523Y-94232000D02*
X175513333Y-94193904D01*
X175513333Y-94193904D02*
X175399047Y-94193904D01*
X175399047Y-94193904D02*
X175284761Y-94232000D01*
X175284761Y-94232000D02*
X175208571Y-94308190D01*
X175208571Y-94308190D02*
X175170476Y-94384380D01*
X175170476Y-94384380D02*
X175132380Y-94536761D01*
X175132380Y-94536761D02*
X175132380Y-94651047D01*
X175132380Y-94651047D02*
X175170476Y-94803428D01*
X175170476Y-94803428D02*
X175208571Y-94879619D01*
X175208571Y-94879619D02*
X175284761Y-94955809D01*
X175284761Y-94955809D02*
X175399047Y-94993904D01*
X175399047Y-94993904D02*
X175475238Y-94993904D01*
X175475238Y-94993904D02*
X175589523Y-94955809D01*
X175589523Y-94955809D02*
X175627619Y-94917714D01*
X175627619Y-94917714D02*
X175627619Y-94651047D01*
X175627619Y-94651047D02*
X175475238Y-94651047D01*
X175970476Y-94993904D02*
X175970476Y-94193904D01*
X175970476Y-94193904D02*
X176427619Y-94993904D01*
X176427619Y-94993904D02*
X176427619Y-94193904D01*
X176808571Y-94993904D02*
X176808571Y-94193904D01*
X176808571Y-94193904D02*
X176999047Y-94193904D01*
X176999047Y-94193904D02*
X177113333Y-94232000D01*
X177113333Y-94232000D02*
X177189523Y-94308190D01*
X177189523Y-94308190D02*
X177227618Y-94384380D01*
X177227618Y-94384380D02*
X177265714Y-94536761D01*
X177265714Y-94536761D02*
X177265714Y-94651047D01*
X177265714Y-94651047D02*
X177227618Y-94803428D01*
X177227618Y-94803428D02*
X177189523Y-94879619D01*
X177189523Y-94879619D02*
X177113333Y-94955809D01*
X177113333Y-94955809D02*
X176999047Y-94993904D01*
X176999047Y-94993904D02*
X176808571Y-94993904D01*
X178027618Y-94993904D02*
X177570475Y-94993904D01*
X177799047Y-94993904D02*
X177799047Y-94193904D01*
X177799047Y-94193904D02*
X177722856Y-94308190D01*
X177722856Y-94308190D02*
X177646666Y-94384380D01*
X177646666Y-94384380D02*
X177570475Y-94422476D01*
%TO.C,C11*%
X179625714Y-55667714D02*
X179587618Y-55705809D01*
X179587618Y-55705809D02*
X179473333Y-55743904D01*
X179473333Y-55743904D02*
X179397142Y-55743904D01*
X179397142Y-55743904D02*
X179282856Y-55705809D01*
X179282856Y-55705809D02*
X179206666Y-55629619D01*
X179206666Y-55629619D02*
X179168571Y-55553428D01*
X179168571Y-55553428D02*
X179130475Y-55401047D01*
X179130475Y-55401047D02*
X179130475Y-55286761D01*
X179130475Y-55286761D02*
X179168571Y-55134380D01*
X179168571Y-55134380D02*
X179206666Y-55058190D01*
X179206666Y-55058190D02*
X179282856Y-54982000D01*
X179282856Y-54982000D02*
X179397142Y-54943904D01*
X179397142Y-54943904D02*
X179473333Y-54943904D01*
X179473333Y-54943904D02*
X179587618Y-54982000D01*
X179587618Y-54982000D02*
X179625714Y-55020095D01*
X180387618Y-55743904D02*
X179930475Y-55743904D01*
X180159047Y-55743904D02*
X180159047Y-54943904D01*
X180159047Y-54943904D02*
X180082856Y-55058190D01*
X180082856Y-55058190D02*
X180006666Y-55134380D01*
X180006666Y-55134380D02*
X179930475Y-55172476D01*
X181149523Y-55743904D02*
X180692380Y-55743904D01*
X180920952Y-55743904D02*
X180920952Y-54943904D01*
X180920952Y-54943904D02*
X180844761Y-55058190D01*
X180844761Y-55058190D02*
X180768571Y-55134380D01*
X180768571Y-55134380D02*
X180692380Y-55172476D01*
%TO.C,TP25*%
X162149047Y-82995333D02*
X162530000Y-82995333D01*
X162072857Y-83223904D02*
X162339524Y-82423904D01*
X162339524Y-82423904D02*
X162606190Y-83223904D01*
X163253809Y-83223904D02*
X162872857Y-83223904D01*
X162872857Y-83223904D02*
X162872857Y-82423904D01*
X163520476Y-82804857D02*
X163787142Y-82804857D01*
X163901428Y-83223904D02*
X163520476Y-83223904D01*
X163520476Y-83223904D02*
X163520476Y-82423904D01*
X163520476Y-82423904D02*
X163901428Y-82423904D01*
X164701429Y-83223904D02*
X164434762Y-82842952D01*
X164244286Y-83223904D02*
X164244286Y-82423904D01*
X164244286Y-82423904D02*
X164549048Y-82423904D01*
X164549048Y-82423904D02*
X164625238Y-82462000D01*
X164625238Y-82462000D02*
X164663333Y-82500095D01*
X164663333Y-82500095D02*
X164701429Y-82576285D01*
X164701429Y-82576285D02*
X164701429Y-82690571D01*
X164701429Y-82690571D02*
X164663333Y-82766761D01*
X164663333Y-82766761D02*
X164625238Y-82804857D01*
X164625238Y-82804857D02*
X164549048Y-82842952D01*
X164549048Y-82842952D02*
X164244286Y-82842952D01*
X164930000Y-82423904D02*
X165387143Y-82423904D01*
X165158571Y-83223904D02*
X165158571Y-82423904D01*
%TO.C,R18*%
X171257380Y-61842857D02*
X170781190Y-62176190D01*
X171257380Y-62414285D02*
X170257380Y-62414285D01*
X170257380Y-62414285D02*
X170257380Y-62033333D01*
X170257380Y-62033333D02*
X170305000Y-61938095D01*
X170305000Y-61938095D02*
X170352619Y-61890476D01*
X170352619Y-61890476D02*
X170447857Y-61842857D01*
X170447857Y-61842857D02*
X170590714Y-61842857D01*
X170590714Y-61842857D02*
X170685952Y-61890476D01*
X170685952Y-61890476D02*
X170733571Y-61938095D01*
X170733571Y-61938095D02*
X170781190Y-62033333D01*
X170781190Y-62033333D02*
X170781190Y-62414285D01*
X171257380Y-60890476D02*
X171257380Y-61461904D01*
X171257380Y-61176190D02*
X170257380Y-61176190D01*
X170257380Y-61176190D02*
X170400238Y-61271428D01*
X170400238Y-61271428D02*
X170495476Y-61366666D01*
X170495476Y-61366666D02*
X170543095Y-61461904D01*
X170685952Y-60319047D02*
X170638333Y-60414285D01*
X170638333Y-60414285D02*
X170590714Y-60461904D01*
X170590714Y-60461904D02*
X170495476Y-60509523D01*
X170495476Y-60509523D02*
X170447857Y-60509523D01*
X170447857Y-60509523D02*
X170352619Y-60461904D01*
X170352619Y-60461904D02*
X170305000Y-60414285D01*
X170305000Y-60414285D02*
X170257380Y-60319047D01*
X170257380Y-60319047D02*
X170257380Y-60128571D01*
X170257380Y-60128571D02*
X170305000Y-60033333D01*
X170305000Y-60033333D02*
X170352619Y-59985714D01*
X170352619Y-59985714D02*
X170447857Y-59938095D01*
X170447857Y-59938095D02*
X170495476Y-59938095D01*
X170495476Y-59938095D02*
X170590714Y-59985714D01*
X170590714Y-59985714D02*
X170638333Y-60033333D01*
X170638333Y-60033333D02*
X170685952Y-60128571D01*
X170685952Y-60128571D02*
X170685952Y-60319047D01*
X170685952Y-60319047D02*
X170733571Y-60414285D01*
X170733571Y-60414285D02*
X170781190Y-60461904D01*
X170781190Y-60461904D02*
X170876428Y-60509523D01*
X170876428Y-60509523D02*
X171066904Y-60509523D01*
X171066904Y-60509523D02*
X171162142Y-60461904D01*
X171162142Y-60461904D02*
X171209761Y-60414285D01*
X171209761Y-60414285D02*
X171257380Y-60319047D01*
X171257380Y-60319047D02*
X171257380Y-60128571D01*
X171257380Y-60128571D02*
X171209761Y-60033333D01*
X171209761Y-60033333D02*
X171162142Y-59985714D01*
X171162142Y-59985714D02*
X171066904Y-59938095D01*
X171066904Y-59938095D02*
X170876428Y-59938095D01*
X170876428Y-59938095D02*
X170781190Y-59985714D01*
X170781190Y-59985714D02*
X170733571Y-60033333D01*
X170733571Y-60033333D02*
X170685952Y-60128571D01*
%TO.C,R24*%
X179637142Y-59267380D02*
X179303809Y-58791190D01*
X179065714Y-59267380D02*
X179065714Y-58267380D01*
X179065714Y-58267380D02*
X179446666Y-58267380D01*
X179446666Y-58267380D02*
X179541904Y-58315000D01*
X179541904Y-58315000D02*
X179589523Y-58362619D01*
X179589523Y-58362619D02*
X179637142Y-58457857D01*
X179637142Y-58457857D02*
X179637142Y-58600714D01*
X179637142Y-58600714D02*
X179589523Y-58695952D01*
X179589523Y-58695952D02*
X179541904Y-58743571D01*
X179541904Y-58743571D02*
X179446666Y-58791190D01*
X179446666Y-58791190D02*
X179065714Y-58791190D01*
X180018095Y-58362619D02*
X180065714Y-58315000D01*
X180065714Y-58315000D02*
X180160952Y-58267380D01*
X180160952Y-58267380D02*
X180399047Y-58267380D01*
X180399047Y-58267380D02*
X180494285Y-58315000D01*
X180494285Y-58315000D02*
X180541904Y-58362619D01*
X180541904Y-58362619D02*
X180589523Y-58457857D01*
X180589523Y-58457857D02*
X180589523Y-58553095D01*
X180589523Y-58553095D02*
X180541904Y-58695952D01*
X180541904Y-58695952D02*
X179970476Y-59267380D01*
X179970476Y-59267380D02*
X180589523Y-59267380D01*
X181446666Y-58600714D02*
X181446666Y-59267380D01*
X181208571Y-58219761D02*
X180970476Y-58934047D01*
X180970476Y-58934047D02*
X181589523Y-58934047D01*
%TO.C,R22*%
X162843904Y-90344285D02*
X162462952Y-90610952D01*
X162843904Y-90801428D02*
X162043904Y-90801428D01*
X162043904Y-90801428D02*
X162043904Y-90496666D01*
X162043904Y-90496666D02*
X162082000Y-90420476D01*
X162082000Y-90420476D02*
X162120095Y-90382381D01*
X162120095Y-90382381D02*
X162196285Y-90344285D01*
X162196285Y-90344285D02*
X162310571Y-90344285D01*
X162310571Y-90344285D02*
X162386761Y-90382381D01*
X162386761Y-90382381D02*
X162424857Y-90420476D01*
X162424857Y-90420476D02*
X162462952Y-90496666D01*
X162462952Y-90496666D02*
X162462952Y-90801428D01*
X162120095Y-90039524D02*
X162082000Y-90001428D01*
X162082000Y-90001428D02*
X162043904Y-89925238D01*
X162043904Y-89925238D02*
X162043904Y-89734762D01*
X162043904Y-89734762D02*
X162082000Y-89658571D01*
X162082000Y-89658571D02*
X162120095Y-89620476D01*
X162120095Y-89620476D02*
X162196285Y-89582381D01*
X162196285Y-89582381D02*
X162272476Y-89582381D01*
X162272476Y-89582381D02*
X162386761Y-89620476D01*
X162386761Y-89620476D02*
X162843904Y-90077619D01*
X162843904Y-90077619D02*
X162843904Y-89582381D01*
X162120095Y-89277619D02*
X162082000Y-89239523D01*
X162082000Y-89239523D02*
X162043904Y-89163333D01*
X162043904Y-89163333D02*
X162043904Y-88972857D01*
X162043904Y-88972857D02*
X162082000Y-88896666D01*
X162082000Y-88896666D02*
X162120095Y-88858571D01*
X162120095Y-88858571D02*
X162196285Y-88820476D01*
X162196285Y-88820476D02*
X162272476Y-88820476D01*
X162272476Y-88820476D02*
X162386761Y-88858571D01*
X162386761Y-88858571D02*
X162843904Y-89315714D01*
X162843904Y-89315714D02*
X162843904Y-88820476D01*
%TO.C,TP8*%
X169802857Y-63793904D02*
X169802857Y-62993904D01*
X169802857Y-62993904D02*
X170069523Y-63565333D01*
X170069523Y-63565333D02*
X170336190Y-62993904D01*
X170336190Y-62993904D02*
X170336190Y-63793904D01*
X170869524Y-62993904D02*
X171021905Y-62993904D01*
X171021905Y-62993904D02*
X171098095Y-63032000D01*
X171098095Y-63032000D02*
X171174286Y-63108190D01*
X171174286Y-63108190D02*
X171212381Y-63260571D01*
X171212381Y-63260571D02*
X171212381Y-63527238D01*
X171212381Y-63527238D02*
X171174286Y-63679619D01*
X171174286Y-63679619D02*
X171098095Y-63755809D01*
X171098095Y-63755809D02*
X171021905Y-63793904D01*
X171021905Y-63793904D02*
X170869524Y-63793904D01*
X170869524Y-63793904D02*
X170793333Y-63755809D01*
X170793333Y-63755809D02*
X170717143Y-63679619D01*
X170717143Y-63679619D02*
X170679047Y-63527238D01*
X170679047Y-63527238D02*
X170679047Y-63260571D01*
X170679047Y-63260571D02*
X170717143Y-63108190D01*
X170717143Y-63108190D02*
X170793333Y-63032000D01*
X170793333Y-63032000D02*
X170869524Y-62993904D01*
X171517142Y-63755809D02*
X171631428Y-63793904D01*
X171631428Y-63793904D02*
X171821904Y-63793904D01*
X171821904Y-63793904D02*
X171898095Y-63755809D01*
X171898095Y-63755809D02*
X171936190Y-63717714D01*
X171936190Y-63717714D02*
X171974285Y-63641523D01*
X171974285Y-63641523D02*
X171974285Y-63565333D01*
X171974285Y-63565333D02*
X171936190Y-63489142D01*
X171936190Y-63489142D02*
X171898095Y-63451047D01*
X171898095Y-63451047D02*
X171821904Y-63412952D01*
X171821904Y-63412952D02*
X171669523Y-63374857D01*
X171669523Y-63374857D02*
X171593333Y-63336761D01*
X171593333Y-63336761D02*
X171555238Y-63298666D01*
X171555238Y-63298666D02*
X171517142Y-63222476D01*
X171517142Y-63222476D02*
X171517142Y-63146285D01*
X171517142Y-63146285D02*
X171555238Y-63070095D01*
X171555238Y-63070095D02*
X171593333Y-63032000D01*
X171593333Y-63032000D02*
X171669523Y-62993904D01*
X171669523Y-62993904D02*
X171860000Y-62993904D01*
X171860000Y-62993904D02*
X171974285Y-63032000D01*
X172317143Y-63793904D02*
X172317143Y-62993904D01*
%TO.C,C1*%
X183593333Y-90872142D02*
X183545714Y-90919761D01*
X183545714Y-90919761D02*
X183402857Y-90967380D01*
X183402857Y-90967380D02*
X183307619Y-90967380D01*
X183307619Y-90967380D02*
X183164762Y-90919761D01*
X183164762Y-90919761D02*
X183069524Y-90824523D01*
X183069524Y-90824523D02*
X183021905Y-90729285D01*
X183021905Y-90729285D02*
X182974286Y-90538809D01*
X182974286Y-90538809D02*
X182974286Y-90395952D01*
X182974286Y-90395952D02*
X183021905Y-90205476D01*
X183021905Y-90205476D02*
X183069524Y-90110238D01*
X183069524Y-90110238D02*
X183164762Y-90015000D01*
X183164762Y-90015000D02*
X183307619Y-89967380D01*
X183307619Y-89967380D02*
X183402857Y-89967380D01*
X183402857Y-89967380D02*
X183545714Y-90015000D01*
X183545714Y-90015000D02*
X183593333Y-90062619D01*
X184545714Y-90967380D02*
X183974286Y-90967380D01*
X184260000Y-90967380D02*
X184260000Y-89967380D01*
X184260000Y-89967380D02*
X184164762Y-90110238D01*
X184164762Y-90110238D02*
X184069524Y-90205476D01*
X184069524Y-90205476D02*
X183974286Y-90253095D01*
%TO.C,TP24*%
X159713904Y-72656666D02*
X160513904Y-72389999D01*
X160513904Y-72389999D02*
X159713904Y-72123333D01*
X160513904Y-71856666D02*
X159713904Y-71856666D01*
X159713904Y-71856666D02*
X159713904Y-71666190D01*
X159713904Y-71666190D02*
X159752000Y-71551904D01*
X159752000Y-71551904D02*
X159828190Y-71475714D01*
X159828190Y-71475714D02*
X159904380Y-71437619D01*
X159904380Y-71437619D02*
X160056761Y-71399523D01*
X160056761Y-71399523D02*
X160171047Y-71399523D01*
X160171047Y-71399523D02*
X160323428Y-71437619D01*
X160323428Y-71437619D02*
X160399619Y-71475714D01*
X160399619Y-71475714D02*
X160475809Y-71551904D01*
X160475809Y-71551904D02*
X160513904Y-71666190D01*
X160513904Y-71666190D02*
X160513904Y-71856666D01*
X160513904Y-71056666D02*
X159713904Y-71056666D01*
X159713904Y-71056666D02*
X159713904Y-70866190D01*
X159713904Y-70866190D02*
X159752000Y-70751904D01*
X159752000Y-70751904D02*
X159828190Y-70675714D01*
X159828190Y-70675714D02*
X159904380Y-70637619D01*
X159904380Y-70637619D02*
X160056761Y-70599523D01*
X160056761Y-70599523D02*
X160171047Y-70599523D01*
X160171047Y-70599523D02*
X160323428Y-70637619D01*
X160323428Y-70637619D02*
X160399619Y-70675714D01*
X160399619Y-70675714D02*
X160475809Y-70751904D01*
X160475809Y-70751904D02*
X160513904Y-70866190D01*
X160513904Y-70866190D02*
X160513904Y-71056666D01*
%TO.C,TP27*%
X164888571Y-90933904D02*
X165155238Y-91733904D01*
X165155238Y-91733904D02*
X165421904Y-90933904D01*
X166145714Y-91733904D02*
X165879047Y-91352952D01*
X165688571Y-91733904D02*
X165688571Y-90933904D01*
X165688571Y-90933904D02*
X165993333Y-90933904D01*
X165993333Y-90933904D02*
X166069523Y-90972000D01*
X166069523Y-90972000D02*
X166107618Y-91010095D01*
X166107618Y-91010095D02*
X166145714Y-91086285D01*
X166145714Y-91086285D02*
X166145714Y-91200571D01*
X166145714Y-91200571D02*
X166107618Y-91276761D01*
X166107618Y-91276761D02*
X166069523Y-91314857D01*
X166069523Y-91314857D02*
X165993333Y-91352952D01*
X165993333Y-91352952D02*
X165688571Y-91352952D01*
X166488571Y-91314857D02*
X166755237Y-91314857D01*
X166869523Y-91733904D02*
X166488571Y-91733904D01*
X166488571Y-91733904D02*
X166488571Y-90933904D01*
X166488571Y-90933904D02*
X166869523Y-90933904D01*
X167479047Y-91314857D02*
X167212381Y-91314857D01*
X167212381Y-91733904D02*
X167212381Y-90933904D01*
X167212381Y-90933904D02*
X167593333Y-90933904D01*
%TO.C,TP20*%
X159900476Y-74043904D02*
X160357619Y-74043904D01*
X160129047Y-74843904D02*
X160129047Y-74043904D01*
X160548095Y-74043904D02*
X161081429Y-74843904D01*
X161081429Y-74043904D02*
X160548095Y-74843904D01*
%TO.C,R14*%
X159226314Y-80583304D02*
X158959647Y-80202352D01*
X158769171Y-80583304D02*
X158769171Y-79783304D01*
X158769171Y-79783304D02*
X159073933Y-79783304D01*
X159073933Y-79783304D02*
X159150123Y-79821400D01*
X159150123Y-79821400D02*
X159188218Y-79859495D01*
X159188218Y-79859495D02*
X159226314Y-79935685D01*
X159226314Y-79935685D02*
X159226314Y-80049971D01*
X159226314Y-80049971D02*
X159188218Y-80126161D01*
X159188218Y-80126161D02*
X159150123Y-80164257D01*
X159150123Y-80164257D02*
X159073933Y-80202352D01*
X159073933Y-80202352D02*
X158769171Y-80202352D01*
X159988218Y-80583304D02*
X159531075Y-80583304D01*
X159759647Y-80583304D02*
X159759647Y-79783304D01*
X159759647Y-79783304D02*
X159683456Y-79897590D01*
X159683456Y-79897590D02*
X159607266Y-79973780D01*
X159607266Y-79973780D02*
X159531075Y-80011876D01*
X160673933Y-80049971D02*
X160673933Y-80583304D01*
X160483457Y-79745209D02*
X160292980Y-80316638D01*
X160292980Y-80316638D02*
X160788219Y-80316638D01*
%TO.C,C3*%
X180852142Y-70866666D02*
X180899761Y-70914285D01*
X180899761Y-70914285D02*
X180947380Y-71057142D01*
X180947380Y-71057142D02*
X180947380Y-71152380D01*
X180947380Y-71152380D02*
X180899761Y-71295237D01*
X180899761Y-71295237D02*
X180804523Y-71390475D01*
X180804523Y-71390475D02*
X180709285Y-71438094D01*
X180709285Y-71438094D02*
X180518809Y-71485713D01*
X180518809Y-71485713D02*
X180375952Y-71485713D01*
X180375952Y-71485713D02*
X180185476Y-71438094D01*
X180185476Y-71438094D02*
X180090238Y-71390475D01*
X180090238Y-71390475D02*
X179995000Y-71295237D01*
X179995000Y-71295237D02*
X179947380Y-71152380D01*
X179947380Y-71152380D02*
X179947380Y-71057142D01*
X179947380Y-71057142D02*
X179995000Y-70914285D01*
X179995000Y-70914285D02*
X180042619Y-70866666D01*
X179947380Y-70533332D02*
X179947380Y-69914285D01*
X179947380Y-69914285D02*
X180328333Y-70247618D01*
X180328333Y-70247618D02*
X180328333Y-70104761D01*
X180328333Y-70104761D02*
X180375952Y-70009523D01*
X180375952Y-70009523D02*
X180423571Y-69961904D01*
X180423571Y-69961904D02*
X180518809Y-69914285D01*
X180518809Y-69914285D02*
X180756904Y-69914285D01*
X180756904Y-69914285D02*
X180852142Y-69961904D01*
X180852142Y-69961904D02*
X180899761Y-70009523D01*
X180899761Y-70009523D02*
X180947380Y-70104761D01*
X180947380Y-70104761D02*
X180947380Y-70390475D01*
X180947380Y-70390475D02*
X180899761Y-70485713D01*
X180899761Y-70485713D02*
X180852142Y-70533332D01*
%TO.C,R11*%
X183917380Y-54072857D02*
X183441190Y-54406190D01*
X183917380Y-54644285D02*
X182917380Y-54644285D01*
X182917380Y-54644285D02*
X182917380Y-54263333D01*
X182917380Y-54263333D02*
X182965000Y-54168095D01*
X182965000Y-54168095D02*
X183012619Y-54120476D01*
X183012619Y-54120476D02*
X183107857Y-54072857D01*
X183107857Y-54072857D02*
X183250714Y-54072857D01*
X183250714Y-54072857D02*
X183345952Y-54120476D01*
X183345952Y-54120476D02*
X183393571Y-54168095D01*
X183393571Y-54168095D02*
X183441190Y-54263333D01*
X183441190Y-54263333D02*
X183441190Y-54644285D01*
X183917380Y-53120476D02*
X183917380Y-53691904D01*
X183917380Y-53406190D02*
X182917380Y-53406190D01*
X182917380Y-53406190D02*
X183060238Y-53501428D01*
X183060238Y-53501428D02*
X183155476Y-53596666D01*
X183155476Y-53596666D02*
X183203095Y-53691904D01*
X183917380Y-52168095D02*
X183917380Y-52739523D01*
X183917380Y-52453809D02*
X182917380Y-52453809D01*
X182917380Y-52453809D02*
X183060238Y-52549047D01*
X183060238Y-52549047D02*
X183155476Y-52644285D01*
X183155476Y-52644285D02*
X183203095Y-52739523D01*
%TO.C,R9*%
X176223333Y-84037380D02*
X175890000Y-83561190D01*
X175651905Y-84037380D02*
X175651905Y-83037380D01*
X175651905Y-83037380D02*
X176032857Y-83037380D01*
X176032857Y-83037380D02*
X176128095Y-83085000D01*
X176128095Y-83085000D02*
X176175714Y-83132619D01*
X176175714Y-83132619D02*
X176223333Y-83227857D01*
X176223333Y-83227857D02*
X176223333Y-83370714D01*
X176223333Y-83370714D02*
X176175714Y-83465952D01*
X176175714Y-83465952D02*
X176128095Y-83513571D01*
X176128095Y-83513571D02*
X176032857Y-83561190D01*
X176032857Y-83561190D02*
X175651905Y-83561190D01*
X176699524Y-84037380D02*
X176890000Y-84037380D01*
X176890000Y-84037380D02*
X176985238Y-83989761D01*
X176985238Y-83989761D02*
X177032857Y-83942142D01*
X177032857Y-83942142D02*
X177128095Y-83799285D01*
X177128095Y-83799285D02*
X177175714Y-83608809D01*
X177175714Y-83608809D02*
X177175714Y-83227857D01*
X177175714Y-83227857D02*
X177128095Y-83132619D01*
X177128095Y-83132619D02*
X177080476Y-83085000D01*
X177080476Y-83085000D02*
X176985238Y-83037380D01*
X176985238Y-83037380D02*
X176794762Y-83037380D01*
X176794762Y-83037380D02*
X176699524Y-83085000D01*
X176699524Y-83085000D02*
X176651905Y-83132619D01*
X176651905Y-83132619D02*
X176604286Y-83227857D01*
X176604286Y-83227857D02*
X176604286Y-83465952D01*
X176604286Y-83465952D02*
X176651905Y-83561190D01*
X176651905Y-83561190D02*
X176699524Y-83608809D01*
X176699524Y-83608809D02*
X176794762Y-83656428D01*
X176794762Y-83656428D02*
X176985238Y-83656428D01*
X176985238Y-83656428D02*
X177080476Y-83608809D01*
X177080476Y-83608809D02*
X177128095Y-83561190D01*
X177128095Y-83561190D02*
X177175714Y-83465952D01*
%TO.C,TP16*%
X177323810Y-76747904D02*
X177057143Y-76366952D01*
X176866667Y-76747904D02*
X176866667Y-75947904D01*
X176866667Y-75947904D02*
X177171429Y-75947904D01*
X177171429Y-75947904D02*
X177247619Y-75986000D01*
X177247619Y-75986000D02*
X177285714Y-76024095D01*
X177285714Y-76024095D02*
X177323810Y-76100285D01*
X177323810Y-76100285D02*
X177323810Y-76214571D01*
X177323810Y-76214571D02*
X177285714Y-76290761D01*
X177285714Y-76290761D02*
X177247619Y-76328857D01*
X177247619Y-76328857D02*
X177171429Y-76366952D01*
X177171429Y-76366952D02*
X176866667Y-76366952D01*
X177628571Y-76519333D02*
X178009524Y-76519333D01*
X177552381Y-76747904D02*
X177819048Y-75947904D01*
X177819048Y-75947904D02*
X178085714Y-76747904D01*
X178276190Y-75947904D02*
X178771428Y-75947904D01*
X178771428Y-75947904D02*
X178504762Y-76252666D01*
X178504762Y-76252666D02*
X178619047Y-76252666D01*
X178619047Y-76252666D02*
X178695238Y-76290761D01*
X178695238Y-76290761D02*
X178733333Y-76328857D01*
X178733333Y-76328857D02*
X178771428Y-76405047D01*
X178771428Y-76405047D02*
X178771428Y-76595523D01*
X178771428Y-76595523D02*
X178733333Y-76671714D01*
X178733333Y-76671714D02*
X178695238Y-76709809D01*
X178695238Y-76709809D02*
X178619047Y-76747904D01*
X178619047Y-76747904D02*
X178390476Y-76747904D01*
X178390476Y-76747904D02*
X178314285Y-76709809D01*
X178314285Y-76709809D02*
X178276190Y-76671714D01*
%TO.C,R21*%
X164595714Y-93983904D02*
X164329047Y-93602952D01*
X164138571Y-93983904D02*
X164138571Y-93183904D01*
X164138571Y-93183904D02*
X164443333Y-93183904D01*
X164443333Y-93183904D02*
X164519523Y-93222000D01*
X164519523Y-93222000D02*
X164557618Y-93260095D01*
X164557618Y-93260095D02*
X164595714Y-93336285D01*
X164595714Y-93336285D02*
X164595714Y-93450571D01*
X164595714Y-93450571D02*
X164557618Y-93526761D01*
X164557618Y-93526761D02*
X164519523Y-93564857D01*
X164519523Y-93564857D02*
X164443333Y-93602952D01*
X164443333Y-93602952D02*
X164138571Y-93602952D01*
X164900475Y-93260095D02*
X164938571Y-93222000D01*
X164938571Y-93222000D02*
X165014761Y-93183904D01*
X165014761Y-93183904D02*
X165205237Y-93183904D01*
X165205237Y-93183904D02*
X165281428Y-93222000D01*
X165281428Y-93222000D02*
X165319523Y-93260095D01*
X165319523Y-93260095D02*
X165357618Y-93336285D01*
X165357618Y-93336285D02*
X165357618Y-93412476D01*
X165357618Y-93412476D02*
X165319523Y-93526761D01*
X165319523Y-93526761D02*
X164862380Y-93983904D01*
X164862380Y-93983904D02*
X165357618Y-93983904D01*
X166119523Y-93983904D02*
X165662380Y-93983904D01*
X165890952Y-93983904D02*
X165890952Y-93183904D01*
X165890952Y-93183904D02*
X165814761Y-93298190D01*
X165814761Y-93298190D02*
X165738571Y-93374380D01*
X165738571Y-93374380D02*
X165662380Y-93412476D01*
%TO.C,C12*%
X180787714Y-64494285D02*
X180825809Y-64532381D01*
X180825809Y-64532381D02*
X180863904Y-64646666D01*
X180863904Y-64646666D02*
X180863904Y-64722857D01*
X180863904Y-64722857D02*
X180825809Y-64837143D01*
X180825809Y-64837143D02*
X180749619Y-64913333D01*
X180749619Y-64913333D02*
X180673428Y-64951428D01*
X180673428Y-64951428D02*
X180521047Y-64989524D01*
X180521047Y-64989524D02*
X180406761Y-64989524D01*
X180406761Y-64989524D02*
X180254380Y-64951428D01*
X180254380Y-64951428D02*
X180178190Y-64913333D01*
X180178190Y-64913333D02*
X180102000Y-64837143D01*
X180102000Y-64837143D02*
X180063904Y-64722857D01*
X180063904Y-64722857D02*
X180063904Y-64646666D01*
X180063904Y-64646666D02*
X180102000Y-64532381D01*
X180102000Y-64532381D02*
X180140095Y-64494285D01*
X180863904Y-63732381D02*
X180863904Y-64189524D01*
X180863904Y-63960952D02*
X180063904Y-63960952D01*
X180063904Y-63960952D02*
X180178190Y-64037143D01*
X180178190Y-64037143D02*
X180254380Y-64113333D01*
X180254380Y-64113333D02*
X180292476Y-64189524D01*
X180140095Y-63427619D02*
X180102000Y-63389523D01*
X180102000Y-63389523D02*
X180063904Y-63313333D01*
X180063904Y-63313333D02*
X180063904Y-63122857D01*
X180063904Y-63122857D02*
X180102000Y-63046666D01*
X180102000Y-63046666D02*
X180140095Y-63008571D01*
X180140095Y-63008571D02*
X180216285Y-62970476D01*
X180216285Y-62970476D02*
X180292476Y-62970476D01*
X180292476Y-62970476D02*
X180406761Y-63008571D01*
X180406761Y-63008571D02*
X180863904Y-63465714D01*
X180863904Y-63465714D02*
X180863904Y-62970476D01*
%TO.C,U7*%
X153704980Y-89002104D02*
X154514504Y-89002104D01*
X154514504Y-89002104D02*
X154609742Y-88954485D01*
X154609742Y-88954485D02*
X154657361Y-88906866D01*
X154657361Y-88906866D02*
X154704980Y-88811628D01*
X154704980Y-88811628D02*
X154704980Y-88621152D01*
X154704980Y-88621152D02*
X154657361Y-88525914D01*
X154657361Y-88525914D02*
X154609742Y-88478295D01*
X154609742Y-88478295D02*
X154514504Y-88430676D01*
X154514504Y-88430676D02*
X153704980Y-88430676D01*
X153704980Y-88049723D02*
X153704980Y-87383057D01*
X153704980Y-87383057D02*
X154704980Y-87811628D01*
%TO.C,R2*%
X186113333Y-56257380D02*
X185780000Y-55781190D01*
X185541905Y-56257380D02*
X185541905Y-55257380D01*
X185541905Y-55257380D02*
X185922857Y-55257380D01*
X185922857Y-55257380D02*
X186018095Y-55305000D01*
X186018095Y-55305000D02*
X186065714Y-55352619D01*
X186065714Y-55352619D02*
X186113333Y-55447857D01*
X186113333Y-55447857D02*
X186113333Y-55590714D01*
X186113333Y-55590714D02*
X186065714Y-55685952D01*
X186065714Y-55685952D02*
X186018095Y-55733571D01*
X186018095Y-55733571D02*
X185922857Y-55781190D01*
X185922857Y-55781190D02*
X185541905Y-55781190D01*
X186494286Y-55352619D02*
X186541905Y-55305000D01*
X186541905Y-55305000D02*
X186637143Y-55257380D01*
X186637143Y-55257380D02*
X186875238Y-55257380D01*
X186875238Y-55257380D02*
X186970476Y-55305000D01*
X186970476Y-55305000D02*
X187018095Y-55352619D01*
X187018095Y-55352619D02*
X187065714Y-55447857D01*
X187065714Y-55447857D02*
X187065714Y-55543095D01*
X187065714Y-55543095D02*
X187018095Y-55685952D01*
X187018095Y-55685952D02*
X186446667Y-56257380D01*
X186446667Y-56257380D02*
X187065714Y-56257380D01*
%TO.C,TP4*%
X173266667Y-87797714D02*
X173228571Y-87835809D01*
X173228571Y-87835809D02*
X173114286Y-87873904D01*
X173114286Y-87873904D02*
X173038095Y-87873904D01*
X173038095Y-87873904D02*
X172923809Y-87835809D01*
X172923809Y-87835809D02*
X172847619Y-87759619D01*
X172847619Y-87759619D02*
X172809524Y-87683428D01*
X172809524Y-87683428D02*
X172771428Y-87531047D01*
X172771428Y-87531047D02*
X172771428Y-87416761D01*
X172771428Y-87416761D02*
X172809524Y-87264380D01*
X172809524Y-87264380D02*
X172847619Y-87188190D01*
X172847619Y-87188190D02*
X172923809Y-87112000D01*
X172923809Y-87112000D02*
X173038095Y-87073904D01*
X173038095Y-87073904D02*
X173114286Y-87073904D01*
X173114286Y-87073904D02*
X173228571Y-87112000D01*
X173228571Y-87112000D02*
X173266667Y-87150095D01*
X173571428Y-87645333D02*
X173952381Y-87645333D01*
X173495238Y-87873904D02*
X173761905Y-87073904D01*
X173761905Y-87073904D02*
X174028571Y-87873904D01*
X174295238Y-87873904D02*
X174295238Y-87073904D01*
X174295238Y-87073904D02*
X174752381Y-87873904D01*
X174752381Y-87873904D02*
X174752381Y-87073904D01*
X175133333Y-87873904D02*
X175133333Y-87073904D01*
X175133333Y-87454857D02*
X175590476Y-87454857D01*
X175590476Y-87873904D02*
X175590476Y-87073904D01*
%TO.C,J2*%
X168106666Y-48537380D02*
X168106666Y-49251666D01*
X168106666Y-49251666D02*
X168059047Y-49394523D01*
X168059047Y-49394523D02*
X167963809Y-49489761D01*
X167963809Y-49489761D02*
X167820952Y-49537380D01*
X167820952Y-49537380D02*
X167725714Y-49537380D01*
X168535238Y-48632619D02*
X168582857Y-48585000D01*
X168582857Y-48585000D02*
X168678095Y-48537380D01*
X168678095Y-48537380D02*
X168916190Y-48537380D01*
X168916190Y-48537380D02*
X169011428Y-48585000D01*
X169011428Y-48585000D02*
X169059047Y-48632619D01*
X169059047Y-48632619D02*
X169106666Y-48727857D01*
X169106666Y-48727857D02*
X169106666Y-48823095D01*
X169106666Y-48823095D02*
X169059047Y-48965952D01*
X169059047Y-48965952D02*
X168487619Y-49537380D01*
X168487619Y-49537380D02*
X169106666Y-49537380D01*
%TO.C,U2*%
X170958095Y-56757380D02*
X170958095Y-57566904D01*
X170958095Y-57566904D02*
X171005714Y-57662142D01*
X171005714Y-57662142D02*
X171053333Y-57709761D01*
X171053333Y-57709761D02*
X171148571Y-57757380D01*
X171148571Y-57757380D02*
X171339047Y-57757380D01*
X171339047Y-57757380D02*
X171434285Y-57709761D01*
X171434285Y-57709761D02*
X171481904Y-57662142D01*
X171481904Y-57662142D02*
X171529523Y-57566904D01*
X171529523Y-57566904D02*
X171529523Y-56757380D01*
X171958095Y-56852619D02*
X172005714Y-56805000D01*
X172005714Y-56805000D02*
X172100952Y-56757380D01*
X172100952Y-56757380D02*
X172339047Y-56757380D01*
X172339047Y-56757380D02*
X172434285Y-56805000D01*
X172434285Y-56805000D02*
X172481904Y-56852619D01*
X172481904Y-56852619D02*
X172529523Y-56947857D01*
X172529523Y-56947857D02*
X172529523Y-57043095D01*
X172529523Y-57043095D02*
X172481904Y-57185952D01*
X172481904Y-57185952D02*
X171910476Y-57757380D01*
X171910476Y-57757380D02*
X172529523Y-57757380D01*
%TO.C,TP5*%
X164911905Y-87757714D02*
X164873809Y-87795809D01*
X164873809Y-87795809D02*
X164759524Y-87833904D01*
X164759524Y-87833904D02*
X164683333Y-87833904D01*
X164683333Y-87833904D02*
X164569047Y-87795809D01*
X164569047Y-87795809D02*
X164492857Y-87719619D01*
X164492857Y-87719619D02*
X164454762Y-87643428D01*
X164454762Y-87643428D02*
X164416666Y-87491047D01*
X164416666Y-87491047D02*
X164416666Y-87376761D01*
X164416666Y-87376761D02*
X164454762Y-87224380D01*
X164454762Y-87224380D02*
X164492857Y-87148190D01*
X164492857Y-87148190D02*
X164569047Y-87072000D01*
X164569047Y-87072000D02*
X164683333Y-87033904D01*
X164683333Y-87033904D02*
X164759524Y-87033904D01*
X164759524Y-87033904D02*
X164873809Y-87072000D01*
X164873809Y-87072000D02*
X164911905Y-87110095D01*
X165216666Y-87605333D02*
X165597619Y-87605333D01*
X165140476Y-87833904D02*
X165407143Y-87033904D01*
X165407143Y-87033904D02*
X165673809Y-87833904D01*
X165940476Y-87833904D02*
X165940476Y-87033904D01*
X165940476Y-87033904D02*
X166397619Y-87833904D01*
X166397619Y-87833904D02*
X166397619Y-87033904D01*
X167159523Y-87833904D02*
X166778571Y-87833904D01*
X166778571Y-87833904D02*
X166778571Y-87033904D01*
%TO.C,R16*%
X167187380Y-61822857D02*
X166711190Y-62156190D01*
X167187380Y-62394285D02*
X166187380Y-62394285D01*
X166187380Y-62394285D02*
X166187380Y-62013333D01*
X166187380Y-62013333D02*
X166235000Y-61918095D01*
X166235000Y-61918095D02*
X166282619Y-61870476D01*
X166282619Y-61870476D02*
X166377857Y-61822857D01*
X166377857Y-61822857D02*
X166520714Y-61822857D01*
X166520714Y-61822857D02*
X166615952Y-61870476D01*
X166615952Y-61870476D02*
X166663571Y-61918095D01*
X166663571Y-61918095D02*
X166711190Y-62013333D01*
X166711190Y-62013333D02*
X166711190Y-62394285D01*
X167187380Y-60870476D02*
X167187380Y-61441904D01*
X167187380Y-61156190D02*
X166187380Y-61156190D01*
X166187380Y-61156190D02*
X166330238Y-61251428D01*
X166330238Y-61251428D02*
X166425476Y-61346666D01*
X166425476Y-61346666D02*
X166473095Y-61441904D01*
X166187380Y-60013333D02*
X166187380Y-60203809D01*
X166187380Y-60203809D02*
X166235000Y-60299047D01*
X166235000Y-60299047D02*
X166282619Y-60346666D01*
X166282619Y-60346666D02*
X166425476Y-60441904D01*
X166425476Y-60441904D02*
X166615952Y-60489523D01*
X166615952Y-60489523D02*
X166996904Y-60489523D01*
X166996904Y-60489523D02*
X167092142Y-60441904D01*
X167092142Y-60441904D02*
X167139761Y-60394285D01*
X167139761Y-60394285D02*
X167187380Y-60299047D01*
X167187380Y-60299047D02*
X167187380Y-60108571D01*
X167187380Y-60108571D02*
X167139761Y-60013333D01*
X167139761Y-60013333D02*
X167092142Y-59965714D01*
X167092142Y-59965714D02*
X166996904Y-59918095D01*
X166996904Y-59918095D02*
X166758809Y-59918095D01*
X166758809Y-59918095D02*
X166663571Y-59965714D01*
X166663571Y-59965714D02*
X166615952Y-60013333D01*
X166615952Y-60013333D02*
X166568333Y-60108571D01*
X166568333Y-60108571D02*
X166568333Y-60299047D01*
X166568333Y-60299047D02*
X166615952Y-60394285D01*
X166615952Y-60394285D02*
X166663571Y-60441904D01*
X166663571Y-60441904D02*
X166758809Y-60489523D01*
%TO.C,TP17*%
X177303810Y-75623904D02*
X177037143Y-75242952D01*
X176846667Y-75623904D02*
X176846667Y-74823904D01*
X176846667Y-74823904D02*
X177151429Y-74823904D01*
X177151429Y-74823904D02*
X177227619Y-74862000D01*
X177227619Y-74862000D02*
X177265714Y-74900095D01*
X177265714Y-74900095D02*
X177303810Y-74976285D01*
X177303810Y-74976285D02*
X177303810Y-75090571D01*
X177303810Y-75090571D02*
X177265714Y-75166761D01*
X177265714Y-75166761D02*
X177227619Y-75204857D01*
X177227619Y-75204857D02*
X177151429Y-75242952D01*
X177151429Y-75242952D02*
X176846667Y-75242952D01*
X177608571Y-75395333D02*
X177989524Y-75395333D01*
X177532381Y-75623904D02*
X177799048Y-74823904D01*
X177799048Y-74823904D02*
X178065714Y-75623904D01*
X178675238Y-75090571D02*
X178675238Y-75623904D01*
X178484762Y-74785809D02*
X178294285Y-75357238D01*
X178294285Y-75357238D02*
X178789524Y-75357238D01*
%TO.C,C7*%
X177017714Y-56213332D02*
X177055809Y-56251428D01*
X177055809Y-56251428D02*
X177093904Y-56365713D01*
X177093904Y-56365713D02*
X177093904Y-56441904D01*
X177093904Y-56441904D02*
X177055809Y-56556190D01*
X177055809Y-56556190D02*
X176979619Y-56632380D01*
X176979619Y-56632380D02*
X176903428Y-56670475D01*
X176903428Y-56670475D02*
X176751047Y-56708571D01*
X176751047Y-56708571D02*
X176636761Y-56708571D01*
X176636761Y-56708571D02*
X176484380Y-56670475D01*
X176484380Y-56670475D02*
X176408190Y-56632380D01*
X176408190Y-56632380D02*
X176332000Y-56556190D01*
X176332000Y-56556190D02*
X176293904Y-56441904D01*
X176293904Y-56441904D02*
X176293904Y-56365713D01*
X176293904Y-56365713D02*
X176332000Y-56251428D01*
X176332000Y-56251428D02*
X176370095Y-56213332D01*
X176293904Y-55946666D02*
X176293904Y-55413332D01*
X176293904Y-55413332D02*
X177093904Y-55756190D01*
%TO.C,R7*%
X172223655Y-50273401D02*
X171747465Y-50606734D01*
X172223655Y-50844829D02*
X171223655Y-50844829D01*
X171223655Y-50844829D02*
X171223655Y-50463877D01*
X171223655Y-50463877D02*
X171271275Y-50368639D01*
X171271275Y-50368639D02*
X171318894Y-50321020D01*
X171318894Y-50321020D02*
X171414132Y-50273401D01*
X171414132Y-50273401D02*
X171556989Y-50273401D01*
X171556989Y-50273401D02*
X171652227Y-50321020D01*
X171652227Y-50321020D02*
X171699846Y-50368639D01*
X171699846Y-50368639D02*
X171747465Y-50463877D01*
X171747465Y-50463877D02*
X171747465Y-50844829D01*
X171223655Y-49940067D02*
X171223655Y-49273401D01*
X171223655Y-49273401D02*
X172223655Y-49701972D01*
%TO.C,U5*%
X165770476Y-63073904D02*
X165770476Y-63721523D01*
X165770476Y-63721523D02*
X165808571Y-63797714D01*
X165808571Y-63797714D02*
X165846666Y-63835809D01*
X165846666Y-63835809D02*
X165922857Y-63873904D01*
X165922857Y-63873904D02*
X166075238Y-63873904D01*
X166075238Y-63873904D02*
X166151428Y-63835809D01*
X166151428Y-63835809D02*
X166189523Y-63797714D01*
X166189523Y-63797714D02*
X166227619Y-63721523D01*
X166227619Y-63721523D02*
X166227619Y-63073904D01*
X166989523Y-63073904D02*
X166608571Y-63073904D01*
X166608571Y-63073904D02*
X166570475Y-63454857D01*
X166570475Y-63454857D02*
X166608571Y-63416761D01*
X166608571Y-63416761D02*
X166684761Y-63378666D01*
X166684761Y-63378666D02*
X166875237Y-63378666D01*
X166875237Y-63378666D02*
X166951428Y-63416761D01*
X166951428Y-63416761D02*
X166989523Y-63454857D01*
X166989523Y-63454857D02*
X167027618Y-63531047D01*
X167027618Y-63531047D02*
X167027618Y-63721523D01*
X167027618Y-63721523D02*
X166989523Y-63797714D01*
X166989523Y-63797714D02*
X166951428Y-63835809D01*
X166951428Y-63835809D02*
X166875237Y-63873904D01*
X166875237Y-63873904D02*
X166684761Y-63873904D01*
X166684761Y-63873904D02*
X166608571Y-63835809D01*
X166608571Y-63835809D02*
X166570475Y-63797714D01*
%TO.C,C4*%
X177342142Y-90986666D02*
X177389761Y-91034285D01*
X177389761Y-91034285D02*
X177437380Y-91177142D01*
X177437380Y-91177142D02*
X177437380Y-91272380D01*
X177437380Y-91272380D02*
X177389761Y-91415237D01*
X177389761Y-91415237D02*
X177294523Y-91510475D01*
X177294523Y-91510475D02*
X177199285Y-91558094D01*
X177199285Y-91558094D02*
X177008809Y-91605713D01*
X177008809Y-91605713D02*
X176865952Y-91605713D01*
X176865952Y-91605713D02*
X176675476Y-91558094D01*
X176675476Y-91558094D02*
X176580238Y-91510475D01*
X176580238Y-91510475D02*
X176485000Y-91415237D01*
X176485000Y-91415237D02*
X176437380Y-91272380D01*
X176437380Y-91272380D02*
X176437380Y-91177142D01*
X176437380Y-91177142D02*
X176485000Y-91034285D01*
X176485000Y-91034285D02*
X176532619Y-90986666D01*
X176770714Y-90129523D02*
X177437380Y-90129523D01*
X176389761Y-90367618D02*
X177104047Y-90605713D01*
X177104047Y-90605713D02*
X177104047Y-89986666D01*
D12*
%TO.C,R20*%
X161810000Y-84953641D02*
X161810000Y-84646359D01*
X162570000Y-84953641D02*
X162570000Y-84646359D01*
%TO.C,R15*%
X172600000Y-61646359D02*
X172600000Y-61953641D01*
X171840000Y-61646359D02*
X171840000Y-61953641D01*
%TO.C,C5*%
X161830000Y-70642164D02*
X161830000Y-70857836D01*
X161110000Y-70642164D02*
X161110000Y-70857836D01*
%TO.C,R1*%
X176270000Y-51966359D02*
X176270000Y-52273641D01*
X175510000Y-51966359D02*
X175510000Y-52273641D01*
%TO.C,C20*%
X177370000Y-52002164D02*
X177370000Y-52217836D01*
X176650000Y-52002164D02*
X176650000Y-52217836D01*
%TO.C,TP2*%
X178174833Y-59100000D02*
G75*
G03*
X178174833Y-59100000I-374833J0D01*
G01*
%TO.C,R8*%
X174150000Y-62513641D02*
X174150000Y-62206359D01*
X174910000Y-62513641D02*
X174910000Y-62206359D01*
%TO.C,5V_PIC1*%
X158414833Y-73020000D02*
G75*
G03*
X158414833Y-73020000I-374833J0D01*
G01*
%TO.C,TP23*%
X162434833Y-75580000D02*
G75*
G03*
X162434833Y-75580000I-374833J0D01*
G01*
%TO.C,TP13*%
X176274833Y-80200000D02*
G75*
G03*
X176274833Y-80200000I-374833J0D01*
G01*
%TO.C,C10*%
X173847836Y-53010000D02*
X173632164Y-53010000D01*
X173847836Y-52290000D02*
X173632164Y-52290000D01*
%TO.C,TP21*%
X161214833Y-73190000D02*
G75*
G03*
X161214833Y-73190000I-374833J0D01*
G01*
%TO.C,TP14*%
X176424833Y-78980000D02*
G75*
G03*
X176424833Y-78980000I-374833J0D01*
G01*
%TO.C,R19*%
X161390000Y-84636359D02*
X161390000Y-84943641D01*
X160630000Y-84636359D02*
X160630000Y-84943641D01*
%TO.C,TP7*%
X176694833Y-64160000D02*
G75*
G03*
X176694833Y-64160000I-374833J0D01*
G01*
%TO.C,JP1*%
X177020000Y-87040000D02*
X176420000Y-87040000D01*
X175720000Y-86340000D02*
X175720000Y-84940000D01*
X177720000Y-84940000D02*
X177720000Y-86340000D01*
X176420000Y-84240000D02*
X177020000Y-84240000D01*
X175720000Y-86340000D02*
G75*
G03*
X176420000Y-87040000I699999J-1D01*
G01*
X177020000Y-87040000D02*
G75*
G03*
X177720000Y-86340000I1J699999D01*
G01*
X176420000Y-84240000D02*
G75*
G03*
X175720000Y-84940000I0J-700000D01*
G01*
X177720000Y-84940000D02*
G75*
G03*
X177020000Y-84240000I-700000J0D01*
G01*
%TO.C,C19*%
X170140000Y-52257836D02*
X170140000Y-52042164D01*
X170860000Y-52257836D02*
X170860000Y-52042164D01*
%TO.C,R10*%
X161052500Y-67452742D02*
X161052500Y-67927258D01*
X160007500Y-67452742D02*
X160007500Y-67927258D01*
D13*
%TO.C,Y2*%
X182580000Y-73170000D02*
X182580000Y-61770000D01*
X183330000Y-73170000D02*
X182580000Y-73170000D01*
X187280000Y-73170000D02*
X186530000Y-73170000D01*
X182580000Y-61770000D02*
X183330000Y-61770000D01*
X186530000Y-61770000D02*
X187280000Y-61770000D01*
X187280000Y-61770000D02*
X187280000Y-73170000D01*
D12*
%TO.C,C6*%
X169917836Y-83930000D02*
X169702164Y-83930000D01*
X169917836Y-83210000D02*
X169702164Y-83210000D01*
%TO.C,U3*%
X172560000Y-87880000D02*
X172560000Y-84430000D01*
X172560000Y-87880000D02*
X172560000Y-89830000D01*
X167440000Y-87880000D02*
X167440000Y-85930000D01*
X167440000Y-87880000D02*
X167440000Y-89830000D01*
D14*
X173300000Y-85340000D02*
G75*
G03*
X173300000Y-85340000I-180000J0D01*
G01*
D15*
%TO.C,U4*%
X178529000Y-87279900D02*
X180878019Y-87279900D01*
X182021981Y-87279900D02*
X183418019Y-87279900D01*
X184561981Y-87279900D02*
X188498019Y-87279900D01*
X189641981Y-87279900D02*
X191991000Y-87279900D01*
X191991000Y-87279900D02*
X191991000Y-78720100D01*
X178529000Y-78720100D02*
X178529000Y-87279900D01*
X180878019Y-78720100D02*
X178529000Y-78720100D01*
X188498019Y-78720100D02*
X182021981Y-78720100D01*
X191991000Y-78720100D02*
X189641981Y-78720100D01*
D14*
X180500000Y-88390000D02*
G75*
G03*
X180500000Y-88390000I-180000J0D01*
G01*
D12*
%TO.C,C15*%
X178327836Y-53920000D02*
X178112164Y-53920000D01*
X178327836Y-53200000D02*
X178112164Y-53200000D01*
%TO.C,R5*%
X161923641Y-81880000D02*
X161616359Y-81880000D01*
X161923641Y-81120000D02*
X161616359Y-81120000D01*
D13*
%TO.C,J1*%
X158875000Y-75785000D02*
X158875000Y-79215000D01*
X154850000Y-79215000D02*
X154850000Y-75785000D01*
D16*
X159640000Y-75465000D02*
G75*
G03*
X159640000Y-75465000I-200000J0D01*
G01*
D12*
%TO.C,R26*%
X178596359Y-68130000D02*
X178903641Y-68130000D01*
X178596359Y-67370000D02*
X178903641Y-67370000D01*
%TO.C,TP10*%
X176134833Y-67160000D02*
G75*
G03*
X176134833Y-67160000I-374833J0D01*
G01*
%TO.C,R4*%
X178606359Y-66120000D02*
X178913641Y-66120000D01*
X178606359Y-66880000D02*
X178913641Y-66880000D01*
%TO.C,TP6*%
X175894833Y-63370000D02*
G75*
G03*
X175894833Y-63370000I-374833J0D01*
G01*
%TO.C,C17*%
X162960000Y-70612164D02*
X162960000Y-70827836D01*
X162240000Y-70612164D02*
X162240000Y-70827836D01*
%TO.C,TP1*%
X161234833Y-93620000D02*
G75*
G03*
X161234833Y-93620000I-374833J0D01*
G01*
%TO.C,TP11*%
X176144833Y-65880000D02*
G75*
G03*
X176144833Y-65880000I-374833J0D01*
G01*
%TO.C,C18*%
X173877836Y-51940000D02*
X173662164Y-51940000D01*
X173877836Y-51220000D02*
X173662164Y-51220000D01*
%TO.C,TP15*%
X176514833Y-77620000D02*
G75*
G03*
X176514833Y-77620000I-374833J0D01*
G01*
%TO.C,TP9*%
X181404833Y-53930000D02*
G75*
G03*
X181404833Y-53930000I-374833J0D01*
G01*
%TO.C,TP18*%
X176534833Y-73840000D02*
G75*
G03*
X176534833Y-73840000I-374833J0D01*
G01*
%TO.C,TP22*%
X162544833Y-72540000D02*
G75*
G03*
X162544833Y-72540000I-374833J0D01*
G01*
%TO.C,R25*%
X174243641Y-90370000D02*
X173936359Y-90370000D01*
X174243641Y-89610000D02*
X173936359Y-89610000D01*
%TO.C,R17*%
X176140000Y-61676359D02*
X176140000Y-61983641D01*
X175380000Y-61676359D02*
X175380000Y-61983641D01*
%TO.C,TP3*%
X177004833Y-93530000D02*
G75*
G03*
X177004833Y-93530000I-374833J0D01*
G01*
%TO.C,C11*%
X178357836Y-54980000D02*
X178142164Y-54980000D01*
X178357836Y-54260000D02*
X178142164Y-54260000D01*
%TO.C,TP25*%
X163044833Y-78890000D02*
G75*
G03*
X163044833Y-78890000I-374833J0D01*
G01*
%TO.C,R18*%
X177250000Y-61666359D02*
X177250000Y-61973641D01*
X176490000Y-61666359D02*
X176490000Y-61973641D01*
%TO.C,R24*%
X180577258Y-57812500D02*
X180102742Y-57812500D01*
X180577258Y-56767500D02*
X180102742Y-56767500D01*
%TO.C,R22*%
X162030000Y-92083641D02*
X162030000Y-91776359D01*
X162790000Y-92083641D02*
X162790000Y-91776359D01*
%TO.C,TP8*%
X169444833Y-63210000D02*
G75*
G03*
X169444833Y-63210000I-374833J0D01*
G01*
%TO.C,C1*%
X182047836Y-90580000D02*
X181832164Y-90580000D01*
X182047836Y-89860000D02*
X181832164Y-89860000D01*
%TO.C,TP24*%
X160884833Y-69960000D02*
G75*
G03*
X160884833Y-69960000I-374833J0D01*
G01*
%TO.C,TP27*%
X166594833Y-90340000D02*
G75*
G03*
X166594833Y-90340000I-374833J0D01*
G01*
%TO.C,TP20*%
X162464833Y-74440000D02*
G75*
G03*
X162464833Y-74440000I-374833J0D01*
G01*
%TO.C,R14*%
X161913641Y-80630000D02*
X161606359Y-80630000D01*
X161913641Y-79870000D02*
X161606359Y-79870000D01*
%TO.C,C3*%
X180840000Y-68152164D02*
X180840000Y-68367836D01*
X180120000Y-68152164D02*
X180120000Y-68367836D01*
%TO.C,R11*%
X183869000Y-56162936D02*
X183869000Y-56617064D01*
X182399000Y-56162936D02*
X182399000Y-56617064D01*
%TO.C,R9*%
X174523641Y-83930000D02*
X174216359Y-83930000D01*
X174523641Y-83170000D02*
X174216359Y-83170000D01*
%TO.C,TP16*%
X176544833Y-76390000D02*
G75*
G03*
X176544833Y-76390000I-374833J0D01*
G01*
%TO.C,R21*%
X162806359Y-93230000D02*
X163113641Y-93230000D01*
X162806359Y-93990000D02*
X163113641Y-93990000D01*
%TO.C,C12*%
X180080000Y-66087836D02*
X180080000Y-65872164D01*
X180800000Y-66087836D02*
X180800000Y-65872164D01*
D13*
%TO.C,U7*%
X159935000Y-83090000D02*
X159935000Y-85190000D01*
X159840000Y-85540000D02*
X159840000Y-91340000D01*
X155240000Y-85540000D02*
X159840000Y-85540000D01*
X159840000Y-91340000D02*
X155240000Y-91340000D01*
X155240000Y-91340000D02*
X155240000Y-85540000D01*
D14*
X159140000Y-82430000D02*
G75*
G03*
X159140000Y-82430000I-180000J0D01*
G01*
D12*
%TO.C,R2*%
X186022936Y-56615000D02*
X186477064Y-56615000D01*
X186022936Y-58085000D02*
X186477064Y-58085000D01*
%TO.C,TP4*%
X173744833Y-88560000D02*
G75*
G03*
X173744833Y-88560000I-374833J0D01*
G01*
%TO.C,J2*%
X216250000Y-47740000D02*
X131250000Y-47740000D01*
X216250000Y-27240000D02*
X216250000Y-47740000D01*
X216250000Y-27240000D02*
X131250000Y-27240000D01*
X181250000Y-47690000D02*
X181250000Y-27290000D01*
X173750000Y-27240000D02*
X165750000Y-27240000D01*
X166250000Y-47740000D02*
X166250000Y-27240000D01*
X131250000Y-27240000D02*
X131250000Y-47740000D01*
D13*
%TO.C,U2*%
X173000000Y-60100000D02*
X173000000Y-58700000D01*
X173000000Y-58350000D02*
X173000000Y-56050000D01*
X176000000Y-58350000D02*
X173000000Y-58350000D01*
X173000000Y-56050000D02*
X176000000Y-56050000D01*
X176000000Y-56050000D02*
X176000000Y-58350000D01*
D14*
X172490000Y-59490000D02*
G75*
G03*
X172490000Y-59490000I-180000J0D01*
G01*
D12*
%TO.C,TP5*%
X167144833Y-88540000D02*
G75*
G03*
X167144833Y-88540000I-374833J0D01*
G01*
%TO.C,R16*%
X173710000Y-61646359D02*
X173710000Y-61953641D01*
X172950000Y-61646359D02*
X172950000Y-61953641D01*
%TO.C,TP17*%
X176564833Y-75100000D02*
G75*
G03*
X176564833Y-75100000I-374833J0D01*
G01*
%TO.C,C7*%
X177290000Y-56782580D02*
X177290000Y-56501420D01*
X178310000Y-56782580D02*
X178310000Y-56501420D01*
%TO.C,R7*%
X172080000Y-51996359D02*
X172080000Y-52303641D01*
X171320000Y-51996359D02*
X171320000Y-52303641D01*
D13*
%TO.C,U5*%
X174785000Y-82125000D02*
X172935000Y-82125000D01*
X172585000Y-82145000D02*
X165785000Y-82145000D01*
X172585000Y-64245000D02*
X172585000Y-82145000D01*
X165785000Y-82145000D02*
X165785000Y-64245000D01*
X165785000Y-64245000D02*
X172585000Y-64245000D01*
D14*
X174865000Y-82615000D02*
G75*
G03*
X174865000Y-82615000I-180000J0D01*
G01*
D12*
%TO.C,C4*%
X177040000Y-88392164D02*
X177040000Y-88607836D01*
X176320000Y-88392164D02*
X176320000Y-88607836D01*
%TD*%
D17*
X155000000Y-100750000D02*
X192500000Y-100750000D01*
X155000000Y-26500000D02*
X192500000Y-26500000D01*
X153500000Y-47500000D02*
X153500000Y-99250000D01*
X153500000Y-99250000D02*
G75*
G03*
X155000000Y-100750000I1500000J0D01*
G01*
X194000000Y-48375000D02*
X194000000Y-99250000D01*
X192500000Y-100750000D02*
G75*
G03*
X194000000Y-99250000I0J1500000D01*
G01*
X155000000Y-26500000D02*
G75*
G03*
X153500000Y-28000000I0J-1500000D01*
G01*
X194000000Y-28000000D02*
G75*
G03*
X192500000Y-26500000I-1500000J0D01*
G01*
X153500000Y-47500000D02*
X153500000Y-28000000D01*
X194000000Y-28000000D02*
X194000000Y-48375000D01*
M02*
