%TF.GenerationSoftware,KiCad,Pcbnew,(7.0.0)*%
%TF.CreationDate,2023-07-13T15:07:20+05:30*%
%TF.ProjectId,EMO current sense INA190,454d4f20-6375-4727-9265-6e742073656e,1*%
%TF.SameCoordinates,Original*%
%TF.FileFunction,Soldermask,Bot*%
%TF.FilePolarity,Negative*%
%FSLAX46Y46*%
G04 Gerber Fmt 4.6, Leading zero omitted, Abs format (unit mm)*
G04 Created by KiCad (PCBNEW (7.0.0)) date 2023-07-13 15:07:20*
%MOMM*%
%LPD*%
G01*
G04 APERTURE LIST*
G04 Aperture macros list*
%AMRoundRect*
0 Rectangle with rounded corners*
0 $1 Rounding radius*
0 $2 $3 $4 $5 $6 $7 $8 $9 X,Y pos of 4 corners*
0 Add a 4 corners polygon primitive as box body*
4,1,4,$2,$3,$4,$5,$6,$7,$8,$9,$2,$3,0*
0 Add four circle primitives for the rounded corners*
1,1,$1+$1,$2,$3*
1,1,$1+$1,$4,$5*
1,1,$1+$1,$6,$7*
1,1,$1+$1,$8,$9*
0 Add four rect primitives between the rounded corners*
20,1,$1+$1,$2,$3,$4,$5,0*
20,1,$1+$1,$4,$5,$6,$7,0*
20,1,$1+$1,$6,$7,$8,$9,0*
20,1,$1+$1,$8,$9,$2,$3,0*%
G04 Aperture macros list end*
%ADD10C,2.400000*%
%ADD11RoundRect,0.100000X1.000000X1.500000X-1.000000X1.500000X-1.000000X-1.500000X1.000000X-1.500000X0*%
%ADD12RoundRect,0.100000X-1.000000X-1.500000X1.000000X-1.500000X1.000000X1.500000X-1.000000X1.500000X0*%
%ADD13RoundRect,0.300000X-0.275000X0.200000X-0.275000X-0.200000X0.275000X-0.200000X0.275000X0.200000X0*%
%ADD14RoundRect,0.240000X-0.140000X-0.170000X0.140000X-0.170000X0.140000X0.170000X-0.140000X0.170000X0*%
%ADD15RoundRect,0.240000X0.170000X-0.140000X0.170000X0.140000X-0.170000X0.140000X-0.170000X-0.140000X0*%
%ADD16RoundRect,0.100000X0.325000X0.825000X-0.325000X0.825000X-0.325000X-0.825000X0.325000X-0.825000X0*%
%ADD17RoundRect,0.250000X0.150000X0.700000X-0.150000X0.700000X-0.150000X-0.700000X0.150000X-0.700000X0*%
%ADD18RoundRect,0.350000X0.250000X1.100000X-0.250000X1.100000X-0.250000X-1.100000X0.250000X-1.100000X0*%
%ADD19RoundRect,0.300000X-0.200000X-0.275000X0.200000X-0.275000X0.200000X0.275000X-0.200000X0.275000X0*%
%ADD20RoundRect,0.240000X-0.170000X0.140000X-0.170000X-0.140000X0.170000X-0.140000X0.170000X0.140000X0*%
%ADD21C,2.000000*%
%ADD22RoundRect,0.100000X0.325000X0.800000X-0.325000X0.800000X-0.325000X-0.800000X0.325000X-0.800000X0*%
%ADD23RoundRect,0.300000X0.200000X0.275000X-0.200000X0.275000X-0.200000X-0.275000X0.200000X-0.275000X0*%
%ADD24RoundRect,0.100000X0.575000X-0.300000X0.575000X0.300000X-0.575000X0.300000X-0.575000X-0.300000X0*%
%ADD25RoundRect,0.300000X0.275000X-0.200000X0.275000X0.200000X-0.275000X0.200000X-0.275000X-0.200000X0*%
%ADD26RoundRect,0.235000X-0.185000X0.135000X-0.185000X-0.135000X0.185000X-0.135000X0.185000X0.135000X0*%
%ADD27RoundRect,0.350000X-0.600000X-0.750000X0.600000X-0.750000X0.600000X0.750000X-0.600000X0.750000X0*%
%ADD28O,1.900000X2.200000*%
%ADD29RoundRect,0.240000X0.140000X0.170000X-0.140000X0.170000X-0.140000X-0.170000X0.140000X-0.170000X0*%
%ADD30RoundRect,0.350000X0.262500X0.450000X-0.262500X0.450000X-0.262500X-0.450000X0.262500X-0.450000X0*%
%TA.AperFunction,Profile*%
%ADD31C,0.100000*%
%TD*%
G04 APERTURE END LIST*
D10*
%TO.C,H2*%
X191480000Y-98230000D03*
%TD*%
%TO.C,H1*%
X156030000Y-98230000D03*
%TD*%
%TO.C,H3*%
X191470000Y-52780000D03*
%TD*%
%TO.C,H4*%
X156020000Y-52720000D03*
%TD*%
D11*
%TO.C,J2*%
X182650000Y-37390000D03*
D12*
X164850000Y-37340000D03*
%TD*%
D13*
%TO.C,R13*%
X191160000Y-79415000D03*
X191160000Y-81065000D03*
%TD*%
D14*
%TO.C,C8*%
X170900000Y-79190000D03*
X171860000Y-79190000D03*
%TD*%
D15*
%TO.C,C16*%
X155060000Y-64420000D03*
X155060000Y-63460000D03*
%TD*%
D13*
%TO.C,R37*%
X162250000Y-75175000D03*
X162250000Y-76825000D03*
%TD*%
%TO.C,R38*%
X160500000Y-73675000D03*
X160500000Y-75325000D03*
%TD*%
D16*
%TO.C,U6*%
X156845000Y-57080000D03*
X158115000Y-57080000D03*
X159385000Y-57080000D03*
X160655000Y-57080000D03*
X160655000Y-64280000D03*
X159385000Y-64280000D03*
X158115000Y-64280000D03*
X156845000Y-64280000D03*
%TD*%
D17*
%TO.C,J5*%
X173340000Y-95730000D03*
X172090000Y-95730000D03*
X170840000Y-95730000D03*
X169590000Y-95730000D03*
X168340000Y-95730000D03*
X167090000Y-95730000D03*
X165840000Y-95730000D03*
D18*
X175190000Y-98930000D03*
X163990000Y-98930000D03*
%TD*%
D14*
%TO.C,C13*%
X188980000Y-72900000D03*
X189940000Y-72900000D03*
%TD*%
D19*
%TO.C,R33*%
X163215000Y-53350000D03*
X164865000Y-53350000D03*
%TD*%
D20*
%TO.C,C21*%
X166310000Y-90200000D03*
X166310000Y-91160000D03*
%TD*%
D21*
%TO.C,FID6*%
X187490000Y-51790000D03*
%TD*%
D20*
%TO.C,C23*%
X177640000Y-92600000D03*
X177640000Y-93560000D03*
%TD*%
D22*
%TO.C,U1*%
X168335000Y-81090000D03*
X169605000Y-81090000D03*
X170875000Y-81090000D03*
X172145000Y-81090000D03*
X172145000Y-90790000D03*
X170875000Y-90790000D03*
X169605000Y-90790000D03*
X168335000Y-90790000D03*
%TD*%
D23*
%TO.C,R28*%
X190575000Y-61250000D03*
X188925000Y-61250000D03*
%TD*%
D13*
%TO.C,R39*%
X188940000Y-69865000D03*
X188940000Y-71515000D03*
%TD*%
%TO.C,R34*%
X163350000Y-56695000D03*
X163350000Y-58345000D03*
%TD*%
D24*
%TO.C,U8*%
X191560000Y-66300000D03*
X191560000Y-67250000D03*
X191560000Y-68200000D03*
X188960000Y-68200000D03*
X188960000Y-66300000D03*
%TD*%
D21*
%TO.C,FID4*%
X160040000Y-98750000D03*
%TD*%
D25*
%TO.C,R27*%
X187270000Y-71535000D03*
X187270000Y-69885000D03*
%TD*%
D13*
%TO.C,R35*%
X157810000Y-66955000D03*
X157810000Y-68605000D03*
%TD*%
%TO.C,R32*%
X162670000Y-63745000D03*
X162670000Y-65395000D03*
%TD*%
D14*
%TO.C,C2*%
X188980000Y-74270000D03*
X189940000Y-74270000D03*
%TD*%
D19*
%TO.C,R6*%
X189035000Y-63020000D03*
X190685000Y-63020000D03*
%TD*%
%TO.C,R29*%
X163215000Y-55090000D03*
X164865000Y-55090000D03*
%TD*%
%TO.C,R30*%
X163185000Y-51610000D03*
X164835000Y-51610000D03*
%TD*%
D14*
%TO.C,C14*%
X186480000Y-66300000D03*
X187440000Y-66300000D03*
%TD*%
D26*
%TO.C,R3*%
X177680000Y-81450000D03*
X177680000Y-82470000D03*
%TD*%
D20*
%TO.C,C9*%
X165230000Y-90200000D03*
X165230000Y-91160000D03*
%TD*%
D27*
%TO.C,J3*%
X182660000Y-93542500D03*
D28*
X185159999Y-93542499D03*
%TD*%
D23*
%TO.C,R36*%
X171035000Y-93470000D03*
X169385000Y-93470000D03*
%TD*%
D13*
%TO.C,R12*%
X189000000Y-77925000D03*
X189000000Y-79575000D03*
%TD*%
D29*
%TO.C,C22*%
X171860000Y-77610000D03*
X170900000Y-77610000D03*
%TD*%
D30*
%TO.C,R23*%
X175432500Y-93230000D03*
X173607500Y-93230000D03*
%TD*%
D25*
%TO.C,R31*%
X159450000Y-68585000D03*
X159450000Y-66935000D03*
%TD*%
D21*
%TO.C,FID5*%
X159890000Y-51760000D03*
%TD*%
D31*
X155000000Y-100750000D02*
X192500000Y-100750000D01*
X155000000Y-26500000D02*
X192500000Y-26500000D01*
X153500000Y-47500000D02*
X153500000Y-99250000D01*
X153500000Y-99250000D02*
G75*
G03*
X155000000Y-100750000I1500000J0D01*
G01*
X194000000Y-48375000D02*
X194000000Y-99250000D01*
X192500000Y-100750000D02*
G75*
G03*
X194000000Y-99250000I0J1500000D01*
G01*
X155000000Y-26500000D02*
G75*
G03*
X153500000Y-28000000I0J-1500000D01*
G01*
X194000000Y-28000000D02*
G75*
G03*
X192500000Y-26500000I-1500000J0D01*
G01*
X153500000Y-47500000D02*
X153500000Y-28000000D01*
X194000000Y-28000000D02*
X194000000Y-48375000D01*
M02*
