M48
; DRILL file {KiCad (7.0.0)} date Mon Jun 26 15:04:30 2023
; FORMAT={-:-/ absolute / metric / decimal}
; #@! TF.CreationDate,2023-06-26T15:04:30+05:30
; #@! TF.GenerationSoftware,Kicad,Pcbnew,(7.0.0)
; #@! TF.FileFunction,Plated,1,2,PTH
FMAT,2
METRIC
; #@! TA.AperFunction,Plated,PTH,ViaDrill
T1C0.300
; #@! TA.AperFunction,Plated,PTH,ComponentDrill
T2C0.600
; #@! TA.AperFunction,Plated,PTH,ComponentDrill
T3C0.650
; #@! TA.AperFunction,Plated,PTH,ComponentDrill
T4C0.900
%
G90
G05
T1
X98.99Y-51.78
X100.68Y-43.21
X101.315Y-32.955
X102.645Y-69.63
X102.68Y-32.258
X103.29Y-77.22
X103.52Y-32.7
X103.535Y-68.265
X104.33Y-40.72
X104.35Y-37.61
X104.35Y-39.57
X104.91Y-23.11
X105.12Y-63.37
X105.485Y-49.695
X106.005Y-44.255
X106.185Y-60.88
X106.445Y-49.705
X107.33Y-24.05
X107.4Y-48.75
X107.84Y-31.74
X107.985Y-26.415
X108.025Y-25.305
X108.15Y-60.91
X108.24Y-65.06
X108.28Y-42.4
X108.54Y-30.46
X109.11Y-61.95
X110.39Y-47.68
X111.46Y-60.85
X111.585Y-82.605
X111.655Y-40.215
X111.655Y-42.645
X112.645Y-53.87
X112.76Y-66.51
X113.13Y-46.6
X113.88Y-66.67
X114.17Y-32.9
X114.37Y-43.79
X114.5Y-41.4
X114.57Y-40.31
X114.59Y-39.13
X114.825Y-82.555
X114.926Y-47.814
X115.16Y-60.98
X115.3Y-54.21
X115.54Y-39.12
X115.57Y-41.43
X115.62Y-40.31
X116.39Y-54.38
X116.44Y-57.56
X116.62Y-47.76
X116.7Y-41.41
X116.72Y-40.31
X116.73Y-39.11
X116.885Y-43.775
X116.98Y-22.98
X116.98Y-24.99
X117.74Y-29.03
X117.965Y-42.835
X118.4Y-61.16
X118.54Y-45.38
X118.87Y-22.95
X118.92Y-25.0
X119.025Y-42.665
X119.28Y-28.96
X119.28Y-46.52
X119.505Y-51.465
X119.634Y-38.354
X119.99Y-62.4
X120.06Y-34.59
X120.515Y-47.59
X120.515Y-50.36
X120.65Y-39.37
X121.28Y-32.91
X121.33Y-34.3
X121.44Y-54.34
X121.535Y-66.76
X121.55Y-45.06
X123.06Y-40.82
X123.51Y-77.52
X124.784Y-41.13
X126.32Y-41.38
X126.425Y-48.045
X126.625Y-49.745
X127.27Y-56.63
T3
X123.88Y-29.67
X123.88Y-30.94
X123.88Y-32.21
X123.88Y-33.48
T4
X109.12Y-34.73
X111.66Y-34.73
X115.21Y-34.71
X117.75Y-34.71
T2
G00X122.685Y-44.745
M15
G01X123.785Y-44.745
M16
G05
G00X122.685Y-53.385
M15
G01X123.785Y-53.385
M16
G05
G00X127.115Y-44.745
M15
G01X127.715Y-44.745
M16
G05
G00X127.115Y-53.385
M15
G01X127.715Y-53.385
M16
G05
T0
M30
