%TF.GenerationSoftware,KiCad,Pcbnew,(7.0.0)*%
%TF.CreationDate,2023-06-26T15:04:23+05:30*%
%TF.ProjectId,EMO SN65 OBD,454d4f20-534e-4363-9520-4f42442e6b69,1*%
%TF.SameCoordinates,Original*%
%TF.FileFunction,Legend,Bot*%
%TF.FilePolarity,Positive*%
%FSLAX46Y46*%
G04 Gerber Fmt 4.6, Leading zero omitted, Abs format (unit mm)*
G04 Created by KiCad (PCBNEW (7.0.0)) date 2023-06-26 15:04:23*
%MOMM*%
%LPD*%
G01*
G04 APERTURE LIST*
%ADD10C,0.150000*%
%ADD11C,0.200000*%
%ADD12C,0.120000*%
%ADD13C,0.475000*%
%ADD14C,0.500000*%
%TA.AperFunction,Profile*%
%ADD15C,0.100000*%
%TD*%
G04 APERTURE END LIST*
D10*
X115861250Y-72770000D02*
G75*
G03*
X115861250Y-72770000I-2561250J0D01*
G01*
X103681250Y-37630000D02*
G75*
G03*
X103681250Y-37630000I-2561250J0D01*
G01*
X103520184Y-60390000D02*
G75*
G03*
X103520184Y-60390000I-2450184J0D01*
G01*
X115791250Y-25228750D02*
G75*
G03*
X115791250Y-25228750I-2561250J0D01*
G01*
X127861250Y-37498750D02*
G75*
G03*
X127861250Y-37498750I-2561250J0D01*
G01*
X127830070Y-60388750D02*
G75*
G03*
X127830070Y-60388750I-2500070J0D01*
G01*
X109870476Y-72194000D02*
X109946666Y-72155904D01*
X109946666Y-72155904D02*
X110060952Y-72155904D01*
X110060952Y-72155904D02*
X110175238Y-72194000D01*
X110175238Y-72194000D02*
X110251428Y-72270190D01*
X110251428Y-72270190D02*
X110289523Y-72346380D01*
X110289523Y-72346380D02*
X110327619Y-72498761D01*
X110327619Y-72498761D02*
X110327619Y-72613047D01*
X110327619Y-72613047D02*
X110289523Y-72765428D01*
X110289523Y-72765428D02*
X110251428Y-72841619D01*
X110251428Y-72841619D02*
X110175238Y-72917809D01*
X110175238Y-72917809D02*
X110060952Y-72955904D01*
X110060952Y-72955904D02*
X109984761Y-72955904D01*
X109984761Y-72955904D02*
X109870476Y-72917809D01*
X109870476Y-72917809D02*
X109832380Y-72879714D01*
X109832380Y-72879714D02*
X109832380Y-72613047D01*
X109832380Y-72613047D02*
X109984761Y-72613047D01*
X109489523Y-72955904D02*
X109489523Y-72155904D01*
X109489523Y-72155904D02*
X109032380Y-72955904D01*
X109032380Y-72955904D02*
X109032380Y-72155904D01*
X108651428Y-72955904D02*
X108651428Y-72155904D01*
X108651428Y-72155904D02*
X108460952Y-72155904D01*
X108460952Y-72155904D02*
X108346666Y-72194000D01*
X108346666Y-72194000D02*
X108270476Y-72270190D01*
X108270476Y-72270190D02*
X108232381Y-72346380D01*
X108232381Y-72346380D02*
X108194285Y-72498761D01*
X108194285Y-72498761D02*
X108194285Y-72613047D01*
X108194285Y-72613047D02*
X108232381Y-72765428D01*
X108232381Y-72765428D02*
X108270476Y-72841619D01*
X108270476Y-72841619D02*
X108346666Y-72917809D01*
X108346666Y-72917809D02*
X108460952Y-72955904D01*
X108460952Y-72955904D02*
X108651428Y-72955904D01*
X107139523Y-70435904D02*
X107139523Y-69635904D01*
X107139523Y-69635904D02*
X106834761Y-69635904D01*
X106834761Y-69635904D02*
X106758571Y-69674000D01*
X106758571Y-69674000D02*
X106720476Y-69712095D01*
X106720476Y-69712095D02*
X106682380Y-69788285D01*
X106682380Y-69788285D02*
X106682380Y-69902571D01*
X106682380Y-69902571D02*
X106720476Y-69978761D01*
X106720476Y-69978761D02*
X106758571Y-70016857D01*
X106758571Y-70016857D02*
X106834761Y-70054952D01*
X106834761Y-70054952D02*
X107139523Y-70054952D01*
X105920476Y-69674000D02*
X105996666Y-69635904D01*
X105996666Y-69635904D02*
X106110952Y-69635904D01*
X106110952Y-69635904D02*
X106225238Y-69674000D01*
X106225238Y-69674000D02*
X106301428Y-69750190D01*
X106301428Y-69750190D02*
X106339523Y-69826380D01*
X106339523Y-69826380D02*
X106377619Y-69978761D01*
X106377619Y-69978761D02*
X106377619Y-70093047D01*
X106377619Y-70093047D02*
X106339523Y-70245428D01*
X106339523Y-70245428D02*
X106301428Y-70321619D01*
X106301428Y-70321619D02*
X106225238Y-70397809D01*
X106225238Y-70397809D02*
X106110952Y-70435904D01*
X106110952Y-70435904D02*
X106034761Y-70435904D01*
X106034761Y-70435904D02*
X105920476Y-70397809D01*
X105920476Y-70397809D02*
X105882380Y-70359714D01*
X105882380Y-70359714D02*
X105882380Y-70093047D01*
X105882380Y-70093047D02*
X106034761Y-70093047D01*
X105082380Y-70359714D02*
X105120476Y-70397809D01*
X105120476Y-70397809D02*
X105234761Y-70435904D01*
X105234761Y-70435904D02*
X105310952Y-70435904D01*
X105310952Y-70435904D02*
X105425238Y-70397809D01*
X105425238Y-70397809D02*
X105501428Y-70321619D01*
X105501428Y-70321619D02*
X105539523Y-70245428D01*
X105539523Y-70245428D02*
X105577619Y-70093047D01*
X105577619Y-70093047D02*
X105577619Y-69978761D01*
X105577619Y-69978761D02*
X105539523Y-69826380D01*
X105539523Y-69826380D02*
X105501428Y-69750190D01*
X105501428Y-69750190D02*
X105425238Y-69674000D01*
X105425238Y-69674000D02*
X105310952Y-69635904D01*
X105310952Y-69635904D02*
X105234761Y-69635904D01*
X105234761Y-69635904D02*
X105120476Y-69674000D01*
X105120476Y-69674000D02*
X105082380Y-69712095D01*
X111229523Y-70151142D02*
X110620000Y-70151142D01*
X110924761Y-70455904D02*
X110924761Y-69846380D01*
X109858095Y-69655904D02*
X110239047Y-69655904D01*
X110239047Y-69655904D02*
X110277143Y-70036857D01*
X110277143Y-70036857D02*
X110239047Y-69998761D01*
X110239047Y-69998761D02*
X110162857Y-69960666D01*
X110162857Y-69960666D02*
X109972381Y-69960666D01*
X109972381Y-69960666D02*
X109896190Y-69998761D01*
X109896190Y-69998761D02*
X109858095Y-70036857D01*
X109858095Y-70036857D02*
X109820000Y-70113047D01*
X109820000Y-70113047D02*
X109820000Y-70303523D01*
X109820000Y-70303523D02*
X109858095Y-70379714D01*
X109858095Y-70379714D02*
X109896190Y-70417809D01*
X109896190Y-70417809D02*
X109972381Y-70455904D01*
X109972381Y-70455904D02*
X110162857Y-70455904D01*
X110162857Y-70455904D02*
X110239047Y-70417809D01*
X110239047Y-70417809D02*
X110277143Y-70379714D01*
X109477142Y-70379714D02*
X109439047Y-70417809D01*
X109439047Y-70417809D02*
X109477142Y-70455904D01*
X109477142Y-70455904D02*
X109515238Y-70417809D01*
X109515238Y-70417809D02*
X109477142Y-70379714D01*
X109477142Y-70379714D02*
X109477142Y-70455904D01*
X108943809Y-69655904D02*
X108867619Y-69655904D01*
X108867619Y-69655904D02*
X108791428Y-69694000D01*
X108791428Y-69694000D02*
X108753333Y-69732095D01*
X108753333Y-69732095D02*
X108715238Y-69808285D01*
X108715238Y-69808285D02*
X108677143Y-69960666D01*
X108677143Y-69960666D02*
X108677143Y-70151142D01*
X108677143Y-70151142D02*
X108715238Y-70303523D01*
X108715238Y-70303523D02*
X108753333Y-70379714D01*
X108753333Y-70379714D02*
X108791428Y-70417809D01*
X108791428Y-70417809D02*
X108867619Y-70455904D01*
X108867619Y-70455904D02*
X108943809Y-70455904D01*
X108943809Y-70455904D02*
X109020000Y-70417809D01*
X109020000Y-70417809D02*
X109058095Y-70379714D01*
X109058095Y-70379714D02*
X109096190Y-70303523D01*
X109096190Y-70303523D02*
X109134286Y-70151142D01*
X109134286Y-70151142D02*
X109134286Y-69960666D01*
X109134286Y-69960666D02*
X109096190Y-69808285D01*
X109096190Y-69808285D02*
X109058095Y-69732095D01*
X109058095Y-69732095D02*
X109020000Y-69694000D01*
X109020000Y-69694000D02*
X108943809Y-69655904D01*
X108448571Y-69655904D02*
X108181904Y-70455904D01*
X108181904Y-70455904D02*
X107915238Y-69655904D01*
X109800476Y-70944000D02*
X109876666Y-70905904D01*
X109876666Y-70905904D02*
X109990952Y-70905904D01*
X109990952Y-70905904D02*
X110105238Y-70944000D01*
X110105238Y-70944000D02*
X110181428Y-71020190D01*
X110181428Y-71020190D02*
X110219523Y-71096380D01*
X110219523Y-71096380D02*
X110257619Y-71248761D01*
X110257619Y-71248761D02*
X110257619Y-71363047D01*
X110257619Y-71363047D02*
X110219523Y-71515428D01*
X110219523Y-71515428D02*
X110181428Y-71591619D01*
X110181428Y-71591619D02*
X110105238Y-71667809D01*
X110105238Y-71667809D02*
X109990952Y-71705904D01*
X109990952Y-71705904D02*
X109914761Y-71705904D01*
X109914761Y-71705904D02*
X109800476Y-71667809D01*
X109800476Y-71667809D02*
X109762380Y-71629714D01*
X109762380Y-71629714D02*
X109762380Y-71363047D01*
X109762380Y-71363047D02*
X109914761Y-71363047D01*
X109419523Y-71705904D02*
X109419523Y-70905904D01*
X109419523Y-70905904D02*
X108962380Y-71705904D01*
X108962380Y-71705904D02*
X108962380Y-70905904D01*
X108581428Y-71705904D02*
X108581428Y-70905904D01*
X108581428Y-70905904D02*
X108390952Y-70905904D01*
X108390952Y-70905904D02*
X108276666Y-70944000D01*
X108276666Y-70944000D02*
X108200476Y-71020190D01*
X108200476Y-71020190D02*
X108162381Y-71096380D01*
X108162381Y-71096380D02*
X108124285Y-71248761D01*
X108124285Y-71248761D02*
X108124285Y-71363047D01*
X108124285Y-71363047D02*
X108162381Y-71515428D01*
X108162381Y-71515428D02*
X108200476Y-71591619D01*
X108200476Y-71591619D02*
X108276666Y-71667809D01*
X108276666Y-71667809D02*
X108390952Y-71705904D01*
X108390952Y-71705904D02*
X108581428Y-71705904D01*
X107159523Y-71695904D02*
X107159523Y-70895904D01*
X107159523Y-70895904D02*
X106854761Y-70895904D01*
X106854761Y-70895904D02*
X106778571Y-70934000D01*
X106778571Y-70934000D02*
X106740476Y-70972095D01*
X106740476Y-70972095D02*
X106702380Y-71048285D01*
X106702380Y-71048285D02*
X106702380Y-71162571D01*
X106702380Y-71162571D02*
X106740476Y-71238761D01*
X106740476Y-71238761D02*
X106778571Y-71276857D01*
X106778571Y-71276857D02*
X106854761Y-71314952D01*
X106854761Y-71314952D02*
X107159523Y-71314952D01*
X105940476Y-70934000D02*
X106016666Y-70895904D01*
X106016666Y-70895904D02*
X106130952Y-70895904D01*
X106130952Y-70895904D02*
X106245238Y-70934000D01*
X106245238Y-70934000D02*
X106321428Y-71010190D01*
X106321428Y-71010190D02*
X106359523Y-71086380D01*
X106359523Y-71086380D02*
X106397619Y-71238761D01*
X106397619Y-71238761D02*
X106397619Y-71353047D01*
X106397619Y-71353047D02*
X106359523Y-71505428D01*
X106359523Y-71505428D02*
X106321428Y-71581619D01*
X106321428Y-71581619D02*
X106245238Y-71657809D01*
X106245238Y-71657809D02*
X106130952Y-71695904D01*
X106130952Y-71695904D02*
X106054761Y-71695904D01*
X106054761Y-71695904D02*
X105940476Y-71657809D01*
X105940476Y-71657809D02*
X105902380Y-71619714D01*
X105902380Y-71619714D02*
X105902380Y-71353047D01*
X105902380Y-71353047D02*
X106054761Y-71353047D01*
X105559523Y-71695904D02*
X105559523Y-70895904D01*
X105559523Y-70895904D02*
X105369047Y-70895904D01*
X105369047Y-70895904D02*
X105254761Y-70934000D01*
X105254761Y-70934000D02*
X105178571Y-71010190D01*
X105178571Y-71010190D02*
X105140476Y-71086380D01*
X105140476Y-71086380D02*
X105102380Y-71238761D01*
X105102380Y-71238761D02*
X105102380Y-71353047D01*
X105102380Y-71353047D02*
X105140476Y-71505428D01*
X105140476Y-71505428D02*
X105178571Y-71581619D01*
X105178571Y-71581619D02*
X105254761Y-71657809D01*
X105254761Y-71657809D02*
X105369047Y-71695904D01*
X105369047Y-71695904D02*
X105559523Y-71695904D01*
X107309523Y-72915904D02*
X107309523Y-72115904D01*
X107309523Y-72115904D02*
X107042857Y-72687333D01*
X107042857Y-72687333D02*
X106776190Y-72115904D01*
X106776190Y-72115904D02*
X106776190Y-72915904D01*
X105938094Y-72839714D02*
X105976190Y-72877809D01*
X105976190Y-72877809D02*
X106090475Y-72915904D01*
X106090475Y-72915904D02*
X106166666Y-72915904D01*
X106166666Y-72915904D02*
X106280952Y-72877809D01*
X106280952Y-72877809D02*
X106357142Y-72801619D01*
X106357142Y-72801619D02*
X106395237Y-72725428D01*
X106395237Y-72725428D02*
X106433333Y-72573047D01*
X106433333Y-72573047D02*
X106433333Y-72458761D01*
X106433333Y-72458761D02*
X106395237Y-72306380D01*
X106395237Y-72306380D02*
X106357142Y-72230190D01*
X106357142Y-72230190D02*
X106280952Y-72154000D01*
X106280952Y-72154000D02*
X106166666Y-72115904D01*
X106166666Y-72115904D02*
X106090475Y-72115904D01*
X106090475Y-72115904D02*
X105976190Y-72154000D01*
X105976190Y-72154000D02*
X105938094Y-72192095D01*
X105214285Y-72915904D02*
X105595237Y-72915904D01*
X105595237Y-72915904D02*
X105595237Y-72115904D01*
X104490475Y-72915904D02*
X104757142Y-72534952D01*
X104947618Y-72915904D02*
X104947618Y-72115904D01*
X104947618Y-72115904D02*
X104642856Y-72115904D01*
X104642856Y-72115904D02*
X104566666Y-72154000D01*
X104566666Y-72154000D02*
X104528571Y-72192095D01*
X104528571Y-72192095D02*
X104490475Y-72268285D01*
X104490475Y-72268285D02*
X104490475Y-72382571D01*
X104490475Y-72382571D02*
X104528571Y-72458761D01*
X104528571Y-72458761D02*
X104566666Y-72496857D01*
X104566666Y-72496857D02*
X104642856Y-72534952D01*
X104642856Y-72534952D02*
X104947618Y-72534952D01*
%TO.C,R24*%
X121028095Y-66848285D02*
X121409047Y-67114952D01*
X121028095Y-67305428D02*
X121828095Y-67305428D01*
X121828095Y-67305428D02*
X121828095Y-67000666D01*
X121828095Y-67000666D02*
X121790000Y-66924476D01*
X121790000Y-66924476D02*
X121751904Y-66886381D01*
X121751904Y-66886381D02*
X121675714Y-66848285D01*
X121675714Y-66848285D02*
X121561428Y-66848285D01*
X121561428Y-66848285D02*
X121485238Y-66886381D01*
X121485238Y-66886381D02*
X121447142Y-66924476D01*
X121447142Y-66924476D02*
X121409047Y-67000666D01*
X121409047Y-67000666D02*
X121409047Y-67305428D01*
X121751904Y-66543524D02*
X121790000Y-66505428D01*
X121790000Y-66505428D02*
X121828095Y-66429238D01*
X121828095Y-66429238D02*
X121828095Y-66238762D01*
X121828095Y-66238762D02*
X121790000Y-66162571D01*
X121790000Y-66162571D02*
X121751904Y-66124476D01*
X121751904Y-66124476D02*
X121675714Y-66086381D01*
X121675714Y-66086381D02*
X121599523Y-66086381D01*
X121599523Y-66086381D02*
X121485238Y-66124476D01*
X121485238Y-66124476D02*
X121028095Y-66581619D01*
X121028095Y-66581619D02*
X121028095Y-66086381D01*
X121561428Y-65400666D02*
X121028095Y-65400666D01*
X121866190Y-65591142D02*
X121294761Y-65781619D01*
X121294761Y-65781619D02*
X121294761Y-65286380D01*
%TO.C,C10*%
X113594285Y-44137714D02*
X113632381Y-44175809D01*
X113632381Y-44175809D02*
X113746666Y-44213904D01*
X113746666Y-44213904D02*
X113822857Y-44213904D01*
X113822857Y-44213904D02*
X113937143Y-44175809D01*
X113937143Y-44175809D02*
X114013333Y-44099619D01*
X114013333Y-44099619D02*
X114051428Y-44023428D01*
X114051428Y-44023428D02*
X114089524Y-43871047D01*
X114089524Y-43871047D02*
X114089524Y-43756761D01*
X114089524Y-43756761D02*
X114051428Y-43604380D01*
X114051428Y-43604380D02*
X114013333Y-43528190D01*
X114013333Y-43528190D02*
X113937143Y-43452000D01*
X113937143Y-43452000D02*
X113822857Y-43413904D01*
X113822857Y-43413904D02*
X113746666Y-43413904D01*
X113746666Y-43413904D02*
X113632381Y-43452000D01*
X113632381Y-43452000D02*
X113594285Y-43490095D01*
X112832381Y-44213904D02*
X113289524Y-44213904D01*
X113060952Y-44213904D02*
X113060952Y-43413904D01*
X113060952Y-43413904D02*
X113137143Y-43528190D01*
X113137143Y-43528190D02*
X113213333Y-43604380D01*
X113213333Y-43604380D02*
X113289524Y-43642476D01*
X112337142Y-43413904D02*
X112260952Y-43413904D01*
X112260952Y-43413904D02*
X112184761Y-43452000D01*
X112184761Y-43452000D02*
X112146666Y-43490095D01*
X112146666Y-43490095D02*
X112108571Y-43566285D01*
X112108571Y-43566285D02*
X112070476Y-43718666D01*
X112070476Y-43718666D02*
X112070476Y-43909142D01*
X112070476Y-43909142D02*
X112108571Y-44061523D01*
X112108571Y-44061523D02*
X112146666Y-44137714D01*
X112146666Y-44137714D02*
X112184761Y-44175809D01*
X112184761Y-44175809D02*
X112260952Y-44213904D01*
X112260952Y-44213904D02*
X112337142Y-44213904D01*
X112337142Y-44213904D02*
X112413333Y-44175809D01*
X112413333Y-44175809D02*
X112451428Y-44137714D01*
X112451428Y-44137714D02*
X112489523Y-44061523D01*
X112489523Y-44061523D02*
X112527619Y-43909142D01*
X112527619Y-43909142D02*
X112527619Y-43718666D01*
X112527619Y-43718666D02*
X112489523Y-43566285D01*
X112489523Y-43566285D02*
X112451428Y-43490095D01*
X112451428Y-43490095D02*
X112413333Y-43452000D01*
X112413333Y-43452000D02*
X112337142Y-43413904D01*
%TO.C,R23*%
X119718095Y-61518285D02*
X120099047Y-61784952D01*
X119718095Y-61975428D02*
X120518095Y-61975428D01*
X120518095Y-61975428D02*
X120518095Y-61670666D01*
X120518095Y-61670666D02*
X120480000Y-61594476D01*
X120480000Y-61594476D02*
X120441904Y-61556381D01*
X120441904Y-61556381D02*
X120365714Y-61518285D01*
X120365714Y-61518285D02*
X120251428Y-61518285D01*
X120251428Y-61518285D02*
X120175238Y-61556381D01*
X120175238Y-61556381D02*
X120137142Y-61594476D01*
X120137142Y-61594476D02*
X120099047Y-61670666D01*
X120099047Y-61670666D02*
X120099047Y-61975428D01*
X120441904Y-61213524D02*
X120480000Y-61175428D01*
X120480000Y-61175428D02*
X120518095Y-61099238D01*
X120518095Y-61099238D02*
X120518095Y-60908762D01*
X120518095Y-60908762D02*
X120480000Y-60832571D01*
X120480000Y-60832571D02*
X120441904Y-60794476D01*
X120441904Y-60794476D02*
X120365714Y-60756381D01*
X120365714Y-60756381D02*
X120289523Y-60756381D01*
X120289523Y-60756381D02*
X120175238Y-60794476D01*
X120175238Y-60794476D02*
X119718095Y-61251619D01*
X119718095Y-61251619D02*
X119718095Y-60756381D01*
X120518095Y-60489714D02*
X120518095Y-59994476D01*
X120518095Y-59994476D02*
X120213333Y-60261142D01*
X120213333Y-60261142D02*
X120213333Y-60146857D01*
X120213333Y-60146857D02*
X120175238Y-60070666D01*
X120175238Y-60070666D02*
X120137142Y-60032571D01*
X120137142Y-60032571D02*
X120060952Y-59994476D01*
X120060952Y-59994476D02*
X119870476Y-59994476D01*
X119870476Y-59994476D02*
X119794285Y-60032571D01*
X119794285Y-60032571D02*
X119756190Y-60070666D01*
X119756190Y-60070666D02*
X119718095Y-60146857D01*
X119718095Y-60146857D02*
X119718095Y-60375428D01*
X119718095Y-60375428D02*
X119756190Y-60451619D01*
X119756190Y-60451619D02*
X119794285Y-60489714D01*
%TO.C,R8*%
X104213332Y-32297904D02*
X104479999Y-31916952D01*
X104670475Y-32297904D02*
X104670475Y-31497904D01*
X104670475Y-31497904D02*
X104365713Y-31497904D01*
X104365713Y-31497904D02*
X104289523Y-31536000D01*
X104289523Y-31536000D02*
X104251428Y-31574095D01*
X104251428Y-31574095D02*
X104213332Y-31650285D01*
X104213332Y-31650285D02*
X104213332Y-31764571D01*
X104213332Y-31764571D02*
X104251428Y-31840761D01*
X104251428Y-31840761D02*
X104289523Y-31878857D01*
X104289523Y-31878857D02*
X104365713Y-31916952D01*
X104365713Y-31916952D02*
X104670475Y-31916952D01*
X103756190Y-31840761D02*
X103832380Y-31802666D01*
X103832380Y-31802666D02*
X103870475Y-31764571D01*
X103870475Y-31764571D02*
X103908571Y-31688380D01*
X103908571Y-31688380D02*
X103908571Y-31650285D01*
X103908571Y-31650285D02*
X103870475Y-31574095D01*
X103870475Y-31574095D02*
X103832380Y-31536000D01*
X103832380Y-31536000D02*
X103756190Y-31497904D01*
X103756190Y-31497904D02*
X103603809Y-31497904D01*
X103603809Y-31497904D02*
X103527618Y-31536000D01*
X103527618Y-31536000D02*
X103489523Y-31574095D01*
X103489523Y-31574095D02*
X103451428Y-31650285D01*
X103451428Y-31650285D02*
X103451428Y-31688380D01*
X103451428Y-31688380D02*
X103489523Y-31764571D01*
X103489523Y-31764571D02*
X103527618Y-31802666D01*
X103527618Y-31802666D02*
X103603809Y-31840761D01*
X103603809Y-31840761D02*
X103756190Y-31840761D01*
X103756190Y-31840761D02*
X103832380Y-31878857D01*
X103832380Y-31878857D02*
X103870475Y-31916952D01*
X103870475Y-31916952D02*
X103908571Y-31993142D01*
X103908571Y-31993142D02*
X103908571Y-32145523D01*
X103908571Y-32145523D02*
X103870475Y-32221714D01*
X103870475Y-32221714D02*
X103832380Y-32259809D01*
X103832380Y-32259809D02*
X103756190Y-32297904D01*
X103756190Y-32297904D02*
X103603809Y-32297904D01*
X103603809Y-32297904D02*
X103527618Y-32259809D01*
X103527618Y-32259809D02*
X103489523Y-32221714D01*
X103489523Y-32221714D02*
X103451428Y-32145523D01*
X103451428Y-32145523D02*
X103451428Y-31993142D01*
X103451428Y-31993142D02*
X103489523Y-31916952D01*
X103489523Y-31916952D02*
X103527618Y-31878857D01*
X103527618Y-31878857D02*
X103603809Y-31840761D01*
%TO.C,R41*%
X111286095Y-53064285D02*
X111667047Y-53330952D01*
X111286095Y-53521428D02*
X112086095Y-53521428D01*
X112086095Y-53521428D02*
X112086095Y-53216666D01*
X112086095Y-53216666D02*
X112048000Y-53140476D01*
X112048000Y-53140476D02*
X112009904Y-53102381D01*
X112009904Y-53102381D02*
X111933714Y-53064285D01*
X111933714Y-53064285D02*
X111819428Y-53064285D01*
X111819428Y-53064285D02*
X111743238Y-53102381D01*
X111743238Y-53102381D02*
X111705142Y-53140476D01*
X111705142Y-53140476D02*
X111667047Y-53216666D01*
X111667047Y-53216666D02*
X111667047Y-53521428D01*
X111819428Y-52378571D02*
X111286095Y-52378571D01*
X112124190Y-52569047D02*
X111552761Y-52759524D01*
X111552761Y-52759524D02*
X111552761Y-52264285D01*
X111286095Y-51540476D02*
X111286095Y-51997619D01*
X111286095Y-51769047D02*
X112086095Y-51769047D01*
X112086095Y-51769047D02*
X111971809Y-51845238D01*
X111971809Y-51845238D02*
X111895619Y-51921428D01*
X111895619Y-51921428D02*
X111857523Y-51997619D01*
%TO.C,C3*%
X104403332Y-47767714D02*
X104441428Y-47805809D01*
X104441428Y-47805809D02*
X104555713Y-47843904D01*
X104555713Y-47843904D02*
X104631904Y-47843904D01*
X104631904Y-47843904D02*
X104746190Y-47805809D01*
X104746190Y-47805809D02*
X104822380Y-47729619D01*
X104822380Y-47729619D02*
X104860475Y-47653428D01*
X104860475Y-47653428D02*
X104898571Y-47501047D01*
X104898571Y-47501047D02*
X104898571Y-47386761D01*
X104898571Y-47386761D02*
X104860475Y-47234380D01*
X104860475Y-47234380D02*
X104822380Y-47158190D01*
X104822380Y-47158190D02*
X104746190Y-47082000D01*
X104746190Y-47082000D02*
X104631904Y-47043904D01*
X104631904Y-47043904D02*
X104555713Y-47043904D01*
X104555713Y-47043904D02*
X104441428Y-47082000D01*
X104441428Y-47082000D02*
X104403332Y-47120095D01*
X104136666Y-47043904D02*
X103641428Y-47043904D01*
X103641428Y-47043904D02*
X103908094Y-47348666D01*
X103908094Y-47348666D02*
X103793809Y-47348666D01*
X103793809Y-47348666D02*
X103717618Y-47386761D01*
X103717618Y-47386761D02*
X103679523Y-47424857D01*
X103679523Y-47424857D02*
X103641428Y-47501047D01*
X103641428Y-47501047D02*
X103641428Y-47691523D01*
X103641428Y-47691523D02*
X103679523Y-47767714D01*
X103679523Y-47767714D02*
X103717618Y-47805809D01*
X103717618Y-47805809D02*
X103793809Y-47843904D01*
X103793809Y-47843904D02*
X104022380Y-47843904D01*
X104022380Y-47843904D02*
X104098571Y-47805809D01*
X104098571Y-47805809D02*
X104136666Y-47767714D01*
%TO.C,R12*%
X104146285Y-31027904D02*
X104412952Y-30646952D01*
X104603428Y-31027904D02*
X104603428Y-30227904D01*
X104603428Y-30227904D02*
X104298666Y-30227904D01*
X104298666Y-30227904D02*
X104222476Y-30266000D01*
X104222476Y-30266000D02*
X104184381Y-30304095D01*
X104184381Y-30304095D02*
X104146285Y-30380285D01*
X104146285Y-30380285D02*
X104146285Y-30494571D01*
X104146285Y-30494571D02*
X104184381Y-30570761D01*
X104184381Y-30570761D02*
X104222476Y-30608857D01*
X104222476Y-30608857D02*
X104298666Y-30646952D01*
X104298666Y-30646952D02*
X104603428Y-30646952D01*
X103384381Y-31027904D02*
X103841524Y-31027904D01*
X103612952Y-31027904D02*
X103612952Y-30227904D01*
X103612952Y-30227904D02*
X103689143Y-30342190D01*
X103689143Y-30342190D02*
X103765333Y-30418380D01*
X103765333Y-30418380D02*
X103841524Y-30456476D01*
X103079619Y-30304095D02*
X103041523Y-30266000D01*
X103041523Y-30266000D02*
X102965333Y-30227904D01*
X102965333Y-30227904D02*
X102774857Y-30227904D01*
X102774857Y-30227904D02*
X102698666Y-30266000D01*
X102698666Y-30266000D02*
X102660571Y-30304095D01*
X102660571Y-30304095D02*
X102622476Y-30380285D01*
X102622476Y-30380285D02*
X102622476Y-30456476D01*
X102622476Y-30456476D02*
X102660571Y-30570761D01*
X102660571Y-30570761D02*
X103117714Y-31027904D01*
X103117714Y-31027904D02*
X102622476Y-31027904D01*
%TO.C,J2*%
X123493333Y-27527380D02*
X123493333Y-28241666D01*
X123493333Y-28241666D02*
X123540952Y-28384523D01*
X123540952Y-28384523D02*
X123636190Y-28479761D01*
X123636190Y-28479761D02*
X123779047Y-28527380D01*
X123779047Y-28527380D02*
X123874285Y-28527380D01*
X123064761Y-27622619D02*
X123017142Y-27575000D01*
X123017142Y-27575000D02*
X122921904Y-27527380D01*
X122921904Y-27527380D02*
X122683809Y-27527380D01*
X122683809Y-27527380D02*
X122588571Y-27575000D01*
X122588571Y-27575000D02*
X122540952Y-27622619D01*
X122540952Y-27622619D02*
X122493333Y-27717857D01*
X122493333Y-27717857D02*
X122493333Y-27813095D01*
X122493333Y-27813095D02*
X122540952Y-27955952D01*
X122540952Y-27955952D02*
X123112380Y-28527380D01*
X123112380Y-28527380D02*
X122493333Y-28527380D01*
%TO.C,R19*%
X118578095Y-41234285D02*
X118959047Y-41500952D01*
X118578095Y-41691428D02*
X119378095Y-41691428D01*
X119378095Y-41691428D02*
X119378095Y-41386666D01*
X119378095Y-41386666D02*
X119340000Y-41310476D01*
X119340000Y-41310476D02*
X119301904Y-41272381D01*
X119301904Y-41272381D02*
X119225714Y-41234285D01*
X119225714Y-41234285D02*
X119111428Y-41234285D01*
X119111428Y-41234285D02*
X119035238Y-41272381D01*
X119035238Y-41272381D02*
X118997142Y-41310476D01*
X118997142Y-41310476D02*
X118959047Y-41386666D01*
X118959047Y-41386666D02*
X118959047Y-41691428D01*
X118578095Y-40472381D02*
X118578095Y-40929524D01*
X118578095Y-40700952D02*
X119378095Y-40700952D01*
X119378095Y-40700952D02*
X119263809Y-40777143D01*
X119263809Y-40777143D02*
X119187619Y-40853333D01*
X119187619Y-40853333D02*
X119149523Y-40929524D01*
X118578095Y-40091428D02*
X118578095Y-39939047D01*
X118578095Y-39939047D02*
X118616190Y-39862857D01*
X118616190Y-39862857D02*
X118654285Y-39824761D01*
X118654285Y-39824761D02*
X118768571Y-39748571D01*
X118768571Y-39748571D02*
X118920952Y-39710476D01*
X118920952Y-39710476D02*
X119225714Y-39710476D01*
X119225714Y-39710476D02*
X119301904Y-39748571D01*
X119301904Y-39748571D02*
X119340000Y-39786666D01*
X119340000Y-39786666D02*
X119378095Y-39862857D01*
X119378095Y-39862857D02*
X119378095Y-40015238D01*
X119378095Y-40015238D02*
X119340000Y-40091428D01*
X119340000Y-40091428D02*
X119301904Y-40129523D01*
X119301904Y-40129523D02*
X119225714Y-40167619D01*
X119225714Y-40167619D02*
X119035238Y-40167619D01*
X119035238Y-40167619D02*
X118959047Y-40129523D01*
X118959047Y-40129523D02*
X118920952Y-40091428D01*
X118920952Y-40091428D02*
X118882857Y-40015238D01*
X118882857Y-40015238D02*
X118882857Y-39862857D01*
X118882857Y-39862857D02*
X118920952Y-39786666D01*
X118920952Y-39786666D02*
X118959047Y-39748571D01*
X118959047Y-39748571D02*
X119035238Y-39710476D01*
D11*
%TO.C,G\u002A\u002A\u002A*%
G36*
X118099762Y-79640000D02*
G01*
X118839574Y-79640000D01*
X118839574Y-78623949D01*
X118099762Y-78623949D01*
X118099762Y-78827159D01*
X118577013Y-78827159D01*
X118577013Y-78999106D01*
X118133956Y-78999106D01*
X118133956Y-79202316D01*
X118577013Y-79202316D01*
X118577013Y-79436789D01*
X118099762Y-79436789D01*
X118099762Y-79640000D01*
G37*
G36*
X117527316Y-78608447D02*
G01*
X117541049Y-78608837D01*
X117554534Y-78609485D01*
X117567771Y-78610394D01*
X117580760Y-78611562D01*
X117593500Y-78612989D01*
X117605993Y-78614676D01*
X117618237Y-78616622D01*
X117630234Y-78618828D01*
X117641982Y-78621293D01*
X117653483Y-78624018D01*
X117664735Y-78627002D01*
X117675739Y-78630246D01*
X117686496Y-78633750D01*
X117697004Y-78637512D01*
X117707264Y-78641535D01*
X117717253Y-78645786D01*
X117727009Y-78650297D01*
X117736533Y-78655067D01*
X117745824Y-78660097D01*
X117754882Y-78665387D01*
X117763707Y-78670935D01*
X117772299Y-78676744D01*
X117780659Y-78682812D01*
X117788786Y-78689139D01*
X117796680Y-78695726D01*
X117804341Y-78702573D01*
X117811769Y-78709678D01*
X117818965Y-78717044D01*
X117825928Y-78724669D01*
X117832658Y-78732553D01*
X117839155Y-78740697D01*
X117845399Y-78749179D01*
X117851428Y-78757894D01*
X117857244Y-78766841D01*
X117862847Y-78776021D01*
X117868235Y-78785434D01*
X117873410Y-78795080D01*
X117878371Y-78804958D01*
X117883119Y-78815069D01*
X117887653Y-78825413D01*
X117891973Y-78835990D01*
X117896079Y-78846800D01*
X117899972Y-78857842D01*
X117903650Y-78869118D01*
X117907116Y-78880626D01*
X117910367Y-78892366D01*
X117913405Y-78904340D01*
X117916215Y-78916535D01*
X117918843Y-78929001D01*
X117921290Y-78941738D01*
X117923556Y-78954746D01*
X117925641Y-78968024D01*
X117927544Y-78981574D01*
X117929266Y-78995395D01*
X117930807Y-79009487D01*
X117932167Y-79023849D01*
X117933345Y-79038483D01*
X117934342Y-79053387D01*
X117935158Y-79068563D01*
X117935792Y-79084009D01*
X117936245Y-79099727D01*
X117936517Y-79115715D01*
X117936608Y-79131974D01*
X117936519Y-79147739D01*
X117936253Y-79163279D01*
X117935809Y-79178597D01*
X117935188Y-79193691D01*
X117934390Y-79208563D01*
X117933414Y-79223211D01*
X117932260Y-79237635D01*
X117930929Y-79251837D01*
X117929421Y-79265815D01*
X117927735Y-79279570D01*
X117925872Y-79293101D01*
X117923831Y-79306410D01*
X117921613Y-79319495D01*
X117919217Y-79332357D01*
X117916644Y-79344995D01*
X117913893Y-79357411D01*
X117910944Y-79369559D01*
X117907776Y-79381457D01*
X117904388Y-79393105D01*
X117900781Y-79404504D01*
X117896954Y-79415652D01*
X117892908Y-79426550D01*
X117888642Y-79437199D01*
X117884157Y-79447597D01*
X117879452Y-79457746D01*
X117874528Y-79467644D01*
X117869385Y-79477293D01*
X117864022Y-79486691D01*
X117858440Y-79495840D01*
X117852638Y-79504739D01*
X117846617Y-79513387D01*
X117840376Y-79521786D01*
X117833996Y-79529934D01*
X117827374Y-79537830D01*
X117820510Y-79545474D01*
X117813403Y-79552866D01*
X117806054Y-79560006D01*
X117798462Y-79566895D01*
X117790628Y-79573531D01*
X117782552Y-79579916D01*
X117774233Y-79586049D01*
X117765672Y-79591929D01*
X117756869Y-79597558D01*
X117747824Y-79602936D01*
X117738536Y-79608061D01*
X117729005Y-79612934D01*
X117719233Y-79617556D01*
X117709218Y-79621926D01*
X117698950Y-79626007D01*
X117688419Y-79629825D01*
X117677625Y-79633380D01*
X117666567Y-79636672D01*
X117655246Y-79639700D01*
X117643662Y-79642465D01*
X117631814Y-79644966D01*
X117619703Y-79647205D01*
X117607329Y-79649180D01*
X117594691Y-79650891D01*
X117581790Y-79652339D01*
X117568626Y-79653524D01*
X117555198Y-79654446D01*
X117541507Y-79655104D01*
X117527553Y-79655499D01*
X117513335Y-79655631D01*
X117498887Y-79655500D01*
X117484728Y-79655108D01*
X117470860Y-79654455D01*
X117457281Y-79653540D01*
X117443993Y-79652363D01*
X117430995Y-79650926D01*
X117418287Y-79649226D01*
X117405868Y-79647266D01*
X117393740Y-79645044D01*
X117381902Y-79642560D01*
X117370354Y-79639815D01*
X117359096Y-79636809D01*
X117348128Y-79633541D01*
X117337450Y-79630012D01*
X117327062Y-79626222D01*
X117316964Y-79622170D01*
X117307124Y-79617862D01*
X117297508Y-79613305D01*
X117288118Y-79608497D01*
X117278954Y-79603439D01*
X117270014Y-79598132D01*
X117261299Y-79592574D01*
X117252810Y-79586767D01*
X117244546Y-79580710D01*
X117236507Y-79574402D01*
X117228693Y-79567845D01*
X117221104Y-79561038D01*
X117213741Y-79553980D01*
X117206602Y-79546673D01*
X117199689Y-79539116D01*
X117193001Y-79531309D01*
X117186538Y-79523251D01*
X117180444Y-79515081D01*
X117174555Y-79506628D01*
X117168873Y-79497892D01*
X117163396Y-79488874D01*
X117158126Y-79479574D01*
X117153062Y-79469991D01*
X117148204Y-79460126D01*
X117143551Y-79449979D01*
X117139106Y-79439549D01*
X117134866Y-79428836D01*
X117130832Y-79417842D01*
X117127004Y-79406564D01*
X117123382Y-79395005D01*
X117119967Y-79383163D01*
X117116757Y-79371039D01*
X117113754Y-79358632D01*
X117110915Y-79345980D01*
X117108258Y-79333120D01*
X117105785Y-79320052D01*
X117103496Y-79306776D01*
X117101389Y-79293292D01*
X117099466Y-79279600D01*
X117097725Y-79265700D01*
X117096168Y-79251592D01*
X117094795Y-79237276D01*
X117093604Y-79222753D01*
X117092596Y-79208021D01*
X117091772Y-79193081D01*
X117091131Y-79177933D01*
X117090673Y-79162577D01*
X117090398Y-79147013D01*
X117090307Y-79131242D01*
X117356043Y-79131242D01*
X117356079Y-79142363D01*
X117356188Y-79153287D01*
X117356369Y-79164015D01*
X117356623Y-79174545D01*
X117356949Y-79184878D01*
X117357348Y-79195015D01*
X117358363Y-79214696D01*
X117359668Y-79233590D01*
X117361263Y-79251695D01*
X117363149Y-79269013D01*
X117365324Y-79285542D01*
X117367789Y-79301283D01*
X117370545Y-79316237D01*
X117373590Y-79330402D01*
X117376926Y-79343779D01*
X117380551Y-79356368D01*
X117384467Y-79368169D01*
X117388672Y-79379182D01*
X117393168Y-79389406D01*
X117395533Y-79394245D01*
X117400534Y-79403461D01*
X117405896Y-79412063D01*
X117411619Y-79420051D01*
X117420879Y-79430880D01*
X117430950Y-79440327D01*
X117441833Y-79448391D01*
X117453527Y-79455073D01*
X117466033Y-79460372D01*
X117479350Y-79464289D01*
X117493479Y-79466824D01*
X117503349Y-79467745D01*
X117513579Y-79468053D01*
X117523780Y-79467745D01*
X117538409Y-79466132D01*
X117552231Y-79463137D01*
X117565245Y-79458759D01*
X117577453Y-79452999D01*
X117588853Y-79445856D01*
X117599446Y-79437331D01*
X117609232Y-79427424D01*
X117618211Y-79416134D01*
X117623748Y-79407839D01*
X117628927Y-79398930D01*
X117633747Y-79389406D01*
X117636031Y-79384394D01*
X117640382Y-79373786D01*
X117644442Y-79362402D01*
X117648213Y-79350242D01*
X117651693Y-79337305D01*
X117654883Y-79323591D01*
X117657784Y-79309100D01*
X117660394Y-79293833D01*
X117662714Y-79277790D01*
X117664745Y-79260969D01*
X117666485Y-79243372D01*
X117667935Y-79224999D01*
X117669095Y-79205849D01*
X117669567Y-79195982D01*
X117669965Y-79185922D01*
X117670292Y-79175667D01*
X117670546Y-79165218D01*
X117670727Y-79154575D01*
X117670836Y-79143738D01*
X117670872Y-79132707D01*
X117670836Y-79121377D01*
X117670730Y-79110254D01*
X117670552Y-79099338D01*
X117670303Y-79088629D01*
X117669983Y-79078127D01*
X117669592Y-79067832D01*
X117669130Y-79057744D01*
X117668597Y-79047863D01*
X117667318Y-79028723D01*
X117665754Y-79010410D01*
X117663906Y-78992926D01*
X117661774Y-78976270D01*
X117659357Y-78960441D01*
X117656656Y-78945442D01*
X117653671Y-78931270D01*
X117650401Y-78917926D01*
X117646847Y-78905411D01*
X117643009Y-78893723D01*
X117638886Y-78882864D01*
X117634480Y-78872833D01*
X117629743Y-78863516D01*
X117624630Y-78854801D01*
X117616256Y-78842855D01*
X117607036Y-78832261D01*
X117596970Y-78823019D01*
X117586058Y-78815130D01*
X117574301Y-78808594D01*
X117561698Y-78803410D01*
X117548249Y-78799578D01*
X117533955Y-78797098D01*
X117523955Y-78796197D01*
X117513579Y-78795896D01*
X117508330Y-78795971D01*
X117498113Y-78796572D01*
X117488275Y-78797775D01*
X117474226Y-78800705D01*
X117461027Y-78804987D01*
X117448678Y-78810622D01*
X117437179Y-78817610D01*
X117426530Y-78825950D01*
X117416731Y-78835642D01*
X117407782Y-78846686D01*
X117402289Y-78854801D01*
X117397173Y-78863516D01*
X117392435Y-78872833D01*
X117388028Y-78882858D01*
X117383906Y-78893700D01*
X117380067Y-78905359D01*
X117376513Y-78917834D01*
X117373244Y-78931127D01*
X117370258Y-78945235D01*
X117367557Y-78960161D01*
X117365141Y-78975903D01*
X117363008Y-78992462D01*
X117361160Y-79009838D01*
X117359597Y-79028030D01*
X117358317Y-79047039D01*
X117357784Y-79056850D01*
X117357322Y-79066865D01*
X117356931Y-79077084D01*
X117356611Y-79087507D01*
X117356363Y-79098134D01*
X117356185Y-79108966D01*
X117356078Y-79120002D01*
X117356043Y-79131242D01*
X117090307Y-79131242D01*
X117090395Y-79115483D01*
X117090661Y-79099959D01*
X117091105Y-79084670D01*
X117091726Y-79069616D01*
X117092525Y-79054797D01*
X117093501Y-79040212D01*
X117094654Y-79025861D01*
X117095985Y-79011746D01*
X117097494Y-78997865D01*
X117099179Y-78984219D01*
X117101043Y-78970807D01*
X117103084Y-78957631D01*
X117105302Y-78944689D01*
X117107697Y-78931981D01*
X117110271Y-78919509D01*
X117113021Y-78907271D01*
X117115967Y-78895271D01*
X117119127Y-78883511D01*
X117122501Y-78871991D01*
X117126088Y-78860712D01*
X117129889Y-78849674D01*
X117133904Y-78838875D01*
X117138132Y-78828318D01*
X117142575Y-78818000D01*
X117147230Y-78807923D01*
X117152100Y-78798087D01*
X117157183Y-78788491D01*
X117162480Y-78779135D01*
X117167991Y-78770020D01*
X117173715Y-78761145D01*
X117179654Y-78752511D01*
X117185806Y-78744117D01*
X117192269Y-78735791D01*
X117198960Y-78727730D01*
X117205878Y-78719931D01*
X117213023Y-78712396D01*
X117220395Y-78705124D01*
X117227995Y-78698115D01*
X117235821Y-78691370D01*
X117243874Y-78684888D01*
X117252155Y-78678669D01*
X117260662Y-78672714D01*
X117269397Y-78667022D01*
X117278358Y-78661593D01*
X117287547Y-78656428D01*
X117296963Y-78651526D01*
X117306606Y-78646887D01*
X117316475Y-78642512D01*
X117326575Y-78638371D01*
X117336969Y-78634497D01*
X117347656Y-78630891D01*
X117358638Y-78627552D01*
X117369913Y-78624480D01*
X117381482Y-78621675D01*
X117393345Y-78619137D01*
X117405502Y-78616866D01*
X117417953Y-78614863D01*
X117430697Y-78613126D01*
X117443735Y-78611657D01*
X117457068Y-78610455D01*
X117470694Y-78609520D01*
X117484614Y-78608852D01*
X117498828Y-78608451D01*
X117513335Y-78608318D01*
X117527316Y-78608447D01*
G37*
G36*
X116532759Y-78608447D02*
G01*
X116546492Y-78608837D01*
X116559977Y-78609485D01*
X116573214Y-78610394D01*
X116586203Y-78611562D01*
X116598943Y-78612989D01*
X116611436Y-78614676D01*
X116623681Y-78616622D01*
X116635677Y-78618828D01*
X116647426Y-78621293D01*
X116658926Y-78624018D01*
X116670178Y-78627002D01*
X116681183Y-78630246D01*
X116691939Y-78633750D01*
X116702447Y-78637512D01*
X116712707Y-78641535D01*
X116722696Y-78645786D01*
X116732453Y-78650297D01*
X116741976Y-78655067D01*
X116751267Y-78660097D01*
X116760325Y-78665387D01*
X116769150Y-78670935D01*
X116777742Y-78676744D01*
X116786102Y-78682812D01*
X116794229Y-78689139D01*
X116802123Y-78695726D01*
X116809784Y-78702573D01*
X116817213Y-78709678D01*
X116824408Y-78717044D01*
X116831371Y-78724669D01*
X116838101Y-78732553D01*
X116844598Y-78740697D01*
X116850842Y-78749179D01*
X116856871Y-78757894D01*
X116862687Y-78766841D01*
X116868290Y-78776021D01*
X116873678Y-78785434D01*
X116878853Y-78795080D01*
X116883814Y-78804958D01*
X116888562Y-78815069D01*
X116893096Y-78825413D01*
X116897416Y-78835990D01*
X116901522Y-78846800D01*
X116905415Y-78857842D01*
X116909094Y-78869118D01*
X116912559Y-78880626D01*
X116915810Y-78892366D01*
X116918848Y-78904340D01*
X116921658Y-78916535D01*
X116924286Y-78929001D01*
X116926733Y-78941738D01*
X116928999Y-78954746D01*
X116931084Y-78968024D01*
X116932987Y-78981574D01*
X116934710Y-78995395D01*
X116936250Y-79009487D01*
X116937610Y-79023849D01*
X116938788Y-79038483D01*
X116939785Y-79053387D01*
X116940601Y-79068563D01*
X116941235Y-79084009D01*
X116941689Y-79099727D01*
X116941961Y-79115715D01*
X116942051Y-79131974D01*
X116941962Y-79147739D01*
X116941696Y-79163279D01*
X116941253Y-79178597D01*
X116940631Y-79193691D01*
X116939833Y-79208563D01*
X116938857Y-79223211D01*
X116937703Y-79237635D01*
X116936372Y-79251837D01*
X116934864Y-79265815D01*
X116933178Y-79279570D01*
X116931315Y-79293101D01*
X116929274Y-79306410D01*
X116927056Y-79319495D01*
X116924660Y-79332357D01*
X116922087Y-79344995D01*
X116919337Y-79357411D01*
X116916388Y-79369559D01*
X116913219Y-79381457D01*
X116909831Y-79393105D01*
X116906224Y-79404504D01*
X116902397Y-79415652D01*
X116898351Y-79426550D01*
X116894085Y-79437199D01*
X116889600Y-79447597D01*
X116884895Y-79457746D01*
X116879971Y-79467644D01*
X116874828Y-79477293D01*
X116869465Y-79486691D01*
X116863883Y-79495840D01*
X116858081Y-79504739D01*
X116852060Y-79513387D01*
X116845819Y-79521786D01*
X116839440Y-79529934D01*
X116832817Y-79537830D01*
X116825953Y-79545474D01*
X116818846Y-79552866D01*
X116811497Y-79560006D01*
X116803905Y-79566895D01*
X116796071Y-79573531D01*
X116787995Y-79579916D01*
X116779676Y-79586049D01*
X116771115Y-79591929D01*
X116762312Y-79597558D01*
X116753267Y-79602936D01*
X116743979Y-79608061D01*
X116734449Y-79612934D01*
X116724676Y-79617556D01*
X116714661Y-79621926D01*
X116704393Y-79626007D01*
X116693862Y-79629825D01*
X116683068Y-79633380D01*
X116672010Y-79636672D01*
X116660689Y-79639700D01*
X116649105Y-79642465D01*
X116637257Y-79644966D01*
X116625146Y-79647205D01*
X116612772Y-79649180D01*
X116600134Y-79650891D01*
X116587233Y-79652339D01*
X116574069Y-79653524D01*
X116560641Y-79654446D01*
X116546950Y-79655104D01*
X116532996Y-79655499D01*
X116518778Y-79655631D01*
X116504330Y-79655500D01*
X116490171Y-79655108D01*
X116476303Y-79654455D01*
X116462725Y-79653540D01*
X116449436Y-79652363D01*
X116436438Y-79650926D01*
X116423730Y-79649226D01*
X116411311Y-79647266D01*
X116399183Y-79645044D01*
X116387345Y-79642560D01*
X116375797Y-79639815D01*
X116364539Y-79636809D01*
X116353571Y-79633541D01*
X116342893Y-79630012D01*
X116332505Y-79626222D01*
X116322407Y-79622170D01*
X116312567Y-79617862D01*
X116302952Y-79613305D01*
X116293562Y-79608497D01*
X116284397Y-79603439D01*
X116275457Y-79598132D01*
X116266743Y-79592574D01*
X116258253Y-79586767D01*
X116249989Y-79580710D01*
X116241950Y-79574402D01*
X116234136Y-79567845D01*
X116226547Y-79561038D01*
X116219184Y-79553980D01*
X116212046Y-79546673D01*
X116205132Y-79539116D01*
X116198444Y-79531309D01*
X116191981Y-79523251D01*
X116185887Y-79515081D01*
X116179998Y-79506628D01*
X116174316Y-79497892D01*
X116168839Y-79488874D01*
X116163569Y-79479574D01*
X116158505Y-79469991D01*
X116153647Y-79460126D01*
X116148995Y-79449979D01*
X116144549Y-79439549D01*
X116140309Y-79428836D01*
X116136275Y-79417842D01*
X116132447Y-79406564D01*
X116128825Y-79395005D01*
X116125410Y-79383163D01*
X116122200Y-79371039D01*
X116119197Y-79358632D01*
X116116358Y-79345980D01*
X116113702Y-79333120D01*
X116111229Y-79320052D01*
X116108939Y-79306776D01*
X116106832Y-79293292D01*
X116104909Y-79279600D01*
X116103169Y-79265700D01*
X116101612Y-79251592D01*
X116100238Y-79237276D01*
X116099047Y-79222753D01*
X116098039Y-79208021D01*
X116097215Y-79193081D01*
X116096574Y-79177933D01*
X116096116Y-79162577D01*
X116095841Y-79147013D01*
X116095750Y-79131242D01*
X116361486Y-79131242D01*
X116361522Y-79142363D01*
X116361631Y-79153287D01*
X116361812Y-79164015D01*
X116362066Y-79174545D01*
X116362392Y-79184878D01*
X116362791Y-79195015D01*
X116363806Y-79214696D01*
X116365111Y-79233590D01*
X116366707Y-79251695D01*
X116368592Y-79269013D01*
X116370767Y-79285542D01*
X116373232Y-79301283D01*
X116375988Y-79316237D01*
X116379033Y-79330402D01*
X116382369Y-79343779D01*
X116385994Y-79356368D01*
X116389910Y-79368169D01*
X116394115Y-79379182D01*
X116398611Y-79389406D01*
X116400976Y-79394245D01*
X116405977Y-79403461D01*
X116411339Y-79412063D01*
X116417062Y-79420051D01*
X116426322Y-79430880D01*
X116436393Y-79440327D01*
X116447276Y-79448391D01*
X116458971Y-79455073D01*
X116471476Y-79460372D01*
X116484793Y-79464289D01*
X116498922Y-79466824D01*
X116508792Y-79467745D01*
X116519023Y-79468053D01*
X116529223Y-79467745D01*
X116543852Y-79466132D01*
X116557674Y-79463137D01*
X116570688Y-79458759D01*
X116582896Y-79452999D01*
X116594296Y-79445856D01*
X116604889Y-79437331D01*
X116614675Y-79427424D01*
X116623654Y-79416134D01*
X116629191Y-79407839D01*
X116634370Y-79398930D01*
X116639190Y-79389406D01*
X116641474Y-79384394D01*
X116645825Y-79373786D01*
X116649885Y-79362402D01*
X116653656Y-79350242D01*
X116657136Y-79337305D01*
X116660327Y-79323591D01*
X116663227Y-79309100D01*
X116665837Y-79293833D01*
X116668158Y-79277790D01*
X116670188Y-79260969D01*
X116671928Y-79243372D01*
X116673378Y-79224999D01*
X116674538Y-79205849D01*
X116675010Y-79195982D01*
X116675409Y-79185922D01*
X116675735Y-79175667D01*
X116675989Y-79165218D01*
X116676170Y-79154575D01*
X116676279Y-79143738D01*
X116676315Y-79132707D01*
X116676279Y-79121377D01*
X116676173Y-79110254D01*
X116675995Y-79099338D01*
X116675746Y-79088629D01*
X116675426Y-79078127D01*
X116675036Y-79067832D01*
X116674573Y-79057744D01*
X116674040Y-79047863D01*
X116672761Y-79028723D01*
X116671197Y-79010410D01*
X116669349Y-78992926D01*
X116667217Y-78976270D01*
X116664800Y-78960441D01*
X116662099Y-78945442D01*
X116659114Y-78931270D01*
X116655844Y-78917926D01*
X116652290Y-78905411D01*
X116648452Y-78893723D01*
X116644330Y-78882864D01*
X116639923Y-78872833D01*
X116635186Y-78863516D01*
X116630073Y-78854801D01*
X116621699Y-78842855D01*
X116612479Y-78832261D01*
X116602413Y-78823019D01*
X116591502Y-78815130D01*
X116579744Y-78808594D01*
X116567141Y-78803410D01*
X116553692Y-78799578D01*
X116539398Y-78797098D01*
X116529398Y-78796197D01*
X116519023Y-78795896D01*
X116513773Y-78795971D01*
X116503557Y-78796572D01*
X116493718Y-78797775D01*
X116479669Y-78800705D01*
X116466470Y-78804987D01*
X116454121Y-78810622D01*
X116442622Y-78817610D01*
X116431973Y-78825950D01*
X116422174Y-78835642D01*
X116413225Y-78846686D01*
X116407732Y-78854801D01*
X116402616Y-78863516D01*
X116397878Y-78872833D01*
X116393471Y-78882858D01*
X116389349Y-78893700D01*
X116385510Y-78905359D01*
X116381956Y-78917834D01*
X116378687Y-78931127D01*
X116375702Y-78945235D01*
X116373001Y-78960161D01*
X116370584Y-78975903D01*
X116368452Y-78992462D01*
X116366604Y-79009838D01*
X116365040Y-79028030D01*
X116363760Y-79047039D01*
X116363227Y-79056850D01*
X116362765Y-79066865D01*
X116362374Y-79077084D01*
X116362055Y-79087507D01*
X116361806Y-79098134D01*
X116361628Y-79108966D01*
X116361521Y-79120002D01*
X116361486Y-79131242D01*
X116095750Y-79131242D01*
X116095838Y-79115483D01*
X116096105Y-79099959D01*
X116096548Y-79084670D01*
X116097169Y-79069616D01*
X116097968Y-79054797D01*
X116098944Y-79040212D01*
X116100097Y-79025861D01*
X116101428Y-79011746D01*
X116102937Y-78997865D01*
X116104623Y-78984219D01*
X116106486Y-78970807D01*
X116108527Y-78957631D01*
X116110745Y-78944689D01*
X116113141Y-78931981D01*
X116115714Y-78919509D01*
X116118464Y-78907271D01*
X116121410Y-78895271D01*
X116124570Y-78883511D01*
X116127944Y-78871991D01*
X116131531Y-78860712D01*
X116135332Y-78849674D01*
X116139347Y-78838875D01*
X116143575Y-78828318D01*
X116148018Y-78818000D01*
X116152674Y-78807923D01*
X116157543Y-78798087D01*
X116162626Y-78788491D01*
X116167923Y-78779135D01*
X116173434Y-78770020D01*
X116179159Y-78761145D01*
X116185097Y-78752511D01*
X116191249Y-78744117D01*
X116197712Y-78735791D01*
X116204403Y-78727730D01*
X116211321Y-78719931D01*
X116218466Y-78712396D01*
X116225839Y-78705124D01*
X116233438Y-78698115D01*
X116241264Y-78691370D01*
X116249317Y-78684888D01*
X116257598Y-78678669D01*
X116266105Y-78672714D01*
X116274840Y-78667022D01*
X116283801Y-78661593D01*
X116292990Y-78656428D01*
X116302406Y-78651526D01*
X116312049Y-78646887D01*
X116321919Y-78642512D01*
X116332018Y-78638371D01*
X116342412Y-78634497D01*
X116353100Y-78630891D01*
X116364081Y-78627552D01*
X116375356Y-78624480D01*
X116386925Y-78621675D01*
X116398788Y-78619137D01*
X116410945Y-78616866D01*
X116423396Y-78614863D01*
X116436140Y-78613126D01*
X116449179Y-78611657D01*
X116462511Y-78610455D01*
X116476137Y-78609520D01*
X116490057Y-78608852D01*
X116504271Y-78608451D01*
X116518778Y-78608318D01*
X116532759Y-78608447D01*
G37*
G36*
X115534215Y-78608392D02*
G01*
X115545298Y-78608614D01*
X115556248Y-78608985D01*
X115567067Y-78609505D01*
X115577753Y-78610172D01*
X115588307Y-78610988D01*
X115598730Y-78611952D01*
X115609019Y-78613065D01*
X115619177Y-78614326D01*
X115629203Y-78615736D01*
X115639096Y-78617293D01*
X115648858Y-78619000D01*
X115667984Y-78622857D01*
X115686582Y-78627308D01*
X115704651Y-78632352D01*
X115722192Y-78637989D01*
X115739204Y-78644220D01*
X115755687Y-78651045D01*
X115771642Y-78658463D01*
X115787069Y-78666474D01*
X115801967Y-78675079D01*
X115816336Y-78684277D01*
X115829971Y-78693941D01*
X115842726Y-78703943D01*
X115854601Y-78714282D01*
X115865597Y-78724959D01*
X115875713Y-78735974D01*
X115884949Y-78747326D01*
X115893306Y-78759017D01*
X115900783Y-78771045D01*
X115907380Y-78783410D01*
X115913098Y-78796114D01*
X115917936Y-78809155D01*
X115921895Y-78822534D01*
X115924973Y-78836251D01*
X115927172Y-78850305D01*
X115928492Y-78864697D01*
X115928932Y-78879427D01*
X115928891Y-78884446D01*
X115928565Y-78894370D01*
X115927912Y-78904144D01*
X115926321Y-78918521D01*
X115923997Y-78932560D01*
X115920938Y-78946259D01*
X115917144Y-78959619D01*
X115912617Y-78972640D01*
X115907356Y-78985322D01*
X115901360Y-78997665D01*
X115894630Y-79009668D01*
X115887166Y-79021332D01*
X115881730Y-79028884D01*
X115872881Y-79039907D01*
X115863200Y-79050565D01*
X115856283Y-79057468D01*
X115848996Y-79064208D01*
X115841338Y-79070787D01*
X115833311Y-79077203D01*
X115824913Y-79083457D01*
X115816145Y-79089549D01*
X115807007Y-79095478D01*
X115797499Y-79101246D01*
X115787620Y-79106851D01*
X115777371Y-79112294D01*
X115766753Y-79117575D01*
X115755764Y-79122693D01*
X115755764Y-79126845D01*
X115769338Y-79132367D01*
X115782401Y-79138004D01*
X115794953Y-79143755D01*
X115806994Y-79149621D01*
X115818523Y-79155601D01*
X115829540Y-79161696D01*
X115840046Y-79167905D01*
X115850041Y-79174228D01*
X115859525Y-79180666D01*
X115868497Y-79187219D01*
X115876958Y-79193886D01*
X115884907Y-79200668D01*
X115892345Y-79207564D01*
X115902543Y-79218122D01*
X115911591Y-79228939D01*
X115917033Y-79236272D01*
X115924537Y-79247522D01*
X115931252Y-79259072D01*
X115937177Y-79270923D01*
X115942312Y-79283075D01*
X115946657Y-79295527D01*
X115950211Y-79308280D01*
X115952976Y-79321333D01*
X115954951Y-79334686D01*
X115956136Y-79348341D01*
X115956531Y-79362295D01*
X115956434Y-79369927D01*
X115955923Y-79381256D01*
X115954974Y-79392444D01*
X115953587Y-79403490D01*
X115951763Y-79414394D01*
X115949500Y-79425157D01*
X115946800Y-79435778D01*
X115943661Y-79446257D01*
X115940085Y-79456595D01*
X115936071Y-79466791D01*
X115931618Y-79476845D01*
X115928368Y-79483418D01*
X115923095Y-79493080D01*
X115917346Y-79502506D01*
X115911119Y-79511696D01*
X115904417Y-79520650D01*
X115897238Y-79529367D01*
X115889582Y-79537849D01*
X115881450Y-79546094D01*
X115872841Y-79554103D01*
X115863755Y-79561876D01*
X115854193Y-79569413D01*
X115850854Y-79571930D01*
X115840504Y-79579275D01*
X115829662Y-79586310D01*
X115818325Y-79593036D01*
X115806495Y-79599453D01*
X115794171Y-79605561D01*
X115781353Y-79611360D01*
X115768042Y-79616850D01*
X115758893Y-79620338D01*
X115749525Y-79623689D01*
X115739937Y-79626902D01*
X115730131Y-79629978D01*
X115720104Y-79632916D01*
X115709842Y-79635667D01*
X115699328Y-79638240D01*
X115688563Y-79640636D01*
X115677545Y-79642854D01*
X115666275Y-79644895D01*
X115654754Y-79646758D01*
X115642981Y-79648444D01*
X115630956Y-79649952D01*
X115618679Y-79651283D01*
X115606150Y-79652437D01*
X115593369Y-79653413D01*
X115580336Y-79654211D01*
X115567052Y-79654832D01*
X115553515Y-79655276D01*
X115539727Y-79655542D01*
X115525687Y-79655631D01*
X115513147Y-79655548D01*
X115500775Y-79655300D01*
X115488572Y-79654886D01*
X115476537Y-79654307D01*
X115464670Y-79653562D01*
X115452972Y-79652651D01*
X115441442Y-79651576D01*
X115430081Y-79650334D01*
X115418888Y-79648927D01*
X115407864Y-79647354D01*
X115397007Y-79645616D01*
X115386320Y-79643713D01*
X115375800Y-79641644D01*
X115365449Y-79639409D01*
X115355267Y-79637009D01*
X115345252Y-79634443D01*
X115335407Y-79631712D01*
X115325729Y-79628815D01*
X115316220Y-79625753D01*
X115306880Y-79622525D01*
X115288704Y-79615572D01*
X115271201Y-79607958D01*
X115254372Y-79599681D01*
X115238217Y-79590743D01*
X115222735Y-79581142D01*
X115207927Y-79570879D01*
X115193908Y-79560096D01*
X115180793Y-79548935D01*
X115168583Y-79537397D01*
X115157277Y-79525480D01*
X115146876Y-79513186D01*
X115137379Y-79500514D01*
X115128787Y-79487464D01*
X115121099Y-79474036D01*
X115114315Y-79460231D01*
X115108436Y-79446048D01*
X115103462Y-79431487D01*
X115099392Y-79416548D01*
X115096226Y-79401231D01*
X115093965Y-79385537D01*
X115092608Y-79369464D01*
X115092471Y-79364494D01*
X115354717Y-79364494D01*
X115354850Y-79371051D01*
X115355663Y-79381407D01*
X115357615Y-79392891D01*
X115360632Y-79403343D01*
X115364714Y-79412766D01*
X115369860Y-79421158D01*
X115370816Y-79422450D01*
X115378027Y-79431218D01*
X115384933Y-79438342D01*
X115392510Y-79445105D01*
X115400756Y-79451508D01*
X115409672Y-79457550D01*
X115411008Y-79458383D01*
X115420815Y-79463824D01*
X115429854Y-79467949D01*
X115439477Y-79471575D01*
X115449683Y-79474703D01*
X115460474Y-79477334D01*
X115471290Y-79479492D01*
X115481574Y-79481203D01*
X115491326Y-79482469D01*
X115502030Y-79483380D01*
X115512009Y-79483684D01*
X115517123Y-79483644D01*
X115527170Y-79483321D01*
X115536974Y-79482676D01*
X115551226Y-79481104D01*
X115564932Y-79478807D01*
X115578093Y-79475783D01*
X115590709Y-79472035D01*
X115602780Y-79467560D01*
X115614305Y-79462360D01*
X115625285Y-79456435D01*
X115635720Y-79449784D01*
X115645610Y-79442407D01*
X115651792Y-79437105D01*
X115660316Y-79428734D01*
X115667943Y-79419860D01*
X115674673Y-79410484D01*
X115680505Y-79400606D01*
X115685441Y-79390226D01*
X115689478Y-79379343D01*
X115692619Y-79367958D01*
X115694862Y-79356070D01*
X115696208Y-79343680D01*
X115696657Y-79330788D01*
X115696287Y-79319328D01*
X115695176Y-79308150D01*
X115693325Y-79297254D01*
X115690734Y-79286641D01*
X115687402Y-79276310D01*
X115683330Y-79266262D01*
X115678518Y-79256496D01*
X115672965Y-79247013D01*
X115666951Y-79237846D01*
X115660753Y-79229030D01*
X115654372Y-79220566D01*
X115647808Y-79212452D01*
X115641061Y-79204690D01*
X115634131Y-79197279D01*
X115627017Y-79190219D01*
X115619720Y-79183510D01*
X115617860Y-79184185D01*
X115608157Y-79187686D01*
X115597786Y-79191389D01*
X115586748Y-79195294D01*
X115577436Y-79198565D01*
X115567697Y-79201965D01*
X115557530Y-79205495D01*
X115546936Y-79209155D01*
X115541612Y-79210970D01*
X115531446Y-79214496D01*
X115521920Y-79217885D01*
X115510915Y-79221928D01*
X115500911Y-79225756D01*
X115490230Y-79230067D01*
X115480990Y-79234068D01*
X115471578Y-79238069D01*
X115462573Y-79242013D01*
X115449832Y-79247822D01*
X115438009Y-79253502D01*
X115427106Y-79259054D01*
X115417121Y-79264476D01*
X115408055Y-79269770D01*
X115397396Y-79276628D01*
X115388370Y-79283257D01*
X115379385Y-79291221D01*
X115377868Y-79292801D01*
X115371002Y-79301387D01*
X115365341Y-79311119D01*
X115360884Y-79321995D01*
X115358186Y-79331521D01*
X115356259Y-79341779D01*
X115355102Y-79352770D01*
X115354717Y-79364494D01*
X115092471Y-79364494D01*
X115092156Y-79353014D01*
X115092357Y-79341661D01*
X115092961Y-79330498D01*
X115093968Y-79319526D01*
X115095377Y-79308745D01*
X115097189Y-79298155D01*
X115099403Y-79287756D01*
X115102020Y-79277547D01*
X115105040Y-79267529D01*
X115108462Y-79257702D01*
X115112287Y-79248066D01*
X115116514Y-79238621D01*
X115121144Y-79229366D01*
X115126177Y-79220303D01*
X115131612Y-79211430D01*
X115137450Y-79202748D01*
X115143691Y-79194256D01*
X115150350Y-79185939D01*
X115157445Y-79177839D01*
X115164975Y-79169956D01*
X115172939Y-79162291D01*
X115181339Y-79154844D01*
X115190174Y-79147614D01*
X115199443Y-79140601D01*
X115209148Y-79133806D01*
X115219288Y-79127229D01*
X115229863Y-79120869D01*
X115240873Y-79114727D01*
X115252318Y-79108802D01*
X115264198Y-79103095D01*
X115276513Y-79097605D01*
X115289264Y-79092333D01*
X115302449Y-79087278D01*
X115302449Y-79083126D01*
X115296650Y-79080682D01*
X115285334Y-79075696D01*
X115274397Y-79070579D01*
X115263837Y-79065329D01*
X115253655Y-79059948D01*
X115243851Y-79054436D01*
X115234425Y-79048791D01*
X115225376Y-79043015D01*
X115216706Y-79037108D01*
X115208413Y-79031068D01*
X115200498Y-79024898D01*
X115192961Y-79018595D01*
X115182363Y-79008894D01*
X115172616Y-78998897D01*
X115163719Y-78988604D01*
X115158218Y-78981552D01*
X115150631Y-78970750D01*
X115143844Y-78959676D01*
X115137855Y-78948333D01*
X115132664Y-78936718D01*
X115128272Y-78924834D01*
X115124678Y-78912679D01*
X115121883Y-78900253D01*
X115120452Y-78891151D01*
X115375966Y-78891151D01*
X115376088Y-78898912D01*
X115376632Y-78908899D01*
X115377924Y-78920804D01*
X115379895Y-78932064D01*
X115382546Y-78942680D01*
X115385877Y-78952653D01*
X115389888Y-78961981D01*
X115390760Y-78963775D01*
X115395644Y-78972964D01*
X115401398Y-78982522D01*
X115408023Y-78992451D01*
X115413950Y-79000660D01*
X115420433Y-79009105D01*
X115427475Y-79017787D01*
X115435073Y-79026706D01*
X115440941Y-79024885D01*
X115452352Y-79021313D01*
X115463328Y-79017833D01*
X115473868Y-79014444D01*
X115483974Y-79011147D01*
X115493644Y-79007941D01*
X115505121Y-79004063D01*
X115515917Y-79000327D01*
X115517980Y-78999598D01*
X115527884Y-78996060D01*
X115538872Y-78992050D01*
X115548881Y-78988298D01*
X115559322Y-78984245D01*
X115568429Y-78980544D01*
X115577972Y-78976422D01*
X115586999Y-78972301D01*
X115598235Y-78966805D01*
X115608554Y-78961310D01*
X115617957Y-78955814D01*
X115626445Y-78950319D01*
X115635766Y-78943449D01*
X115643656Y-78936580D01*
X115646436Y-78933764D01*
X115652602Y-78926122D01*
X115657647Y-78917621D01*
X115661570Y-78908261D01*
X115664373Y-78898043D01*
X115666054Y-78886966D01*
X115666615Y-78875031D01*
X115666602Y-78873585D01*
X115665806Y-78863735D01*
X115663379Y-78853049D01*
X115659334Y-78842974D01*
X115653670Y-78833510D01*
X115651996Y-78831218D01*
X115645730Y-78823648D01*
X115637796Y-78815855D01*
X115629037Y-78808978D01*
X115620697Y-78803712D01*
X115615259Y-78800930D01*
X115605430Y-78796484D01*
X115595204Y-78792575D01*
X115584580Y-78789204D01*
X115573558Y-78786371D01*
X115567105Y-78784940D01*
X115555904Y-78782894D01*
X115544819Y-78781433D01*
X115533851Y-78780557D01*
X115523000Y-78780265D01*
X115510732Y-78780529D01*
X115498932Y-78781321D01*
X115487600Y-78782641D01*
X115476735Y-78784489D01*
X115466339Y-78786866D01*
X115456411Y-78789770D01*
X115446950Y-78793203D01*
X115437958Y-78797163D01*
X115426696Y-78803265D01*
X115416266Y-78810307D01*
X115406821Y-78818141D01*
X115398635Y-78826625D01*
X115391708Y-78835757D01*
X115386041Y-78845539D01*
X115381633Y-78855969D01*
X115378485Y-78867047D01*
X115376596Y-78878775D01*
X115375966Y-78891151D01*
X115120452Y-78891151D01*
X115119887Y-78887557D01*
X115118689Y-78874590D01*
X115118290Y-78861353D01*
X115118710Y-78847154D01*
X115119969Y-78833315D01*
X115122068Y-78819837D01*
X115125006Y-78806719D01*
X115128785Y-78793962D01*
X115133402Y-78781566D01*
X115138860Y-78769530D01*
X115145157Y-78757855D01*
X115152293Y-78746541D01*
X115160269Y-78735587D01*
X115169085Y-78724994D01*
X115178740Y-78714762D01*
X115189235Y-78704890D01*
X115200569Y-78695379D01*
X115212743Y-78686228D01*
X115225757Y-78677438D01*
X115239512Y-78669068D01*
X115253909Y-78661238D01*
X115268950Y-78653948D01*
X115284634Y-78647198D01*
X115300962Y-78640988D01*
X115317932Y-78635318D01*
X115335545Y-78630188D01*
X115353801Y-78625598D01*
X115372700Y-78621548D01*
X115382391Y-78619725D01*
X115392242Y-78618038D01*
X115402255Y-78616485D01*
X115412428Y-78615068D01*
X115422762Y-78613785D01*
X115433256Y-78612638D01*
X115443912Y-78611625D01*
X115454728Y-78610748D01*
X115465704Y-78610005D01*
X115476842Y-78609398D01*
X115488140Y-78608925D01*
X115499600Y-78608588D01*
X115511220Y-78608385D01*
X115523000Y-78608318D01*
X115534215Y-78608392D01*
G37*
G36*
X114430258Y-79280474D02*
G01*
X114954403Y-79280474D01*
X114954403Y-79092896D01*
X114430258Y-79092896D01*
X114430258Y-79280474D01*
G37*
G36*
X113776346Y-78608455D02*
G01*
X113791452Y-78608868D01*
X113806350Y-78609556D01*
X113821040Y-78610520D01*
X113835522Y-78611758D01*
X113849795Y-78613272D01*
X113863861Y-78615061D01*
X113877719Y-78617126D01*
X113891369Y-78619465D01*
X113904811Y-78622080D01*
X113918045Y-78624970D01*
X113931071Y-78628136D01*
X113943889Y-78631576D01*
X113956499Y-78635292D01*
X113968901Y-78639283D01*
X113981095Y-78643550D01*
X113993081Y-78648091D01*
X114004859Y-78652908D01*
X114016429Y-78658000D01*
X114027791Y-78663368D01*
X114038945Y-78669010D01*
X114049891Y-78674928D01*
X114060630Y-78681121D01*
X114071160Y-78687590D01*
X114081482Y-78694333D01*
X114091596Y-78701352D01*
X114101502Y-78708646D01*
X114111200Y-78716216D01*
X114120690Y-78724060D01*
X114129973Y-78732180D01*
X114139047Y-78740575D01*
X114147913Y-78749246D01*
X114156523Y-78758138D01*
X114164860Y-78767228D01*
X114172924Y-78776517D01*
X114180714Y-78786004D01*
X114188231Y-78795690D01*
X114195474Y-78805574D01*
X114202445Y-78815657D01*
X114209142Y-78825938D01*
X114215565Y-78836418D01*
X114221715Y-78847096D01*
X114227592Y-78857972D01*
X114233196Y-78869047D01*
X114238526Y-78880320D01*
X114243583Y-78891792D01*
X114248366Y-78903462D01*
X114252876Y-78915331D01*
X114257113Y-78927398D01*
X114261077Y-78939664D01*
X114264767Y-78952128D01*
X114268183Y-78964790D01*
X114271327Y-78977651D01*
X114274197Y-78990710D01*
X114276794Y-79003968D01*
X114279117Y-79017424D01*
X114281167Y-79031079D01*
X114282944Y-79044932D01*
X114284447Y-79058984D01*
X114285677Y-79073234D01*
X114286634Y-79087682D01*
X114287317Y-79102329D01*
X114287727Y-79117175D01*
X114287864Y-79132219D01*
X114287727Y-79147158D01*
X114287317Y-79161904D01*
X114286634Y-79176456D01*
X114285677Y-79190814D01*
X114284447Y-79204979D01*
X114282944Y-79218950D01*
X114281167Y-79232727D01*
X114279117Y-79246311D01*
X114276794Y-79259701D01*
X114274197Y-79272897D01*
X114271327Y-79285899D01*
X114268183Y-79298708D01*
X114264767Y-79311324D01*
X114261077Y-79323745D01*
X114257113Y-79335973D01*
X114252876Y-79348007D01*
X114248366Y-79359848D01*
X114243583Y-79371495D01*
X114238526Y-79382948D01*
X114233196Y-79394207D01*
X114227592Y-79405273D01*
X114221715Y-79416145D01*
X114215565Y-79426824D01*
X114209142Y-79437308D01*
X114202445Y-79447600D01*
X114195474Y-79457697D01*
X114188231Y-79467601D01*
X114180714Y-79477311D01*
X114172924Y-79486827D01*
X114164860Y-79496150D01*
X114156523Y-79505279D01*
X114147913Y-79514214D01*
X114139047Y-79522915D01*
X114129973Y-79531339D01*
X114120690Y-79539487D01*
X114111200Y-79547359D01*
X114101502Y-79554955D01*
X114091596Y-79562274D01*
X114081482Y-79569317D01*
X114071160Y-79576084D01*
X114060630Y-79582575D01*
X114049891Y-79588790D01*
X114038945Y-79594728D01*
X114027791Y-79600390D01*
X114016429Y-79605776D01*
X114004859Y-79610886D01*
X113993081Y-79615720D01*
X113981095Y-79620277D01*
X113968901Y-79624558D01*
X113956499Y-79628563D01*
X113943889Y-79632292D01*
X113931071Y-79635744D01*
X113918045Y-79638921D01*
X113904811Y-79641821D01*
X113891369Y-79644445D01*
X113877719Y-79646793D01*
X113863861Y-79648864D01*
X113849795Y-79650659D01*
X113835522Y-79652178D01*
X113821040Y-79653421D01*
X113806350Y-79654388D01*
X113791452Y-79655079D01*
X113776346Y-79655493D01*
X113761032Y-79655631D01*
X113745674Y-79655493D01*
X113730525Y-79655079D01*
X113715586Y-79654388D01*
X113700857Y-79653421D01*
X113686338Y-79652178D01*
X113672029Y-79650659D01*
X113657929Y-79648864D01*
X113644040Y-79646793D01*
X113630360Y-79644445D01*
X113616891Y-79641821D01*
X113603631Y-79638921D01*
X113590581Y-79635744D01*
X113577741Y-79632292D01*
X113565111Y-79628563D01*
X113552691Y-79624558D01*
X113540481Y-79620277D01*
X113528481Y-79615720D01*
X113516690Y-79610886D01*
X113505110Y-79605776D01*
X113493739Y-79600390D01*
X113482578Y-79594728D01*
X113471627Y-79588790D01*
X113460886Y-79582575D01*
X113450355Y-79576084D01*
X113440034Y-79569317D01*
X113429923Y-79562274D01*
X113420022Y-79554955D01*
X113410330Y-79547359D01*
X113400849Y-79539487D01*
X113391577Y-79531339D01*
X113382515Y-79522915D01*
X113373663Y-79514214D01*
X113365038Y-79505279D01*
X113356686Y-79496150D01*
X113348609Y-79486827D01*
X113340805Y-79477311D01*
X113333275Y-79467601D01*
X113326019Y-79457697D01*
X113319036Y-79447600D01*
X113312328Y-79437308D01*
X113305893Y-79426824D01*
X113299732Y-79416145D01*
X113293845Y-79405273D01*
X113288232Y-79394207D01*
X113282892Y-79382948D01*
X113277826Y-79371495D01*
X113273035Y-79359848D01*
X113268517Y-79348007D01*
X113264272Y-79335973D01*
X113260302Y-79323745D01*
X113256605Y-79311324D01*
X113253183Y-79298708D01*
X113250034Y-79285899D01*
X113247159Y-79272897D01*
X113244557Y-79259701D01*
X113242230Y-79246311D01*
X113240176Y-79232727D01*
X113238396Y-79218950D01*
X113236890Y-79204979D01*
X113235658Y-79190814D01*
X113234700Y-79176456D01*
X113234015Y-79161904D01*
X113233605Y-79147158D01*
X113233468Y-79132219D01*
X113233472Y-79131730D01*
X113507508Y-79131730D01*
X113507526Y-79137006D01*
X113507671Y-79147430D01*
X113507961Y-79157685D01*
X113508396Y-79167769D01*
X113508977Y-79177684D01*
X113509702Y-79187429D01*
X113511061Y-79201728D01*
X113512747Y-79215644D01*
X113514759Y-79229179D01*
X113517098Y-79242332D01*
X113519762Y-79255102D01*
X113522753Y-79267491D01*
X113526071Y-79279497D01*
X113528468Y-79287278D01*
X113532354Y-79298707D01*
X113536588Y-79309844D01*
X113541170Y-79320689D01*
X113546100Y-79331242D01*
X113551377Y-79341503D01*
X113557002Y-79351472D01*
X113562974Y-79361150D01*
X113569295Y-79370535D01*
X113575963Y-79379628D01*
X113582979Y-79388429D01*
X113585143Y-79390958D01*
X113591772Y-79398294D01*
X113600931Y-79407496D01*
X113610457Y-79416033D01*
X113620348Y-79423906D01*
X113630607Y-79431115D01*
X113641231Y-79437660D01*
X113652222Y-79443540D01*
X113663579Y-79448757D01*
X113675135Y-79453280D01*
X113686844Y-79457199D01*
X113698705Y-79460515D01*
X113710718Y-79463229D01*
X113722885Y-79465339D01*
X113735204Y-79466847D01*
X113747675Y-79467751D01*
X113760300Y-79468053D01*
X113772928Y-79467755D01*
X113785411Y-79466862D01*
X113797749Y-79465373D01*
X113809942Y-79463290D01*
X113821990Y-79460611D01*
X113833893Y-79457336D01*
X113845651Y-79453467D01*
X113857264Y-79449002D01*
X113860123Y-79447790D01*
X113871333Y-79442535D01*
X113882185Y-79436624D01*
X113892678Y-79430056D01*
X113902812Y-79422832D01*
X113912587Y-79414951D01*
X113922004Y-79406414D01*
X113931062Y-79397221D01*
X113937620Y-79389895D01*
X113941843Y-79384796D01*
X113947984Y-79376805D01*
X113953893Y-79368401D01*
X113959570Y-79359586D01*
X113965015Y-79350358D01*
X113970229Y-79340718D01*
X113975210Y-79330666D01*
X113979960Y-79320202D01*
X113984478Y-79309325D01*
X113988764Y-79298037D01*
X113992819Y-79286336D01*
X113994111Y-79282326D01*
X113997742Y-79269983D01*
X114001003Y-79257172D01*
X114003896Y-79243894D01*
X114006419Y-79230147D01*
X114008572Y-79215933D01*
X114009803Y-79206197D01*
X114010870Y-79196252D01*
X114011772Y-79186100D01*
X114012511Y-79175740D01*
X114013085Y-79165171D01*
X114013495Y-79154395D01*
X114013742Y-79143411D01*
X114013824Y-79132219D01*
X114013803Y-79126729D01*
X114013635Y-79115873D01*
X114013299Y-79105184D01*
X114012795Y-79094660D01*
X114012123Y-79084303D01*
X114011284Y-79074111D01*
X114010276Y-79064086D01*
X114009101Y-79054227D01*
X114007758Y-79044533D01*
X114005428Y-79030304D01*
X114002720Y-79016449D01*
X113999635Y-79002967D01*
X113996171Y-78989859D01*
X113992330Y-78977124D01*
X113990959Y-78972955D01*
X113986697Y-78960791D01*
X113982212Y-78949141D01*
X113977504Y-78938007D01*
X113972572Y-78927389D01*
X113967418Y-78917285D01*
X113962039Y-78907696D01*
X113956438Y-78898623D01*
X113950613Y-78890065D01*
X113944566Y-78882022D01*
X113936154Y-78872100D01*
X113931486Y-78867092D01*
X113924380Y-78859920D01*
X113917149Y-78853156D01*
X113907315Y-78844772D01*
X113897259Y-78837112D01*
X113886981Y-78830178D01*
X113876483Y-78823969D01*
X113865763Y-78818485D01*
X113854822Y-78813726D01*
X113843621Y-78809547D01*
X113832244Y-78805925D01*
X113820692Y-78802861D01*
X113808965Y-78800354D01*
X113797062Y-78798404D01*
X113784983Y-78797011D01*
X113772729Y-78796175D01*
X113760300Y-78795896D01*
X113748023Y-78796182D01*
X113735860Y-78797041D01*
X113723812Y-78798472D01*
X113711878Y-78800476D01*
X113700059Y-78803052D01*
X113688355Y-78806200D01*
X113676765Y-78809921D01*
X113665289Y-78814214D01*
X113659592Y-78816592D01*
X113648456Y-78821874D01*
X113637664Y-78827858D01*
X113627215Y-78834544D01*
X113617109Y-78841932D01*
X113607347Y-78850023D01*
X113597929Y-78858815D01*
X113591090Y-78865871D01*
X113584445Y-78873321D01*
X113580191Y-78878363D01*
X113574005Y-78886282D01*
X113568050Y-78894631D01*
X113562327Y-78903410D01*
X113556836Y-78912618D01*
X113551576Y-78922255D01*
X113546549Y-78932321D01*
X113541753Y-78942817D01*
X113537189Y-78953742D01*
X113532857Y-78965096D01*
X113528757Y-78976880D01*
X113527450Y-78980891D01*
X113523777Y-78993244D01*
X113520478Y-79006079D01*
X113517552Y-79019394D01*
X113514999Y-79033190D01*
X113512821Y-79047466D01*
X113511575Y-79057251D01*
X113510496Y-79067250D01*
X113509583Y-79077462D01*
X113508836Y-79087889D01*
X113508255Y-79098528D01*
X113507840Y-79109382D01*
X113507591Y-79120449D01*
X113507508Y-79131730D01*
X113233472Y-79131730D01*
X113233605Y-79117175D01*
X113234018Y-79102329D01*
X113234706Y-79087682D01*
X113235670Y-79073234D01*
X113236908Y-79058984D01*
X113238422Y-79044932D01*
X113240211Y-79031079D01*
X113242276Y-79017424D01*
X113244615Y-79003968D01*
X113247230Y-78990710D01*
X113250120Y-78977651D01*
X113253286Y-78964790D01*
X113256726Y-78952128D01*
X113260442Y-78939664D01*
X113264433Y-78927398D01*
X113268700Y-78915331D01*
X113273241Y-78903462D01*
X113278058Y-78891792D01*
X113283150Y-78880320D01*
X113288518Y-78869047D01*
X113294160Y-78857972D01*
X113300078Y-78847096D01*
X113306271Y-78836418D01*
X113312740Y-78825938D01*
X113319483Y-78815657D01*
X113326502Y-78805574D01*
X113333796Y-78795690D01*
X113341366Y-78786004D01*
X113349210Y-78776517D01*
X113357330Y-78767228D01*
X113365725Y-78758138D01*
X113374396Y-78749246D01*
X113383291Y-78740575D01*
X113392393Y-78732180D01*
X113401699Y-78724060D01*
X113411212Y-78716216D01*
X113420930Y-78708646D01*
X113430853Y-78701352D01*
X113440982Y-78694333D01*
X113451317Y-78687590D01*
X113461857Y-78681121D01*
X113472603Y-78674928D01*
X113483555Y-78669010D01*
X113494712Y-78663368D01*
X113506075Y-78658000D01*
X113517643Y-78652908D01*
X113529417Y-78648091D01*
X113541397Y-78643550D01*
X113553582Y-78639283D01*
X113565973Y-78635292D01*
X113578569Y-78631576D01*
X113591371Y-78628136D01*
X113604379Y-78624970D01*
X113617592Y-78622080D01*
X113631011Y-78619465D01*
X113644635Y-78617126D01*
X113658465Y-78615061D01*
X113672501Y-78613272D01*
X113686742Y-78611758D01*
X113701189Y-78610520D01*
X113715841Y-78609556D01*
X113730699Y-78608868D01*
X113745763Y-78608455D01*
X113761032Y-78608318D01*
X113776346Y-78608455D01*
G37*
G36*
X113038318Y-79640000D02*
G01*
X112591598Y-79640000D01*
X112584690Y-79639981D01*
X112571100Y-79639834D01*
X112557811Y-79639540D01*
X112544825Y-79639100D01*
X112532139Y-79638512D01*
X112519755Y-79637777D01*
X112507673Y-79636896D01*
X112495892Y-79635867D01*
X112484413Y-79634692D01*
X112473235Y-79633369D01*
X112462358Y-79631900D01*
X112451783Y-79630284D01*
X112441510Y-79628521D01*
X112431538Y-79626611D01*
X112421867Y-79624554D01*
X112407927Y-79621193D01*
X112398907Y-79618711D01*
X112385556Y-79614613D01*
X112372420Y-79610064D01*
X112359499Y-79605065D01*
X112346792Y-79599615D01*
X112334300Y-79593713D01*
X112322022Y-79587361D01*
X112309959Y-79580559D01*
X112298111Y-79573305D01*
X112286478Y-79565601D01*
X112275059Y-79557445D01*
X112268613Y-79552607D01*
X112259274Y-79545068D01*
X112250329Y-79537189D01*
X112241780Y-79528970D01*
X112233625Y-79520413D01*
X112225866Y-79511517D01*
X112218501Y-79502281D01*
X112211532Y-79492706D01*
X112204957Y-79482792D01*
X112198778Y-79472539D01*
X112192993Y-79461946D01*
X112189355Y-79454680D01*
X112184339Y-79443552D01*
X112179850Y-79432149D01*
X112175889Y-79420471D01*
X112172457Y-79408518D01*
X112169552Y-79396291D01*
X112167176Y-79383789D01*
X112165328Y-79371012D01*
X112164008Y-79357960D01*
X112163215Y-79344634D01*
X112162951Y-79331032D01*
X112163064Y-79324926D01*
X112436503Y-79324926D01*
X112436564Y-79329443D01*
X112437251Y-79340450D01*
X112438702Y-79351053D01*
X112440915Y-79361249D01*
X112443892Y-79371040D01*
X112447632Y-79380426D01*
X112452135Y-79389406D01*
X112456382Y-79396196D01*
X112462819Y-79404199D01*
X112470507Y-79411666D01*
X112479448Y-79418596D01*
X112489641Y-79424989D01*
X112498697Y-79429718D01*
X112508555Y-79434103D01*
X112518809Y-79438064D01*
X112529300Y-79441522D01*
X112540028Y-79444475D01*
X112550992Y-79446926D01*
X112562193Y-79448872D01*
X112573630Y-79450314D01*
X112585304Y-79451253D01*
X112597215Y-79451688D01*
X112600284Y-79451733D01*
X112610229Y-79451860D01*
X112621281Y-79451974D01*
X112633441Y-79452075D01*
X112646709Y-79452163D01*
X112661085Y-79452238D01*
X112671284Y-79452281D01*
X112681975Y-79452318D01*
X112693159Y-79452349D01*
X112704835Y-79452375D01*
X112717003Y-79452395D01*
X112729663Y-79452410D01*
X112742816Y-79452418D01*
X112756461Y-79452421D01*
X112775757Y-79452421D01*
X112775757Y-79202316D01*
X112718115Y-79202316D01*
X112710746Y-79202319D01*
X112699764Y-79202334D01*
X112688867Y-79202362D01*
X112678057Y-79202403D01*
X112667332Y-79202457D01*
X112656693Y-79202523D01*
X112646140Y-79202603D01*
X112635673Y-79202695D01*
X112625292Y-79202800D01*
X112614996Y-79202918D01*
X112604787Y-79203049D01*
X112598100Y-79203171D01*
X112585269Y-79203599D01*
X112573164Y-79204270D01*
X112561784Y-79205186D01*
X112551129Y-79206346D01*
X112541199Y-79207751D01*
X112529806Y-79209850D01*
X112519546Y-79212330D01*
X112508662Y-79215769D01*
X112498602Y-79219612D01*
X112489367Y-79223859D01*
X112478982Y-79229738D01*
X112469884Y-79236248D01*
X112462075Y-79243390D01*
X112455554Y-79251165D01*
X112454382Y-79252804D01*
X112449080Y-79261646D01*
X112444708Y-79271562D01*
X112441266Y-79282550D01*
X112439182Y-79292114D01*
X112437694Y-79302364D01*
X112436801Y-79313302D01*
X112436503Y-79324926D01*
X112163064Y-79324926D01*
X112163181Y-79318577D01*
X112163871Y-79306429D01*
X112165021Y-79294588D01*
X112166630Y-79283054D01*
X112168700Y-79271827D01*
X112171229Y-79260908D01*
X112174218Y-79250296D01*
X112177667Y-79239991D01*
X112181576Y-79229993D01*
X112185945Y-79220303D01*
X112190773Y-79210919D01*
X112196062Y-79201843D01*
X112201810Y-79193074D01*
X112208018Y-79184613D01*
X112214686Y-79176458D01*
X112221814Y-79168611D01*
X112229304Y-79161052D01*
X112237121Y-79153823D01*
X112245264Y-79146924D01*
X112253733Y-79140355D01*
X112262529Y-79134116D01*
X112271651Y-79128208D01*
X112281099Y-79122629D01*
X112290874Y-79117381D01*
X112300974Y-79112463D01*
X112311401Y-79107874D01*
X112322155Y-79103616D01*
X112333234Y-79099689D01*
X112344640Y-79096091D01*
X112356373Y-79092823D01*
X112368431Y-79089885D01*
X112380816Y-79087278D01*
X112380816Y-79081905D01*
X112372027Y-79077838D01*
X112359316Y-79071374D01*
X112347172Y-79064472D01*
X112335594Y-79057132D01*
X112324583Y-79049354D01*
X112314139Y-79041138D01*
X112304261Y-79032484D01*
X112294950Y-79023392D01*
X112286206Y-79013862D01*
X112278029Y-79003894D01*
X112270418Y-78993489D01*
X112265656Y-78986307D01*
X112259090Y-78975281D01*
X112253214Y-78963951D01*
X112248030Y-78952315D01*
X112243537Y-78940374D01*
X112239735Y-78928129D01*
X112236625Y-78915579D01*
X112236394Y-78914354D01*
X112500983Y-78914354D01*
X112501080Y-78920557D01*
X112501670Y-78930581D01*
X112503087Y-78942090D01*
X112505277Y-78953032D01*
X112508239Y-78963408D01*
X112511974Y-78973217D01*
X112516011Y-78980857D01*
X112522446Y-78989444D01*
X112530614Y-78997395D01*
X112538747Y-79003536D01*
X112548083Y-79009235D01*
X112558625Y-79014494D01*
X112563551Y-79016608D01*
X112574381Y-79020335D01*
X112584404Y-79022929D01*
X112595333Y-79025057D01*
X112607168Y-79026721D01*
X112617289Y-79027717D01*
X112627990Y-79028415D01*
X112633558Y-79028652D01*
X112645129Y-79029079D01*
X112657280Y-79029446D01*
X112670011Y-79029751D01*
X112679940Y-79029940D01*
X112690195Y-79030095D01*
X112700777Y-79030215D01*
X112711685Y-79030301D01*
X112722919Y-79030352D01*
X112734480Y-79030369D01*
X112775757Y-79030369D01*
X112775757Y-78811528D01*
X112751088Y-78811528D01*
X112736830Y-78811538D01*
X112723181Y-78811571D01*
X112710143Y-78811624D01*
X112697713Y-78811699D01*
X112685894Y-78811796D01*
X112674684Y-78811914D01*
X112664084Y-78812054D01*
X112654093Y-78812215D01*
X112641721Y-78812463D01*
X112630432Y-78812749D01*
X112622497Y-78813020D01*
X112612303Y-78813656D01*
X112600184Y-78814890D01*
X112588757Y-78816613D01*
X112578021Y-78818825D01*
X112567977Y-78821527D01*
X112558625Y-78824717D01*
X112552751Y-78827171D01*
X112543726Y-78831785D01*
X112534155Y-78838187D01*
X112525957Y-78845535D01*
X112519134Y-78853827D01*
X112513684Y-78863063D01*
X112509368Y-78872680D01*
X112505945Y-78882297D01*
X112503414Y-78891914D01*
X112501591Y-78903134D01*
X112500983Y-78914354D01*
X112236394Y-78914354D01*
X112234206Y-78902724D01*
X112232478Y-78889564D01*
X112231441Y-78876100D01*
X112231095Y-78862330D01*
X112231207Y-78854357D01*
X112231793Y-78842608D01*
X112232881Y-78831113D01*
X112234472Y-78819871D01*
X112236565Y-78808882D01*
X112239160Y-78798147D01*
X112242258Y-78787664D01*
X112245858Y-78777436D01*
X112249960Y-78767460D01*
X112254565Y-78757738D01*
X112259672Y-78748269D01*
X112263331Y-78742119D01*
X112269265Y-78733187D01*
X112275730Y-78724608D01*
X112282729Y-78716380D01*
X112290259Y-78708505D01*
X112298322Y-78700982D01*
X112306917Y-78693810D01*
X112316045Y-78686991D01*
X112325705Y-78680524D01*
X112335897Y-78674409D01*
X112346622Y-78668646D01*
X112353649Y-78665212D01*
X112364207Y-78660351D01*
X112374786Y-78655838D01*
X112385387Y-78651673D01*
X112396010Y-78647855D01*
X112406653Y-78644386D01*
X112417319Y-78641264D01*
X112428006Y-78638490D01*
X112438714Y-78636063D01*
X112449444Y-78633984D01*
X112460195Y-78632254D01*
X112463847Y-78631743D01*
X112475578Y-78630307D01*
X112488473Y-78629018D01*
X112502532Y-78627874D01*
X112512551Y-78627193D01*
X112523086Y-78626577D01*
X112534139Y-78626025D01*
X112545709Y-78625539D01*
X112557797Y-78625117D01*
X112570401Y-78624760D01*
X112583522Y-78624468D01*
X112597161Y-78624241D01*
X112611316Y-78624079D01*
X112625989Y-78623982D01*
X112641179Y-78623949D01*
X113038318Y-78623949D01*
X113038318Y-79640000D01*
G37*
G36*
X111972442Y-79640000D02*
G01*
X111611695Y-79640000D01*
X111596529Y-79639931D01*
X111581623Y-79639725D01*
X111566976Y-79639381D01*
X111552588Y-79638900D01*
X111538461Y-79638282D01*
X111524592Y-79637527D01*
X111510983Y-79636634D01*
X111497634Y-79635603D01*
X111484544Y-79634435D01*
X111471714Y-79633130D01*
X111459143Y-79631688D01*
X111446831Y-79630108D01*
X111434779Y-79628390D01*
X111422987Y-79626536D01*
X111411454Y-79624544D01*
X111400181Y-79622414D01*
X111389063Y-79620078D01*
X111378058Y-79617529D01*
X111367165Y-79614766D01*
X111356385Y-79611789D01*
X111345718Y-79608599D01*
X111335163Y-79605195D01*
X111324720Y-79601577D01*
X111314391Y-79597745D01*
X111304173Y-79593700D01*
X111294069Y-79589441D01*
X111284077Y-79584969D01*
X111274197Y-79580282D01*
X111264431Y-79575382D01*
X111254776Y-79570268D01*
X111245235Y-79564941D01*
X111235806Y-79559399D01*
X111223484Y-79551686D01*
X111211431Y-79543566D01*
X111199647Y-79535039D01*
X111188132Y-79526106D01*
X111176887Y-79516767D01*
X111165910Y-79507021D01*
X111155202Y-79496868D01*
X111144764Y-79486310D01*
X111134595Y-79475345D01*
X111124694Y-79463973D01*
X111115063Y-79452195D01*
X111105700Y-79440010D01*
X111096607Y-79427419D01*
X111087783Y-79414422D01*
X111079228Y-79401018D01*
X111070942Y-79387208D01*
X111063045Y-79373049D01*
X111055657Y-79358658D01*
X111048779Y-79344037D01*
X111042411Y-79329185D01*
X111036552Y-79314102D01*
X111031203Y-79298788D01*
X111026362Y-79283244D01*
X111022032Y-79267468D01*
X111018211Y-79251462D01*
X111014899Y-79235224D01*
X111012097Y-79218756D01*
X111009805Y-79202057D01*
X111008021Y-79185127D01*
X111006748Y-79167966D01*
X111005983Y-79150574D01*
X111005729Y-79132951D01*
X111005751Y-79131242D01*
X111278548Y-79131242D01*
X111278581Y-79137575D01*
X111278844Y-79150051D01*
X111279371Y-79162271D01*
X111280161Y-79174235D01*
X111281214Y-79185943D01*
X111282531Y-79197396D01*
X111284111Y-79208593D01*
X111285954Y-79219534D01*
X111288061Y-79230220D01*
X111290431Y-79240650D01*
X111293064Y-79250824D01*
X111295960Y-79260742D01*
X111299120Y-79270405D01*
X111302543Y-79279812D01*
X111306230Y-79288964D01*
X111312254Y-79302212D01*
X111314398Y-79306504D01*
X111321279Y-79319057D01*
X111328835Y-79331120D01*
X111337064Y-79342693D01*
X111345968Y-79353777D01*
X111355546Y-79364371D01*
X111365797Y-79374477D01*
X111376723Y-79384092D01*
X111384381Y-79390231D01*
X111392339Y-79396152D01*
X111400597Y-79401855D01*
X111409154Y-79407341D01*
X111418011Y-79412609D01*
X111428544Y-79418067D01*
X111439138Y-79423081D01*
X111449793Y-79427653D01*
X111460509Y-79431782D01*
X111471286Y-79435469D01*
X111482124Y-79438713D01*
X111493024Y-79441514D01*
X111503984Y-79443872D01*
X111515757Y-79445876D01*
X111525614Y-79447203D01*
X111536351Y-79448380D01*
X111547968Y-79449407D01*
X111560465Y-79450284D01*
X111573843Y-79451010D01*
X111588100Y-79451586D01*
X111598094Y-79451887D01*
X111608479Y-79452120D01*
X111619255Y-79452287D01*
X111630423Y-79452388D01*
X111641981Y-79452421D01*
X111708660Y-79452421D01*
X111708660Y-78811528D01*
X111641981Y-78811528D01*
X111631494Y-78811556D01*
X111621343Y-78811642D01*
X111611527Y-78811785D01*
X111597434Y-78812107D01*
X111584096Y-78812558D01*
X111571513Y-78813138D01*
X111559687Y-78813846D01*
X111548616Y-78814683D01*
X111538300Y-78815649D01*
X111525722Y-78817138D01*
X111514487Y-78818855D01*
X111503950Y-78820828D01*
X111493466Y-78823206D01*
X111483037Y-78825988D01*
X111472660Y-78829174D01*
X111462337Y-78832765D01*
X111452067Y-78836761D01*
X111441851Y-78841161D01*
X111431688Y-78845966D01*
X111421903Y-78851156D01*
X111412454Y-78856591D01*
X111403341Y-78862269D01*
X111394563Y-78868192D01*
X111386122Y-78874359D01*
X111378016Y-78880771D01*
X111370246Y-78887426D01*
X111362812Y-78894326D01*
X111355713Y-78901470D01*
X111348951Y-78908859D01*
X111342524Y-78916491D01*
X111336434Y-78924368D01*
X111330679Y-78932489D01*
X111325259Y-78940854D01*
X111320176Y-78949464D01*
X111315429Y-78958318D01*
X111310963Y-78967408D01*
X111306785Y-78976728D01*
X111302895Y-78986276D01*
X111299293Y-78996053D01*
X111295980Y-79006060D01*
X111292955Y-79016295D01*
X111290217Y-79026759D01*
X111287768Y-79037452D01*
X111285607Y-79048375D01*
X111283734Y-79059526D01*
X111282150Y-79070906D01*
X111280853Y-79082515D01*
X111279845Y-79094353D01*
X111279124Y-79106420D01*
X111278692Y-79118717D01*
X111278548Y-79131242D01*
X111005751Y-79131242D01*
X111005966Y-79114691D01*
X111006679Y-79096731D01*
X111007867Y-79079070D01*
X111009530Y-79061709D01*
X111011668Y-79044647D01*
X111014281Y-79027885D01*
X111017369Y-79011422D01*
X111020933Y-78995259D01*
X111024971Y-78979396D01*
X111029485Y-78963832D01*
X111034474Y-78948568D01*
X111039938Y-78933603D01*
X111045877Y-78918938D01*
X111052291Y-78904573D01*
X111059181Y-78890507D01*
X111066545Y-78876741D01*
X111074323Y-78863300D01*
X111082452Y-78850210D01*
X111090931Y-78837471D01*
X111099762Y-78825083D01*
X111108944Y-78813047D01*
X111118477Y-78801361D01*
X111128362Y-78790027D01*
X111138597Y-78779043D01*
X111149183Y-78768411D01*
X111160121Y-78758130D01*
X111171409Y-78748200D01*
X111183049Y-78738621D01*
X111195040Y-78729393D01*
X111207382Y-78720517D01*
X111220075Y-78711991D01*
X111233119Y-78703817D01*
X111237009Y-78701437D01*
X111249021Y-78694505D01*
X111261544Y-78687882D01*
X111274578Y-78681568D01*
X111283551Y-78677530D01*
X111292751Y-78673630D01*
X111302178Y-78669867D01*
X111311833Y-78666241D01*
X111321714Y-78662753D01*
X111331823Y-78659403D01*
X111342158Y-78656189D01*
X111352721Y-78653113D01*
X111363510Y-78650175D01*
X111374527Y-78647374D01*
X111385771Y-78644710D01*
X111397232Y-78642196D01*
X111408962Y-78639844D01*
X111420962Y-78637655D01*
X111433230Y-78635627D01*
X111445768Y-78633762D01*
X111458574Y-78632059D01*
X111471650Y-78630518D01*
X111484994Y-78629139D01*
X111498608Y-78627923D01*
X111512491Y-78626869D01*
X111526642Y-78625977D01*
X111541063Y-78625247D01*
X111555753Y-78624679D01*
X111570712Y-78624274D01*
X111585940Y-78624030D01*
X111601437Y-78623949D01*
X111972442Y-78623949D01*
X111972442Y-79640000D01*
G37*
G36*
X110341632Y-79280474D02*
G01*
X110865778Y-79280474D01*
X110865778Y-79092896D01*
X110341632Y-79092896D01*
X110341632Y-79280474D01*
G37*
G36*
X110139644Y-79640000D02*
G01*
X109877083Y-79640000D01*
X109877083Y-79264842D01*
X109755450Y-79264842D01*
X109476524Y-79640000D01*
X109154368Y-79640000D01*
X109495819Y-79202316D01*
X109483813Y-79196362D01*
X109472158Y-79190222D01*
X109460855Y-79183898D01*
X109449902Y-79177388D01*
X109439300Y-79170694D01*
X109429050Y-79163814D01*
X109419150Y-79156749D01*
X109409602Y-79149499D01*
X109400404Y-79142064D01*
X109391558Y-79134444D01*
X109383063Y-79126638D01*
X109374919Y-79118648D01*
X109367126Y-79110472D01*
X109359685Y-79102112D01*
X109352594Y-79093566D01*
X109345854Y-79084836D01*
X109339495Y-79075820D01*
X109333547Y-79066483D01*
X109328008Y-79056823D01*
X109322880Y-79046840D01*
X109318162Y-79036536D01*
X109313855Y-79025908D01*
X109309957Y-79014958D01*
X109306470Y-79003686D01*
X109303393Y-78992091D01*
X109300727Y-78980174D01*
X109298470Y-78967934D01*
X109296624Y-78955372D01*
X109295188Y-78942487D01*
X109294388Y-78932184D01*
X109565917Y-78932184D01*
X109565930Y-78934778D01*
X109566227Y-78944824D01*
X109567157Y-78956641D01*
X109568708Y-78967636D01*
X109570878Y-78977808D01*
X109574302Y-78988927D01*
X109578618Y-78998862D01*
X109582026Y-79004964D01*
X109588011Y-79013874D01*
X109595043Y-79022493D01*
X109603123Y-79030819D01*
X109610657Y-79037534D01*
X109618918Y-79044047D01*
X109628258Y-79050318D01*
X109638266Y-79055849D01*
X109648943Y-79060641D01*
X109660286Y-79064693D01*
X109669842Y-79067403D01*
X109679826Y-79069639D01*
X109690237Y-79071402D01*
X109695630Y-79072112D01*
X109706903Y-79073394D01*
X109718826Y-79074493D01*
X109731396Y-79075409D01*
X109741250Y-79075976D01*
X109751469Y-79076440D01*
X109762053Y-79076800D01*
X109773002Y-79077058D01*
X109784315Y-79077212D01*
X109795994Y-79077264D01*
X109877083Y-79077264D01*
X109877083Y-78811528D01*
X109781584Y-78811528D01*
X109775706Y-78811537D01*
X109764227Y-78811614D01*
X109753114Y-78811766D01*
X109742367Y-78811995D01*
X109731987Y-78812301D01*
X109721973Y-78812682D01*
X109709971Y-78813267D01*
X109698541Y-78813970D01*
X109687612Y-78814860D01*
X109677113Y-78816155D01*
X109667042Y-78817856D01*
X109657401Y-78819962D01*
X109646399Y-78823024D01*
X109636015Y-78826671D01*
X109631281Y-78828638D01*
X109622351Y-78832836D01*
X109612197Y-78838577D01*
X109603164Y-78844867D01*
X109595253Y-78851705D01*
X109588462Y-78859092D01*
X109581793Y-78868681D01*
X109580816Y-78870340D01*
X109575607Y-78880735D01*
X109572119Y-78889976D01*
X109569405Y-78899740D01*
X109567468Y-78910030D01*
X109566305Y-78920845D01*
X109565917Y-78932184D01*
X109294388Y-78932184D01*
X109294163Y-78929280D01*
X109293547Y-78915750D01*
X109293342Y-78901898D01*
X109293375Y-78896826D01*
X109293641Y-78886844D01*
X109294171Y-78877079D01*
X109295464Y-78862834D01*
X109297354Y-78849075D01*
X109299840Y-78835800D01*
X109302924Y-78823011D01*
X109306604Y-78810707D01*
X109310881Y-78798888D01*
X109315754Y-78787555D01*
X109321225Y-78776706D01*
X109327292Y-78766343D01*
X109331629Y-78759674D01*
X109338486Y-78749964D01*
X109345763Y-78740606D01*
X109353461Y-78731600D01*
X109361579Y-78722946D01*
X109370119Y-78714644D01*
X109379079Y-78706694D01*
X109388460Y-78699096D01*
X109398262Y-78691851D01*
X109408484Y-78684957D01*
X109419127Y-78678415D01*
X109426273Y-78674236D01*
X109437114Y-78668320D01*
X109448101Y-78662830D01*
X109459233Y-78657764D01*
X109470512Y-78653124D01*
X109481936Y-78648909D01*
X109493507Y-78645118D01*
X109505223Y-78641753D01*
X109517086Y-78638813D01*
X109529094Y-78636298D01*
X109541249Y-78634207D01*
X109545349Y-78633576D01*
X109557953Y-78631803D01*
X109571006Y-78630210D01*
X109584511Y-78628798D01*
X109598467Y-78627566D01*
X109612873Y-78626514D01*
X109622727Y-78625913D01*
X109632782Y-78625392D01*
X109643038Y-78624951D01*
X109653493Y-78624590D01*
X109664150Y-78624310D01*
X109675006Y-78624110D01*
X109686063Y-78623989D01*
X109697320Y-78623949D01*
X110139644Y-78623949D01*
X110139644Y-79640000D01*
G37*
G36*
X108688656Y-78608447D02*
G01*
X108702389Y-78608837D01*
X108715874Y-78609485D01*
X108729111Y-78610394D01*
X108742099Y-78611562D01*
X108754840Y-78612989D01*
X108767333Y-78614676D01*
X108779577Y-78616622D01*
X108791574Y-78618828D01*
X108803322Y-78621293D01*
X108814823Y-78624018D01*
X108826075Y-78627002D01*
X108837079Y-78630246D01*
X108847836Y-78633750D01*
X108858344Y-78637512D01*
X108868604Y-78641535D01*
X108878593Y-78645786D01*
X108888349Y-78650297D01*
X108897873Y-78655067D01*
X108907164Y-78660097D01*
X108916222Y-78665387D01*
X108925047Y-78670935D01*
X108933639Y-78676744D01*
X108941999Y-78682812D01*
X108950126Y-78689139D01*
X108958020Y-78695726D01*
X108965681Y-78702573D01*
X108973109Y-78709678D01*
X108980305Y-78717044D01*
X108987268Y-78724669D01*
X108993998Y-78732553D01*
X109000495Y-78740697D01*
X109006738Y-78749179D01*
X109012768Y-78757894D01*
X109018584Y-78766841D01*
X109024187Y-78776021D01*
X109029575Y-78785434D01*
X109034750Y-78795080D01*
X109039711Y-78804958D01*
X109044459Y-78815069D01*
X109048992Y-78825413D01*
X109053312Y-78835990D01*
X109057419Y-78846800D01*
X109061311Y-78857842D01*
X109064990Y-78869118D01*
X109068456Y-78880626D01*
X109071707Y-78892366D01*
X109074745Y-78904340D01*
X109077555Y-78916535D01*
X109080183Y-78929001D01*
X109082630Y-78941738D01*
X109084896Y-78954746D01*
X109086981Y-78968024D01*
X109088884Y-78981574D01*
X109090606Y-78995395D01*
X109092147Y-79009487D01*
X109093507Y-79023849D01*
X109094685Y-79038483D01*
X109095682Y-79053387D01*
X109096498Y-79068563D01*
X109097132Y-79084009D01*
X109097585Y-79099727D01*
X109097857Y-79115715D01*
X109097948Y-79131974D01*
X109097859Y-79147739D01*
X109097593Y-79163279D01*
X109097149Y-79178597D01*
X109096528Y-79193691D01*
X109095730Y-79208563D01*
X109094754Y-79223211D01*
X109093600Y-79237635D01*
X109092269Y-79251837D01*
X109090761Y-79265815D01*
X109089075Y-79279570D01*
X109087212Y-79293101D01*
X109085171Y-79306410D01*
X109082953Y-79319495D01*
X109080557Y-79332357D01*
X109077984Y-79344995D01*
X109075233Y-79357411D01*
X109072284Y-79369559D01*
X109069116Y-79381457D01*
X109065728Y-79393105D01*
X109062120Y-79404504D01*
X109058294Y-79415652D01*
X109054247Y-79426550D01*
X109049982Y-79437199D01*
X109045497Y-79447597D01*
X109040792Y-79457746D01*
X109035868Y-79467644D01*
X109030725Y-79477293D01*
X109025362Y-79486691D01*
X109019780Y-79495840D01*
X109013978Y-79504739D01*
X109007957Y-79513387D01*
X109001716Y-79521786D01*
X108995336Y-79529934D01*
X108988714Y-79537830D01*
X108981850Y-79545474D01*
X108974743Y-79552866D01*
X108967393Y-79560006D01*
X108959802Y-79566895D01*
X108951968Y-79573531D01*
X108943892Y-79579916D01*
X108935573Y-79586049D01*
X108927012Y-79591929D01*
X108918209Y-79597558D01*
X108909163Y-79602936D01*
X108899875Y-79608061D01*
X108890345Y-79612934D01*
X108880573Y-79617556D01*
X108870558Y-79621926D01*
X108860290Y-79626007D01*
X108849759Y-79629825D01*
X108838965Y-79633380D01*
X108827907Y-79636672D01*
X108816586Y-79639700D01*
X108805001Y-79642465D01*
X108793154Y-79644966D01*
X108781043Y-79647205D01*
X108768668Y-79649180D01*
X108756031Y-79650891D01*
X108743130Y-79652339D01*
X108729965Y-79653524D01*
X108716538Y-79654446D01*
X108702847Y-79655104D01*
X108688893Y-79655499D01*
X108674675Y-79655631D01*
X108660227Y-79655500D01*
X108646068Y-79655108D01*
X108632200Y-79654455D01*
X108618621Y-79653540D01*
X108605333Y-79652363D01*
X108592335Y-79650926D01*
X108579626Y-79649226D01*
X108567208Y-79647266D01*
X108555080Y-79645044D01*
X108543242Y-79642560D01*
X108531694Y-79639815D01*
X108520436Y-79636809D01*
X108509468Y-79633541D01*
X108498790Y-79630012D01*
X108488402Y-79626222D01*
X108478304Y-79622170D01*
X108468463Y-79617862D01*
X108458848Y-79613305D01*
X108449458Y-79608497D01*
X108440293Y-79603439D01*
X108431354Y-79598132D01*
X108422639Y-79592574D01*
X108414150Y-79586767D01*
X108405886Y-79580710D01*
X108397847Y-79574402D01*
X108390033Y-79567845D01*
X108382444Y-79561038D01*
X108375081Y-79553980D01*
X108367942Y-79546673D01*
X108361029Y-79539116D01*
X108354341Y-79531309D01*
X108347878Y-79523251D01*
X108341783Y-79515081D01*
X108335895Y-79506628D01*
X108330212Y-79497892D01*
X108324736Y-79488874D01*
X108319466Y-79479574D01*
X108314402Y-79469991D01*
X108309543Y-79460126D01*
X108304891Y-79449979D01*
X108300445Y-79439549D01*
X108296205Y-79428836D01*
X108292172Y-79417842D01*
X108288344Y-79406564D01*
X108284722Y-79395005D01*
X108281307Y-79383163D01*
X108278097Y-79371039D01*
X108275094Y-79358632D01*
X108272254Y-79345980D01*
X108269598Y-79333120D01*
X108267125Y-79320052D01*
X108264836Y-79306776D01*
X108262729Y-79293292D01*
X108260806Y-79279600D01*
X108259065Y-79265700D01*
X108257508Y-79251592D01*
X108256134Y-79237276D01*
X108254944Y-79222753D01*
X108253936Y-79208021D01*
X108253112Y-79193081D01*
X108252471Y-79177933D01*
X108252013Y-79162577D01*
X108251738Y-79147013D01*
X108251646Y-79131242D01*
X108517383Y-79131242D01*
X108517419Y-79142363D01*
X108517528Y-79153287D01*
X108517709Y-79164015D01*
X108517963Y-79174545D01*
X108518289Y-79184878D01*
X108518688Y-79195015D01*
X108519703Y-79214696D01*
X108521008Y-79233590D01*
X108522603Y-79251695D01*
X108524489Y-79269013D01*
X108526664Y-79285542D01*
X108529129Y-79301283D01*
X108531885Y-79316237D01*
X108534930Y-79330402D01*
X108538265Y-79343779D01*
X108541891Y-79356368D01*
X108545806Y-79368169D01*
X108550012Y-79379182D01*
X108554508Y-79389406D01*
X108556873Y-79394245D01*
X108561874Y-79403461D01*
X108567236Y-79412063D01*
X108572959Y-79420051D01*
X108582219Y-79430880D01*
X108592290Y-79440327D01*
X108603173Y-79448391D01*
X108614867Y-79455073D01*
X108627373Y-79460372D01*
X108640690Y-79464289D01*
X108654819Y-79466824D01*
X108664689Y-79467745D01*
X108674919Y-79468053D01*
X108685120Y-79467745D01*
X108699749Y-79466132D01*
X108713571Y-79463137D01*
X108726585Y-79458759D01*
X108738793Y-79452999D01*
X108750193Y-79445856D01*
X108760786Y-79437331D01*
X108770572Y-79427424D01*
X108779551Y-79416134D01*
X108785088Y-79407839D01*
X108790267Y-79398930D01*
X108795087Y-79389406D01*
X108797371Y-79384394D01*
X108801721Y-79373786D01*
X108805782Y-79362402D01*
X108809552Y-79350242D01*
X108813033Y-79337305D01*
X108816223Y-79323591D01*
X108819124Y-79309100D01*
X108821734Y-79293833D01*
X108824054Y-79277790D01*
X108826085Y-79260969D01*
X108827825Y-79243372D01*
X108829275Y-79224999D01*
X108830435Y-79205849D01*
X108830906Y-79195982D01*
X108831305Y-79185922D01*
X108831632Y-79175667D01*
X108831885Y-79165218D01*
X108832067Y-79154575D01*
X108832175Y-79143738D01*
X108832212Y-79132707D01*
X108832176Y-79121377D01*
X108832069Y-79110254D01*
X108831892Y-79099338D01*
X108831643Y-79088629D01*
X108831323Y-79078127D01*
X108830932Y-79067832D01*
X108830470Y-79057744D01*
X108829937Y-79047863D01*
X108828658Y-79028723D01*
X108827094Y-79010410D01*
X108825246Y-78992926D01*
X108823114Y-78976270D01*
X108820697Y-78960441D01*
X108817996Y-78945442D01*
X108815011Y-78931270D01*
X108811741Y-78917926D01*
X108808187Y-78905411D01*
X108804349Y-78893723D01*
X108800226Y-78882864D01*
X108795819Y-78872833D01*
X108791082Y-78863516D01*
X108785970Y-78854801D01*
X108777595Y-78842855D01*
X108768376Y-78832261D01*
X108758310Y-78823019D01*
X108747398Y-78815130D01*
X108735641Y-78808594D01*
X108723038Y-78803410D01*
X108709589Y-78799578D01*
X108695294Y-78797098D01*
X108685295Y-78796197D01*
X108674919Y-78795896D01*
X108669669Y-78795971D01*
X108659453Y-78796572D01*
X108649615Y-78797775D01*
X108635566Y-78800705D01*
X108622366Y-78804987D01*
X108610017Y-78810622D01*
X108598518Y-78817610D01*
X108587870Y-78825950D01*
X108578071Y-78835642D01*
X108569122Y-78846686D01*
X108563628Y-78854801D01*
X108558513Y-78863516D01*
X108553775Y-78872833D01*
X108549368Y-78882858D01*
X108545245Y-78893700D01*
X108541407Y-78905359D01*
X108537853Y-78917834D01*
X108534584Y-78931127D01*
X108531598Y-78945235D01*
X108528897Y-78960161D01*
X108526481Y-78975903D01*
X108524348Y-78992462D01*
X108522500Y-79009838D01*
X108520937Y-79028030D01*
X108519657Y-79047039D01*
X108519124Y-79056850D01*
X108518662Y-79066865D01*
X108518271Y-79077084D01*
X108517951Y-79087507D01*
X108517702Y-79098134D01*
X108517525Y-79108966D01*
X108517418Y-79120002D01*
X108517383Y-79131242D01*
X108251646Y-79131242D01*
X108251735Y-79115483D01*
X108252001Y-79099959D01*
X108252445Y-79084670D01*
X108253066Y-79069616D01*
X108253865Y-79054797D01*
X108254841Y-79040212D01*
X108255994Y-79025861D01*
X108257325Y-79011746D01*
X108258833Y-78997865D01*
X108260519Y-78984219D01*
X108262383Y-78970807D01*
X108264423Y-78957631D01*
X108266642Y-78944689D01*
X108269037Y-78931981D01*
X108271610Y-78919509D01*
X108274361Y-78907271D01*
X108277307Y-78895271D01*
X108280467Y-78883511D01*
X108283841Y-78871991D01*
X108287428Y-78860712D01*
X108291229Y-78849674D01*
X108295244Y-78838875D01*
X108299472Y-78828318D01*
X108303914Y-78818000D01*
X108308570Y-78807923D01*
X108313440Y-78798087D01*
X108318523Y-78788491D01*
X108323820Y-78779135D01*
X108329331Y-78770020D01*
X108335055Y-78761145D01*
X108340993Y-78752511D01*
X108347145Y-78744117D01*
X108353609Y-78735791D01*
X108360300Y-78727730D01*
X108367218Y-78719931D01*
X108374363Y-78712396D01*
X108381735Y-78705124D01*
X108389334Y-78698115D01*
X108397161Y-78691370D01*
X108405214Y-78684888D01*
X108413494Y-78678669D01*
X108422002Y-78672714D01*
X108430737Y-78667022D01*
X108439698Y-78661593D01*
X108448887Y-78656428D01*
X108458303Y-78651526D01*
X108467945Y-78646887D01*
X108477815Y-78642512D01*
X108487915Y-78638371D01*
X108498309Y-78634497D01*
X108508996Y-78630891D01*
X108519978Y-78627552D01*
X108531253Y-78624480D01*
X108542822Y-78621675D01*
X108554685Y-78619137D01*
X108566842Y-78616866D01*
X108579292Y-78614863D01*
X108592037Y-78613126D01*
X108605075Y-78611657D01*
X108618408Y-78610455D01*
X108632034Y-78609520D01*
X108645954Y-78608852D01*
X108660167Y-78608451D01*
X108674675Y-78608318D01*
X108688656Y-78608447D01*
G37*
G36*
X107797599Y-79640000D02*
G01*
X108054542Y-79640000D01*
X108054542Y-79374263D01*
X107797599Y-79374263D01*
X107797599Y-79640000D01*
G37*
G36*
X106809637Y-79640000D02*
G01*
X107492540Y-79640000D01*
X107492540Y-79468053D01*
X107276873Y-79468053D01*
X107276873Y-78936580D01*
X107492540Y-78936580D01*
X107492540Y-78764633D01*
X107480266Y-78764542D01*
X107468115Y-78764267D01*
X107456086Y-78763809D01*
X107444180Y-78763168D01*
X107432395Y-78762343D01*
X107420732Y-78761336D01*
X107409192Y-78760145D01*
X107397773Y-78758771D01*
X107386657Y-78757168D01*
X107376021Y-78755291D01*
X107365865Y-78753138D01*
X107356191Y-78750711D01*
X107344774Y-78747291D01*
X107334109Y-78743441D01*
X107324195Y-78739162D01*
X107322302Y-78738255D01*
X107313609Y-78733759D01*
X107303536Y-78727689D01*
X107294346Y-78721118D01*
X107286038Y-78714046D01*
X107278613Y-78706473D01*
X107272071Y-78698399D01*
X107268569Y-78693314D01*
X107263367Y-78684279D01*
X107258904Y-78674576D01*
X107255181Y-78664205D01*
X107252197Y-78653167D01*
X107249953Y-78641460D01*
X107248689Y-78631614D01*
X107248053Y-78623949D01*
X107020662Y-78623949D01*
X107020662Y-79468053D01*
X106809637Y-79468053D01*
X106809637Y-79640000D01*
G37*
D10*
%TO.C,D3*%
X100798095Y-29740475D02*
X101598095Y-29740475D01*
X101598095Y-29740475D02*
X101598095Y-29549999D01*
X101598095Y-29549999D02*
X101560000Y-29435713D01*
X101560000Y-29435713D02*
X101483809Y-29359523D01*
X101483809Y-29359523D02*
X101407619Y-29321428D01*
X101407619Y-29321428D02*
X101255238Y-29283332D01*
X101255238Y-29283332D02*
X101140952Y-29283332D01*
X101140952Y-29283332D02*
X100988571Y-29321428D01*
X100988571Y-29321428D02*
X100912380Y-29359523D01*
X100912380Y-29359523D02*
X100836190Y-29435713D01*
X100836190Y-29435713D02*
X100798095Y-29549999D01*
X100798095Y-29549999D02*
X100798095Y-29740475D01*
X101598095Y-29016666D02*
X101598095Y-28521428D01*
X101598095Y-28521428D02*
X101293333Y-28788094D01*
X101293333Y-28788094D02*
X101293333Y-28673809D01*
X101293333Y-28673809D02*
X101255238Y-28597618D01*
X101255238Y-28597618D02*
X101217142Y-28559523D01*
X101217142Y-28559523D02*
X101140952Y-28521428D01*
X101140952Y-28521428D02*
X100950476Y-28521428D01*
X100950476Y-28521428D02*
X100874285Y-28559523D01*
X100874285Y-28559523D02*
X100836190Y-28597618D01*
X100836190Y-28597618D02*
X100798095Y-28673809D01*
X100798095Y-28673809D02*
X100798095Y-28902380D01*
X100798095Y-28902380D02*
X100836190Y-28978571D01*
X100836190Y-28978571D02*
X100874285Y-29016666D01*
%TO.C,C12*%
X118132285Y-47244285D02*
X118094190Y-47282381D01*
X118094190Y-47282381D02*
X118056095Y-47396666D01*
X118056095Y-47396666D02*
X118056095Y-47472857D01*
X118056095Y-47472857D02*
X118094190Y-47587143D01*
X118094190Y-47587143D02*
X118170380Y-47663333D01*
X118170380Y-47663333D02*
X118246571Y-47701428D01*
X118246571Y-47701428D02*
X118398952Y-47739524D01*
X118398952Y-47739524D02*
X118513238Y-47739524D01*
X118513238Y-47739524D02*
X118665619Y-47701428D01*
X118665619Y-47701428D02*
X118741809Y-47663333D01*
X118741809Y-47663333D02*
X118818000Y-47587143D01*
X118818000Y-47587143D02*
X118856095Y-47472857D01*
X118856095Y-47472857D02*
X118856095Y-47396666D01*
X118856095Y-47396666D02*
X118818000Y-47282381D01*
X118818000Y-47282381D02*
X118779904Y-47244285D01*
X118056095Y-46482381D02*
X118056095Y-46939524D01*
X118056095Y-46710952D02*
X118856095Y-46710952D01*
X118856095Y-46710952D02*
X118741809Y-46787143D01*
X118741809Y-46787143D02*
X118665619Y-46863333D01*
X118665619Y-46863333D02*
X118627523Y-46939524D01*
X118779904Y-46177619D02*
X118818000Y-46139523D01*
X118818000Y-46139523D02*
X118856095Y-46063333D01*
X118856095Y-46063333D02*
X118856095Y-45872857D01*
X118856095Y-45872857D02*
X118818000Y-45796666D01*
X118818000Y-45796666D02*
X118779904Y-45758571D01*
X118779904Y-45758571D02*
X118703714Y-45720476D01*
X118703714Y-45720476D02*
X118627523Y-45720476D01*
X118627523Y-45720476D02*
X118513238Y-45758571D01*
X118513238Y-45758571D02*
X118056095Y-46215714D01*
X118056095Y-46215714D02*
X118056095Y-45720476D01*
%TO.C,R27*%
X101776095Y-65934285D02*
X102157047Y-66200952D01*
X101776095Y-66391428D02*
X102576095Y-66391428D01*
X102576095Y-66391428D02*
X102576095Y-66086666D01*
X102576095Y-66086666D02*
X102538000Y-66010476D01*
X102538000Y-66010476D02*
X102499904Y-65972381D01*
X102499904Y-65972381D02*
X102423714Y-65934285D01*
X102423714Y-65934285D02*
X102309428Y-65934285D01*
X102309428Y-65934285D02*
X102233238Y-65972381D01*
X102233238Y-65972381D02*
X102195142Y-66010476D01*
X102195142Y-66010476D02*
X102157047Y-66086666D01*
X102157047Y-66086666D02*
X102157047Y-66391428D01*
X102499904Y-65629524D02*
X102538000Y-65591428D01*
X102538000Y-65591428D02*
X102576095Y-65515238D01*
X102576095Y-65515238D02*
X102576095Y-65324762D01*
X102576095Y-65324762D02*
X102538000Y-65248571D01*
X102538000Y-65248571D02*
X102499904Y-65210476D01*
X102499904Y-65210476D02*
X102423714Y-65172381D01*
X102423714Y-65172381D02*
X102347523Y-65172381D01*
X102347523Y-65172381D02*
X102233238Y-65210476D01*
X102233238Y-65210476D02*
X101776095Y-65667619D01*
X101776095Y-65667619D02*
X101776095Y-65172381D01*
X102576095Y-64905714D02*
X102576095Y-64372380D01*
X102576095Y-64372380D02*
X101776095Y-64715238D01*
%TO.C,R3*%
X107706095Y-44753332D02*
X108087047Y-45019999D01*
X107706095Y-45210475D02*
X108506095Y-45210475D01*
X108506095Y-45210475D02*
X108506095Y-44905713D01*
X108506095Y-44905713D02*
X108468000Y-44829523D01*
X108468000Y-44829523D02*
X108429904Y-44791428D01*
X108429904Y-44791428D02*
X108353714Y-44753332D01*
X108353714Y-44753332D02*
X108239428Y-44753332D01*
X108239428Y-44753332D02*
X108163238Y-44791428D01*
X108163238Y-44791428D02*
X108125142Y-44829523D01*
X108125142Y-44829523D02*
X108087047Y-44905713D01*
X108087047Y-44905713D02*
X108087047Y-45210475D01*
X108506095Y-44486666D02*
X108506095Y-43991428D01*
X108506095Y-43991428D02*
X108201333Y-44258094D01*
X108201333Y-44258094D02*
X108201333Y-44143809D01*
X108201333Y-44143809D02*
X108163238Y-44067618D01*
X108163238Y-44067618D02*
X108125142Y-44029523D01*
X108125142Y-44029523D02*
X108048952Y-43991428D01*
X108048952Y-43991428D02*
X107858476Y-43991428D01*
X107858476Y-43991428D02*
X107782285Y-44029523D01*
X107782285Y-44029523D02*
X107744190Y-44067618D01*
X107744190Y-44067618D02*
X107706095Y-44143809D01*
X107706095Y-44143809D02*
X107706095Y-44372380D01*
X107706095Y-44372380D02*
X107744190Y-44448571D01*
X107744190Y-44448571D02*
X107782285Y-44486666D01*
%TO.C,R15*%
X126286095Y-43174285D02*
X126667047Y-43440952D01*
X126286095Y-43631428D02*
X127086095Y-43631428D01*
X127086095Y-43631428D02*
X127086095Y-43326666D01*
X127086095Y-43326666D02*
X127048000Y-43250476D01*
X127048000Y-43250476D02*
X127009904Y-43212381D01*
X127009904Y-43212381D02*
X126933714Y-43174285D01*
X126933714Y-43174285D02*
X126819428Y-43174285D01*
X126819428Y-43174285D02*
X126743238Y-43212381D01*
X126743238Y-43212381D02*
X126705142Y-43250476D01*
X126705142Y-43250476D02*
X126667047Y-43326666D01*
X126667047Y-43326666D02*
X126667047Y-43631428D01*
X126286095Y-42412381D02*
X126286095Y-42869524D01*
X126286095Y-42640952D02*
X127086095Y-42640952D01*
X127086095Y-42640952D02*
X126971809Y-42717143D01*
X126971809Y-42717143D02*
X126895619Y-42793333D01*
X126895619Y-42793333D02*
X126857523Y-42869524D01*
X127086095Y-41688571D02*
X127086095Y-42069523D01*
X127086095Y-42069523D02*
X126705142Y-42107619D01*
X126705142Y-42107619D02*
X126743238Y-42069523D01*
X126743238Y-42069523D02*
X126781333Y-41993333D01*
X126781333Y-41993333D02*
X126781333Y-41802857D01*
X126781333Y-41802857D02*
X126743238Y-41726666D01*
X126743238Y-41726666D02*
X126705142Y-41688571D01*
X126705142Y-41688571D02*
X126628952Y-41650476D01*
X126628952Y-41650476D02*
X126438476Y-41650476D01*
X126438476Y-41650476D02*
X126362285Y-41688571D01*
X126362285Y-41688571D02*
X126324190Y-41726666D01*
X126324190Y-41726666D02*
X126286095Y-41802857D01*
X126286095Y-41802857D02*
X126286095Y-41993333D01*
X126286095Y-41993333D02*
X126324190Y-42069523D01*
X126324190Y-42069523D02*
X126362285Y-42107619D01*
%TO.C,R28*%
X104056095Y-63494285D02*
X104437047Y-63760952D01*
X104056095Y-63951428D02*
X104856095Y-63951428D01*
X104856095Y-63951428D02*
X104856095Y-63646666D01*
X104856095Y-63646666D02*
X104818000Y-63570476D01*
X104818000Y-63570476D02*
X104779904Y-63532381D01*
X104779904Y-63532381D02*
X104703714Y-63494285D01*
X104703714Y-63494285D02*
X104589428Y-63494285D01*
X104589428Y-63494285D02*
X104513238Y-63532381D01*
X104513238Y-63532381D02*
X104475142Y-63570476D01*
X104475142Y-63570476D02*
X104437047Y-63646666D01*
X104437047Y-63646666D02*
X104437047Y-63951428D01*
X104779904Y-63189524D02*
X104818000Y-63151428D01*
X104818000Y-63151428D02*
X104856095Y-63075238D01*
X104856095Y-63075238D02*
X104856095Y-62884762D01*
X104856095Y-62884762D02*
X104818000Y-62808571D01*
X104818000Y-62808571D02*
X104779904Y-62770476D01*
X104779904Y-62770476D02*
X104703714Y-62732381D01*
X104703714Y-62732381D02*
X104627523Y-62732381D01*
X104627523Y-62732381D02*
X104513238Y-62770476D01*
X104513238Y-62770476D02*
X104056095Y-63227619D01*
X104056095Y-63227619D02*
X104056095Y-62732381D01*
X104513238Y-62275238D02*
X104551333Y-62351428D01*
X104551333Y-62351428D02*
X104589428Y-62389523D01*
X104589428Y-62389523D02*
X104665619Y-62427619D01*
X104665619Y-62427619D02*
X104703714Y-62427619D01*
X104703714Y-62427619D02*
X104779904Y-62389523D01*
X104779904Y-62389523D02*
X104818000Y-62351428D01*
X104818000Y-62351428D02*
X104856095Y-62275238D01*
X104856095Y-62275238D02*
X104856095Y-62122857D01*
X104856095Y-62122857D02*
X104818000Y-62046666D01*
X104818000Y-62046666D02*
X104779904Y-62008571D01*
X104779904Y-62008571D02*
X104703714Y-61970476D01*
X104703714Y-61970476D02*
X104665619Y-61970476D01*
X104665619Y-61970476D02*
X104589428Y-62008571D01*
X104589428Y-62008571D02*
X104551333Y-62046666D01*
X104551333Y-62046666D02*
X104513238Y-62122857D01*
X104513238Y-62122857D02*
X104513238Y-62275238D01*
X104513238Y-62275238D02*
X104475142Y-62351428D01*
X104475142Y-62351428D02*
X104437047Y-62389523D01*
X104437047Y-62389523D02*
X104360857Y-62427619D01*
X104360857Y-62427619D02*
X104208476Y-62427619D01*
X104208476Y-62427619D02*
X104132285Y-62389523D01*
X104132285Y-62389523D02*
X104094190Y-62351428D01*
X104094190Y-62351428D02*
X104056095Y-62275238D01*
X104056095Y-62275238D02*
X104056095Y-62122857D01*
X104056095Y-62122857D02*
X104094190Y-62046666D01*
X104094190Y-62046666D02*
X104132285Y-62008571D01*
X104132285Y-62008571D02*
X104208476Y-61970476D01*
X104208476Y-61970476D02*
X104360857Y-61970476D01*
X104360857Y-61970476D02*
X104437047Y-62008571D01*
X104437047Y-62008571D02*
X104475142Y-62046666D01*
X104475142Y-62046666D02*
X104513238Y-62122857D01*
%TO.C,C11*%
X119642285Y-46674285D02*
X119604190Y-46712381D01*
X119604190Y-46712381D02*
X119566095Y-46826666D01*
X119566095Y-46826666D02*
X119566095Y-46902857D01*
X119566095Y-46902857D02*
X119604190Y-47017143D01*
X119604190Y-47017143D02*
X119680380Y-47093333D01*
X119680380Y-47093333D02*
X119756571Y-47131428D01*
X119756571Y-47131428D02*
X119908952Y-47169524D01*
X119908952Y-47169524D02*
X120023238Y-47169524D01*
X120023238Y-47169524D02*
X120175619Y-47131428D01*
X120175619Y-47131428D02*
X120251809Y-47093333D01*
X120251809Y-47093333D02*
X120328000Y-47017143D01*
X120328000Y-47017143D02*
X120366095Y-46902857D01*
X120366095Y-46902857D02*
X120366095Y-46826666D01*
X120366095Y-46826666D02*
X120328000Y-46712381D01*
X120328000Y-46712381D02*
X120289904Y-46674285D01*
X119566095Y-45912381D02*
X119566095Y-46369524D01*
X119566095Y-46140952D02*
X120366095Y-46140952D01*
X120366095Y-46140952D02*
X120251809Y-46217143D01*
X120251809Y-46217143D02*
X120175619Y-46293333D01*
X120175619Y-46293333D02*
X120137523Y-46369524D01*
X119566095Y-45150476D02*
X119566095Y-45607619D01*
X119566095Y-45379047D02*
X120366095Y-45379047D01*
X120366095Y-45379047D02*
X120251809Y-45455238D01*
X120251809Y-45455238D02*
X120175619Y-45531428D01*
X120175619Y-45531428D02*
X120137523Y-45607619D01*
%TO.C,D1*%
X116360475Y-53323904D02*
X116360475Y-52523904D01*
X116360475Y-52523904D02*
X116169999Y-52523904D01*
X116169999Y-52523904D02*
X116055713Y-52562000D01*
X116055713Y-52562000D02*
X115979523Y-52638190D01*
X115979523Y-52638190D02*
X115941428Y-52714380D01*
X115941428Y-52714380D02*
X115903332Y-52866761D01*
X115903332Y-52866761D02*
X115903332Y-52981047D01*
X115903332Y-52981047D02*
X115941428Y-53133428D01*
X115941428Y-53133428D02*
X115979523Y-53209619D01*
X115979523Y-53209619D02*
X116055713Y-53285809D01*
X116055713Y-53285809D02*
X116169999Y-53323904D01*
X116169999Y-53323904D02*
X116360475Y-53323904D01*
X115141428Y-53323904D02*
X115598571Y-53323904D01*
X115369999Y-53323904D02*
X115369999Y-52523904D01*
X115369999Y-52523904D02*
X115446190Y-52638190D01*
X115446190Y-52638190D02*
X115522380Y-52714380D01*
X115522380Y-52714380D02*
X115598571Y-52752476D01*
%TO.C,R18*%
X121116095Y-40214285D02*
X121497047Y-40480952D01*
X121116095Y-40671428D02*
X121916095Y-40671428D01*
X121916095Y-40671428D02*
X121916095Y-40366666D01*
X121916095Y-40366666D02*
X121878000Y-40290476D01*
X121878000Y-40290476D02*
X121839904Y-40252381D01*
X121839904Y-40252381D02*
X121763714Y-40214285D01*
X121763714Y-40214285D02*
X121649428Y-40214285D01*
X121649428Y-40214285D02*
X121573238Y-40252381D01*
X121573238Y-40252381D02*
X121535142Y-40290476D01*
X121535142Y-40290476D02*
X121497047Y-40366666D01*
X121497047Y-40366666D02*
X121497047Y-40671428D01*
X121116095Y-39452381D02*
X121116095Y-39909524D01*
X121116095Y-39680952D02*
X121916095Y-39680952D01*
X121916095Y-39680952D02*
X121801809Y-39757143D01*
X121801809Y-39757143D02*
X121725619Y-39833333D01*
X121725619Y-39833333D02*
X121687523Y-39909524D01*
X121573238Y-38995238D02*
X121611333Y-39071428D01*
X121611333Y-39071428D02*
X121649428Y-39109523D01*
X121649428Y-39109523D02*
X121725619Y-39147619D01*
X121725619Y-39147619D02*
X121763714Y-39147619D01*
X121763714Y-39147619D02*
X121839904Y-39109523D01*
X121839904Y-39109523D02*
X121878000Y-39071428D01*
X121878000Y-39071428D02*
X121916095Y-38995238D01*
X121916095Y-38995238D02*
X121916095Y-38842857D01*
X121916095Y-38842857D02*
X121878000Y-38766666D01*
X121878000Y-38766666D02*
X121839904Y-38728571D01*
X121839904Y-38728571D02*
X121763714Y-38690476D01*
X121763714Y-38690476D02*
X121725619Y-38690476D01*
X121725619Y-38690476D02*
X121649428Y-38728571D01*
X121649428Y-38728571D02*
X121611333Y-38766666D01*
X121611333Y-38766666D02*
X121573238Y-38842857D01*
X121573238Y-38842857D02*
X121573238Y-38995238D01*
X121573238Y-38995238D02*
X121535142Y-39071428D01*
X121535142Y-39071428D02*
X121497047Y-39109523D01*
X121497047Y-39109523D02*
X121420857Y-39147619D01*
X121420857Y-39147619D02*
X121268476Y-39147619D01*
X121268476Y-39147619D02*
X121192285Y-39109523D01*
X121192285Y-39109523D02*
X121154190Y-39071428D01*
X121154190Y-39071428D02*
X121116095Y-38995238D01*
X121116095Y-38995238D02*
X121116095Y-38842857D01*
X121116095Y-38842857D02*
X121154190Y-38766666D01*
X121154190Y-38766666D02*
X121192285Y-38728571D01*
X121192285Y-38728571D02*
X121268476Y-38690476D01*
X121268476Y-38690476D02*
X121420857Y-38690476D01*
X121420857Y-38690476D02*
X121497047Y-38728571D01*
X121497047Y-38728571D02*
X121535142Y-38766666D01*
X121535142Y-38766666D02*
X121573238Y-38842857D01*
%TO.C,J1*%
X108537333Y-63375380D02*
X108537333Y-64089666D01*
X108537333Y-64089666D02*
X108584952Y-64232523D01*
X108584952Y-64232523D02*
X108680190Y-64327761D01*
X108680190Y-64327761D02*
X108823047Y-64375380D01*
X108823047Y-64375380D02*
X108918285Y-64375380D01*
X107537333Y-64375380D02*
X108108761Y-64375380D01*
X107823047Y-64375380D02*
X107823047Y-63375380D01*
X107823047Y-63375380D02*
X107918285Y-63518238D01*
X107918285Y-63518238D02*
X108013523Y-63613476D01*
X108013523Y-63613476D02*
X108108761Y-63661095D01*
%TO.C,R9*%
X103236095Y-27173332D02*
X103617047Y-27439999D01*
X103236095Y-27630475D02*
X104036095Y-27630475D01*
X104036095Y-27630475D02*
X104036095Y-27325713D01*
X104036095Y-27325713D02*
X103998000Y-27249523D01*
X103998000Y-27249523D02*
X103959904Y-27211428D01*
X103959904Y-27211428D02*
X103883714Y-27173332D01*
X103883714Y-27173332D02*
X103769428Y-27173332D01*
X103769428Y-27173332D02*
X103693238Y-27211428D01*
X103693238Y-27211428D02*
X103655142Y-27249523D01*
X103655142Y-27249523D02*
X103617047Y-27325713D01*
X103617047Y-27325713D02*
X103617047Y-27630475D01*
X103236095Y-26792380D02*
X103236095Y-26639999D01*
X103236095Y-26639999D02*
X103274190Y-26563809D01*
X103274190Y-26563809D02*
X103312285Y-26525713D01*
X103312285Y-26525713D02*
X103426571Y-26449523D01*
X103426571Y-26449523D02*
X103578952Y-26411428D01*
X103578952Y-26411428D02*
X103883714Y-26411428D01*
X103883714Y-26411428D02*
X103959904Y-26449523D01*
X103959904Y-26449523D02*
X103998000Y-26487618D01*
X103998000Y-26487618D02*
X104036095Y-26563809D01*
X104036095Y-26563809D02*
X104036095Y-26716190D01*
X104036095Y-26716190D02*
X103998000Y-26792380D01*
X103998000Y-26792380D02*
X103959904Y-26830475D01*
X103959904Y-26830475D02*
X103883714Y-26868571D01*
X103883714Y-26868571D02*
X103693238Y-26868571D01*
X103693238Y-26868571D02*
X103617047Y-26830475D01*
X103617047Y-26830475D02*
X103578952Y-26792380D01*
X103578952Y-26792380D02*
X103540857Y-26716190D01*
X103540857Y-26716190D02*
X103540857Y-26563809D01*
X103540857Y-26563809D02*
X103578952Y-26487618D01*
X103578952Y-26487618D02*
X103617047Y-26449523D01*
X103617047Y-26449523D02*
X103693238Y-26411428D01*
%TO.C,C4*%
X104383332Y-49017714D02*
X104421428Y-49055809D01*
X104421428Y-49055809D02*
X104535713Y-49093904D01*
X104535713Y-49093904D02*
X104611904Y-49093904D01*
X104611904Y-49093904D02*
X104726190Y-49055809D01*
X104726190Y-49055809D02*
X104802380Y-48979619D01*
X104802380Y-48979619D02*
X104840475Y-48903428D01*
X104840475Y-48903428D02*
X104878571Y-48751047D01*
X104878571Y-48751047D02*
X104878571Y-48636761D01*
X104878571Y-48636761D02*
X104840475Y-48484380D01*
X104840475Y-48484380D02*
X104802380Y-48408190D01*
X104802380Y-48408190D02*
X104726190Y-48332000D01*
X104726190Y-48332000D02*
X104611904Y-48293904D01*
X104611904Y-48293904D02*
X104535713Y-48293904D01*
X104535713Y-48293904D02*
X104421428Y-48332000D01*
X104421428Y-48332000D02*
X104383332Y-48370095D01*
X103697618Y-48560571D02*
X103697618Y-49093904D01*
X103888094Y-48255809D02*
X104078571Y-48827238D01*
X104078571Y-48827238D02*
X103583332Y-48827238D01*
%TO.C,C9*%
X113686666Y-45522142D02*
X113734285Y-45569761D01*
X113734285Y-45569761D02*
X113877142Y-45617380D01*
X113877142Y-45617380D02*
X113972380Y-45617380D01*
X113972380Y-45617380D02*
X114115237Y-45569761D01*
X114115237Y-45569761D02*
X114210475Y-45474523D01*
X114210475Y-45474523D02*
X114258094Y-45379285D01*
X114258094Y-45379285D02*
X114305713Y-45188809D01*
X114305713Y-45188809D02*
X114305713Y-45045952D01*
X114305713Y-45045952D02*
X114258094Y-44855476D01*
X114258094Y-44855476D02*
X114210475Y-44760238D01*
X114210475Y-44760238D02*
X114115237Y-44665000D01*
X114115237Y-44665000D02*
X113972380Y-44617380D01*
X113972380Y-44617380D02*
X113877142Y-44617380D01*
X113877142Y-44617380D02*
X113734285Y-44665000D01*
X113734285Y-44665000D02*
X113686666Y-44712619D01*
X113210475Y-45617380D02*
X113019999Y-45617380D01*
X113019999Y-45617380D02*
X112924761Y-45569761D01*
X112924761Y-45569761D02*
X112877142Y-45522142D01*
X112877142Y-45522142D02*
X112781904Y-45379285D01*
X112781904Y-45379285D02*
X112734285Y-45188809D01*
X112734285Y-45188809D02*
X112734285Y-44807857D01*
X112734285Y-44807857D02*
X112781904Y-44712619D01*
X112781904Y-44712619D02*
X112829523Y-44665000D01*
X112829523Y-44665000D02*
X112924761Y-44617380D01*
X112924761Y-44617380D02*
X113115237Y-44617380D01*
X113115237Y-44617380D02*
X113210475Y-44665000D01*
X113210475Y-44665000D02*
X113258094Y-44712619D01*
X113258094Y-44712619D02*
X113305713Y-44807857D01*
X113305713Y-44807857D02*
X113305713Y-45045952D01*
X113305713Y-45045952D02*
X113258094Y-45141190D01*
X113258094Y-45141190D02*
X113210475Y-45188809D01*
X113210475Y-45188809D02*
X113115237Y-45236428D01*
X113115237Y-45236428D02*
X112924761Y-45236428D01*
X112924761Y-45236428D02*
X112829523Y-45188809D01*
X112829523Y-45188809D02*
X112781904Y-45141190D01*
X112781904Y-45141190D02*
X112734285Y-45045952D01*
D12*
%TO.C,R24*%
X119762000Y-66447641D02*
X119762000Y-66140359D01*
X120522000Y-66447641D02*
X120522000Y-66140359D01*
%TO.C,C10*%
X115522164Y-43400000D02*
X115737836Y-43400000D01*
X115522164Y-44120000D02*
X115737836Y-44120000D01*
%TO.C,R23*%
X119762000Y-63600359D02*
X119762000Y-63907641D01*
X120522000Y-63600359D02*
X120522000Y-63907641D01*
%TO.C,R8*%
X105933641Y-32130000D02*
X105626359Y-32130000D01*
X105933641Y-31370000D02*
X105626359Y-31370000D01*
%TO.C,R41*%
X111080000Y-54793642D02*
X111080000Y-54486360D01*
X111840000Y-54793642D02*
X111840000Y-54486360D01*
%TO.C,C3*%
X106112836Y-47845000D02*
X105897164Y-47845000D01*
X106112836Y-47125000D02*
X105897164Y-47125000D01*
%TO.C,R12*%
X105923641Y-30880000D02*
X105616359Y-30880000D01*
X105923641Y-30120000D02*
X105616359Y-30120000D01*
%TO.C,J2*%
X122770000Y-28975000D02*
X123572470Y-28975000D01*
X122770000Y-32720000D02*
X122770000Y-28975000D01*
X122770000Y-32720000D02*
X123316529Y-32720000D01*
X122770000Y-33480000D02*
X122770000Y-34240000D01*
X122770000Y-34240000D02*
X123880000Y-34240000D01*
X124187530Y-28975000D02*
X124990000Y-28975000D01*
X124443471Y-32720000D02*
X124990000Y-32720000D01*
X124990000Y-32720000D02*
X124990000Y-28975000D01*
D13*
X125477500Y-33410000D02*
G75*
G03*
X125477500Y-33410000I-237500J0D01*
G01*
D12*
%TO.C,R19*%
X119800000Y-40923641D02*
X119800000Y-40616359D01*
X120560000Y-40923641D02*
X120560000Y-40616359D01*
%TO.C,G\u002A\u002A\u002A*%
G36*
X114637778Y-77409969D02*
G01*
X114637778Y-78225555D01*
X114447778Y-78225555D01*
X114257778Y-78225555D01*
X114257778Y-77584444D01*
X114257778Y-76943333D01*
X113878889Y-76943333D01*
X113500000Y-76943333D01*
X113500000Y-77584444D01*
X113500000Y-78225555D01*
X113311112Y-78225555D01*
X113122223Y-78225555D01*
X113122223Y-77584391D01*
X113122223Y-76943226D01*
X112817223Y-76943909D01*
X112790944Y-76943969D01*
X112750318Y-76944067D01*
X112713773Y-76944166D01*
X112681081Y-76944268D01*
X112652013Y-76944378D01*
X112626342Y-76944497D01*
X112603841Y-76944630D01*
X112584280Y-76944779D01*
X112567433Y-76944948D01*
X112553072Y-76945141D01*
X112540968Y-76945359D01*
X112530894Y-76945607D01*
X112522621Y-76945888D01*
X112515923Y-76946205D01*
X112510571Y-76946561D01*
X112506336Y-76946960D01*
X112502993Y-76947405D01*
X112500312Y-76947898D01*
X112498065Y-76948444D01*
X112480294Y-76953955D01*
X112455278Y-76964627D01*
X112433651Y-76977917D01*
X112415157Y-76994024D01*
X112399538Y-77013149D01*
X112386539Y-77035492D01*
X112385700Y-77037220D01*
X112376474Y-77059222D01*
X112369410Y-77082682D01*
X112364083Y-77108994D01*
X112363813Y-77111845D01*
X112363531Y-77117696D01*
X112363265Y-77126487D01*
X112363014Y-77138310D01*
X112362776Y-77153261D01*
X112362552Y-77171433D01*
X112362341Y-77192920D01*
X112362143Y-77217816D01*
X112361956Y-77246216D01*
X112361781Y-77278214D01*
X112361616Y-77313903D01*
X112361462Y-77353378D01*
X112361317Y-77396733D01*
X112361181Y-77444062D01*
X112361054Y-77495459D01*
X112360935Y-77551018D01*
X112360823Y-77610834D01*
X112360718Y-77675000D01*
X112359874Y-78225555D01*
X112170993Y-78225555D01*
X111982112Y-78225555D01*
X111982844Y-77633888D01*
X111982903Y-77587577D01*
X111982978Y-77529797D01*
X111983054Y-77476176D01*
X111983130Y-77426548D01*
X111983207Y-77380752D01*
X111983288Y-77338623D01*
X111983373Y-77299998D01*
X111983463Y-77264714D01*
X111983560Y-77232607D01*
X111983664Y-77203513D01*
X111983778Y-77177269D01*
X111983901Y-77153712D01*
X111984036Y-77132678D01*
X111984184Y-77114003D01*
X111984345Y-77097525D01*
X111984521Y-77083079D01*
X111984713Y-77070502D01*
X111984923Y-77059631D01*
X111985151Y-77050302D01*
X111985398Y-77042351D01*
X111985667Y-77035616D01*
X111985958Y-77029932D01*
X111986272Y-77025136D01*
X111986610Y-77021066D01*
X111986974Y-77017556D01*
X111987365Y-77014444D01*
X111988065Y-77009390D01*
X111994924Y-76966783D01*
X112003059Y-76927934D01*
X112012635Y-76892347D01*
X112023819Y-76859526D01*
X112036779Y-76828976D01*
X112051680Y-76800201D01*
X112068689Y-76772706D01*
X112081541Y-76754843D01*
X112102909Y-76729445D01*
X112126378Y-76705933D01*
X112151085Y-76685149D01*
X112176162Y-76667938D01*
X112188261Y-76660822D01*
X112216837Y-76645816D01*
X112246193Y-76633028D01*
X112277035Y-76622226D01*
X112310072Y-76613179D01*
X112346010Y-76605655D01*
X112385556Y-76599423D01*
X112385851Y-76599384D01*
X112388192Y-76599110D01*
X112391034Y-76598850D01*
X112394493Y-76598603D01*
X112398685Y-76598370D01*
X112403727Y-76598148D01*
X112409732Y-76597939D01*
X112416819Y-76597741D01*
X112425103Y-76597554D01*
X112434700Y-76597378D01*
X112445725Y-76597212D01*
X112458296Y-76597055D01*
X112472527Y-76596908D01*
X112488535Y-76596770D01*
X112506436Y-76596641D01*
X112526346Y-76596519D01*
X112548380Y-76596405D01*
X112572656Y-76596298D01*
X112599287Y-76596198D01*
X112628392Y-76596104D01*
X112660086Y-76596016D01*
X112694484Y-76595933D01*
X112731702Y-76595855D01*
X112771858Y-76595782D01*
X112815066Y-76595712D01*
X112861443Y-76595646D01*
X112911104Y-76595583D01*
X112964166Y-76595523D01*
X113020744Y-76595466D01*
X113080955Y-76595410D01*
X113144915Y-76595355D01*
X113212739Y-76595302D01*
X113284544Y-76595249D01*
X113360445Y-76595195D01*
X113440558Y-76595142D01*
X113525000Y-76595088D01*
X114637778Y-76594384D01*
X114637778Y-77409969D01*
G37*
G36*
X117023868Y-77285608D02*
G01*
X117023894Y-77297777D01*
X117023902Y-77301296D01*
X117024011Y-77355772D01*
X117024089Y-77406010D01*
X117024136Y-77452204D01*
X117024149Y-77494548D01*
X117024124Y-77533236D01*
X117024061Y-77568462D01*
X117023956Y-77600421D01*
X117023808Y-77629306D01*
X117023613Y-77655312D01*
X117023370Y-77678633D01*
X117023076Y-77699462D01*
X117022729Y-77717995D01*
X117022327Y-77734424D01*
X117021867Y-77748945D01*
X117021346Y-77761752D01*
X117020763Y-77773037D01*
X117020116Y-77782997D01*
X117019401Y-77791824D01*
X117018617Y-77799713D01*
X117017761Y-77806858D01*
X117012043Y-77845179D01*
X117003778Y-77887262D01*
X116993786Y-77925862D01*
X116981918Y-77961369D01*
X116968024Y-77994174D01*
X116951953Y-78024668D01*
X116933556Y-78053241D01*
X116912682Y-78080282D01*
X116898130Y-78096517D01*
X116869819Y-78122916D01*
X116838261Y-78146361D01*
X116803532Y-78166819D01*
X116765706Y-78184257D01*
X116724860Y-78198642D01*
X116681069Y-78209940D01*
X116634409Y-78218120D01*
X116584955Y-78223147D01*
X116584515Y-78223172D01*
X116579567Y-78223303D01*
X116570368Y-78223433D01*
X116557078Y-78223562D01*
X116539860Y-78223689D01*
X116518875Y-78223814D01*
X116494286Y-78223936D01*
X116466254Y-78224056D01*
X116434942Y-78224172D01*
X116400511Y-78224285D01*
X116363123Y-78224393D01*
X116322940Y-78224498D01*
X116280124Y-78224597D01*
X116234837Y-78224691D01*
X116187241Y-78224779D01*
X116137498Y-78224862D01*
X116085770Y-78224937D01*
X116032218Y-78225006D01*
X115977005Y-78225068D01*
X115920293Y-78225122D01*
X115862243Y-78225168D01*
X115803018Y-78225205D01*
X115742778Y-78225233D01*
X114926667Y-78225555D01*
X114926667Y-78050000D01*
X114926667Y-77874444D01*
X115698498Y-77874444D01*
X115704873Y-77874444D01*
X115774509Y-77874442D01*
X115839852Y-77874438D01*
X115901043Y-77874430D01*
X115958219Y-77874417D01*
X116011522Y-77874400D01*
X116061090Y-77874376D01*
X116107062Y-77874347D01*
X116149580Y-77874311D01*
X116188781Y-77874268D01*
X116224806Y-77874216D01*
X116257794Y-77874155D01*
X116287884Y-77874086D01*
X116315216Y-77874006D01*
X116339930Y-77873916D01*
X116362164Y-77873814D01*
X116382059Y-77873700D01*
X116399754Y-77873574D01*
X116415389Y-77873435D01*
X116429103Y-77873282D01*
X116441035Y-77873115D01*
X116451325Y-77872933D01*
X116460113Y-77872735D01*
X116467537Y-77872520D01*
X116473739Y-77872289D01*
X116478856Y-77872040D01*
X116483029Y-77871773D01*
X116486397Y-77871487D01*
X116489099Y-77871182D01*
X116491276Y-77870856D01*
X116498477Y-77869520D01*
X116526508Y-77862060D01*
X116551357Y-77851524D01*
X116573087Y-77837866D01*
X116591761Y-77821039D01*
X116607444Y-77800998D01*
X116620199Y-77777696D01*
X116625260Y-77765584D01*
X116630230Y-77750863D01*
X116634221Y-77735077D01*
X116637310Y-77717669D01*
X116639577Y-77698079D01*
X116641099Y-77675750D01*
X116641955Y-77650123D01*
X116642223Y-77620640D01*
X116642223Y-77561111D01*
X115936112Y-77561088D01*
X115879124Y-77561082D01*
X115805629Y-77561061D01*
X115736249Y-77561026D01*
X115671005Y-77560976D01*
X115609916Y-77560911D01*
X115553004Y-77560832D01*
X115500289Y-77560739D01*
X115451793Y-77560631D01*
X115407534Y-77560509D01*
X115367534Y-77560373D01*
X115331814Y-77560222D01*
X115300395Y-77560058D01*
X115273296Y-77559880D01*
X115250538Y-77559688D01*
X115232142Y-77559481D01*
X115218129Y-77559261D01*
X115208520Y-77559028D01*
X115203334Y-77558780D01*
X115185713Y-77557052D01*
X115143464Y-77550888D01*
X115104763Y-77542129D01*
X115069519Y-77530707D01*
X115037644Y-77516557D01*
X115009047Y-77499612D01*
X114983639Y-77479806D01*
X114961330Y-77457073D01*
X114942032Y-77431347D01*
X114925653Y-77402562D01*
X114912106Y-77370650D01*
X114901299Y-77335547D01*
X114901166Y-77335029D01*
X114898892Y-77326163D01*
X114896901Y-77318123D01*
X114895173Y-77310558D01*
X114893688Y-77303116D01*
X114892423Y-77295447D01*
X114891360Y-77287199D01*
X114890477Y-77278020D01*
X114889755Y-77267559D01*
X114889171Y-77255465D01*
X114888706Y-77241386D01*
X114888340Y-77224970D01*
X114888051Y-77205868D01*
X114887820Y-77183726D01*
X114887625Y-77158195D01*
X114887446Y-77128921D01*
X114887273Y-77097452D01*
X115263334Y-77097452D01*
X115263357Y-77119349D01*
X115263437Y-77137309D01*
X115263594Y-77151826D01*
X115263847Y-77163392D01*
X115264217Y-77172500D01*
X115264723Y-77179642D01*
X115265384Y-77185310D01*
X115266222Y-77189996D01*
X115267255Y-77194194D01*
X115272899Y-77211271D01*
X115282701Y-77231214D01*
X115295258Y-77247831D01*
X115310848Y-77261401D01*
X115329744Y-77272205D01*
X115352223Y-77280522D01*
X115353147Y-77280774D01*
X115354835Y-77281146D01*
X115356965Y-77281492D01*
X115359690Y-77281814D01*
X115363164Y-77282113D01*
X115367542Y-77282390D01*
X115372977Y-77282645D01*
X115379624Y-77282881D01*
X115387635Y-77283097D01*
X115397166Y-77283296D01*
X115408370Y-77283478D01*
X115421401Y-77283644D01*
X115436413Y-77283795D01*
X115453560Y-77283933D01*
X115472996Y-77284058D01*
X115494875Y-77284172D01*
X115519351Y-77284275D01*
X115546577Y-77284369D01*
X115576709Y-77284454D01*
X115609899Y-77284533D01*
X115646303Y-77284605D01*
X115686072Y-77284672D01*
X115729363Y-77284735D01*
X115776328Y-77284795D01*
X115827122Y-77284853D01*
X115881898Y-77284910D01*
X115940811Y-77284967D01*
X116004014Y-77285026D01*
X116642472Y-77285608D01*
X116641682Y-77149470D01*
X116641625Y-77139625D01*
X116641464Y-77113032D01*
X116641307Y-77090391D01*
X116641141Y-77071333D01*
X116640951Y-77055489D01*
X116640723Y-77042491D01*
X116640443Y-77031970D01*
X116640097Y-77023556D01*
X116639671Y-77016882D01*
X116639150Y-77011577D01*
X116638522Y-77007274D01*
X116637770Y-77003603D01*
X116636883Y-77000195D01*
X116635845Y-76996682D01*
X116631939Y-76985130D01*
X116622779Y-76965414D01*
X116611402Y-76949259D01*
X116597556Y-76936341D01*
X116580991Y-76926339D01*
X116579453Y-76925585D01*
X116576748Y-76924199D01*
X116574274Y-76922912D01*
X116571870Y-76921719D01*
X116569376Y-76920617D01*
X116566630Y-76919603D01*
X116563471Y-76918674D01*
X116559737Y-76917826D01*
X116555268Y-76917055D01*
X116549902Y-76916358D01*
X116543477Y-76915732D01*
X116535833Y-76915173D01*
X116526809Y-76914678D01*
X116516242Y-76914244D01*
X116503973Y-76913866D01*
X116489839Y-76913542D01*
X116473679Y-76913267D01*
X116455332Y-76913040D01*
X116434637Y-76912855D01*
X116411433Y-76912710D01*
X116385558Y-76912601D01*
X116356851Y-76912525D01*
X116325151Y-76912479D01*
X116290296Y-76912458D01*
X116252126Y-76912460D01*
X116210479Y-76912481D01*
X116165193Y-76912517D01*
X116116109Y-76912565D01*
X116063063Y-76912623D01*
X116005896Y-76912685D01*
X115944445Y-76912749D01*
X115358889Y-76913339D01*
X115343960Y-76918159D01*
X115334530Y-76921515D01*
X115314843Y-76931153D01*
X115298550Y-76943433D01*
X115285376Y-76958648D01*
X115275044Y-76977090D01*
X115267278Y-76999049D01*
X115267209Y-76999302D01*
X115266183Y-77003526D01*
X115265352Y-77008247D01*
X115264697Y-77013960D01*
X115264198Y-77021156D01*
X115263833Y-77030330D01*
X115263585Y-77041974D01*
X115263432Y-77056583D01*
X115263355Y-77074649D01*
X115263334Y-77096666D01*
X115263334Y-77097452D01*
X114887273Y-77097452D01*
X114887263Y-77095555D01*
X114887092Y-77061682D01*
X114886974Y-77030191D01*
X114886929Y-77002476D01*
X114886971Y-76978192D01*
X114887112Y-76956999D01*
X114887365Y-76938553D01*
X114887742Y-76922512D01*
X114888257Y-76908535D01*
X114888922Y-76896277D01*
X114889750Y-76885397D01*
X114890754Y-76875552D01*
X114891946Y-76866400D01*
X114893340Y-76857598D01*
X114894947Y-76848804D01*
X114896781Y-76839676D01*
X114904240Y-76809119D01*
X114915313Y-76776286D01*
X114928993Y-76746628D01*
X114945440Y-76719807D01*
X114964812Y-76695489D01*
X114975769Y-76684003D01*
X114996383Y-76665703D01*
X115018950Y-76649772D01*
X115043852Y-76636037D01*
X115071471Y-76624322D01*
X115102188Y-76614452D01*
X115136386Y-76606254D01*
X115174445Y-76599552D01*
X115174507Y-76599542D01*
X115177112Y-76599176D01*
X115179967Y-76598833D01*
X115183218Y-76598513D01*
X115187009Y-76598214D01*
X115191484Y-76597935D01*
X115196789Y-76597677D01*
X115203068Y-76597438D01*
X115210466Y-76597218D01*
X115219127Y-76597015D01*
X115229195Y-76596830D01*
X115240816Y-76596660D01*
X115254134Y-76596507D01*
X115269294Y-76596368D01*
X115286440Y-76596243D01*
X115305716Y-76596132D01*
X115327268Y-76596033D01*
X115351240Y-76595946D01*
X115377777Y-76595871D01*
X115407022Y-76595805D01*
X115439122Y-76595749D01*
X115474220Y-76595702D01*
X115512461Y-76595663D01*
X115553989Y-76595632D01*
X115598950Y-76595607D01*
X115647488Y-76595588D01*
X115699747Y-76595574D01*
X115755872Y-76595565D01*
X115816008Y-76595559D01*
X115880299Y-76595556D01*
X115948889Y-76595555D01*
X116003970Y-76595555D01*
X116069657Y-76595555D01*
X116131162Y-76595557D01*
X116188633Y-76595562D01*
X116242217Y-76595573D01*
X116292060Y-76595590D01*
X116338310Y-76595615D01*
X116381112Y-76595651D01*
X116420615Y-76595698D01*
X116456964Y-76595758D01*
X116490307Y-76595833D01*
X116520791Y-76595924D01*
X116548563Y-76596034D01*
X116573769Y-76596163D01*
X116596556Y-76596313D01*
X116617071Y-76596486D01*
X116635461Y-76596684D01*
X116651874Y-76596908D01*
X116666455Y-76597160D01*
X116679352Y-76597441D01*
X116690711Y-76597753D01*
X116700680Y-76598098D01*
X116709405Y-76598477D01*
X116717033Y-76598892D01*
X116723712Y-76599344D01*
X116729587Y-76599835D01*
X116734806Y-76600367D01*
X116739516Y-76600942D01*
X116743864Y-76601560D01*
X116747996Y-76602224D01*
X116752059Y-76602936D01*
X116756201Y-76603696D01*
X116760567Y-76604506D01*
X116771437Y-76606639D01*
X116810289Y-76616546D01*
X116845832Y-76629418D01*
X116878074Y-76645261D01*
X116907022Y-76664085D01*
X116932686Y-76685897D01*
X116955075Y-76710704D01*
X116974196Y-76738516D01*
X116990059Y-76769341D01*
X117002672Y-76803185D01*
X117012043Y-76840058D01*
X117012482Y-76842219D01*
X117013793Y-76848650D01*
X117014991Y-76854602D01*
X117016081Y-76860291D01*
X117017069Y-76865929D01*
X117017961Y-76871731D01*
X117018761Y-76877911D01*
X117019476Y-76884683D01*
X117020110Y-76892262D01*
X117020670Y-76900860D01*
X117021161Y-76910692D01*
X117021589Y-76921973D01*
X117021958Y-76934915D01*
X117022276Y-76949734D01*
X117022546Y-76966643D01*
X117022775Y-76985856D01*
X117022969Y-77007588D01*
X117023132Y-77032051D01*
X117023270Y-77059461D01*
X117023390Y-77090031D01*
X117023496Y-77123976D01*
X117023594Y-77161509D01*
X117023689Y-77202844D01*
X117023787Y-77248195D01*
X117023868Y-77285608D01*
G37*
G36*
X111752888Y-77405502D02*
G01*
X111752802Y-77441111D01*
X111752741Y-77465060D01*
X111752628Y-77509188D01*
X111752517Y-77549237D01*
X111752401Y-77585449D01*
X111752271Y-77618066D01*
X111752117Y-77647330D01*
X111751932Y-77673483D01*
X111751707Y-77696769D01*
X111751432Y-77717429D01*
X111751100Y-77735706D01*
X111750701Y-77751841D01*
X111750228Y-77766078D01*
X111749671Y-77778659D01*
X111749021Y-77789825D01*
X111748270Y-77799819D01*
X111747410Y-77808884D01*
X111746432Y-77817262D01*
X111745326Y-77825195D01*
X111744085Y-77832925D01*
X111742699Y-77840695D01*
X111741161Y-77848747D01*
X111739461Y-77857323D01*
X111737591Y-77866666D01*
X111734560Y-77881067D01*
X111722786Y-77926347D01*
X111708269Y-77968173D01*
X111690958Y-78006617D01*
X111670805Y-78041749D01*
X111647760Y-78073641D01*
X111621772Y-78102363D01*
X111592793Y-78127988D01*
X111560772Y-78150585D01*
X111525660Y-78170227D01*
X111513131Y-78176217D01*
X111482843Y-78188868D01*
X111451240Y-78199465D01*
X111417737Y-78208146D01*
X111381751Y-78215052D01*
X111342700Y-78220321D01*
X111300000Y-78224092D01*
X111298073Y-78224174D01*
X111291333Y-78224308D01*
X111280502Y-78224432D01*
X111265804Y-78224547D01*
X111247464Y-78224651D01*
X111225705Y-78224746D01*
X111200753Y-78224832D01*
X111172833Y-78224908D01*
X111142168Y-78224976D01*
X111108983Y-78225034D01*
X111073504Y-78225083D01*
X111035954Y-78225124D01*
X110996557Y-78225156D01*
X110955539Y-78225179D01*
X110913125Y-78225195D01*
X110869538Y-78225202D01*
X110825003Y-78225201D01*
X110779744Y-78225192D01*
X110733987Y-78225176D01*
X110687956Y-78225152D01*
X110641875Y-78225120D01*
X110595969Y-78225081D01*
X110550462Y-78225036D01*
X110505580Y-78224983D01*
X110461546Y-78224923D01*
X110418585Y-78224856D01*
X110376922Y-78224783D01*
X110336781Y-78224704D01*
X110298386Y-78224618D01*
X110261963Y-78224526D01*
X110227736Y-78224428D01*
X110195930Y-78224324D01*
X110166768Y-78224214D01*
X110140475Y-78224099D01*
X110117277Y-78223979D01*
X110097398Y-78223853D01*
X110081061Y-78223722D01*
X110068492Y-78223586D01*
X110059916Y-78223445D01*
X110055556Y-78223299D01*
X110016764Y-78219791D01*
X109971525Y-78213149D01*
X109929496Y-78203908D01*
X109890398Y-78191980D01*
X109853952Y-78177278D01*
X109819878Y-78159713D01*
X109787896Y-78139199D01*
X109787204Y-78138705D01*
X109773922Y-78128258D01*
X109759220Y-78115180D01*
X109744094Y-78100477D01*
X109729542Y-78085153D01*
X109716557Y-78070214D01*
X109706138Y-78056666D01*
X109689454Y-78030885D01*
X109670926Y-77996023D01*
X109655105Y-77958319D01*
X109641936Y-77917595D01*
X109631364Y-77873676D01*
X109623333Y-77826388D01*
X109617789Y-77775555D01*
X109617702Y-77774289D01*
X109617419Y-77767216D01*
X109617151Y-77755947D01*
X109616901Y-77740675D01*
X109616669Y-77721592D01*
X109616457Y-77698889D01*
X109616265Y-77672759D01*
X109616095Y-77643393D01*
X109615948Y-77610983D01*
X109615825Y-77575722D01*
X109615727Y-77537801D01*
X109615655Y-77497412D01*
X109615611Y-77454748D01*
X109615595Y-77410000D01*
X109615596Y-77380083D01*
X109615598Y-77366878D01*
X109994443Y-77366878D01*
X109994445Y-77410000D01*
X109994445Y-77414598D01*
X109994449Y-77456055D01*
X109994462Y-77493334D01*
X109994487Y-77526678D01*
X109994526Y-77556328D01*
X109994584Y-77582525D01*
X109994663Y-77605512D01*
X109994766Y-77625530D01*
X109994897Y-77642820D01*
X109995058Y-77657625D01*
X109995253Y-77670185D01*
X109995484Y-77680744D01*
X109995755Y-77689541D01*
X109996068Y-77696820D01*
X109996428Y-77702822D01*
X109996836Y-77707787D01*
X109997296Y-77711959D01*
X109997812Y-77715579D01*
X109998385Y-77718888D01*
X110003779Y-77742825D01*
X110012839Y-77770207D01*
X110024463Y-77794098D01*
X110038805Y-77814677D01*
X110056020Y-77832121D01*
X110076259Y-77846609D01*
X110099678Y-77858319D01*
X110126431Y-77867431D01*
X110147778Y-77873333D01*
X110674445Y-77873571D01*
X110716013Y-77873587D01*
X110763201Y-77873599D01*
X110809089Y-77873603D01*
X110853481Y-77873600D01*
X110896180Y-77873590D01*
X110936989Y-77873574D01*
X110975712Y-77873551D01*
X111012153Y-77873521D01*
X111046114Y-77873486D01*
X111077400Y-77873445D01*
X111105814Y-77873398D01*
X111131158Y-77873346D01*
X111153238Y-77873289D01*
X111171856Y-77873228D01*
X111186815Y-77873161D01*
X111197920Y-77873091D01*
X111204973Y-77873016D01*
X111207778Y-77872937D01*
X111226610Y-77869671D01*
X111246212Y-77864807D01*
X111263769Y-77858997D01*
X111268106Y-77857254D01*
X111291426Y-77845264D01*
X111311753Y-77830009D01*
X111329095Y-77811480D01*
X111343455Y-77789668D01*
X111354842Y-77764564D01*
X111363260Y-77736159D01*
X111368716Y-77704444D01*
X111368790Y-77703732D01*
X111369152Y-77697532D01*
X111369484Y-77687298D01*
X111369787Y-77673370D01*
X111370060Y-77656087D01*
X111370303Y-77635787D01*
X111370517Y-77612810D01*
X111370702Y-77587496D01*
X111370857Y-77560182D01*
X111370983Y-77531209D01*
X111371079Y-77500916D01*
X111371146Y-77469640D01*
X111371184Y-77437723D01*
X111371193Y-77405502D01*
X111371172Y-77373317D01*
X111371122Y-77341507D01*
X111371043Y-77310411D01*
X111370935Y-77280369D01*
X111370798Y-77251718D01*
X111370632Y-77224799D01*
X111370437Y-77199951D01*
X111370212Y-77177512D01*
X111369959Y-77157822D01*
X111369677Y-77141220D01*
X111369366Y-77128045D01*
X111369026Y-77118636D01*
X111368658Y-77113333D01*
X111368470Y-77111847D01*
X111366517Y-77099275D01*
X111363902Y-77085531D01*
X111361134Y-77073333D01*
X111360125Y-77069490D01*
X111350916Y-77042560D01*
X111338775Y-77018949D01*
X111323629Y-76998589D01*
X111305405Y-76981411D01*
X111284032Y-76967342D01*
X111259437Y-76956315D01*
X111231547Y-76948259D01*
X111229943Y-76947930D01*
X111227585Y-76947541D01*
X111224701Y-76947182D01*
X111221120Y-76946851D01*
X111216672Y-76946548D01*
X111211188Y-76946272D01*
X111204496Y-76946020D01*
X111196425Y-76945793D01*
X111186807Y-76945588D01*
X111175470Y-76945405D01*
X111162244Y-76945243D01*
X111146959Y-76945099D01*
X111129444Y-76944974D01*
X111109529Y-76944865D01*
X111087043Y-76944772D01*
X111061817Y-76944694D01*
X111033679Y-76944629D01*
X111002460Y-76944576D01*
X110967989Y-76944534D01*
X110930096Y-76944501D01*
X110888611Y-76944478D01*
X110843362Y-76944461D01*
X110794180Y-76944451D01*
X110740894Y-76944445D01*
X110683334Y-76944444D01*
X110652403Y-76944443D01*
X110596719Y-76944441D01*
X110545215Y-76944439D01*
X110497719Y-76944441D01*
X110454058Y-76944451D01*
X110414059Y-76944472D01*
X110377549Y-76944507D01*
X110344354Y-76944560D01*
X110314303Y-76944635D01*
X110287222Y-76944735D01*
X110262938Y-76944863D01*
X110241278Y-76945023D01*
X110222069Y-76945218D01*
X110205139Y-76945452D01*
X110190314Y-76945729D01*
X110177421Y-76946050D01*
X110166287Y-76946421D01*
X110156740Y-76946845D01*
X110148606Y-76947324D01*
X110141713Y-76947863D01*
X110135887Y-76948465D01*
X110130956Y-76949133D01*
X110126746Y-76949871D01*
X110123085Y-76950682D01*
X110119800Y-76951570D01*
X110116717Y-76952538D01*
X110113664Y-76953590D01*
X110110468Y-76954729D01*
X110106956Y-76955958D01*
X110106107Y-76956251D01*
X110084445Y-76965513D01*
X110065433Y-76977573D01*
X110047778Y-76993247D01*
X110046262Y-76994807D01*
X110034225Y-77008495D01*
X110024702Y-77022339D01*
X110016831Y-77037768D01*
X110009747Y-77056211D01*
X110009244Y-77057679D01*
X110007156Y-77063744D01*
X110005275Y-77069317D01*
X110003588Y-77074645D01*
X110002086Y-77079974D01*
X110000758Y-77085552D01*
X109999593Y-77091625D01*
X109998581Y-77098441D01*
X109997711Y-77106245D01*
X109996971Y-77115285D01*
X109996353Y-77125808D01*
X109995844Y-77138060D01*
X109995434Y-77152288D01*
X109995112Y-77168740D01*
X109994869Y-77187661D01*
X109994692Y-77209299D01*
X109994572Y-77233901D01*
X109994498Y-77261712D01*
X109994459Y-77292981D01*
X109994444Y-77327954D01*
X109994443Y-77366878D01*
X109615598Y-77366878D01*
X109615604Y-77334724D01*
X109615627Y-77293432D01*
X109615671Y-77255974D01*
X109615741Y-77222117D01*
X109615843Y-77191628D01*
X109615982Y-77164271D01*
X109616166Y-77139814D01*
X109616400Y-77118024D01*
X109616690Y-77098666D01*
X109617040Y-77081508D01*
X109617459Y-77066315D01*
X109617951Y-77052854D01*
X109618522Y-77040892D01*
X109619178Y-77030195D01*
X109619925Y-77020529D01*
X109620769Y-77011660D01*
X109621716Y-77003356D01*
X109622771Y-76995383D01*
X109623941Y-76987506D01*
X109625231Y-76979494D01*
X109626648Y-76971111D01*
X109631441Y-76945802D01*
X109642669Y-76900192D01*
X109656666Y-76857991D01*
X109673471Y-76819125D01*
X109693122Y-76783523D01*
X109715657Y-76751110D01*
X109741114Y-76721813D01*
X109769531Y-76695558D01*
X109792098Y-76678243D01*
X109821683Y-76659297D01*
X109853472Y-76642939D01*
X109887833Y-76629023D01*
X109925131Y-76617406D01*
X109965731Y-76607941D01*
X110010000Y-76600486D01*
X110011952Y-76600213D01*
X110015301Y-76599759D01*
X110018691Y-76599337D01*
X110022286Y-76598946D01*
X110026248Y-76598583D01*
X110030741Y-76598248D01*
X110035927Y-76597940D01*
X110041969Y-76597656D01*
X110049032Y-76597396D01*
X110057277Y-76597158D01*
X110066868Y-76596940D01*
X110077967Y-76596742D01*
X110090739Y-76596562D01*
X110105346Y-76596398D01*
X110121951Y-76596249D01*
X110140717Y-76596114D01*
X110161808Y-76595992D01*
X110185386Y-76595880D01*
X110211614Y-76595778D01*
X110240656Y-76595684D01*
X110272675Y-76595597D01*
X110307834Y-76595515D01*
X110346295Y-76595437D01*
X110388222Y-76595361D01*
X110433779Y-76595287D01*
X110483127Y-76595213D01*
X110536431Y-76595137D01*
X110593853Y-76595058D01*
X110655556Y-76594974D01*
X110674963Y-76594949D01*
X110738051Y-76594868D01*
X110796902Y-76594799D01*
X110851678Y-76594745D01*
X110902538Y-76594705D01*
X110949643Y-76594682D01*
X110993155Y-76594678D01*
X111033233Y-76594693D01*
X111070038Y-76594728D01*
X111103731Y-76594787D01*
X111134472Y-76594869D01*
X111162422Y-76594977D01*
X111187742Y-76595111D01*
X111210592Y-76595273D01*
X111231133Y-76595466D01*
X111249526Y-76595689D01*
X111265930Y-76595945D01*
X111280507Y-76596235D01*
X111293418Y-76596560D01*
X111304822Y-76596922D01*
X111314881Y-76597323D01*
X111323755Y-76597763D01*
X111331605Y-76598245D01*
X111338591Y-76598769D01*
X111344874Y-76599338D01*
X111350615Y-76599952D01*
X111355974Y-76600613D01*
X111361112Y-76601322D01*
X111382717Y-76604764D01*
X111428491Y-76614416D01*
X111470875Y-76626805D01*
X111509977Y-76641972D01*
X111545903Y-76659956D01*
X111578760Y-76680794D01*
X111583314Y-76684176D01*
X111594968Y-76693739D01*
X111607983Y-76705379D01*
X111621376Y-76718145D01*
X111634167Y-76731088D01*
X111645373Y-76743256D01*
X111654013Y-76753697D01*
X111656474Y-76756979D01*
X111678032Y-76789587D01*
X111697004Y-76825635D01*
X111713310Y-76864912D01*
X111726872Y-76907207D01*
X111737611Y-76952306D01*
X111745449Y-77000000D01*
X111746120Y-77005291D01*
X111747139Y-77014008D01*
X111748061Y-77022989D01*
X111748892Y-77032467D01*
X111749634Y-77042673D01*
X111750291Y-77053839D01*
X111750868Y-77066199D01*
X111751369Y-77079984D01*
X111751796Y-77095427D01*
X111752155Y-77112759D01*
X111752449Y-77132213D01*
X111752681Y-77154022D01*
X111752856Y-77178417D01*
X111752978Y-77205631D01*
X111753050Y-77235895D01*
X111753076Y-77269443D01*
X111753061Y-77306506D01*
X111753007Y-77347317D01*
X111752920Y-77392108D01*
X111752888Y-77405502D01*
G37*
%TO.C,D3*%
X102015000Y-28355000D02*
X104300000Y-28355000D01*
X102015000Y-29825000D02*
X102015000Y-28355000D01*
X103200000Y-28690000D02*
X103800000Y-28690000D01*
X103200000Y-29490000D02*
X103800000Y-29490000D01*
X104300000Y-29825000D02*
X102015000Y-29825000D01*
D13*
X105727500Y-29130000D02*
G75*
G03*
X105727500Y-29130000I-237500J0D01*
G01*
D12*
%TO.C,C12*%
X118105000Y-44202836D02*
X118105000Y-43987164D01*
X118825000Y-44202836D02*
X118825000Y-43987164D01*
%TO.C,R27*%
X104012500Y-65142742D02*
X104012500Y-65617258D01*
X102967500Y-65142742D02*
X102967500Y-65617258D01*
%TO.C,R3*%
X108572500Y-46582742D02*
X108572500Y-47057258D01*
X107527500Y-46582742D02*
X107527500Y-47057258D01*
%TO.C,R15*%
X124017936Y-41670000D02*
X124472064Y-41670000D01*
X124017936Y-43140000D02*
X124472064Y-43140000D01*
%TO.C,R28*%
X106707500Y-62837742D02*
X106707500Y-63312258D01*
X105662500Y-62837742D02*
X105662500Y-63312258D01*
%TO.C,C11*%
X119305000Y-44222836D02*
X119305000Y-44007164D01*
X120025000Y-44222836D02*
X120025000Y-44007164D01*
D11*
%TO.C,D1*%
X115955000Y-52095000D02*
X115955000Y-49195000D01*
X115955000Y-49195000D02*
X115555000Y-49195000D01*
X115555000Y-52095000D02*
X115955000Y-52095000D01*
X115555000Y-49195000D02*
X115555000Y-52095000D01*
D13*
X118512500Y-49675000D02*
G75*
G03*
X118512500Y-49675000I-237500J0D01*
G01*
D12*
%TO.C,R18*%
X120825000Y-41998641D02*
X120825000Y-41691359D01*
X121585000Y-41998641D02*
X121585000Y-41691359D01*
D11*
%TO.C,J1*%
X109920000Y-64990000D02*
X106490000Y-64990000D01*
X106490000Y-69015000D02*
X109920000Y-69015000D01*
D14*
X112615000Y-65735000D02*
G75*
G03*
X112615000Y-65735000I-250000J0D01*
G01*
D12*
%TO.C,R9*%
X105070000Y-26886359D02*
X105070000Y-27193641D01*
X104310000Y-26886359D02*
X104310000Y-27193641D01*
%TO.C,C4*%
X106072836Y-49055000D02*
X105857164Y-49055000D01*
X106072836Y-48335000D02*
X105857164Y-48335000D01*
%TO.C,C9*%
X115727836Y-45380000D02*
X115512164Y-45380000D01*
X115727836Y-44660000D02*
X115512164Y-44660000D01*
%TD*%
D15*
X99575000Y-70405000D02*
X98315000Y-59845000D01*
X127275000Y-67245000D02*
X126405000Y-72885000D01*
X113155000Y-21015000D02*
X120425000Y-21345000D01*
X95177500Y-45452500D02*
X97702500Y-45467500D01*
X124405000Y-80835000D02*
X120905000Y-83535000D01*
X126405000Y-72885000D02*
X125395000Y-78155000D01*
X105135000Y-83395000D02*
X101945000Y-80795000D01*
X120905000Y-83535000D02*
X120115000Y-83685000D01*
X95177500Y-45452500D02*
X95180000Y-53062500D01*
X101945000Y-80795000D02*
X101185000Y-79165000D01*
X104065000Y-22155000D02*
X105665000Y-21385000D01*
X128195000Y-58465000D02*
X128355000Y-53832500D01*
X106335000Y-83685000D02*
X105135000Y-83395000D01*
X120425000Y-21345000D02*
X122185000Y-22175000D01*
X128355000Y-53832500D02*
X130300000Y-53827500D01*
X105665000Y-21385000D02*
X113155000Y-21015000D01*
X128195000Y-58465000D02*
X127975000Y-61175000D01*
X98935000Y-30435000D02*
X104065000Y-22155000D01*
X98935000Y-30435000D02*
X97702500Y-45467500D01*
X101185000Y-79165000D02*
X99575000Y-70405000D01*
X98315000Y-59845000D02*
X98075000Y-56345000D01*
X127975000Y-61175000D02*
X127275000Y-67245000D01*
X127155000Y-30005000D02*
X122185000Y-22175000D01*
X130290000Y-44300000D02*
X128665000Y-44300000D01*
X130290000Y-44300000D02*
X130300000Y-53827500D01*
X120115000Y-83685000D02*
X106335000Y-83685000D01*
X95180000Y-53062500D02*
X97965000Y-53077500D01*
X125395000Y-78155000D02*
X125015000Y-79825000D01*
X127155000Y-30005000D02*
X128665000Y-44300000D01*
X98075000Y-56345000D02*
X97965000Y-53077500D01*
X125015000Y-79825000D02*
X124405000Y-80835000D01*
M02*
