%TF.GenerationSoftware,KiCad,Pcbnew,(7.0.0)*%
%TF.CreationDate,2023-06-26T15:04:23+05:30*%
%TF.ProjectId,EMO SN65 OBD,454d4f20-534e-4363-9520-4f42442e6b69,1*%
%TF.SameCoordinates,Original*%
%TF.FileFunction,Legend,Top*%
%TF.FilePolarity,Positive*%
%FSLAX46Y46*%
G04 Gerber Fmt 4.6, Leading zero omitted, Abs format (unit mm)*
G04 Created by KiCad (PCBNEW (7.0.0)) date 2023-06-26 15:04:23*
%MOMM*%
%LPD*%
G01*
G04 APERTURE LIST*
%ADD10C,0.150000*%
%ADD11C,0.120000*%
%ADD12C,0.200000*%
%ADD13C,0.475000*%
%ADD14C,0.525000*%
%ADD15C,0.127000*%
%ADD16C,0.360000*%
%TA.AperFunction,Profile*%
%ADD17C,0.100000*%
%TD*%
G04 APERTURE END LIST*
D10*
X119230000Y-70790000D02*
X119690000Y-70510000D01*
X103510000Y-53079999D02*
X102030000Y-53560001D01*
X111880000Y-22070000D02*
X115700000Y-22070000D01*
X113070000Y-53960000D02*
X113070000Y-57680000D01*
X110170000Y-24840000D02*
X111880000Y-22070000D01*
X120030000Y-53020000D02*
X120030001Y-49350000D01*
X115670000Y-72780000D02*
G75*
G03*
X115670000Y-72780000I-2412975J0D01*
G01*
X116110000Y-53790000D02*
X116110000Y-53230000D01*
X127871250Y-60408751D02*
G75*
G03*
X127871250Y-60408751I-2561250J0D01*
G01*
X127746194Y-37510000D02*
G75*
G03*
X127746194Y-37510000I-2444945J0D01*
G01*
X115890000Y-21670000D02*
X118510000Y-21670000D01*
X118510000Y-21670000D02*
X118510000Y-24530000D01*
X118510000Y-24530000D02*
X115890000Y-24530000D01*
X115890000Y-24530000D02*
X115890000Y-21670000D01*
X111829999Y-53050000D02*
X111830000Y-49380000D01*
X103558194Y-60378751D02*
G75*
G03*
X103558194Y-60378751I-2498194J0D01*
G01*
X111829999Y-53050000D02*
X120030000Y-53020000D01*
X119980000Y-53960000D02*
X113070000Y-53960000D01*
X119970000Y-57530000D02*
X119980000Y-53960000D01*
X103681250Y-37660000D02*
G75*
G03*
X103681250Y-37660000I-2561250J0D01*
G01*
X115782499Y-25250000D02*
G75*
G03*
X115782499Y-25250000I-2561250J0D01*
G01*
X117880000Y-71595000D02*
X118800000Y-71885000D01*
X120542380Y-29807809D02*
X120656666Y-29845904D01*
X120656666Y-29845904D02*
X120847142Y-29845904D01*
X120847142Y-29845904D02*
X120923333Y-29807809D01*
X120923333Y-29807809D02*
X120961428Y-29769714D01*
X120961428Y-29769714D02*
X120999523Y-29693523D01*
X120999523Y-29693523D02*
X120999523Y-29617333D01*
X120999523Y-29617333D02*
X120961428Y-29541142D01*
X120961428Y-29541142D02*
X120923333Y-29503047D01*
X120923333Y-29503047D02*
X120847142Y-29464952D01*
X120847142Y-29464952D02*
X120694761Y-29426857D01*
X120694761Y-29426857D02*
X120618571Y-29388761D01*
X120618571Y-29388761D02*
X120580476Y-29350666D01*
X120580476Y-29350666D02*
X120542380Y-29274476D01*
X120542380Y-29274476D02*
X120542380Y-29198285D01*
X120542380Y-29198285D02*
X120580476Y-29122095D01*
X120580476Y-29122095D02*
X120618571Y-29084000D01*
X120618571Y-29084000D02*
X120694761Y-29045904D01*
X120694761Y-29045904D02*
X120885238Y-29045904D01*
X120885238Y-29045904D02*
X120999523Y-29084000D01*
X121799524Y-29769714D02*
X121761428Y-29807809D01*
X121761428Y-29807809D02*
X121647143Y-29845904D01*
X121647143Y-29845904D02*
X121570952Y-29845904D01*
X121570952Y-29845904D02*
X121456666Y-29807809D01*
X121456666Y-29807809D02*
X121380476Y-29731619D01*
X121380476Y-29731619D02*
X121342381Y-29655428D01*
X121342381Y-29655428D02*
X121304285Y-29503047D01*
X121304285Y-29503047D02*
X121304285Y-29388761D01*
X121304285Y-29388761D02*
X121342381Y-29236380D01*
X121342381Y-29236380D02*
X121380476Y-29160190D01*
X121380476Y-29160190D02*
X121456666Y-29084000D01*
X121456666Y-29084000D02*
X121570952Y-29045904D01*
X121570952Y-29045904D02*
X121647143Y-29045904D01*
X121647143Y-29045904D02*
X121761428Y-29084000D01*
X121761428Y-29084000D02*
X121799524Y-29122095D01*
X122523333Y-29845904D02*
X122142381Y-29845904D01*
X122142381Y-29845904D02*
X122142381Y-29045904D01*
X121941428Y-33115904D02*
X121560476Y-33115904D01*
X121560476Y-33115904D02*
X121522380Y-33496857D01*
X121522380Y-33496857D02*
X121560476Y-33458761D01*
X121560476Y-33458761D02*
X121636666Y-33420666D01*
X121636666Y-33420666D02*
X121827142Y-33420666D01*
X121827142Y-33420666D02*
X121903333Y-33458761D01*
X121903333Y-33458761D02*
X121941428Y-33496857D01*
X121941428Y-33496857D02*
X121979523Y-33573047D01*
X121979523Y-33573047D02*
X121979523Y-33763523D01*
X121979523Y-33763523D02*
X121941428Y-33839714D01*
X121941428Y-33839714D02*
X121903333Y-33877809D01*
X121903333Y-33877809D02*
X121827142Y-33915904D01*
X121827142Y-33915904D02*
X121636666Y-33915904D01*
X121636666Y-33915904D02*
X121560476Y-33877809D01*
X121560476Y-33877809D02*
X121522380Y-33839714D01*
X122208095Y-33115904D02*
X122474762Y-33915904D01*
X122474762Y-33915904D02*
X122741428Y-33115904D01*
X120849523Y-31774000D02*
X120773333Y-31735904D01*
X120773333Y-31735904D02*
X120659047Y-31735904D01*
X120659047Y-31735904D02*
X120544761Y-31774000D01*
X120544761Y-31774000D02*
X120468571Y-31850190D01*
X120468571Y-31850190D02*
X120430476Y-31926380D01*
X120430476Y-31926380D02*
X120392380Y-32078761D01*
X120392380Y-32078761D02*
X120392380Y-32193047D01*
X120392380Y-32193047D02*
X120430476Y-32345428D01*
X120430476Y-32345428D02*
X120468571Y-32421619D01*
X120468571Y-32421619D02*
X120544761Y-32497809D01*
X120544761Y-32497809D02*
X120659047Y-32535904D01*
X120659047Y-32535904D02*
X120735238Y-32535904D01*
X120735238Y-32535904D02*
X120849523Y-32497809D01*
X120849523Y-32497809D02*
X120887619Y-32459714D01*
X120887619Y-32459714D02*
X120887619Y-32193047D01*
X120887619Y-32193047D02*
X120735238Y-32193047D01*
X121230476Y-32535904D02*
X121230476Y-31735904D01*
X121230476Y-31735904D02*
X121687619Y-32535904D01*
X121687619Y-32535904D02*
X121687619Y-31735904D01*
X122068571Y-32535904D02*
X122068571Y-31735904D01*
X122068571Y-31735904D02*
X122259047Y-31735904D01*
X122259047Y-31735904D02*
X122373333Y-31774000D01*
X122373333Y-31774000D02*
X122449523Y-31850190D01*
X122449523Y-31850190D02*
X122487618Y-31926380D01*
X122487618Y-31926380D02*
X122525714Y-32078761D01*
X122525714Y-32078761D02*
X122525714Y-32193047D01*
X122525714Y-32193047D02*
X122487618Y-32345428D01*
X122487618Y-32345428D02*
X122449523Y-32421619D01*
X122449523Y-32421619D02*
X122373333Y-32497809D01*
X122373333Y-32497809D02*
X122259047Y-32535904D01*
X122259047Y-32535904D02*
X122068571Y-32535904D01*
X120492380Y-31277809D02*
X120606666Y-31315904D01*
X120606666Y-31315904D02*
X120797142Y-31315904D01*
X120797142Y-31315904D02*
X120873333Y-31277809D01*
X120873333Y-31277809D02*
X120911428Y-31239714D01*
X120911428Y-31239714D02*
X120949523Y-31163523D01*
X120949523Y-31163523D02*
X120949523Y-31087333D01*
X120949523Y-31087333D02*
X120911428Y-31011142D01*
X120911428Y-31011142D02*
X120873333Y-30973047D01*
X120873333Y-30973047D02*
X120797142Y-30934952D01*
X120797142Y-30934952D02*
X120644761Y-30896857D01*
X120644761Y-30896857D02*
X120568571Y-30858761D01*
X120568571Y-30858761D02*
X120530476Y-30820666D01*
X120530476Y-30820666D02*
X120492380Y-30744476D01*
X120492380Y-30744476D02*
X120492380Y-30668285D01*
X120492380Y-30668285D02*
X120530476Y-30592095D01*
X120530476Y-30592095D02*
X120568571Y-30554000D01*
X120568571Y-30554000D02*
X120644761Y-30515904D01*
X120644761Y-30515904D02*
X120835238Y-30515904D01*
X120835238Y-30515904D02*
X120949523Y-30554000D01*
X121292381Y-31315904D02*
X121292381Y-30515904D01*
X121292381Y-30515904D02*
X121482857Y-30515904D01*
X121482857Y-30515904D02*
X121597143Y-30554000D01*
X121597143Y-30554000D02*
X121673333Y-30630190D01*
X121673333Y-30630190D02*
X121711428Y-30706380D01*
X121711428Y-30706380D02*
X121749524Y-30858761D01*
X121749524Y-30858761D02*
X121749524Y-30973047D01*
X121749524Y-30973047D02*
X121711428Y-31125428D01*
X121711428Y-31125428D02*
X121673333Y-31201619D01*
X121673333Y-31201619D02*
X121597143Y-31277809D01*
X121597143Y-31277809D02*
X121482857Y-31315904D01*
X121482857Y-31315904D02*
X121292381Y-31315904D01*
X122054285Y-31087333D02*
X122435238Y-31087333D01*
X121978095Y-31315904D02*
X122244762Y-30515904D01*
X122244762Y-30515904D02*
X122511428Y-31315904D01*
X100234000Y-52880476D02*
X100195904Y-52956666D01*
X100195904Y-52956666D02*
X100195904Y-53070952D01*
X100195904Y-53070952D02*
X100234000Y-53185238D01*
X100234000Y-53185238D02*
X100310190Y-53261428D01*
X100310190Y-53261428D02*
X100386380Y-53299523D01*
X100386380Y-53299523D02*
X100538761Y-53337619D01*
X100538761Y-53337619D02*
X100653047Y-53337619D01*
X100653047Y-53337619D02*
X100805428Y-53299523D01*
X100805428Y-53299523D02*
X100881619Y-53261428D01*
X100881619Y-53261428D02*
X100957809Y-53185238D01*
X100957809Y-53185238D02*
X100995904Y-53070952D01*
X100995904Y-53070952D02*
X100995904Y-52994761D01*
X100995904Y-52994761D02*
X100957809Y-52880476D01*
X100957809Y-52880476D02*
X100919714Y-52842380D01*
X100919714Y-52842380D02*
X100653047Y-52842380D01*
X100653047Y-52842380D02*
X100653047Y-52994761D01*
X100995904Y-52499523D02*
X100195904Y-52499523D01*
X100195904Y-52499523D02*
X100995904Y-52042380D01*
X100995904Y-52042380D02*
X100195904Y-52042380D01*
X100995904Y-51661428D02*
X100195904Y-51661428D01*
X100195904Y-51661428D02*
X100195904Y-51470952D01*
X100195904Y-51470952D02*
X100234000Y-51356666D01*
X100234000Y-51356666D02*
X100310190Y-51280476D01*
X100310190Y-51280476D02*
X100386380Y-51242381D01*
X100386380Y-51242381D02*
X100538761Y-51204285D01*
X100538761Y-51204285D02*
X100653047Y-51204285D01*
X100653047Y-51204285D02*
X100805428Y-51242381D01*
X100805428Y-51242381D02*
X100881619Y-51280476D01*
X100881619Y-51280476D02*
X100957809Y-51356666D01*
X100957809Y-51356666D02*
X100995904Y-51470952D01*
X100995904Y-51470952D02*
X100995904Y-51661428D01*
%TO.C,TP12*%
X109626667Y-57723904D02*
X109360000Y-57342952D01*
X109169524Y-57723904D02*
X109169524Y-56923904D01*
X109169524Y-56923904D02*
X109474286Y-56923904D01*
X109474286Y-56923904D02*
X109550476Y-56962000D01*
X109550476Y-56962000D02*
X109588571Y-57000095D01*
X109588571Y-57000095D02*
X109626667Y-57076285D01*
X109626667Y-57076285D02*
X109626667Y-57190571D01*
X109626667Y-57190571D02*
X109588571Y-57266761D01*
X109588571Y-57266761D02*
X109550476Y-57304857D01*
X109550476Y-57304857D02*
X109474286Y-57342952D01*
X109474286Y-57342952D02*
X109169524Y-57342952D01*
X110236190Y-57304857D02*
X110350476Y-57342952D01*
X110350476Y-57342952D02*
X110388571Y-57381047D01*
X110388571Y-57381047D02*
X110426667Y-57457238D01*
X110426667Y-57457238D02*
X110426667Y-57571523D01*
X110426667Y-57571523D02*
X110388571Y-57647714D01*
X110388571Y-57647714D02*
X110350476Y-57685809D01*
X110350476Y-57685809D02*
X110274286Y-57723904D01*
X110274286Y-57723904D02*
X109969524Y-57723904D01*
X109969524Y-57723904D02*
X109969524Y-56923904D01*
X109969524Y-56923904D02*
X110236190Y-56923904D01*
X110236190Y-56923904D02*
X110312381Y-56962000D01*
X110312381Y-56962000D02*
X110350476Y-57000095D01*
X110350476Y-57000095D02*
X110388571Y-57076285D01*
X110388571Y-57076285D02*
X110388571Y-57152476D01*
X110388571Y-57152476D02*
X110350476Y-57228666D01*
X110350476Y-57228666D02*
X110312381Y-57266761D01*
X110312381Y-57266761D02*
X110236190Y-57304857D01*
X110236190Y-57304857D02*
X109969524Y-57304857D01*
X111112381Y-57190571D02*
X111112381Y-57723904D01*
X110921905Y-56885809D02*
X110731428Y-57457238D01*
X110731428Y-57457238D02*
X111226667Y-57457238D01*
%TO.C,R14*%
X128023904Y-56864285D02*
X127642952Y-57130952D01*
X128023904Y-57321428D02*
X127223904Y-57321428D01*
X127223904Y-57321428D02*
X127223904Y-57016666D01*
X127223904Y-57016666D02*
X127262000Y-56940476D01*
X127262000Y-56940476D02*
X127300095Y-56902381D01*
X127300095Y-56902381D02*
X127376285Y-56864285D01*
X127376285Y-56864285D02*
X127490571Y-56864285D01*
X127490571Y-56864285D02*
X127566761Y-56902381D01*
X127566761Y-56902381D02*
X127604857Y-56940476D01*
X127604857Y-56940476D02*
X127642952Y-57016666D01*
X127642952Y-57016666D02*
X127642952Y-57321428D01*
X128023904Y-56102381D02*
X128023904Y-56559524D01*
X128023904Y-56330952D02*
X127223904Y-56330952D01*
X127223904Y-56330952D02*
X127338190Y-56407143D01*
X127338190Y-56407143D02*
X127414380Y-56483333D01*
X127414380Y-56483333D02*
X127452476Y-56559524D01*
X127490571Y-55416666D02*
X128023904Y-55416666D01*
X127185809Y-55607142D02*
X127757238Y-55797619D01*
X127757238Y-55797619D02*
X127757238Y-55302380D01*
%TO.C,TP25*%
X112482381Y-51783904D02*
X112101429Y-51783904D01*
X112101429Y-51783904D02*
X112063333Y-52164857D01*
X112063333Y-52164857D02*
X112101429Y-52126761D01*
X112101429Y-52126761D02*
X112177619Y-52088666D01*
X112177619Y-52088666D02*
X112368095Y-52088666D01*
X112368095Y-52088666D02*
X112444286Y-52126761D01*
X112444286Y-52126761D02*
X112482381Y-52164857D01*
X112482381Y-52164857D02*
X112520476Y-52241047D01*
X112520476Y-52241047D02*
X112520476Y-52431523D01*
X112520476Y-52431523D02*
X112482381Y-52507714D01*
X112482381Y-52507714D02*
X112444286Y-52545809D01*
X112444286Y-52545809D02*
X112368095Y-52583904D01*
X112368095Y-52583904D02*
X112177619Y-52583904D01*
X112177619Y-52583904D02*
X112101429Y-52545809D01*
X112101429Y-52545809D02*
X112063333Y-52507714D01*
X112749048Y-51783904D02*
X113015715Y-52583904D01*
X113015715Y-52583904D02*
X113282381Y-51783904D01*
X113358572Y-52660095D02*
X113968095Y-52660095D01*
X114158572Y-52583904D02*
X114158572Y-51783904D01*
X114158572Y-51783904D02*
X114463334Y-51783904D01*
X114463334Y-51783904D02*
X114539524Y-51822000D01*
X114539524Y-51822000D02*
X114577619Y-51860095D01*
X114577619Y-51860095D02*
X114615715Y-51936285D01*
X114615715Y-51936285D02*
X114615715Y-52050571D01*
X114615715Y-52050571D02*
X114577619Y-52126761D01*
X114577619Y-52126761D02*
X114539524Y-52164857D01*
X114539524Y-52164857D02*
X114463334Y-52202952D01*
X114463334Y-52202952D02*
X114158572Y-52202952D01*
X114958572Y-52583904D02*
X114958572Y-51783904D01*
X115796667Y-52507714D02*
X115758571Y-52545809D01*
X115758571Y-52545809D02*
X115644286Y-52583904D01*
X115644286Y-52583904D02*
X115568095Y-52583904D01*
X115568095Y-52583904D02*
X115453809Y-52545809D01*
X115453809Y-52545809D02*
X115377619Y-52469619D01*
X115377619Y-52469619D02*
X115339524Y-52393428D01*
X115339524Y-52393428D02*
X115301428Y-52241047D01*
X115301428Y-52241047D02*
X115301428Y-52126761D01*
X115301428Y-52126761D02*
X115339524Y-51974380D01*
X115339524Y-51974380D02*
X115377619Y-51898190D01*
X115377619Y-51898190D02*
X115453809Y-51822000D01*
X115453809Y-51822000D02*
X115568095Y-51783904D01*
X115568095Y-51783904D02*
X115644286Y-51783904D01*
X115644286Y-51783904D02*
X115758571Y-51822000D01*
X115758571Y-51822000D02*
X115796667Y-51860095D01*
%TO.C,TP15*%
X101165238Y-56123904D02*
X101165238Y-55323904D01*
X102003333Y-56047714D02*
X101965237Y-56085809D01*
X101965237Y-56085809D02*
X101850952Y-56123904D01*
X101850952Y-56123904D02*
X101774761Y-56123904D01*
X101774761Y-56123904D02*
X101660475Y-56085809D01*
X101660475Y-56085809D02*
X101584285Y-56009619D01*
X101584285Y-56009619D02*
X101546190Y-55933428D01*
X101546190Y-55933428D02*
X101508094Y-55781047D01*
X101508094Y-55781047D02*
X101508094Y-55666761D01*
X101508094Y-55666761D02*
X101546190Y-55514380D01*
X101546190Y-55514380D02*
X101584285Y-55438190D01*
X101584285Y-55438190D02*
X101660475Y-55362000D01*
X101660475Y-55362000D02*
X101774761Y-55323904D01*
X101774761Y-55323904D02*
X101850952Y-55323904D01*
X101850952Y-55323904D02*
X101965237Y-55362000D01*
X101965237Y-55362000D02*
X102003333Y-55400095D01*
X102308094Y-56085809D02*
X102422380Y-56123904D01*
X102422380Y-56123904D02*
X102612856Y-56123904D01*
X102612856Y-56123904D02*
X102689047Y-56085809D01*
X102689047Y-56085809D02*
X102727142Y-56047714D01*
X102727142Y-56047714D02*
X102765237Y-55971523D01*
X102765237Y-55971523D02*
X102765237Y-55895333D01*
X102765237Y-55895333D02*
X102727142Y-55819142D01*
X102727142Y-55819142D02*
X102689047Y-55781047D01*
X102689047Y-55781047D02*
X102612856Y-55742952D01*
X102612856Y-55742952D02*
X102460475Y-55704857D01*
X102460475Y-55704857D02*
X102384285Y-55666761D01*
X102384285Y-55666761D02*
X102346190Y-55628666D01*
X102346190Y-55628666D02*
X102308094Y-55552476D01*
X102308094Y-55552476D02*
X102308094Y-55476285D01*
X102308094Y-55476285D02*
X102346190Y-55400095D01*
X102346190Y-55400095D02*
X102384285Y-55362000D01*
X102384285Y-55362000D02*
X102460475Y-55323904D01*
X102460475Y-55323904D02*
X102650952Y-55323904D01*
X102650952Y-55323904D02*
X102765237Y-55362000D01*
X103108095Y-56123904D02*
X103108095Y-55323904D01*
X103108095Y-55323904D02*
X103412857Y-55323904D01*
X103412857Y-55323904D02*
X103489047Y-55362000D01*
X103489047Y-55362000D02*
X103527142Y-55400095D01*
X103527142Y-55400095D02*
X103565238Y-55476285D01*
X103565238Y-55476285D02*
X103565238Y-55590571D01*
X103565238Y-55590571D02*
X103527142Y-55666761D01*
X103527142Y-55666761D02*
X103489047Y-55704857D01*
X103489047Y-55704857D02*
X103412857Y-55742952D01*
X103412857Y-55742952D02*
X103108095Y-55742952D01*
X104289047Y-56123904D02*
X103908095Y-56123904D01*
X103908095Y-56123904D02*
X103908095Y-55323904D01*
X104555714Y-56123904D02*
X104555714Y-55323904D01*
X105012857Y-56123904D02*
X104669999Y-55666761D01*
X105012857Y-55323904D02*
X104555714Y-55781047D01*
%TO.C,C13*%
X116595714Y-24117714D02*
X116557618Y-24155809D01*
X116557618Y-24155809D02*
X116443333Y-24193904D01*
X116443333Y-24193904D02*
X116367142Y-24193904D01*
X116367142Y-24193904D02*
X116252856Y-24155809D01*
X116252856Y-24155809D02*
X116176666Y-24079619D01*
X116176666Y-24079619D02*
X116138571Y-24003428D01*
X116138571Y-24003428D02*
X116100475Y-23851047D01*
X116100475Y-23851047D02*
X116100475Y-23736761D01*
X116100475Y-23736761D02*
X116138571Y-23584380D01*
X116138571Y-23584380D02*
X116176666Y-23508190D01*
X116176666Y-23508190D02*
X116252856Y-23432000D01*
X116252856Y-23432000D02*
X116367142Y-23393904D01*
X116367142Y-23393904D02*
X116443333Y-23393904D01*
X116443333Y-23393904D02*
X116557618Y-23432000D01*
X116557618Y-23432000D02*
X116595714Y-23470095D01*
X117357618Y-24193904D02*
X116900475Y-24193904D01*
X117129047Y-24193904D02*
X117129047Y-23393904D01*
X117129047Y-23393904D02*
X117052856Y-23508190D01*
X117052856Y-23508190D02*
X116976666Y-23584380D01*
X116976666Y-23584380D02*
X116900475Y-23622476D01*
X117624285Y-23393904D02*
X118119523Y-23393904D01*
X118119523Y-23393904D02*
X117852857Y-23698666D01*
X117852857Y-23698666D02*
X117967142Y-23698666D01*
X117967142Y-23698666D02*
X118043333Y-23736761D01*
X118043333Y-23736761D02*
X118081428Y-23774857D01*
X118081428Y-23774857D02*
X118119523Y-23851047D01*
X118119523Y-23851047D02*
X118119523Y-24041523D01*
X118119523Y-24041523D02*
X118081428Y-24117714D01*
X118081428Y-24117714D02*
X118043333Y-24155809D01*
X118043333Y-24155809D02*
X117967142Y-24193904D01*
X117967142Y-24193904D02*
X117738571Y-24193904D01*
X117738571Y-24193904D02*
X117662380Y-24155809D01*
X117662380Y-24155809D02*
X117624285Y-24117714D01*
%TO.C,U1*%
X122703904Y-64459523D02*
X123351523Y-64459523D01*
X123351523Y-64459523D02*
X123427714Y-64421428D01*
X123427714Y-64421428D02*
X123465809Y-64383333D01*
X123465809Y-64383333D02*
X123503904Y-64307142D01*
X123503904Y-64307142D02*
X123503904Y-64154761D01*
X123503904Y-64154761D02*
X123465809Y-64078571D01*
X123465809Y-64078571D02*
X123427714Y-64040476D01*
X123427714Y-64040476D02*
X123351523Y-64002380D01*
X123351523Y-64002380D02*
X122703904Y-64002380D01*
X123503904Y-63202381D02*
X123503904Y-63659524D01*
X123503904Y-63430952D02*
X122703904Y-63430952D01*
X122703904Y-63430952D02*
X122818190Y-63507143D01*
X122818190Y-63507143D02*
X122894380Y-63583333D01*
X122894380Y-63583333D02*
X122932476Y-63659524D01*
%TO.C,TP24*%
X109967714Y-54349999D02*
X110005809Y-54388095D01*
X110005809Y-54388095D02*
X110043904Y-54502380D01*
X110043904Y-54502380D02*
X110043904Y-54578571D01*
X110043904Y-54578571D02*
X110005809Y-54692857D01*
X110005809Y-54692857D02*
X109929619Y-54769047D01*
X109929619Y-54769047D02*
X109853428Y-54807142D01*
X109853428Y-54807142D02*
X109701047Y-54845238D01*
X109701047Y-54845238D02*
X109586761Y-54845238D01*
X109586761Y-54845238D02*
X109434380Y-54807142D01*
X109434380Y-54807142D02*
X109358190Y-54769047D01*
X109358190Y-54769047D02*
X109282000Y-54692857D01*
X109282000Y-54692857D02*
X109243904Y-54578571D01*
X109243904Y-54578571D02*
X109243904Y-54502380D01*
X109243904Y-54502380D02*
X109282000Y-54388095D01*
X109282000Y-54388095D02*
X109320095Y-54349999D01*
X109815333Y-54045238D02*
X109815333Y-53664285D01*
X110043904Y-54121428D02*
X109243904Y-53854761D01*
X109243904Y-53854761D02*
X110043904Y-53588095D01*
X110043904Y-53321428D02*
X109243904Y-53321428D01*
X109243904Y-53321428D02*
X110043904Y-52864285D01*
X110043904Y-52864285D02*
X109243904Y-52864285D01*
X110120095Y-52673810D02*
X110120095Y-52064286D01*
X110043904Y-51416666D02*
X109662952Y-51683333D01*
X110043904Y-51873809D02*
X109243904Y-51873809D01*
X109243904Y-51873809D02*
X109243904Y-51569047D01*
X109243904Y-51569047D02*
X109282000Y-51492857D01*
X109282000Y-51492857D02*
X109320095Y-51454762D01*
X109320095Y-51454762D02*
X109396285Y-51416666D01*
X109396285Y-51416666D02*
X109510571Y-51416666D01*
X109510571Y-51416666D02*
X109586761Y-51454762D01*
X109586761Y-51454762D02*
X109624857Y-51492857D01*
X109624857Y-51492857D02*
X109662952Y-51569047D01*
X109662952Y-51569047D02*
X109662952Y-51873809D01*
X109243904Y-51150000D02*
X110043904Y-50616666D01*
X109243904Y-50616666D02*
X110043904Y-51150000D01*
%TO.C,R36*%
X116777142Y-26287380D02*
X116443809Y-25811190D01*
X116205714Y-26287380D02*
X116205714Y-25287380D01*
X116205714Y-25287380D02*
X116586666Y-25287380D01*
X116586666Y-25287380D02*
X116681904Y-25335000D01*
X116681904Y-25335000D02*
X116729523Y-25382619D01*
X116729523Y-25382619D02*
X116777142Y-25477857D01*
X116777142Y-25477857D02*
X116777142Y-25620714D01*
X116777142Y-25620714D02*
X116729523Y-25715952D01*
X116729523Y-25715952D02*
X116681904Y-25763571D01*
X116681904Y-25763571D02*
X116586666Y-25811190D01*
X116586666Y-25811190D02*
X116205714Y-25811190D01*
X117110476Y-25287380D02*
X117729523Y-25287380D01*
X117729523Y-25287380D02*
X117396190Y-25668333D01*
X117396190Y-25668333D02*
X117539047Y-25668333D01*
X117539047Y-25668333D02*
X117634285Y-25715952D01*
X117634285Y-25715952D02*
X117681904Y-25763571D01*
X117681904Y-25763571D02*
X117729523Y-25858809D01*
X117729523Y-25858809D02*
X117729523Y-26096904D01*
X117729523Y-26096904D02*
X117681904Y-26192142D01*
X117681904Y-26192142D02*
X117634285Y-26239761D01*
X117634285Y-26239761D02*
X117539047Y-26287380D01*
X117539047Y-26287380D02*
X117253333Y-26287380D01*
X117253333Y-26287380D02*
X117158095Y-26239761D01*
X117158095Y-26239761D02*
X117110476Y-26192142D01*
X118586666Y-25287380D02*
X118396190Y-25287380D01*
X118396190Y-25287380D02*
X118300952Y-25335000D01*
X118300952Y-25335000D02*
X118253333Y-25382619D01*
X118253333Y-25382619D02*
X118158095Y-25525476D01*
X118158095Y-25525476D02*
X118110476Y-25715952D01*
X118110476Y-25715952D02*
X118110476Y-26096904D01*
X118110476Y-26096904D02*
X118158095Y-26192142D01*
X118158095Y-26192142D02*
X118205714Y-26239761D01*
X118205714Y-26239761D02*
X118300952Y-26287380D01*
X118300952Y-26287380D02*
X118491428Y-26287380D01*
X118491428Y-26287380D02*
X118586666Y-26239761D01*
X118586666Y-26239761D02*
X118634285Y-26192142D01*
X118634285Y-26192142D02*
X118681904Y-26096904D01*
X118681904Y-26096904D02*
X118681904Y-25858809D01*
X118681904Y-25858809D02*
X118634285Y-25763571D01*
X118634285Y-25763571D02*
X118586666Y-25715952D01*
X118586666Y-25715952D02*
X118491428Y-25668333D01*
X118491428Y-25668333D02*
X118300952Y-25668333D01*
X118300952Y-25668333D02*
X118205714Y-25715952D01*
X118205714Y-25715952D02*
X118158095Y-25763571D01*
X118158095Y-25763571D02*
X118110476Y-25858809D01*
%TO.C,U3*%
X111080476Y-40903904D02*
X111080476Y-41551523D01*
X111080476Y-41551523D02*
X111118571Y-41627714D01*
X111118571Y-41627714D02*
X111156666Y-41665809D01*
X111156666Y-41665809D02*
X111232857Y-41703904D01*
X111232857Y-41703904D02*
X111385238Y-41703904D01*
X111385238Y-41703904D02*
X111461428Y-41665809D01*
X111461428Y-41665809D02*
X111499523Y-41627714D01*
X111499523Y-41627714D02*
X111537619Y-41551523D01*
X111537619Y-41551523D02*
X111537619Y-40903904D01*
X111842380Y-40903904D02*
X112337618Y-40903904D01*
X112337618Y-40903904D02*
X112070952Y-41208666D01*
X112070952Y-41208666D02*
X112185237Y-41208666D01*
X112185237Y-41208666D02*
X112261428Y-41246761D01*
X112261428Y-41246761D02*
X112299523Y-41284857D01*
X112299523Y-41284857D02*
X112337618Y-41361047D01*
X112337618Y-41361047D02*
X112337618Y-41551523D01*
X112337618Y-41551523D02*
X112299523Y-41627714D01*
X112299523Y-41627714D02*
X112261428Y-41665809D01*
X112261428Y-41665809D02*
X112185237Y-41703904D01*
X112185237Y-41703904D02*
X111956666Y-41703904D01*
X111956666Y-41703904D02*
X111880475Y-41665809D01*
X111880475Y-41665809D02*
X111842380Y-41627714D01*
%TO.C,TP19*%
X125321428Y-41055809D02*
X125435714Y-41093904D01*
X125435714Y-41093904D02*
X125626190Y-41093904D01*
X125626190Y-41093904D02*
X125702381Y-41055809D01*
X125702381Y-41055809D02*
X125740476Y-41017714D01*
X125740476Y-41017714D02*
X125778571Y-40941523D01*
X125778571Y-40941523D02*
X125778571Y-40865333D01*
X125778571Y-40865333D02*
X125740476Y-40789142D01*
X125740476Y-40789142D02*
X125702381Y-40751047D01*
X125702381Y-40751047D02*
X125626190Y-40712952D01*
X125626190Y-40712952D02*
X125473809Y-40674857D01*
X125473809Y-40674857D02*
X125397619Y-40636761D01*
X125397619Y-40636761D02*
X125359524Y-40598666D01*
X125359524Y-40598666D02*
X125321428Y-40522476D01*
X125321428Y-40522476D02*
X125321428Y-40446285D01*
X125321428Y-40446285D02*
X125359524Y-40370095D01*
X125359524Y-40370095D02*
X125397619Y-40332000D01*
X125397619Y-40332000D02*
X125473809Y-40293904D01*
X125473809Y-40293904D02*
X125664286Y-40293904D01*
X125664286Y-40293904D02*
X125778571Y-40332000D01*
X126388095Y-40674857D02*
X126502381Y-40712952D01*
X126502381Y-40712952D02*
X126540476Y-40751047D01*
X126540476Y-40751047D02*
X126578572Y-40827238D01*
X126578572Y-40827238D02*
X126578572Y-40941523D01*
X126578572Y-40941523D02*
X126540476Y-41017714D01*
X126540476Y-41017714D02*
X126502381Y-41055809D01*
X126502381Y-41055809D02*
X126426191Y-41093904D01*
X126426191Y-41093904D02*
X126121429Y-41093904D01*
X126121429Y-41093904D02*
X126121429Y-40293904D01*
X126121429Y-40293904D02*
X126388095Y-40293904D01*
X126388095Y-40293904D02*
X126464286Y-40332000D01*
X126464286Y-40332000D02*
X126502381Y-40370095D01*
X126502381Y-40370095D02*
X126540476Y-40446285D01*
X126540476Y-40446285D02*
X126540476Y-40522476D01*
X126540476Y-40522476D02*
X126502381Y-40598666D01*
X126502381Y-40598666D02*
X126464286Y-40636761D01*
X126464286Y-40636761D02*
X126388095Y-40674857D01*
X126388095Y-40674857D02*
X126121429Y-40674857D01*
X126921429Y-40293904D02*
X126921429Y-40941523D01*
X126921429Y-40941523D02*
X126959524Y-41017714D01*
X126959524Y-41017714D02*
X126997619Y-41055809D01*
X126997619Y-41055809D02*
X127073810Y-41093904D01*
X127073810Y-41093904D02*
X127226191Y-41093904D01*
X127226191Y-41093904D02*
X127302381Y-41055809D01*
X127302381Y-41055809D02*
X127340476Y-41017714D01*
X127340476Y-41017714D02*
X127378572Y-40941523D01*
X127378572Y-40941523D02*
X127378572Y-40293904D01*
X128178571Y-41093904D02*
X127721428Y-41093904D01*
X127950000Y-41093904D02*
X127950000Y-40293904D01*
X127950000Y-40293904D02*
X127873809Y-40408190D01*
X127873809Y-40408190D02*
X127797619Y-40484380D01*
X127797619Y-40484380D02*
X127721428Y-40522476D01*
%TO.C,TP5*%
X109093904Y-75976189D02*
X108712952Y-76242856D01*
X109093904Y-76433332D02*
X108293904Y-76433332D01*
X108293904Y-76433332D02*
X108293904Y-76128570D01*
X108293904Y-76128570D02*
X108332000Y-76052380D01*
X108332000Y-76052380D02*
X108370095Y-76014285D01*
X108370095Y-76014285D02*
X108446285Y-75976189D01*
X108446285Y-75976189D02*
X108560571Y-75976189D01*
X108560571Y-75976189D02*
X108636761Y-76014285D01*
X108636761Y-76014285D02*
X108674857Y-76052380D01*
X108674857Y-76052380D02*
X108712952Y-76128570D01*
X108712952Y-76128570D02*
X108712952Y-76433332D01*
X108865333Y-75671428D02*
X108865333Y-75290475D01*
X109093904Y-75747618D02*
X108293904Y-75480951D01*
X108293904Y-75480951D02*
X109093904Y-75214285D01*
X108560571Y-74604761D02*
X109093904Y-74604761D01*
X108255809Y-74795237D02*
X108827238Y-74985714D01*
X108827238Y-74985714D02*
X108827238Y-74490475D01*
%TO.C,R22*%
X116075714Y-75153904D02*
X115809047Y-74772952D01*
X115618571Y-75153904D02*
X115618571Y-74353904D01*
X115618571Y-74353904D02*
X115923333Y-74353904D01*
X115923333Y-74353904D02*
X115999523Y-74392000D01*
X115999523Y-74392000D02*
X116037618Y-74430095D01*
X116037618Y-74430095D02*
X116075714Y-74506285D01*
X116075714Y-74506285D02*
X116075714Y-74620571D01*
X116075714Y-74620571D02*
X116037618Y-74696761D01*
X116037618Y-74696761D02*
X115999523Y-74734857D01*
X115999523Y-74734857D02*
X115923333Y-74772952D01*
X115923333Y-74772952D02*
X115618571Y-74772952D01*
X116380475Y-74430095D02*
X116418571Y-74392000D01*
X116418571Y-74392000D02*
X116494761Y-74353904D01*
X116494761Y-74353904D02*
X116685237Y-74353904D01*
X116685237Y-74353904D02*
X116761428Y-74392000D01*
X116761428Y-74392000D02*
X116799523Y-74430095D01*
X116799523Y-74430095D02*
X116837618Y-74506285D01*
X116837618Y-74506285D02*
X116837618Y-74582476D01*
X116837618Y-74582476D02*
X116799523Y-74696761D01*
X116799523Y-74696761D02*
X116342380Y-75153904D01*
X116342380Y-75153904D02*
X116837618Y-75153904D01*
X117142380Y-74430095D02*
X117180476Y-74392000D01*
X117180476Y-74392000D02*
X117256666Y-74353904D01*
X117256666Y-74353904D02*
X117447142Y-74353904D01*
X117447142Y-74353904D02*
X117523333Y-74392000D01*
X117523333Y-74392000D02*
X117561428Y-74430095D01*
X117561428Y-74430095D02*
X117599523Y-74506285D01*
X117599523Y-74506285D02*
X117599523Y-74582476D01*
X117599523Y-74582476D02*
X117561428Y-74696761D01*
X117561428Y-74696761D02*
X117104285Y-75153904D01*
X117104285Y-75153904D02*
X117599523Y-75153904D01*
%TO.C,TP2*%
X107863810Y-71913904D02*
X107597143Y-71532952D01*
X107406667Y-71913904D02*
X107406667Y-71113904D01*
X107406667Y-71113904D02*
X107711429Y-71113904D01*
X107711429Y-71113904D02*
X107787619Y-71152000D01*
X107787619Y-71152000D02*
X107825714Y-71190095D01*
X107825714Y-71190095D02*
X107863810Y-71266285D01*
X107863810Y-71266285D02*
X107863810Y-71380571D01*
X107863810Y-71380571D02*
X107825714Y-71456761D01*
X107825714Y-71456761D02*
X107787619Y-71494857D01*
X107787619Y-71494857D02*
X107711429Y-71532952D01*
X107711429Y-71532952D02*
X107406667Y-71532952D01*
X108168571Y-71685333D02*
X108549524Y-71685333D01*
X108092381Y-71913904D02*
X108359048Y-71113904D01*
X108359048Y-71113904D02*
X108625714Y-71913904D01*
X109311428Y-71913904D02*
X108854285Y-71913904D01*
X109082857Y-71913904D02*
X109082857Y-71113904D01*
X109082857Y-71113904D02*
X109006666Y-71228190D01*
X109006666Y-71228190D02*
X108930476Y-71304380D01*
X108930476Y-71304380D02*
X108854285Y-71342476D01*
%TO.C,R1*%
X105416667Y-53323904D02*
X105150000Y-52942952D01*
X104959524Y-53323904D02*
X104959524Y-52523904D01*
X104959524Y-52523904D02*
X105264286Y-52523904D01*
X105264286Y-52523904D02*
X105340476Y-52562000D01*
X105340476Y-52562000D02*
X105378571Y-52600095D01*
X105378571Y-52600095D02*
X105416667Y-52676285D01*
X105416667Y-52676285D02*
X105416667Y-52790571D01*
X105416667Y-52790571D02*
X105378571Y-52866761D01*
X105378571Y-52866761D02*
X105340476Y-52904857D01*
X105340476Y-52904857D02*
X105264286Y-52942952D01*
X105264286Y-52942952D02*
X104959524Y-52942952D01*
X106178571Y-53323904D02*
X105721428Y-53323904D01*
X105950000Y-53323904D02*
X105950000Y-52523904D01*
X105950000Y-52523904D02*
X105873809Y-52638190D01*
X105873809Y-52638190D02*
X105797619Y-52714380D01*
X105797619Y-52714380D02*
X105721428Y-52752476D01*
%TO.C,D2*%
X112219524Y-33373904D02*
X112219524Y-32573904D01*
X112219524Y-32573904D02*
X112410000Y-32573904D01*
X112410000Y-32573904D02*
X112524286Y-32612000D01*
X112524286Y-32612000D02*
X112600476Y-32688190D01*
X112600476Y-32688190D02*
X112638571Y-32764380D01*
X112638571Y-32764380D02*
X112676667Y-32916761D01*
X112676667Y-32916761D02*
X112676667Y-33031047D01*
X112676667Y-33031047D02*
X112638571Y-33183428D01*
X112638571Y-33183428D02*
X112600476Y-33259619D01*
X112600476Y-33259619D02*
X112524286Y-33335809D01*
X112524286Y-33335809D02*
X112410000Y-33373904D01*
X112410000Y-33373904D02*
X112219524Y-33373904D01*
X112981428Y-32650095D02*
X113019524Y-32612000D01*
X113019524Y-32612000D02*
X113095714Y-32573904D01*
X113095714Y-32573904D02*
X113286190Y-32573904D01*
X113286190Y-32573904D02*
X113362381Y-32612000D01*
X113362381Y-32612000D02*
X113400476Y-32650095D01*
X113400476Y-32650095D02*
X113438571Y-32726285D01*
X113438571Y-32726285D02*
X113438571Y-32802476D01*
X113438571Y-32802476D02*
X113400476Y-32916761D01*
X113400476Y-32916761D02*
X112943333Y-33373904D01*
X112943333Y-33373904D02*
X113438571Y-33373904D01*
%TO.C,TP38*%
X118580476Y-51893904D02*
X119037619Y-51893904D01*
X118809047Y-52693904D02*
X118809047Y-51893904D01*
X119228095Y-51893904D02*
X119761429Y-52693904D01*
X119761429Y-51893904D02*
X119228095Y-52693904D01*
%TO.C,R17*%
X120563904Y-44304285D02*
X120182952Y-44570952D01*
X120563904Y-44761428D02*
X119763904Y-44761428D01*
X119763904Y-44761428D02*
X119763904Y-44456666D01*
X119763904Y-44456666D02*
X119802000Y-44380476D01*
X119802000Y-44380476D02*
X119840095Y-44342381D01*
X119840095Y-44342381D02*
X119916285Y-44304285D01*
X119916285Y-44304285D02*
X120030571Y-44304285D01*
X120030571Y-44304285D02*
X120106761Y-44342381D01*
X120106761Y-44342381D02*
X120144857Y-44380476D01*
X120144857Y-44380476D02*
X120182952Y-44456666D01*
X120182952Y-44456666D02*
X120182952Y-44761428D01*
X120563904Y-43542381D02*
X120563904Y-43999524D01*
X120563904Y-43770952D02*
X119763904Y-43770952D01*
X119763904Y-43770952D02*
X119878190Y-43847143D01*
X119878190Y-43847143D02*
X119954380Y-43923333D01*
X119954380Y-43923333D02*
X119992476Y-43999524D01*
X119763904Y-43275714D02*
X119763904Y-42742380D01*
X119763904Y-42742380D02*
X120563904Y-43085238D01*
%TO.C,TP27*%
X115157619Y-70539761D02*
X115062381Y-70587380D01*
X115062381Y-70587380D02*
X114871905Y-70587380D01*
X114871905Y-70587380D02*
X114776667Y-70539761D01*
X114776667Y-70539761D02*
X114729048Y-70492142D01*
X114729048Y-70492142D02*
X114681429Y-70396904D01*
X114681429Y-70396904D02*
X114681429Y-70111190D01*
X114681429Y-70111190D02*
X114729048Y-70015952D01*
X114729048Y-70015952D02*
X114776667Y-69968333D01*
X114776667Y-69968333D02*
X114871905Y-69920714D01*
X114871905Y-69920714D02*
X115062381Y-69920714D01*
X115062381Y-69920714D02*
X115157619Y-69968333D01*
X115586191Y-70587380D02*
X115586191Y-69920714D01*
X115586191Y-69587380D02*
X115538572Y-69635000D01*
X115538572Y-69635000D02*
X115586191Y-69682619D01*
X115586191Y-69682619D02*
X115633810Y-69635000D01*
X115633810Y-69635000D02*
X115586191Y-69587380D01*
X115586191Y-69587380D02*
X115586191Y-69682619D01*
X116062381Y-69920714D02*
X116062381Y-70587380D01*
X116062381Y-70015952D02*
X116110000Y-69968333D01*
X116110000Y-69968333D02*
X116205238Y-69920714D01*
X116205238Y-69920714D02*
X116348095Y-69920714D01*
X116348095Y-69920714D02*
X116443333Y-69968333D01*
X116443333Y-69968333D02*
X116490952Y-70063571D01*
X116490952Y-70063571D02*
X116490952Y-70587380D01*
%TO.C,J6*%
X98696666Y-43897380D02*
X98696666Y-44611666D01*
X98696666Y-44611666D02*
X98649047Y-44754523D01*
X98649047Y-44754523D02*
X98553809Y-44849761D01*
X98553809Y-44849761D02*
X98410952Y-44897380D01*
X98410952Y-44897380D02*
X98315714Y-44897380D01*
X99601428Y-43897380D02*
X99410952Y-43897380D01*
X99410952Y-43897380D02*
X99315714Y-43945000D01*
X99315714Y-43945000D02*
X99268095Y-43992619D01*
X99268095Y-43992619D02*
X99172857Y-44135476D01*
X99172857Y-44135476D02*
X99125238Y-44325952D01*
X99125238Y-44325952D02*
X99125238Y-44706904D01*
X99125238Y-44706904D02*
X99172857Y-44802142D01*
X99172857Y-44802142D02*
X99220476Y-44849761D01*
X99220476Y-44849761D02*
X99315714Y-44897380D01*
X99315714Y-44897380D02*
X99506190Y-44897380D01*
X99506190Y-44897380D02*
X99601428Y-44849761D01*
X99601428Y-44849761D02*
X99649047Y-44802142D01*
X99649047Y-44802142D02*
X99696666Y-44706904D01*
X99696666Y-44706904D02*
X99696666Y-44468809D01*
X99696666Y-44468809D02*
X99649047Y-44373571D01*
X99649047Y-44373571D02*
X99601428Y-44325952D01*
X99601428Y-44325952D02*
X99506190Y-44278333D01*
X99506190Y-44278333D02*
X99315714Y-44278333D01*
X99315714Y-44278333D02*
X99220476Y-44325952D01*
X99220476Y-44325952D02*
X99172857Y-44373571D01*
X99172857Y-44373571D02*
X99125238Y-44468809D01*
%TO.C,R11*%
X102865714Y-70563904D02*
X102599047Y-70182952D01*
X102408571Y-70563904D02*
X102408571Y-69763904D01*
X102408571Y-69763904D02*
X102713333Y-69763904D01*
X102713333Y-69763904D02*
X102789523Y-69802000D01*
X102789523Y-69802000D02*
X102827618Y-69840095D01*
X102827618Y-69840095D02*
X102865714Y-69916285D01*
X102865714Y-69916285D02*
X102865714Y-70030571D01*
X102865714Y-70030571D02*
X102827618Y-70106761D01*
X102827618Y-70106761D02*
X102789523Y-70144857D01*
X102789523Y-70144857D02*
X102713333Y-70182952D01*
X102713333Y-70182952D02*
X102408571Y-70182952D01*
X103627618Y-70563904D02*
X103170475Y-70563904D01*
X103399047Y-70563904D02*
X103399047Y-69763904D01*
X103399047Y-69763904D02*
X103322856Y-69878190D01*
X103322856Y-69878190D02*
X103246666Y-69954380D01*
X103246666Y-69954380D02*
X103170475Y-69992476D01*
X104389523Y-70563904D02*
X103932380Y-70563904D01*
X104160952Y-70563904D02*
X104160952Y-69763904D01*
X104160952Y-69763904D02*
X104084761Y-69878190D01*
X104084761Y-69878190D02*
X104008571Y-69954380D01*
X104008571Y-69954380D02*
X103932380Y-69992476D01*
%TO.C,TP22*%
X102002714Y-52091189D02*
X102040809Y-52129285D01*
X102040809Y-52129285D02*
X102078904Y-52243570D01*
X102078904Y-52243570D02*
X102078904Y-52319761D01*
X102078904Y-52319761D02*
X102040809Y-52434047D01*
X102040809Y-52434047D02*
X101964619Y-52510237D01*
X101964619Y-52510237D02*
X101888428Y-52548332D01*
X101888428Y-52548332D02*
X101736047Y-52586428D01*
X101736047Y-52586428D02*
X101621761Y-52586428D01*
X101621761Y-52586428D02*
X101469380Y-52548332D01*
X101469380Y-52548332D02*
X101393190Y-52510237D01*
X101393190Y-52510237D02*
X101317000Y-52434047D01*
X101317000Y-52434047D02*
X101278904Y-52319761D01*
X101278904Y-52319761D02*
X101278904Y-52243570D01*
X101278904Y-52243570D02*
X101317000Y-52129285D01*
X101317000Y-52129285D02*
X101355095Y-52091189D01*
X102078904Y-51367380D02*
X102078904Y-51748332D01*
X102078904Y-51748332D02*
X101278904Y-51748332D01*
%TO.C,R40*%
X107485714Y-39503904D02*
X107219047Y-39122952D01*
X107028571Y-39503904D02*
X107028571Y-38703904D01*
X107028571Y-38703904D02*
X107333333Y-38703904D01*
X107333333Y-38703904D02*
X107409523Y-38742000D01*
X107409523Y-38742000D02*
X107447618Y-38780095D01*
X107447618Y-38780095D02*
X107485714Y-38856285D01*
X107485714Y-38856285D02*
X107485714Y-38970571D01*
X107485714Y-38970571D02*
X107447618Y-39046761D01*
X107447618Y-39046761D02*
X107409523Y-39084857D01*
X107409523Y-39084857D02*
X107333333Y-39122952D01*
X107333333Y-39122952D02*
X107028571Y-39122952D01*
X108171428Y-38970571D02*
X108171428Y-39503904D01*
X107980952Y-38665809D02*
X107790475Y-39237238D01*
X107790475Y-39237238D02*
X108285714Y-39237238D01*
X108742857Y-38703904D02*
X108819047Y-38703904D01*
X108819047Y-38703904D02*
X108895238Y-38742000D01*
X108895238Y-38742000D02*
X108933333Y-38780095D01*
X108933333Y-38780095D02*
X108971428Y-38856285D01*
X108971428Y-38856285D02*
X109009523Y-39008666D01*
X109009523Y-39008666D02*
X109009523Y-39199142D01*
X109009523Y-39199142D02*
X108971428Y-39351523D01*
X108971428Y-39351523D02*
X108933333Y-39427714D01*
X108933333Y-39427714D02*
X108895238Y-39465809D01*
X108895238Y-39465809D02*
X108819047Y-39503904D01*
X108819047Y-39503904D02*
X108742857Y-39503904D01*
X108742857Y-39503904D02*
X108666666Y-39465809D01*
X108666666Y-39465809D02*
X108628571Y-39427714D01*
X108628571Y-39427714D02*
X108590476Y-39351523D01*
X108590476Y-39351523D02*
X108552380Y-39199142D01*
X108552380Y-39199142D02*
X108552380Y-39008666D01*
X108552380Y-39008666D02*
X108590476Y-38856285D01*
X108590476Y-38856285D02*
X108628571Y-38780095D01*
X108628571Y-38780095D02*
X108666666Y-38742000D01*
X108666666Y-38742000D02*
X108742857Y-38703904D01*
%TO.C,R39*%
X107485714Y-40673904D02*
X107219047Y-40292952D01*
X107028571Y-40673904D02*
X107028571Y-39873904D01*
X107028571Y-39873904D02*
X107333333Y-39873904D01*
X107333333Y-39873904D02*
X107409523Y-39912000D01*
X107409523Y-39912000D02*
X107447618Y-39950095D01*
X107447618Y-39950095D02*
X107485714Y-40026285D01*
X107485714Y-40026285D02*
X107485714Y-40140571D01*
X107485714Y-40140571D02*
X107447618Y-40216761D01*
X107447618Y-40216761D02*
X107409523Y-40254857D01*
X107409523Y-40254857D02*
X107333333Y-40292952D01*
X107333333Y-40292952D02*
X107028571Y-40292952D01*
X107752380Y-39873904D02*
X108247618Y-39873904D01*
X108247618Y-39873904D02*
X107980952Y-40178666D01*
X107980952Y-40178666D02*
X108095237Y-40178666D01*
X108095237Y-40178666D02*
X108171428Y-40216761D01*
X108171428Y-40216761D02*
X108209523Y-40254857D01*
X108209523Y-40254857D02*
X108247618Y-40331047D01*
X108247618Y-40331047D02*
X108247618Y-40521523D01*
X108247618Y-40521523D02*
X108209523Y-40597714D01*
X108209523Y-40597714D02*
X108171428Y-40635809D01*
X108171428Y-40635809D02*
X108095237Y-40673904D01*
X108095237Y-40673904D02*
X107866666Y-40673904D01*
X107866666Y-40673904D02*
X107790475Y-40635809D01*
X107790475Y-40635809D02*
X107752380Y-40597714D01*
X108628571Y-40673904D02*
X108780952Y-40673904D01*
X108780952Y-40673904D02*
X108857142Y-40635809D01*
X108857142Y-40635809D02*
X108895238Y-40597714D01*
X108895238Y-40597714D02*
X108971428Y-40483428D01*
X108971428Y-40483428D02*
X109009523Y-40331047D01*
X109009523Y-40331047D02*
X109009523Y-40026285D01*
X109009523Y-40026285D02*
X108971428Y-39950095D01*
X108971428Y-39950095D02*
X108933333Y-39912000D01*
X108933333Y-39912000D02*
X108857142Y-39873904D01*
X108857142Y-39873904D02*
X108704761Y-39873904D01*
X108704761Y-39873904D02*
X108628571Y-39912000D01*
X108628571Y-39912000D02*
X108590476Y-39950095D01*
X108590476Y-39950095D02*
X108552380Y-40026285D01*
X108552380Y-40026285D02*
X108552380Y-40216761D01*
X108552380Y-40216761D02*
X108590476Y-40292952D01*
X108590476Y-40292952D02*
X108628571Y-40331047D01*
X108628571Y-40331047D02*
X108704761Y-40369142D01*
X108704761Y-40369142D02*
X108857142Y-40369142D01*
X108857142Y-40369142D02*
X108933333Y-40331047D01*
X108933333Y-40331047D02*
X108971428Y-40292952D01*
X108971428Y-40292952D02*
X109009523Y-40216761D01*
%TO.C,TP33*%
X123532000Y-56039523D02*
X123493904Y-56115713D01*
X123493904Y-56115713D02*
X123493904Y-56229999D01*
X123493904Y-56229999D02*
X123532000Y-56344285D01*
X123532000Y-56344285D02*
X123608190Y-56420475D01*
X123608190Y-56420475D02*
X123684380Y-56458570D01*
X123684380Y-56458570D02*
X123836761Y-56496666D01*
X123836761Y-56496666D02*
X123951047Y-56496666D01*
X123951047Y-56496666D02*
X124103428Y-56458570D01*
X124103428Y-56458570D02*
X124179619Y-56420475D01*
X124179619Y-56420475D02*
X124255809Y-56344285D01*
X124255809Y-56344285D02*
X124293904Y-56229999D01*
X124293904Y-56229999D02*
X124293904Y-56153808D01*
X124293904Y-56153808D02*
X124255809Y-56039523D01*
X124255809Y-56039523D02*
X124217714Y-56001427D01*
X124217714Y-56001427D02*
X123951047Y-56001427D01*
X123951047Y-56001427D02*
X123951047Y-56153808D01*
X124293904Y-55658570D02*
X123493904Y-55658570D01*
X123493904Y-55658570D02*
X124293904Y-55201427D01*
X124293904Y-55201427D02*
X123493904Y-55201427D01*
X124293904Y-54820475D02*
X123493904Y-54820475D01*
X123493904Y-54820475D02*
X123493904Y-54629999D01*
X123493904Y-54629999D02*
X123532000Y-54515713D01*
X123532000Y-54515713D02*
X123608190Y-54439523D01*
X123608190Y-54439523D02*
X123684380Y-54401428D01*
X123684380Y-54401428D02*
X123836761Y-54363332D01*
X123836761Y-54363332D02*
X123951047Y-54363332D01*
X123951047Y-54363332D02*
X124103428Y-54401428D01*
X124103428Y-54401428D02*
X124179619Y-54439523D01*
X124179619Y-54439523D02*
X124255809Y-54515713D01*
X124255809Y-54515713D02*
X124293904Y-54629999D01*
X124293904Y-54629999D02*
X124293904Y-54820475D01*
%TO.C,TP4*%
X106783904Y-76336189D02*
X106402952Y-76602856D01*
X106783904Y-76793332D02*
X105983904Y-76793332D01*
X105983904Y-76793332D02*
X105983904Y-76488570D01*
X105983904Y-76488570D02*
X106022000Y-76412380D01*
X106022000Y-76412380D02*
X106060095Y-76374285D01*
X106060095Y-76374285D02*
X106136285Y-76336189D01*
X106136285Y-76336189D02*
X106250571Y-76336189D01*
X106250571Y-76336189D02*
X106326761Y-76374285D01*
X106326761Y-76374285D02*
X106364857Y-76412380D01*
X106364857Y-76412380D02*
X106402952Y-76488570D01*
X106402952Y-76488570D02*
X106402952Y-76793332D01*
X106555333Y-76031428D02*
X106555333Y-75650475D01*
X106783904Y-76107618D02*
X105983904Y-75840951D01*
X105983904Y-75840951D02*
X106783904Y-75574285D01*
X105983904Y-75383809D02*
X105983904Y-74888571D01*
X105983904Y-74888571D02*
X106288666Y-75155237D01*
X106288666Y-75155237D02*
X106288666Y-75040952D01*
X106288666Y-75040952D02*
X106326761Y-74964761D01*
X106326761Y-74964761D02*
X106364857Y-74926666D01*
X106364857Y-74926666D02*
X106441047Y-74888571D01*
X106441047Y-74888571D02*
X106631523Y-74888571D01*
X106631523Y-74888571D02*
X106707714Y-74926666D01*
X106707714Y-74926666D02*
X106745809Y-74964761D01*
X106745809Y-74964761D02*
X106783904Y-75040952D01*
X106783904Y-75040952D02*
X106783904Y-75269523D01*
X106783904Y-75269523D02*
X106745809Y-75345714D01*
X106745809Y-75345714D02*
X106707714Y-75383809D01*
%TO.C,TP9*%
X121606667Y-73793904D02*
X121340000Y-73412952D01*
X121149524Y-73793904D02*
X121149524Y-72993904D01*
X121149524Y-72993904D02*
X121454286Y-72993904D01*
X121454286Y-72993904D02*
X121530476Y-73032000D01*
X121530476Y-73032000D02*
X121568571Y-73070095D01*
X121568571Y-73070095D02*
X121606667Y-73146285D01*
X121606667Y-73146285D02*
X121606667Y-73260571D01*
X121606667Y-73260571D02*
X121568571Y-73336761D01*
X121568571Y-73336761D02*
X121530476Y-73374857D01*
X121530476Y-73374857D02*
X121454286Y-73412952D01*
X121454286Y-73412952D02*
X121149524Y-73412952D01*
X122406667Y-73717714D02*
X122368571Y-73755809D01*
X122368571Y-73755809D02*
X122254286Y-73793904D01*
X122254286Y-73793904D02*
X122178095Y-73793904D01*
X122178095Y-73793904D02*
X122063809Y-73755809D01*
X122063809Y-73755809D02*
X121987619Y-73679619D01*
X121987619Y-73679619D02*
X121949524Y-73603428D01*
X121949524Y-73603428D02*
X121911428Y-73451047D01*
X121911428Y-73451047D02*
X121911428Y-73336761D01*
X121911428Y-73336761D02*
X121949524Y-73184380D01*
X121949524Y-73184380D02*
X121987619Y-73108190D01*
X121987619Y-73108190D02*
X122063809Y-73032000D01*
X122063809Y-73032000D02*
X122178095Y-72993904D01*
X122178095Y-72993904D02*
X122254286Y-72993904D01*
X122254286Y-72993904D02*
X122368571Y-73032000D01*
X122368571Y-73032000D02*
X122406667Y-73070095D01*
X122711428Y-73070095D02*
X122749524Y-73032000D01*
X122749524Y-73032000D02*
X122825714Y-72993904D01*
X122825714Y-72993904D02*
X123016190Y-72993904D01*
X123016190Y-72993904D02*
X123092381Y-73032000D01*
X123092381Y-73032000D02*
X123130476Y-73070095D01*
X123130476Y-73070095D02*
X123168571Y-73146285D01*
X123168571Y-73146285D02*
X123168571Y-73222476D01*
X123168571Y-73222476D02*
X123130476Y-73336761D01*
X123130476Y-73336761D02*
X122673333Y-73793904D01*
X122673333Y-73793904D02*
X123168571Y-73793904D01*
%TO.C,C2*%
X102401667Y-75522714D02*
X102363571Y-75560809D01*
X102363571Y-75560809D02*
X102249286Y-75598904D01*
X102249286Y-75598904D02*
X102173095Y-75598904D01*
X102173095Y-75598904D02*
X102058809Y-75560809D01*
X102058809Y-75560809D02*
X101982619Y-75484619D01*
X101982619Y-75484619D02*
X101944524Y-75408428D01*
X101944524Y-75408428D02*
X101906428Y-75256047D01*
X101906428Y-75256047D02*
X101906428Y-75141761D01*
X101906428Y-75141761D02*
X101944524Y-74989380D01*
X101944524Y-74989380D02*
X101982619Y-74913190D01*
X101982619Y-74913190D02*
X102058809Y-74837000D01*
X102058809Y-74837000D02*
X102173095Y-74798904D01*
X102173095Y-74798904D02*
X102249286Y-74798904D01*
X102249286Y-74798904D02*
X102363571Y-74837000D01*
X102363571Y-74837000D02*
X102401667Y-74875095D01*
X102706428Y-74875095D02*
X102744524Y-74837000D01*
X102744524Y-74837000D02*
X102820714Y-74798904D01*
X102820714Y-74798904D02*
X103011190Y-74798904D01*
X103011190Y-74798904D02*
X103087381Y-74837000D01*
X103087381Y-74837000D02*
X103125476Y-74875095D01*
X103125476Y-74875095D02*
X103163571Y-74951285D01*
X103163571Y-74951285D02*
X103163571Y-75027476D01*
X103163571Y-75027476D02*
X103125476Y-75141761D01*
X103125476Y-75141761D02*
X102668333Y-75598904D01*
X102668333Y-75598904D02*
X103163571Y-75598904D01*
%TO.C,Y2*%
X119489048Y-77012952D02*
X119489048Y-77393904D01*
X119222381Y-76593904D02*
X119489048Y-77012952D01*
X119489048Y-77012952D02*
X119755714Y-76593904D01*
X119984285Y-76670095D02*
X120022381Y-76632000D01*
X120022381Y-76632000D02*
X120098571Y-76593904D01*
X120098571Y-76593904D02*
X120289047Y-76593904D01*
X120289047Y-76593904D02*
X120365238Y-76632000D01*
X120365238Y-76632000D02*
X120403333Y-76670095D01*
X120403333Y-76670095D02*
X120441428Y-76746285D01*
X120441428Y-76746285D02*
X120441428Y-76822476D01*
X120441428Y-76822476D02*
X120403333Y-76936761D01*
X120403333Y-76936761D02*
X119946190Y-77393904D01*
X119946190Y-77393904D02*
X120441428Y-77393904D01*
%TO.C,U4*%
X111450476Y-28113904D02*
X111450476Y-28761523D01*
X111450476Y-28761523D02*
X111488571Y-28837714D01*
X111488571Y-28837714D02*
X111526666Y-28875809D01*
X111526666Y-28875809D02*
X111602857Y-28913904D01*
X111602857Y-28913904D02*
X111755238Y-28913904D01*
X111755238Y-28913904D02*
X111831428Y-28875809D01*
X111831428Y-28875809D02*
X111869523Y-28837714D01*
X111869523Y-28837714D02*
X111907619Y-28761523D01*
X111907619Y-28761523D02*
X111907619Y-28113904D01*
X112631428Y-28380571D02*
X112631428Y-28913904D01*
X112440952Y-28075809D02*
X112250475Y-28647238D01*
X112250475Y-28647238D02*
X112745714Y-28647238D01*
%TO.C,TP29*%
X110033904Y-49014285D02*
X110033904Y-49395237D01*
X110033904Y-49395237D02*
X110414857Y-49433333D01*
X110414857Y-49433333D02*
X110376761Y-49395237D01*
X110376761Y-49395237D02*
X110338666Y-49319047D01*
X110338666Y-49319047D02*
X110338666Y-49128571D01*
X110338666Y-49128571D02*
X110376761Y-49052380D01*
X110376761Y-49052380D02*
X110414857Y-49014285D01*
X110414857Y-49014285D02*
X110491047Y-48976190D01*
X110491047Y-48976190D02*
X110681523Y-48976190D01*
X110681523Y-48976190D02*
X110757714Y-49014285D01*
X110757714Y-49014285D02*
X110795809Y-49052380D01*
X110795809Y-49052380D02*
X110833904Y-49128571D01*
X110833904Y-49128571D02*
X110833904Y-49319047D01*
X110833904Y-49319047D02*
X110795809Y-49395237D01*
X110795809Y-49395237D02*
X110757714Y-49433333D01*
X110033904Y-48747618D02*
X110833904Y-48480951D01*
X110833904Y-48480951D02*
X110033904Y-48214285D01*
X110910095Y-48138095D02*
X110910095Y-47528571D01*
X110833904Y-47338094D02*
X110033904Y-47338094D01*
X110033904Y-47338094D02*
X110605333Y-47071428D01*
X110605333Y-47071428D02*
X110033904Y-46804761D01*
X110033904Y-46804761D02*
X110833904Y-46804761D01*
X110757714Y-45966665D02*
X110795809Y-46004761D01*
X110795809Y-46004761D02*
X110833904Y-46119046D01*
X110833904Y-46119046D02*
X110833904Y-46195237D01*
X110833904Y-46195237D02*
X110795809Y-46309523D01*
X110795809Y-46309523D02*
X110719619Y-46385713D01*
X110719619Y-46385713D02*
X110643428Y-46423808D01*
X110643428Y-46423808D02*
X110491047Y-46461904D01*
X110491047Y-46461904D02*
X110376761Y-46461904D01*
X110376761Y-46461904D02*
X110224380Y-46423808D01*
X110224380Y-46423808D02*
X110148190Y-46385713D01*
X110148190Y-46385713D02*
X110072000Y-46309523D01*
X110072000Y-46309523D02*
X110033904Y-46195237D01*
X110033904Y-46195237D02*
X110033904Y-46119046D01*
X110033904Y-46119046D02*
X110072000Y-46004761D01*
X110072000Y-46004761D02*
X110110095Y-45966665D01*
X110833904Y-45623808D02*
X110033904Y-45623808D01*
X110033904Y-45623808D02*
X110033904Y-45319046D01*
X110033904Y-45319046D02*
X110072000Y-45242856D01*
X110072000Y-45242856D02*
X110110095Y-45204761D01*
X110110095Y-45204761D02*
X110186285Y-45166665D01*
X110186285Y-45166665D02*
X110300571Y-45166665D01*
X110300571Y-45166665D02*
X110376761Y-45204761D01*
X110376761Y-45204761D02*
X110414857Y-45242856D01*
X110414857Y-45242856D02*
X110452952Y-45319046D01*
X110452952Y-45319046D02*
X110452952Y-45623808D01*
%TO.C,TP6*%
X110483904Y-73456189D02*
X110102952Y-73722856D01*
X110483904Y-73913332D02*
X109683904Y-73913332D01*
X109683904Y-73913332D02*
X109683904Y-73608570D01*
X109683904Y-73608570D02*
X109722000Y-73532380D01*
X109722000Y-73532380D02*
X109760095Y-73494285D01*
X109760095Y-73494285D02*
X109836285Y-73456189D01*
X109836285Y-73456189D02*
X109950571Y-73456189D01*
X109950571Y-73456189D02*
X110026761Y-73494285D01*
X110026761Y-73494285D02*
X110064857Y-73532380D01*
X110064857Y-73532380D02*
X110102952Y-73608570D01*
X110102952Y-73608570D02*
X110102952Y-73913332D01*
X110255333Y-73151428D02*
X110255333Y-72770475D01*
X110483904Y-73227618D02*
X109683904Y-72960951D01*
X109683904Y-72960951D02*
X110483904Y-72694285D01*
X109683904Y-72046666D02*
X109683904Y-72427618D01*
X109683904Y-72427618D02*
X110064857Y-72465714D01*
X110064857Y-72465714D02*
X110026761Y-72427618D01*
X110026761Y-72427618D02*
X109988666Y-72351428D01*
X109988666Y-72351428D02*
X109988666Y-72160952D01*
X109988666Y-72160952D02*
X110026761Y-72084761D01*
X110026761Y-72084761D02*
X110064857Y-72046666D01*
X110064857Y-72046666D02*
X110141047Y-72008571D01*
X110141047Y-72008571D02*
X110331523Y-72008571D01*
X110331523Y-72008571D02*
X110407714Y-72046666D01*
X110407714Y-72046666D02*
X110445809Y-72084761D01*
X110445809Y-72084761D02*
X110483904Y-72160952D01*
X110483904Y-72160952D02*
X110483904Y-72351428D01*
X110483904Y-72351428D02*
X110445809Y-72427618D01*
X110445809Y-72427618D02*
X110407714Y-72465714D01*
%TO.C,R34*%
X103818904Y-26069285D02*
X103437952Y-26335952D01*
X103818904Y-26526428D02*
X103018904Y-26526428D01*
X103018904Y-26526428D02*
X103018904Y-26221666D01*
X103018904Y-26221666D02*
X103057000Y-26145476D01*
X103057000Y-26145476D02*
X103095095Y-26107381D01*
X103095095Y-26107381D02*
X103171285Y-26069285D01*
X103171285Y-26069285D02*
X103285571Y-26069285D01*
X103285571Y-26069285D02*
X103361761Y-26107381D01*
X103361761Y-26107381D02*
X103399857Y-26145476D01*
X103399857Y-26145476D02*
X103437952Y-26221666D01*
X103437952Y-26221666D02*
X103437952Y-26526428D01*
X103018904Y-25802619D02*
X103018904Y-25307381D01*
X103018904Y-25307381D02*
X103323666Y-25574047D01*
X103323666Y-25574047D02*
X103323666Y-25459762D01*
X103323666Y-25459762D02*
X103361761Y-25383571D01*
X103361761Y-25383571D02*
X103399857Y-25345476D01*
X103399857Y-25345476D02*
X103476047Y-25307381D01*
X103476047Y-25307381D02*
X103666523Y-25307381D01*
X103666523Y-25307381D02*
X103742714Y-25345476D01*
X103742714Y-25345476D02*
X103780809Y-25383571D01*
X103780809Y-25383571D02*
X103818904Y-25459762D01*
X103818904Y-25459762D02*
X103818904Y-25688333D01*
X103818904Y-25688333D02*
X103780809Y-25764524D01*
X103780809Y-25764524D02*
X103742714Y-25802619D01*
X103285571Y-24621666D02*
X103818904Y-24621666D01*
X102980809Y-24812142D02*
X103552238Y-25002619D01*
X103552238Y-25002619D02*
X103552238Y-24507380D01*
%TO.C,TP3*%
X107873810Y-73153904D02*
X107607143Y-72772952D01*
X107416667Y-73153904D02*
X107416667Y-72353904D01*
X107416667Y-72353904D02*
X107721429Y-72353904D01*
X107721429Y-72353904D02*
X107797619Y-72392000D01*
X107797619Y-72392000D02*
X107835714Y-72430095D01*
X107835714Y-72430095D02*
X107873810Y-72506285D01*
X107873810Y-72506285D02*
X107873810Y-72620571D01*
X107873810Y-72620571D02*
X107835714Y-72696761D01*
X107835714Y-72696761D02*
X107797619Y-72734857D01*
X107797619Y-72734857D02*
X107721429Y-72772952D01*
X107721429Y-72772952D02*
X107416667Y-72772952D01*
X108178571Y-72925333D02*
X108559524Y-72925333D01*
X108102381Y-73153904D02*
X108369048Y-72353904D01*
X108369048Y-72353904D02*
X108635714Y-73153904D01*
X108864285Y-72430095D02*
X108902381Y-72392000D01*
X108902381Y-72392000D02*
X108978571Y-72353904D01*
X108978571Y-72353904D02*
X109169047Y-72353904D01*
X109169047Y-72353904D02*
X109245238Y-72392000D01*
X109245238Y-72392000D02*
X109283333Y-72430095D01*
X109283333Y-72430095D02*
X109321428Y-72506285D01*
X109321428Y-72506285D02*
X109321428Y-72582476D01*
X109321428Y-72582476D02*
X109283333Y-72696761D01*
X109283333Y-72696761D02*
X108826190Y-73153904D01*
X108826190Y-73153904D02*
X109321428Y-73153904D01*
%TO.C,TP17*%
X112208571Y-31855809D02*
X112322857Y-31893904D01*
X112322857Y-31893904D02*
X112513333Y-31893904D01*
X112513333Y-31893904D02*
X112589524Y-31855809D01*
X112589524Y-31855809D02*
X112627619Y-31817714D01*
X112627619Y-31817714D02*
X112665714Y-31741523D01*
X112665714Y-31741523D02*
X112665714Y-31665333D01*
X112665714Y-31665333D02*
X112627619Y-31589142D01*
X112627619Y-31589142D02*
X112589524Y-31551047D01*
X112589524Y-31551047D02*
X112513333Y-31512952D01*
X112513333Y-31512952D02*
X112360952Y-31474857D01*
X112360952Y-31474857D02*
X112284762Y-31436761D01*
X112284762Y-31436761D02*
X112246667Y-31398666D01*
X112246667Y-31398666D02*
X112208571Y-31322476D01*
X112208571Y-31322476D02*
X112208571Y-31246285D01*
X112208571Y-31246285D02*
X112246667Y-31170095D01*
X112246667Y-31170095D02*
X112284762Y-31132000D01*
X112284762Y-31132000D02*
X112360952Y-31093904D01*
X112360952Y-31093904D02*
X112551429Y-31093904D01*
X112551429Y-31093904D02*
X112665714Y-31132000D01*
X113008572Y-31893904D02*
X113008572Y-31093904D01*
X113008572Y-31093904D02*
X113199048Y-31093904D01*
X113199048Y-31093904D02*
X113313334Y-31132000D01*
X113313334Y-31132000D02*
X113389524Y-31208190D01*
X113389524Y-31208190D02*
X113427619Y-31284380D01*
X113427619Y-31284380D02*
X113465715Y-31436761D01*
X113465715Y-31436761D02*
X113465715Y-31551047D01*
X113465715Y-31551047D02*
X113427619Y-31703428D01*
X113427619Y-31703428D02*
X113389524Y-31779619D01*
X113389524Y-31779619D02*
X113313334Y-31855809D01*
X113313334Y-31855809D02*
X113199048Y-31893904D01*
X113199048Y-31893904D02*
X113008572Y-31893904D01*
X113770476Y-31665333D02*
X114151429Y-31665333D01*
X113694286Y-31893904D02*
X113960953Y-31093904D01*
X113960953Y-31093904D02*
X114227619Y-31893904D01*
%TO.C,R4*%
X102166667Y-47593904D02*
X101900000Y-47212952D01*
X101709524Y-47593904D02*
X101709524Y-46793904D01*
X101709524Y-46793904D02*
X102014286Y-46793904D01*
X102014286Y-46793904D02*
X102090476Y-46832000D01*
X102090476Y-46832000D02*
X102128571Y-46870095D01*
X102128571Y-46870095D02*
X102166667Y-46946285D01*
X102166667Y-46946285D02*
X102166667Y-47060571D01*
X102166667Y-47060571D02*
X102128571Y-47136761D01*
X102128571Y-47136761D02*
X102090476Y-47174857D01*
X102090476Y-47174857D02*
X102014286Y-47212952D01*
X102014286Y-47212952D02*
X101709524Y-47212952D01*
X102852381Y-47060571D02*
X102852381Y-47593904D01*
X102661905Y-46755809D02*
X102471428Y-47327238D01*
X102471428Y-47327238D02*
X102966667Y-47327238D01*
%TO.C,R16*%
X123261421Y-41464948D02*
X122961459Y-41674922D01*
X123261421Y-41824903D02*
X122631500Y-41824903D01*
X122631500Y-41824903D02*
X122631500Y-41584933D01*
X122631500Y-41584933D02*
X122661497Y-41524941D01*
X122661497Y-41524941D02*
X122691493Y-41494945D01*
X122691493Y-41494945D02*
X122751485Y-41464948D01*
X122751485Y-41464948D02*
X122841474Y-41464948D01*
X122841474Y-41464948D02*
X122901466Y-41494945D01*
X122901466Y-41494945D02*
X122931463Y-41524941D01*
X122931463Y-41524941D02*
X122961459Y-41584933D01*
X122961459Y-41584933D02*
X122961459Y-41824903D01*
X123261421Y-40865024D02*
X123261421Y-41224979D01*
X123261421Y-41045001D02*
X122631500Y-41045001D01*
X122631500Y-41045001D02*
X122721489Y-41104994D01*
X122721489Y-41104994D02*
X122781481Y-41164986D01*
X122781481Y-41164986D02*
X122811478Y-41224979D01*
X122631500Y-40325091D02*
X122631500Y-40445076D01*
X122631500Y-40445076D02*
X122661497Y-40505069D01*
X122661497Y-40505069D02*
X122691493Y-40535065D01*
X122691493Y-40535065D02*
X122781481Y-40595057D01*
X122781481Y-40595057D02*
X122901466Y-40625054D01*
X122901466Y-40625054D02*
X123141436Y-40625054D01*
X123141436Y-40625054D02*
X123201429Y-40595057D01*
X123201429Y-40595057D02*
X123231425Y-40565061D01*
X123231425Y-40565061D02*
X123261421Y-40505069D01*
X123261421Y-40505069D02*
X123261421Y-40385084D01*
X123261421Y-40385084D02*
X123231425Y-40325091D01*
X123231425Y-40325091D02*
X123201429Y-40295095D01*
X123201429Y-40295095D02*
X123141436Y-40265099D01*
X123141436Y-40265099D02*
X122991455Y-40265099D01*
X122991455Y-40265099D02*
X122931463Y-40295095D01*
X122931463Y-40295095D02*
X122901466Y-40325091D01*
X122901466Y-40325091D02*
X122871470Y-40385084D01*
X122871470Y-40385084D02*
X122871470Y-40505069D01*
X122871470Y-40505069D02*
X122901466Y-40565061D01*
X122901466Y-40565061D02*
X122931463Y-40595057D01*
X122931463Y-40595057D02*
X122991455Y-40625054D01*
%TO.C,TP39*%
X117276667Y-52763904D02*
X117010000Y-52382952D01*
X116819524Y-52763904D02*
X116819524Y-51963904D01*
X116819524Y-51963904D02*
X117124286Y-51963904D01*
X117124286Y-51963904D02*
X117200476Y-52002000D01*
X117200476Y-52002000D02*
X117238571Y-52040095D01*
X117238571Y-52040095D02*
X117276667Y-52116285D01*
X117276667Y-52116285D02*
X117276667Y-52230571D01*
X117276667Y-52230571D02*
X117238571Y-52306761D01*
X117238571Y-52306761D02*
X117200476Y-52344857D01*
X117200476Y-52344857D02*
X117124286Y-52382952D01*
X117124286Y-52382952D02*
X116819524Y-52382952D01*
X117543333Y-51963904D02*
X118076667Y-52763904D01*
X118076667Y-51963904D02*
X117543333Y-52763904D01*
%TO.C,R37*%
X118047142Y-29737380D02*
X117713809Y-29261190D01*
X117475714Y-29737380D02*
X117475714Y-28737380D01*
X117475714Y-28737380D02*
X117856666Y-28737380D01*
X117856666Y-28737380D02*
X117951904Y-28785000D01*
X117951904Y-28785000D02*
X117999523Y-28832619D01*
X117999523Y-28832619D02*
X118047142Y-28927857D01*
X118047142Y-28927857D02*
X118047142Y-29070714D01*
X118047142Y-29070714D02*
X117999523Y-29165952D01*
X117999523Y-29165952D02*
X117951904Y-29213571D01*
X117951904Y-29213571D02*
X117856666Y-29261190D01*
X117856666Y-29261190D02*
X117475714Y-29261190D01*
X118380476Y-28737380D02*
X118999523Y-28737380D01*
X118999523Y-28737380D02*
X118666190Y-29118333D01*
X118666190Y-29118333D02*
X118809047Y-29118333D01*
X118809047Y-29118333D02*
X118904285Y-29165952D01*
X118904285Y-29165952D02*
X118951904Y-29213571D01*
X118951904Y-29213571D02*
X118999523Y-29308809D01*
X118999523Y-29308809D02*
X118999523Y-29546904D01*
X118999523Y-29546904D02*
X118951904Y-29642142D01*
X118951904Y-29642142D02*
X118904285Y-29689761D01*
X118904285Y-29689761D02*
X118809047Y-29737380D01*
X118809047Y-29737380D02*
X118523333Y-29737380D01*
X118523333Y-29737380D02*
X118428095Y-29689761D01*
X118428095Y-29689761D02*
X118380476Y-29642142D01*
X119332857Y-28737380D02*
X119999523Y-28737380D01*
X119999523Y-28737380D02*
X119570952Y-29737380D01*
%TO.C,TP26*%
X119715809Y-73741904D02*
X119753904Y-73818095D01*
X119753904Y-73818095D02*
X119753904Y-73970476D01*
X119753904Y-73970476D02*
X119715809Y-74046666D01*
X119715809Y-74046666D02*
X119677714Y-74084761D01*
X119677714Y-74084761D02*
X119601523Y-74122857D01*
X119601523Y-74122857D02*
X119372952Y-74122857D01*
X119372952Y-74122857D02*
X119296761Y-74084761D01*
X119296761Y-74084761D02*
X119258666Y-74046666D01*
X119258666Y-74046666D02*
X119220571Y-73970476D01*
X119220571Y-73970476D02*
X119220571Y-73818095D01*
X119220571Y-73818095D02*
X119258666Y-73741904D01*
X119753904Y-73284762D02*
X119715809Y-73360952D01*
X119715809Y-73360952D02*
X119677714Y-73399047D01*
X119677714Y-73399047D02*
X119601523Y-73437143D01*
X119601523Y-73437143D02*
X119372952Y-73437143D01*
X119372952Y-73437143D02*
X119296761Y-73399047D01*
X119296761Y-73399047D02*
X119258666Y-73360952D01*
X119258666Y-73360952D02*
X119220571Y-73284762D01*
X119220571Y-73284762D02*
X119220571Y-73170476D01*
X119220571Y-73170476D02*
X119258666Y-73094285D01*
X119258666Y-73094285D02*
X119296761Y-73056190D01*
X119296761Y-73056190D02*
X119372952Y-73018095D01*
X119372952Y-73018095D02*
X119601523Y-73018095D01*
X119601523Y-73018095D02*
X119677714Y-73056190D01*
X119677714Y-73056190D02*
X119715809Y-73094285D01*
X119715809Y-73094285D02*
X119753904Y-73170476D01*
X119753904Y-73170476D02*
X119753904Y-73284762D01*
X119220571Y-72332380D02*
X119753904Y-72332380D01*
X119220571Y-72675237D02*
X119639619Y-72675237D01*
X119639619Y-72675237D02*
X119715809Y-72637142D01*
X119715809Y-72637142D02*
X119753904Y-72560952D01*
X119753904Y-72560952D02*
X119753904Y-72446666D01*
X119753904Y-72446666D02*
X119715809Y-72370475D01*
X119715809Y-72370475D02*
X119677714Y-72332380D01*
X119220571Y-72065713D02*
X119220571Y-71760951D01*
X118953904Y-71951427D02*
X119639619Y-71951427D01*
X119639619Y-71951427D02*
X119715809Y-71913332D01*
X119715809Y-71913332D02*
X119753904Y-71837142D01*
X119753904Y-71837142D02*
X119753904Y-71760951D01*
%TO.C,J4*%
X122386666Y-42847380D02*
X122386666Y-43561666D01*
X122386666Y-43561666D02*
X122339047Y-43704523D01*
X122339047Y-43704523D02*
X122243809Y-43799761D01*
X122243809Y-43799761D02*
X122100952Y-43847380D01*
X122100952Y-43847380D02*
X122005714Y-43847380D01*
X123291428Y-43180714D02*
X123291428Y-43847380D01*
X123053333Y-42799761D02*
X122815238Y-43514047D01*
X122815238Y-43514047D02*
X123434285Y-43514047D01*
%TO.C,R29*%
X105165714Y-38483904D02*
X104899047Y-38102952D01*
X104708571Y-38483904D02*
X104708571Y-37683904D01*
X104708571Y-37683904D02*
X105013333Y-37683904D01*
X105013333Y-37683904D02*
X105089523Y-37722000D01*
X105089523Y-37722000D02*
X105127618Y-37760095D01*
X105127618Y-37760095D02*
X105165714Y-37836285D01*
X105165714Y-37836285D02*
X105165714Y-37950571D01*
X105165714Y-37950571D02*
X105127618Y-38026761D01*
X105127618Y-38026761D02*
X105089523Y-38064857D01*
X105089523Y-38064857D02*
X105013333Y-38102952D01*
X105013333Y-38102952D02*
X104708571Y-38102952D01*
X105470475Y-37760095D02*
X105508571Y-37722000D01*
X105508571Y-37722000D02*
X105584761Y-37683904D01*
X105584761Y-37683904D02*
X105775237Y-37683904D01*
X105775237Y-37683904D02*
X105851428Y-37722000D01*
X105851428Y-37722000D02*
X105889523Y-37760095D01*
X105889523Y-37760095D02*
X105927618Y-37836285D01*
X105927618Y-37836285D02*
X105927618Y-37912476D01*
X105927618Y-37912476D02*
X105889523Y-38026761D01*
X105889523Y-38026761D02*
X105432380Y-38483904D01*
X105432380Y-38483904D02*
X105927618Y-38483904D01*
X106308571Y-38483904D02*
X106460952Y-38483904D01*
X106460952Y-38483904D02*
X106537142Y-38445809D01*
X106537142Y-38445809D02*
X106575238Y-38407714D01*
X106575238Y-38407714D02*
X106651428Y-38293428D01*
X106651428Y-38293428D02*
X106689523Y-38141047D01*
X106689523Y-38141047D02*
X106689523Y-37836285D01*
X106689523Y-37836285D02*
X106651428Y-37760095D01*
X106651428Y-37760095D02*
X106613333Y-37722000D01*
X106613333Y-37722000D02*
X106537142Y-37683904D01*
X106537142Y-37683904D02*
X106384761Y-37683904D01*
X106384761Y-37683904D02*
X106308571Y-37722000D01*
X106308571Y-37722000D02*
X106270476Y-37760095D01*
X106270476Y-37760095D02*
X106232380Y-37836285D01*
X106232380Y-37836285D02*
X106232380Y-38026761D01*
X106232380Y-38026761D02*
X106270476Y-38102952D01*
X106270476Y-38102952D02*
X106308571Y-38141047D01*
X106308571Y-38141047D02*
X106384761Y-38179142D01*
X106384761Y-38179142D02*
X106537142Y-38179142D01*
X106537142Y-38179142D02*
X106613333Y-38141047D01*
X106613333Y-38141047D02*
X106651428Y-38102952D01*
X106651428Y-38102952D02*
X106689523Y-38026761D01*
%TO.C,R38*%
X119943904Y-37594285D02*
X119562952Y-37860952D01*
X119943904Y-38051428D02*
X119143904Y-38051428D01*
X119143904Y-38051428D02*
X119143904Y-37746666D01*
X119143904Y-37746666D02*
X119182000Y-37670476D01*
X119182000Y-37670476D02*
X119220095Y-37632381D01*
X119220095Y-37632381D02*
X119296285Y-37594285D01*
X119296285Y-37594285D02*
X119410571Y-37594285D01*
X119410571Y-37594285D02*
X119486761Y-37632381D01*
X119486761Y-37632381D02*
X119524857Y-37670476D01*
X119524857Y-37670476D02*
X119562952Y-37746666D01*
X119562952Y-37746666D02*
X119562952Y-38051428D01*
X119143904Y-37327619D02*
X119143904Y-36832381D01*
X119143904Y-36832381D02*
X119448666Y-37099047D01*
X119448666Y-37099047D02*
X119448666Y-36984762D01*
X119448666Y-36984762D02*
X119486761Y-36908571D01*
X119486761Y-36908571D02*
X119524857Y-36870476D01*
X119524857Y-36870476D02*
X119601047Y-36832381D01*
X119601047Y-36832381D02*
X119791523Y-36832381D01*
X119791523Y-36832381D02*
X119867714Y-36870476D01*
X119867714Y-36870476D02*
X119905809Y-36908571D01*
X119905809Y-36908571D02*
X119943904Y-36984762D01*
X119943904Y-36984762D02*
X119943904Y-37213333D01*
X119943904Y-37213333D02*
X119905809Y-37289524D01*
X119905809Y-37289524D02*
X119867714Y-37327619D01*
X119486761Y-36375238D02*
X119448666Y-36451428D01*
X119448666Y-36451428D02*
X119410571Y-36489523D01*
X119410571Y-36489523D02*
X119334380Y-36527619D01*
X119334380Y-36527619D02*
X119296285Y-36527619D01*
X119296285Y-36527619D02*
X119220095Y-36489523D01*
X119220095Y-36489523D02*
X119182000Y-36451428D01*
X119182000Y-36451428D02*
X119143904Y-36375238D01*
X119143904Y-36375238D02*
X119143904Y-36222857D01*
X119143904Y-36222857D02*
X119182000Y-36146666D01*
X119182000Y-36146666D02*
X119220095Y-36108571D01*
X119220095Y-36108571D02*
X119296285Y-36070476D01*
X119296285Y-36070476D02*
X119334380Y-36070476D01*
X119334380Y-36070476D02*
X119410571Y-36108571D01*
X119410571Y-36108571D02*
X119448666Y-36146666D01*
X119448666Y-36146666D02*
X119486761Y-36222857D01*
X119486761Y-36222857D02*
X119486761Y-36375238D01*
X119486761Y-36375238D02*
X119524857Y-36451428D01*
X119524857Y-36451428D02*
X119562952Y-36489523D01*
X119562952Y-36489523D02*
X119639142Y-36527619D01*
X119639142Y-36527619D02*
X119791523Y-36527619D01*
X119791523Y-36527619D02*
X119867714Y-36489523D01*
X119867714Y-36489523D02*
X119905809Y-36451428D01*
X119905809Y-36451428D02*
X119943904Y-36375238D01*
X119943904Y-36375238D02*
X119943904Y-36222857D01*
X119943904Y-36222857D02*
X119905809Y-36146666D01*
X119905809Y-36146666D02*
X119867714Y-36108571D01*
X119867714Y-36108571D02*
X119791523Y-36070476D01*
X119791523Y-36070476D02*
X119639142Y-36070476D01*
X119639142Y-36070476D02*
X119562952Y-36108571D01*
X119562952Y-36108571D02*
X119524857Y-36146666D01*
X119524857Y-36146666D02*
X119486761Y-36222857D01*
%TO.C,JP1*%
X101903333Y-72593904D02*
X101903333Y-73165333D01*
X101903333Y-73165333D02*
X101865238Y-73279619D01*
X101865238Y-73279619D02*
X101789047Y-73355809D01*
X101789047Y-73355809D02*
X101674762Y-73393904D01*
X101674762Y-73393904D02*
X101598571Y-73393904D01*
X102284286Y-73393904D02*
X102284286Y-72593904D01*
X102284286Y-72593904D02*
X102589048Y-72593904D01*
X102589048Y-72593904D02*
X102665238Y-72632000D01*
X102665238Y-72632000D02*
X102703333Y-72670095D01*
X102703333Y-72670095D02*
X102741429Y-72746285D01*
X102741429Y-72746285D02*
X102741429Y-72860571D01*
X102741429Y-72860571D02*
X102703333Y-72936761D01*
X102703333Y-72936761D02*
X102665238Y-72974857D01*
X102665238Y-72974857D02*
X102589048Y-73012952D01*
X102589048Y-73012952D02*
X102284286Y-73012952D01*
X103503333Y-73393904D02*
X103046190Y-73393904D01*
X103274762Y-73393904D02*
X103274762Y-72593904D01*
X103274762Y-72593904D02*
X103198571Y-72708190D01*
X103198571Y-72708190D02*
X103122381Y-72784380D01*
X103122381Y-72784380D02*
X103046190Y-72822476D01*
%TO.C,R30*%
X105085714Y-37223904D02*
X104819047Y-36842952D01*
X104628571Y-37223904D02*
X104628571Y-36423904D01*
X104628571Y-36423904D02*
X104933333Y-36423904D01*
X104933333Y-36423904D02*
X105009523Y-36462000D01*
X105009523Y-36462000D02*
X105047618Y-36500095D01*
X105047618Y-36500095D02*
X105085714Y-36576285D01*
X105085714Y-36576285D02*
X105085714Y-36690571D01*
X105085714Y-36690571D02*
X105047618Y-36766761D01*
X105047618Y-36766761D02*
X105009523Y-36804857D01*
X105009523Y-36804857D02*
X104933333Y-36842952D01*
X104933333Y-36842952D02*
X104628571Y-36842952D01*
X105352380Y-36423904D02*
X105847618Y-36423904D01*
X105847618Y-36423904D02*
X105580952Y-36728666D01*
X105580952Y-36728666D02*
X105695237Y-36728666D01*
X105695237Y-36728666D02*
X105771428Y-36766761D01*
X105771428Y-36766761D02*
X105809523Y-36804857D01*
X105809523Y-36804857D02*
X105847618Y-36881047D01*
X105847618Y-36881047D02*
X105847618Y-37071523D01*
X105847618Y-37071523D02*
X105809523Y-37147714D01*
X105809523Y-37147714D02*
X105771428Y-37185809D01*
X105771428Y-37185809D02*
X105695237Y-37223904D01*
X105695237Y-37223904D02*
X105466666Y-37223904D01*
X105466666Y-37223904D02*
X105390475Y-37185809D01*
X105390475Y-37185809D02*
X105352380Y-37147714D01*
X106342857Y-36423904D02*
X106419047Y-36423904D01*
X106419047Y-36423904D02*
X106495238Y-36462000D01*
X106495238Y-36462000D02*
X106533333Y-36500095D01*
X106533333Y-36500095D02*
X106571428Y-36576285D01*
X106571428Y-36576285D02*
X106609523Y-36728666D01*
X106609523Y-36728666D02*
X106609523Y-36919142D01*
X106609523Y-36919142D02*
X106571428Y-37071523D01*
X106571428Y-37071523D02*
X106533333Y-37147714D01*
X106533333Y-37147714D02*
X106495238Y-37185809D01*
X106495238Y-37185809D02*
X106419047Y-37223904D01*
X106419047Y-37223904D02*
X106342857Y-37223904D01*
X106342857Y-37223904D02*
X106266666Y-37185809D01*
X106266666Y-37185809D02*
X106228571Y-37147714D01*
X106228571Y-37147714D02*
X106190476Y-37071523D01*
X106190476Y-37071523D02*
X106152380Y-36919142D01*
X106152380Y-36919142D02*
X106152380Y-36728666D01*
X106152380Y-36728666D02*
X106190476Y-36576285D01*
X106190476Y-36576285D02*
X106228571Y-36500095D01*
X106228571Y-36500095D02*
X106266666Y-36462000D01*
X106266666Y-36462000D02*
X106342857Y-36423904D01*
%TO.C,TP8*%
X120446667Y-71643904D02*
X120180000Y-71262952D01*
X119989524Y-71643904D02*
X119989524Y-70843904D01*
X119989524Y-70843904D02*
X120294286Y-70843904D01*
X120294286Y-70843904D02*
X120370476Y-70882000D01*
X120370476Y-70882000D02*
X120408571Y-70920095D01*
X120408571Y-70920095D02*
X120446667Y-70996285D01*
X120446667Y-70996285D02*
X120446667Y-71110571D01*
X120446667Y-71110571D02*
X120408571Y-71186761D01*
X120408571Y-71186761D02*
X120370476Y-71224857D01*
X120370476Y-71224857D02*
X120294286Y-71262952D01*
X120294286Y-71262952D02*
X119989524Y-71262952D01*
X121246667Y-71567714D02*
X121208571Y-71605809D01*
X121208571Y-71605809D02*
X121094286Y-71643904D01*
X121094286Y-71643904D02*
X121018095Y-71643904D01*
X121018095Y-71643904D02*
X120903809Y-71605809D01*
X120903809Y-71605809D02*
X120827619Y-71529619D01*
X120827619Y-71529619D02*
X120789524Y-71453428D01*
X120789524Y-71453428D02*
X120751428Y-71301047D01*
X120751428Y-71301047D02*
X120751428Y-71186761D01*
X120751428Y-71186761D02*
X120789524Y-71034380D01*
X120789524Y-71034380D02*
X120827619Y-70958190D01*
X120827619Y-70958190D02*
X120903809Y-70882000D01*
X120903809Y-70882000D02*
X121018095Y-70843904D01*
X121018095Y-70843904D02*
X121094286Y-70843904D01*
X121094286Y-70843904D02*
X121208571Y-70882000D01*
X121208571Y-70882000D02*
X121246667Y-70920095D01*
X122008571Y-71643904D02*
X121551428Y-71643904D01*
X121780000Y-71643904D02*
X121780000Y-70843904D01*
X121780000Y-70843904D02*
X121703809Y-70958190D01*
X121703809Y-70958190D02*
X121627619Y-71034380D01*
X121627619Y-71034380D02*
X121551428Y-71072476D01*
%TO.C,TP32*%
X116475238Y-48973904D02*
X116475238Y-48173904D01*
X116475238Y-48173904D02*
X116665714Y-48173904D01*
X116665714Y-48173904D02*
X116780000Y-48212000D01*
X116780000Y-48212000D02*
X116856190Y-48288190D01*
X116856190Y-48288190D02*
X116894285Y-48364380D01*
X116894285Y-48364380D02*
X116932381Y-48516761D01*
X116932381Y-48516761D02*
X116932381Y-48631047D01*
X116932381Y-48631047D02*
X116894285Y-48783428D01*
X116894285Y-48783428D02*
X116856190Y-48859619D01*
X116856190Y-48859619D02*
X116780000Y-48935809D01*
X116780000Y-48935809D02*
X116665714Y-48973904D01*
X116665714Y-48973904D02*
X116475238Y-48973904D01*
X117275238Y-48669142D02*
X117884762Y-48669142D01*
X117580000Y-48973904D02*
X117580000Y-48364380D01*
%TO.C,R21*%
X104060714Y-43338904D02*
X103794047Y-42957952D01*
X103603571Y-43338904D02*
X103603571Y-42538904D01*
X103603571Y-42538904D02*
X103908333Y-42538904D01*
X103908333Y-42538904D02*
X103984523Y-42577000D01*
X103984523Y-42577000D02*
X104022618Y-42615095D01*
X104022618Y-42615095D02*
X104060714Y-42691285D01*
X104060714Y-42691285D02*
X104060714Y-42805571D01*
X104060714Y-42805571D02*
X104022618Y-42881761D01*
X104022618Y-42881761D02*
X103984523Y-42919857D01*
X103984523Y-42919857D02*
X103908333Y-42957952D01*
X103908333Y-42957952D02*
X103603571Y-42957952D01*
X104365475Y-42615095D02*
X104403571Y-42577000D01*
X104403571Y-42577000D02*
X104479761Y-42538904D01*
X104479761Y-42538904D02*
X104670237Y-42538904D01*
X104670237Y-42538904D02*
X104746428Y-42577000D01*
X104746428Y-42577000D02*
X104784523Y-42615095D01*
X104784523Y-42615095D02*
X104822618Y-42691285D01*
X104822618Y-42691285D02*
X104822618Y-42767476D01*
X104822618Y-42767476D02*
X104784523Y-42881761D01*
X104784523Y-42881761D02*
X104327380Y-43338904D01*
X104327380Y-43338904D02*
X104822618Y-43338904D01*
X105584523Y-43338904D02*
X105127380Y-43338904D01*
X105355952Y-43338904D02*
X105355952Y-42538904D01*
X105355952Y-42538904D02*
X105279761Y-42653190D01*
X105279761Y-42653190D02*
X105203571Y-42729380D01*
X105203571Y-42729380D02*
X105127380Y-42767476D01*
%TO.C,C5*%
X115377714Y-50953332D02*
X115415809Y-50991428D01*
X115415809Y-50991428D02*
X115453904Y-51105713D01*
X115453904Y-51105713D02*
X115453904Y-51181904D01*
X115453904Y-51181904D02*
X115415809Y-51296190D01*
X115415809Y-51296190D02*
X115339619Y-51372380D01*
X115339619Y-51372380D02*
X115263428Y-51410475D01*
X115263428Y-51410475D02*
X115111047Y-51448571D01*
X115111047Y-51448571D02*
X114996761Y-51448571D01*
X114996761Y-51448571D02*
X114844380Y-51410475D01*
X114844380Y-51410475D02*
X114768190Y-51372380D01*
X114768190Y-51372380D02*
X114692000Y-51296190D01*
X114692000Y-51296190D02*
X114653904Y-51181904D01*
X114653904Y-51181904D02*
X114653904Y-51105713D01*
X114653904Y-51105713D02*
X114692000Y-50991428D01*
X114692000Y-50991428D02*
X114730095Y-50953332D01*
X114653904Y-50229523D02*
X114653904Y-50610475D01*
X114653904Y-50610475D02*
X115034857Y-50648571D01*
X115034857Y-50648571D02*
X114996761Y-50610475D01*
X114996761Y-50610475D02*
X114958666Y-50534285D01*
X114958666Y-50534285D02*
X114958666Y-50343809D01*
X114958666Y-50343809D02*
X114996761Y-50267618D01*
X114996761Y-50267618D02*
X115034857Y-50229523D01*
X115034857Y-50229523D02*
X115111047Y-50191428D01*
X115111047Y-50191428D02*
X115301523Y-50191428D01*
X115301523Y-50191428D02*
X115377714Y-50229523D01*
X115377714Y-50229523D02*
X115415809Y-50267618D01*
X115415809Y-50267618D02*
X115453904Y-50343809D01*
X115453904Y-50343809D02*
X115453904Y-50534285D01*
X115453904Y-50534285D02*
X115415809Y-50610475D01*
X115415809Y-50610475D02*
X115377714Y-50648571D01*
%TO.C,TP7*%
X119185238Y-48973904D02*
X119185238Y-48173904D01*
X119185238Y-48173904D02*
X119375714Y-48173904D01*
X119375714Y-48173904D02*
X119490000Y-48212000D01*
X119490000Y-48212000D02*
X119566190Y-48288190D01*
X119566190Y-48288190D02*
X119604285Y-48364380D01*
X119604285Y-48364380D02*
X119642381Y-48516761D01*
X119642381Y-48516761D02*
X119642381Y-48631047D01*
X119642381Y-48631047D02*
X119604285Y-48783428D01*
X119604285Y-48783428D02*
X119566190Y-48859619D01*
X119566190Y-48859619D02*
X119490000Y-48935809D01*
X119490000Y-48935809D02*
X119375714Y-48973904D01*
X119375714Y-48973904D02*
X119185238Y-48973904D01*
X119985238Y-48669142D02*
X120594762Y-48669142D01*
%TO.C,TP23*%
X99155238Y-54517714D02*
X99117142Y-54555809D01*
X99117142Y-54555809D02*
X99002857Y-54593904D01*
X99002857Y-54593904D02*
X98926666Y-54593904D01*
X98926666Y-54593904D02*
X98812380Y-54555809D01*
X98812380Y-54555809D02*
X98736190Y-54479619D01*
X98736190Y-54479619D02*
X98698095Y-54403428D01*
X98698095Y-54403428D02*
X98659999Y-54251047D01*
X98659999Y-54251047D02*
X98659999Y-54136761D01*
X98659999Y-54136761D02*
X98698095Y-53984380D01*
X98698095Y-53984380D02*
X98736190Y-53908190D01*
X98736190Y-53908190D02*
X98812380Y-53832000D01*
X98812380Y-53832000D02*
X98926666Y-53793904D01*
X98926666Y-53793904D02*
X99002857Y-53793904D01*
X99002857Y-53793904D02*
X99117142Y-53832000D01*
X99117142Y-53832000D02*
X99155238Y-53870095D01*
X99459999Y-54365333D02*
X99840952Y-54365333D01*
X99383809Y-54593904D02*
X99650476Y-53793904D01*
X99650476Y-53793904D02*
X99917142Y-54593904D01*
X100183809Y-54593904D02*
X100183809Y-53793904D01*
X100183809Y-53793904D02*
X100640952Y-54593904D01*
X100640952Y-54593904D02*
X100640952Y-53793904D01*
X100831428Y-54670095D02*
X101440951Y-54670095D01*
X101517142Y-53793904D02*
X101974285Y-53793904D01*
X101745713Y-54593904D02*
X101745713Y-53793904D01*
X102164761Y-53793904D02*
X102698095Y-54593904D01*
X102698095Y-53793904D02*
X102164761Y-54593904D01*
%TO.C,R26*%
X119293904Y-51094285D02*
X118912952Y-51360952D01*
X119293904Y-51551428D02*
X118493904Y-51551428D01*
X118493904Y-51551428D02*
X118493904Y-51246666D01*
X118493904Y-51246666D02*
X118532000Y-51170476D01*
X118532000Y-51170476D02*
X118570095Y-51132381D01*
X118570095Y-51132381D02*
X118646285Y-51094285D01*
X118646285Y-51094285D02*
X118760571Y-51094285D01*
X118760571Y-51094285D02*
X118836761Y-51132381D01*
X118836761Y-51132381D02*
X118874857Y-51170476D01*
X118874857Y-51170476D02*
X118912952Y-51246666D01*
X118912952Y-51246666D02*
X118912952Y-51551428D01*
X118570095Y-50789524D02*
X118532000Y-50751428D01*
X118532000Y-50751428D02*
X118493904Y-50675238D01*
X118493904Y-50675238D02*
X118493904Y-50484762D01*
X118493904Y-50484762D02*
X118532000Y-50408571D01*
X118532000Y-50408571D02*
X118570095Y-50370476D01*
X118570095Y-50370476D02*
X118646285Y-50332381D01*
X118646285Y-50332381D02*
X118722476Y-50332381D01*
X118722476Y-50332381D02*
X118836761Y-50370476D01*
X118836761Y-50370476D02*
X119293904Y-50827619D01*
X119293904Y-50827619D02*
X119293904Y-50332381D01*
X118493904Y-49646666D02*
X118493904Y-49799047D01*
X118493904Y-49799047D02*
X118532000Y-49875238D01*
X118532000Y-49875238D02*
X118570095Y-49913333D01*
X118570095Y-49913333D02*
X118684380Y-49989523D01*
X118684380Y-49989523D02*
X118836761Y-50027619D01*
X118836761Y-50027619D02*
X119141523Y-50027619D01*
X119141523Y-50027619D02*
X119217714Y-49989523D01*
X119217714Y-49989523D02*
X119255809Y-49951428D01*
X119255809Y-49951428D02*
X119293904Y-49875238D01*
X119293904Y-49875238D02*
X119293904Y-49722857D01*
X119293904Y-49722857D02*
X119255809Y-49646666D01*
X119255809Y-49646666D02*
X119217714Y-49608571D01*
X119217714Y-49608571D02*
X119141523Y-49570476D01*
X119141523Y-49570476D02*
X118951047Y-49570476D01*
X118951047Y-49570476D02*
X118874857Y-49608571D01*
X118874857Y-49608571D02*
X118836761Y-49646666D01*
X118836761Y-49646666D02*
X118798666Y-49722857D01*
X118798666Y-49722857D02*
X118798666Y-49875238D01*
X118798666Y-49875238D02*
X118836761Y-49951428D01*
X118836761Y-49951428D02*
X118874857Y-49989523D01*
X118874857Y-49989523D02*
X118951047Y-50027619D01*
%TO.C,TP21*%
X102637714Y-44951427D02*
X102675809Y-44989523D01*
X102675809Y-44989523D02*
X102713904Y-45103808D01*
X102713904Y-45103808D02*
X102713904Y-45179999D01*
X102713904Y-45179999D02*
X102675809Y-45294285D01*
X102675809Y-45294285D02*
X102599619Y-45370475D01*
X102599619Y-45370475D02*
X102523428Y-45408570D01*
X102523428Y-45408570D02*
X102371047Y-45446666D01*
X102371047Y-45446666D02*
X102256761Y-45446666D01*
X102256761Y-45446666D02*
X102104380Y-45408570D01*
X102104380Y-45408570D02*
X102028190Y-45370475D01*
X102028190Y-45370475D02*
X101952000Y-45294285D01*
X101952000Y-45294285D02*
X101913904Y-45179999D01*
X101913904Y-45179999D02*
X101913904Y-45103808D01*
X101913904Y-45103808D02*
X101952000Y-44989523D01*
X101952000Y-44989523D02*
X101990095Y-44951427D01*
X102713904Y-44608570D02*
X101913904Y-44608570D01*
X102294857Y-44608570D02*
X102294857Y-44151427D01*
X102713904Y-44151427D02*
X101913904Y-44151427D01*
%TO.C,TP10*%
X106506667Y-56681904D02*
X106240000Y-56300952D01*
X106049524Y-56681904D02*
X106049524Y-55881904D01*
X106049524Y-55881904D02*
X106354286Y-55881904D01*
X106354286Y-55881904D02*
X106430476Y-55920000D01*
X106430476Y-55920000D02*
X106468571Y-55958095D01*
X106468571Y-55958095D02*
X106506667Y-56034285D01*
X106506667Y-56034285D02*
X106506667Y-56148571D01*
X106506667Y-56148571D02*
X106468571Y-56224761D01*
X106468571Y-56224761D02*
X106430476Y-56262857D01*
X106430476Y-56262857D02*
X106354286Y-56300952D01*
X106354286Y-56300952D02*
X106049524Y-56300952D01*
X107116190Y-56262857D02*
X107230476Y-56300952D01*
X107230476Y-56300952D02*
X107268571Y-56339047D01*
X107268571Y-56339047D02*
X107306667Y-56415238D01*
X107306667Y-56415238D02*
X107306667Y-56529523D01*
X107306667Y-56529523D02*
X107268571Y-56605714D01*
X107268571Y-56605714D02*
X107230476Y-56643809D01*
X107230476Y-56643809D02*
X107154286Y-56681904D01*
X107154286Y-56681904D02*
X106849524Y-56681904D01*
X106849524Y-56681904D02*
X106849524Y-55881904D01*
X106849524Y-55881904D02*
X107116190Y-55881904D01*
X107116190Y-55881904D02*
X107192381Y-55920000D01*
X107192381Y-55920000D02*
X107230476Y-55958095D01*
X107230476Y-55958095D02*
X107268571Y-56034285D01*
X107268571Y-56034285D02*
X107268571Y-56110476D01*
X107268571Y-56110476D02*
X107230476Y-56186666D01*
X107230476Y-56186666D02*
X107192381Y-56224761D01*
X107192381Y-56224761D02*
X107116190Y-56262857D01*
X107116190Y-56262857D02*
X106849524Y-56262857D01*
X108030476Y-55881904D02*
X107649524Y-55881904D01*
X107649524Y-55881904D02*
X107611428Y-56262857D01*
X107611428Y-56262857D02*
X107649524Y-56224761D01*
X107649524Y-56224761D02*
X107725714Y-56186666D01*
X107725714Y-56186666D02*
X107916190Y-56186666D01*
X107916190Y-56186666D02*
X107992381Y-56224761D01*
X107992381Y-56224761D02*
X108030476Y-56262857D01*
X108030476Y-56262857D02*
X108068571Y-56339047D01*
X108068571Y-56339047D02*
X108068571Y-56529523D01*
X108068571Y-56529523D02*
X108030476Y-56605714D01*
X108030476Y-56605714D02*
X107992381Y-56643809D01*
X107992381Y-56643809D02*
X107916190Y-56681904D01*
X107916190Y-56681904D02*
X107725714Y-56681904D01*
X107725714Y-56681904D02*
X107649524Y-56643809D01*
X107649524Y-56643809D02*
X107611428Y-56605714D01*
%TO.C,SBU2*%
X124611428Y-54975809D02*
X124725714Y-55013904D01*
X124725714Y-55013904D02*
X124916190Y-55013904D01*
X124916190Y-55013904D02*
X124992381Y-54975809D01*
X124992381Y-54975809D02*
X125030476Y-54937714D01*
X125030476Y-54937714D02*
X125068571Y-54861523D01*
X125068571Y-54861523D02*
X125068571Y-54785333D01*
X125068571Y-54785333D02*
X125030476Y-54709142D01*
X125030476Y-54709142D02*
X124992381Y-54671047D01*
X124992381Y-54671047D02*
X124916190Y-54632952D01*
X124916190Y-54632952D02*
X124763809Y-54594857D01*
X124763809Y-54594857D02*
X124687619Y-54556761D01*
X124687619Y-54556761D02*
X124649524Y-54518666D01*
X124649524Y-54518666D02*
X124611428Y-54442476D01*
X124611428Y-54442476D02*
X124611428Y-54366285D01*
X124611428Y-54366285D02*
X124649524Y-54290095D01*
X124649524Y-54290095D02*
X124687619Y-54252000D01*
X124687619Y-54252000D02*
X124763809Y-54213904D01*
X124763809Y-54213904D02*
X124954286Y-54213904D01*
X124954286Y-54213904D02*
X125068571Y-54252000D01*
X125678095Y-54594857D02*
X125792381Y-54632952D01*
X125792381Y-54632952D02*
X125830476Y-54671047D01*
X125830476Y-54671047D02*
X125868572Y-54747238D01*
X125868572Y-54747238D02*
X125868572Y-54861523D01*
X125868572Y-54861523D02*
X125830476Y-54937714D01*
X125830476Y-54937714D02*
X125792381Y-54975809D01*
X125792381Y-54975809D02*
X125716191Y-55013904D01*
X125716191Y-55013904D02*
X125411429Y-55013904D01*
X125411429Y-55013904D02*
X125411429Y-54213904D01*
X125411429Y-54213904D02*
X125678095Y-54213904D01*
X125678095Y-54213904D02*
X125754286Y-54252000D01*
X125754286Y-54252000D02*
X125792381Y-54290095D01*
X125792381Y-54290095D02*
X125830476Y-54366285D01*
X125830476Y-54366285D02*
X125830476Y-54442476D01*
X125830476Y-54442476D02*
X125792381Y-54518666D01*
X125792381Y-54518666D02*
X125754286Y-54556761D01*
X125754286Y-54556761D02*
X125678095Y-54594857D01*
X125678095Y-54594857D02*
X125411429Y-54594857D01*
X126211429Y-54213904D02*
X126211429Y-54861523D01*
X126211429Y-54861523D02*
X126249524Y-54937714D01*
X126249524Y-54937714D02*
X126287619Y-54975809D01*
X126287619Y-54975809D02*
X126363810Y-55013904D01*
X126363810Y-55013904D02*
X126516191Y-55013904D01*
X126516191Y-55013904D02*
X126592381Y-54975809D01*
X126592381Y-54975809D02*
X126630476Y-54937714D01*
X126630476Y-54937714D02*
X126668572Y-54861523D01*
X126668572Y-54861523D02*
X126668572Y-54213904D01*
X127011428Y-54290095D02*
X127049524Y-54252000D01*
X127049524Y-54252000D02*
X127125714Y-54213904D01*
X127125714Y-54213904D02*
X127316190Y-54213904D01*
X127316190Y-54213904D02*
X127392381Y-54252000D01*
X127392381Y-54252000D02*
X127430476Y-54290095D01*
X127430476Y-54290095D02*
X127468571Y-54366285D01*
X127468571Y-54366285D02*
X127468571Y-54442476D01*
X127468571Y-54442476D02*
X127430476Y-54556761D01*
X127430476Y-54556761D02*
X126973333Y-55013904D01*
X126973333Y-55013904D02*
X127468571Y-55013904D01*
%TO.C,TP18*%
X112267618Y-30705809D02*
X112381904Y-30743904D01*
X112381904Y-30743904D02*
X112572380Y-30743904D01*
X112572380Y-30743904D02*
X112648571Y-30705809D01*
X112648571Y-30705809D02*
X112686666Y-30667714D01*
X112686666Y-30667714D02*
X112724761Y-30591523D01*
X112724761Y-30591523D02*
X112724761Y-30515333D01*
X112724761Y-30515333D02*
X112686666Y-30439142D01*
X112686666Y-30439142D02*
X112648571Y-30401047D01*
X112648571Y-30401047D02*
X112572380Y-30362952D01*
X112572380Y-30362952D02*
X112419999Y-30324857D01*
X112419999Y-30324857D02*
X112343809Y-30286761D01*
X112343809Y-30286761D02*
X112305714Y-30248666D01*
X112305714Y-30248666D02*
X112267618Y-30172476D01*
X112267618Y-30172476D02*
X112267618Y-30096285D01*
X112267618Y-30096285D02*
X112305714Y-30020095D01*
X112305714Y-30020095D02*
X112343809Y-29982000D01*
X112343809Y-29982000D02*
X112419999Y-29943904D01*
X112419999Y-29943904D02*
X112610476Y-29943904D01*
X112610476Y-29943904D02*
X112724761Y-29982000D01*
X113524762Y-30667714D02*
X113486666Y-30705809D01*
X113486666Y-30705809D02*
X113372381Y-30743904D01*
X113372381Y-30743904D02*
X113296190Y-30743904D01*
X113296190Y-30743904D02*
X113181904Y-30705809D01*
X113181904Y-30705809D02*
X113105714Y-30629619D01*
X113105714Y-30629619D02*
X113067619Y-30553428D01*
X113067619Y-30553428D02*
X113029523Y-30401047D01*
X113029523Y-30401047D02*
X113029523Y-30286761D01*
X113029523Y-30286761D02*
X113067619Y-30134380D01*
X113067619Y-30134380D02*
X113105714Y-30058190D01*
X113105714Y-30058190D02*
X113181904Y-29982000D01*
X113181904Y-29982000D02*
X113296190Y-29943904D01*
X113296190Y-29943904D02*
X113372381Y-29943904D01*
X113372381Y-29943904D02*
X113486666Y-29982000D01*
X113486666Y-29982000D02*
X113524762Y-30020095D01*
X114248571Y-30743904D02*
X113867619Y-30743904D01*
X113867619Y-30743904D02*
X113867619Y-29943904D01*
%TO.C,TP30*%
X107089286Y-42898904D02*
X107355953Y-43698904D01*
X107355953Y-43698904D02*
X107622619Y-42898904D01*
X107889286Y-43698904D02*
X107889286Y-43165571D01*
X107889286Y-43317952D02*
X107927381Y-43241761D01*
X107927381Y-43241761D02*
X107965476Y-43203666D01*
X107965476Y-43203666D02*
X108041667Y-43165571D01*
X108041667Y-43165571D02*
X108117857Y-43165571D01*
X108689286Y-43660809D02*
X108613095Y-43698904D01*
X108613095Y-43698904D02*
X108460714Y-43698904D01*
X108460714Y-43698904D02*
X108384524Y-43660809D01*
X108384524Y-43660809D02*
X108346428Y-43584619D01*
X108346428Y-43584619D02*
X108346428Y-43279857D01*
X108346428Y-43279857D02*
X108384524Y-43203666D01*
X108384524Y-43203666D02*
X108460714Y-43165571D01*
X108460714Y-43165571D02*
X108613095Y-43165571D01*
X108613095Y-43165571D02*
X108689286Y-43203666D01*
X108689286Y-43203666D02*
X108727381Y-43279857D01*
X108727381Y-43279857D02*
X108727381Y-43356047D01*
X108727381Y-43356047D02*
X108346428Y-43432238D01*
X108955952Y-43165571D02*
X109260714Y-43165571D01*
X109070238Y-43698904D02*
X109070238Y-43013190D01*
X109070238Y-43013190D02*
X109108333Y-42937000D01*
X109108333Y-42937000D02*
X109184523Y-42898904D01*
X109184523Y-42898904D02*
X109260714Y-42898904D01*
%TO.C,R25*%
X118053904Y-51054285D02*
X117672952Y-51320952D01*
X118053904Y-51511428D02*
X117253904Y-51511428D01*
X117253904Y-51511428D02*
X117253904Y-51206666D01*
X117253904Y-51206666D02*
X117292000Y-51130476D01*
X117292000Y-51130476D02*
X117330095Y-51092381D01*
X117330095Y-51092381D02*
X117406285Y-51054285D01*
X117406285Y-51054285D02*
X117520571Y-51054285D01*
X117520571Y-51054285D02*
X117596761Y-51092381D01*
X117596761Y-51092381D02*
X117634857Y-51130476D01*
X117634857Y-51130476D02*
X117672952Y-51206666D01*
X117672952Y-51206666D02*
X117672952Y-51511428D01*
X117330095Y-50749524D02*
X117292000Y-50711428D01*
X117292000Y-50711428D02*
X117253904Y-50635238D01*
X117253904Y-50635238D02*
X117253904Y-50444762D01*
X117253904Y-50444762D02*
X117292000Y-50368571D01*
X117292000Y-50368571D02*
X117330095Y-50330476D01*
X117330095Y-50330476D02*
X117406285Y-50292381D01*
X117406285Y-50292381D02*
X117482476Y-50292381D01*
X117482476Y-50292381D02*
X117596761Y-50330476D01*
X117596761Y-50330476D02*
X118053904Y-50787619D01*
X118053904Y-50787619D02*
X118053904Y-50292381D01*
X117253904Y-49568571D02*
X117253904Y-49949523D01*
X117253904Y-49949523D02*
X117634857Y-49987619D01*
X117634857Y-49987619D02*
X117596761Y-49949523D01*
X117596761Y-49949523D02*
X117558666Y-49873333D01*
X117558666Y-49873333D02*
X117558666Y-49682857D01*
X117558666Y-49682857D02*
X117596761Y-49606666D01*
X117596761Y-49606666D02*
X117634857Y-49568571D01*
X117634857Y-49568571D02*
X117711047Y-49530476D01*
X117711047Y-49530476D02*
X117901523Y-49530476D01*
X117901523Y-49530476D02*
X117977714Y-49568571D01*
X117977714Y-49568571D02*
X118015809Y-49606666D01*
X118015809Y-49606666D02*
X118053904Y-49682857D01*
X118053904Y-49682857D02*
X118053904Y-49873333D01*
X118053904Y-49873333D02*
X118015809Y-49949523D01*
X118015809Y-49949523D02*
X117977714Y-49987619D01*
%TO.C,U2*%
X109586095Y-47100476D02*
X108938476Y-47100476D01*
X108938476Y-47100476D02*
X108862285Y-47138571D01*
X108862285Y-47138571D02*
X108824190Y-47176666D01*
X108824190Y-47176666D02*
X108786095Y-47252857D01*
X108786095Y-47252857D02*
X108786095Y-47405238D01*
X108786095Y-47405238D02*
X108824190Y-47481428D01*
X108824190Y-47481428D02*
X108862285Y-47519523D01*
X108862285Y-47519523D02*
X108938476Y-47557619D01*
X108938476Y-47557619D02*
X109586095Y-47557619D01*
X109509904Y-47900475D02*
X109548000Y-47938571D01*
X109548000Y-47938571D02*
X109586095Y-48014761D01*
X109586095Y-48014761D02*
X109586095Y-48205237D01*
X109586095Y-48205237D02*
X109548000Y-48281428D01*
X109548000Y-48281428D02*
X109509904Y-48319523D01*
X109509904Y-48319523D02*
X109433714Y-48357618D01*
X109433714Y-48357618D02*
X109357523Y-48357618D01*
X109357523Y-48357618D02*
X109243238Y-48319523D01*
X109243238Y-48319523D02*
X108786095Y-47862380D01*
X108786095Y-47862380D02*
X108786095Y-48357618D01*
%TO.C,R35*%
X108746714Y-22706904D02*
X108480047Y-22325952D01*
X108289571Y-22706904D02*
X108289571Y-21906904D01*
X108289571Y-21906904D02*
X108594333Y-21906904D01*
X108594333Y-21906904D02*
X108670523Y-21945000D01*
X108670523Y-21945000D02*
X108708618Y-21983095D01*
X108708618Y-21983095D02*
X108746714Y-22059285D01*
X108746714Y-22059285D02*
X108746714Y-22173571D01*
X108746714Y-22173571D02*
X108708618Y-22249761D01*
X108708618Y-22249761D02*
X108670523Y-22287857D01*
X108670523Y-22287857D02*
X108594333Y-22325952D01*
X108594333Y-22325952D02*
X108289571Y-22325952D01*
X109013380Y-21906904D02*
X109508618Y-21906904D01*
X109508618Y-21906904D02*
X109241952Y-22211666D01*
X109241952Y-22211666D02*
X109356237Y-22211666D01*
X109356237Y-22211666D02*
X109432428Y-22249761D01*
X109432428Y-22249761D02*
X109470523Y-22287857D01*
X109470523Y-22287857D02*
X109508618Y-22364047D01*
X109508618Y-22364047D02*
X109508618Y-22554523D01*
X109508618Y-22554523D02*
X109470523Y-22630714D01*
X109470523Y-22630714D02*
X109432428Y-22668809D01*
X109432428Y-22668809D02*
X109356237Y-22706904D01*
X109356237Y-22706904D02*
X109127666Y-22706904D01*
X109127666Y-22706904D02*
X109051475Y-22668809D01*
X109051475Y-22668809D02*
X109013380Y-22630714D01*
X110232428Y-21906904D02*
X109851476Y-21906904D01*
X109851476Y-21906904D02*
X109813380Y-22287857D01*
X109813380Y-22287857D02*
X109851476Y-22249761D01*
X109851476Y-22249761D02*
X109927666Y-22211666D01*
X109927666Y-22211666D02*
X110118142Y-22211666D01*
X110118142Y-22211666D02*
X110194333Y-22249761D01*
X110194333Y-22249761D02*
X110232428Y-22287857D01*
X110232428Y-22287857D02*
X110270523Y-22364047D01*
X110270523Y-22364047D02*
X110270523Y-22554523D01*
X110270523Y-22554523D02*
X110232428Y-22630714D01*
X110232428Y-22630714D02*
X110194333Y-22668809D01*
X110194333Y-22668809D02*
X110118142Y-22706904D01*
X110118142Y-22706904D02*
X109927666Y-22706904D01*
X109927666Y-22706904D02*
X109851476Y-22668809D01*
X109851476Y-22668809D02*
X109813380Y-22630714D01*
%TO.C,R10*%
X101903904Y-71694285D02*
X101522952Y-71960952D01*
X101903904Y-72151428D02*
X101103904Y-72151428D01*
X101103904Y-72151428D02*
X101103904Y-71846666D01*
X101103904Y-71846666D02*
X101142000Y-71770476D01*
X101142000Y-71770476D02*
X101180095Y-71732381D01*
X101180095Y-71732381D02*
X101256285Y-71694285D01*
X101256285Y-71694285D02*
X101370571Y-71694285D01*
X101370571Y-71694285D02*
X101446761Y-71732381D01*
X101446761Y-71732381D02*
X101484857Y-71770476D01*
X101484857Y-71770476D02*
X101522952Y-71846666D01*
X101522952Y-71846666D02*
X101522952Y-72151428D01*
X101903904Y-70932381D02*
X101903904Y-71389524D01*
X101903904Y-71160952D02*
X101103904Y-71160952D01*
X101103904Y-71160952D02*
X101218190Y-71237143D01*
X101218190Y-71237143D02*
X101294380Y-71313333D01*
X101294380Y-71313333D02*
X101332476Y-71389524D01*
X101103904Y-70437142D02*
X101103904Y-70360952D01*
X101103904Y-70360952D02*
X101142000Y-70284761D01*
X101142000Y-70284761D02*
X101180095Y-70246666D01*
X101180095Y-70246666D02*
X101256285Y-70208571D01*
X101256285Y-70208571D02*
X101408666Y-70170476D01*
X101408666Y-70170476D02*
X101599142Y-70170476D01*
X101599142Y-70170476D02*
X101751523Y-70208571D01*
X101751523Y-70208571D02*
X101827714Y-70246666D01*
X101827714Y-70246666D02*
X101865809Y-70284761D01*
X101865809Y-70284761D02*
X101903904Y-70360952D01*
X101903904Y-70360952D02*
X101903904Y-70437142D01*
X101903904Y-70437142D02*
X101865809Y-70513333D01*
X101865809Y-70513333D02*
X101827714Y-70551428D01*
X101827714Y-70551428D02*
X101751523Y-70589523D01*
X101751523Y-70589523D02*
X101599142Y-70627619D01*
X101599142Y-70627619D02*
X101408666Y-70627619D01*
X101408666Y-70627619D02*
X101256285Y-70589523D01*
X101256285Y-70589523D02*
X101180095Y-70551428D01*
X101180095Y-70551428D02*
X101142000Y-70513333D01*
X101142000Y-70513333D02*
X101103904Y-70437142D01*
%TO.C,C8*%
X116667714Y-51013332D02*
X116705809Y-51051428D01*
X116705809Y-51051428D02*
X116743904Y-51165713D01*
X116743904Y-51165713D02*
X116743904Y-51241904D01*
X116743904Y-51241904D02*
X116705809Y-51356190D01*
X116705809Y-51356190D02*
X116629619Y-51432380D01*
X116629619Y-51432380D02*
X116553428Y-51470475D01*
X116553428Y-51470475D02*
X116401047Y-51508571D01*
X116401047Y-51508571D02*
X116286761Y-51508571D01*
X116286761Y-51508571D02*
X116134380Y-51470475D01*
X116134380Y-51470475D02*
X116058190Y-51432380D01*
X116058190Y-51432380D02*
X115982000Y-51356190D01*
X115982000Y-51356190D02*
X115943904Y-51241904D01*
X115943904Y-51241904D02*
X115943904Y-51165713D01*
X115943904Y-51165713D02*
X115982000Y-51051428D01*
X115982000Y-51051428D02*
X116020095Y-51013332D01*
X116286761Y-50556190D02*
X116248666Y-50632380D01*
X116248666Y-50632380D02*
X116210571Y-50670475D01*
X116210571Y-50670475D02*
X116134380Y-50708571D01*
X116134380Y-50708571D02*
X116096285Y-50708571D01*
X116096285Y-50708571D02*
X116020095Y-50670475D01*
X116020095Y-50670475D02*
X115982000Y-50632380D01*
X115982000Y-50632380D02*
X115943904Y-50556190D01*
X115943904Y-50556190D02*
X115943904Y-50403809D01*
X115943904Y-50403809D02*
X115982000Y-50327618D01*
X115982000Y-50327618D02*
X116020095Y-50289523D01*
X116020095Y-50289523D02*
X116096285Y-50251428D01*
X116096285Y-50251428D02*
X116134380Y-50251428D01*
X116134380Y-50251428D02*
X116210571Y-50289523D01*
X116210571Y-50289523D02*
X116248666Y-50327618D01*
X116248666Y-50327618D02*
X116286761Y-50403809D01*
X116286761Y-50403809D02*
X116286761Y-50556190D01*
X116286761Y-50556190D02*
X116324857Y-50632380D01*
X116324857Y-50632380D02*
X116362952Y-50670475D01*
X116362952Y-50670475D02*
X116439142Y-50708571D01*
X116439142Y-50708571D02*
X116591523Y-50708571D01*
X116591523Y-50708571D02*
X116667714Y-50670475D01*
X116667714Y-50670475D02*
X116705809Y-50632380D01*
X116705809Y-50632380D02*
X116743904Y-50556190D01*
X116743904Y-50556190D02*
X116743904Y-50403809D01*
X116743904Y-50403809D02*
X116705809Y-50327618D01*
X116705809Y-50327618D02*
X116667714Y-50289523D01*
X116667714Y-50289523D02*
X116591523Y-50251428D01*
X116591523Y-50251428D02*
X116439142Y-50251428D01*
X116439142Y-50251428D02*
X116362952Y-50289523D01*
X116362952Y-50289523D02*
X116324857Y-50327618D01*
X116324857Y-50327618D02*
X116286761Y-50403809D01*
%TO.C,R5*%
X113713904Y-45823332D02*
X113332952Y-46089999D01*
X113713904Y-46280475D02*
X112913904Y-46280475D01*
X112913904Y-46280475D02*
X112913904Y-45975713D01*
X112913904Y-45975713D02*
X112952000Y-45899523D01*
X112952000Y-45899523D02*
X112990095Y-45861428D01*
X112990095Y-45861428D02*
X113066285Y-45823332D01*
X113066285Y-45823332D02*
X113180571Y-45823332D01*
X113180571Y-45823332D02*
X113256761Y-45861428D01*
X113256761Y-45861428D02*
X113294857Y-45899523D01*
X113294857Y-45899523D02*
X113332952Y-45975713D01*
X113332952Y-45975713D02*
X113332952Y-46280475D01*
X112913904Y-45099523D02*
X112913904Y-45480475D01*
X112913904Y-45480475D02*
X113294857Y-45518571D01*
X113294857Y-45518571D02*
X113256761Y-45480475D01*
X113256761Y-45480475D02*
X113218666Y-45404285D01*
X113218666Y-45404285D02*
X113218666Y-45213809D01*
X113218666Y-45213809D02*
X113256761Y-45137618D01*
X113256761Y-45137618D02*
X113294857Y-45099523D01*
X113294857Y-45099523D02*
X113371047Y-45061428D01*
X113371047Y-45061428D02*
X113561523Y-45061428D01*
X113561523Y-45061428D02*
X113637714Y-45099523D01*
X113637714Y-45099523D02*
X113675809Y-45137618D01*
X113675809Y-45137618D02*
X113713904Y-45213809D01*
X113713904Y-45213809D02*
X113713904Y-45404285D01*
X113713904Y-45404285D02*
X113675809Y-45480475D01*
X113675809Y-45480475D02*
X113637714Y-45518571D01*
%TO.C,TP11*%
X121533904Y-36822380D02*
X121533904Y-37203332D01*
X121533904Y-37203332D02*
X121914857Y-37241428D01*
X121914857Y-37241428D02*
X121876761Y-37203332D01*
X121876761Y-37203332D02*
X121838666Y-37127142D01*
X121838666Y-37127142D02*
X121838666Y-36936666D01*
X121838666Y-36936666D02*
X121876761Y-36860475D01*
X121876761Y-36860475D02*
X121914857Y-36822380D01*
X121914857Y-36822380D02*
X121991047Y-36784285D01*
X121991047Y-36784285D02*
X122181523Y-36784285D01*
X122181523Y-36784285D02*
X122257714Y-36822380D01*
X122257714Y-36822380D02*
X122295809Y-36860475D01*
X122295809Y-36860475D02*
X122333904Y-36936666D01*
X122333904Y-36936666D02*
X122333904Y-37127142D01*
X122333904Y-37127142D02*
X122295809Y-37203332D01*
X122295809Y-37203332D02*
X122257714Y-37241428D01*
X121533904Y-36555713D02*
X122333904Y-36289046D01*
X122333904Y-36289046D02*
X121533904Y-36022380D01*
%TO.C,R6*%
X118803904Y-74953332D02*
X118422952Y-75219999D01*
X118803904Y-75410475D02*
X118003904Y-75410475D01*
X118003904Y-75410475D02*
X118003904Y-75105713D01*
X118003904Y-75105713D02*
X118042000Y-75029523D01*
X118042000Y-75029523D02*
X118080095Y-74991428D01*
X118080095Y-74991428D02*
X118156285Y-74953332D01*
X118156285Y-74953332D02*
X118270571Y-74953332D01*
X118270571Y-74953332D02*
X118346761Y-74991428D01*
X118346761Y-74991428D02*
X118384857Y-75029523D01*
X118384857Y-75029523D02*
X118422952Y-75105713D01*
X118422952Y-75105713D02*
X118422952Y-75410475D01*
X118003904Y-74267618D02*
X118003904Y-74419999D01*
X118003904Y-74419999D02*
X118042000Y-74496190D01*
X118042000Y-74496190D02*
X118080095Y-74534285D01*
X118080095Y-74534285D02*
X118194380Y-74610475D01*
X118194380Y-74610475D02*
X118346761Y-74648571D01*
X118346761Y-74648571D02*
X118651523Y-74648571D01*
X118651523Y-74648571D02*
X118727714Y-74610475D01*
X118727714Y-74610475D02*
X118765809Y-74572380D01*
X118765809Y-74572380D02*
X118803904Y-74496190D01*
X118803904Y-74496190D02*
X118803904Y-74343809D01*
X118803904Y-74343809D02*
X118765809Y-74267618D01*
X118765809Y-74267618D02*
X118727714Y-74229523D01*
X118727714Y-74229523D02*
X118651523Y-74191428D01*
X118651523Y-74191428D02*
X118461047Y-74191428D01*
X118461047Y-74191428D02*
X118384857Y-74229523D01*
X118384857Y-74229523D02*
X118346761Y-74267618D01*
X118346761Y-74267618D02*
X118308666Y-74343809D01*
X118308666Y-74343809D02*
X118308666Y-74496190D01*
X118308666Y-74496190D02*
X118346761Y-74572380D01*
X118346761Y-74572380D02*
X118384857Y-74610475D01*
X118384857Y-74610475D02*
X118461047Y-74648571D01*
%TO.C,TP20*%
X120472000Y-36819523D02*
X120433904Y-36895713D01*
X120433904Y-36895713D02*
X120433904Y-37009999D01*
X120433904Y-37009999D02*
X120472000Y-37124285D01*
X120472000Y-37124285D02*
X120548190Y-37200475D01*
X120548190Y-37200475D02*
X120624380Y-37238570D01*
X120624380Y-37238570D02*
X120776761Y-37276666D01*
X120776761Y-37276666D02*
X120891047Y-37276666D01*
X120891047Y-37276666D02*
X121043428Y-37238570D01*
X121043428Y-37238570D02*
X121119619Y-37200475D01*
X121119619Y-37200475D02*
X121195809Y-37124285D01*
X121195809Y-37124285D02*
X121233904Y-37009999D01*
X121233904Y-37009999D02*
X121233904Y-36933808D01*
X121233904Y-36933808D02*
X121195809Y-36819523D01*
X121195809Y-36819523D02*
X121157714Y-36781427D01*
X121157714Y-36781427D02*
X120891047Y-36781427D01*
X120891047Y-36781427D02*
X120891047Y-36933808D01*
X121233904Y-36438570D02*
X120433904Y-36438570D01*
X120433904Y-36438570D02*
X121233904Y-35981427D01*
X121233904Y-35981427D02*
X120433904Y-35981427D01*
X121233904Y-35600475D02*
X120433904Y-35600475D01*
X120433904Y-35600475D02*
X120433904Y-35409999D01*
X120433904Y-35409999D02*
X120472000Y-35295713D01*
X120472000Y-35295713D02*
X120548190Y-35219523D01*
X120548190Y-35219523D02*
X120624380Y-35181428D01*
X120624380Y-35181428D02*
X120776761Y-35143332D01*
X120776761Y-35143332D02*
X120891047Y-35143332D01*
X120891047Y-35143332D02*
X121043428Y-35181428D01*
X121043428Y-35181428D02*
X121119619Y-35219523D01*
X121119619Y-35219523D02*
X121195809Y-35295713D01*
X121195809Y-35295713D02*
X121233904Y-35409999D01*
X121233904Y-35409999D02*
X121233904Y-35600475D01*
%TO.C,R13*%
X124225714Y-42353904D02*
X123959047Y-41972952D01*
X123768571Y-42353904D02*
X123768571Y-41553904D01*
X123768571Y-41553904D02*
X124073333Y-41553904D01*
X124073333Y-41553904D02*
X124149523Y-41592000D01*
X124149523Y-41592000D02*
X124187618Y-41630095D01*
X124187618Y-41630095D02*
X124225714Y-41706285D01*
X124225714Y-41706285D02*
X124225714Y-41820571D01*
X124225714Y-41820571D02*
X124187618Y-41896761D01*
X124187618Y-41896761D02*
X124149523Y-41934857D01*
X124149523Y-41934857D02*
X124073333Y-41972952D01*
X124073333Y-41972952D02*
X123768571Y-41972952D01*
X124987618Y-42353904D02*
X124530475Y-42353904D01*
X124759047Y-42353904D02*
X124759047Y-41553904D01*
X124759047Y-41553904D02*
X124682856Y-41668190D01*
X124682856Y-41668190D02*
X124606666Y-41744380D01*
X124606666Y-41744380D02*
X124530475Y-41782476D01*
X125254285Y-41553904D02*
X125749523Y-41553904D01*
X125749523Y-41553904D02*
X125482857Y-41858666D01*
X125482857Y-41858666D02*
X125597142Y-41858666D01*
X125597142Y-41858666D02*
X125673333Y-41896761D01*
X125673333Y-41896761D02*
X125711428Y-41934857D01*
X125711428Y-41934857D02*
X125749523Y-42011047D01*
X125749523Y-42011047D02*
X125749523Y-42201523D01*
X125749523Y-42201523D02*
X125711428Y-42277714D01*
X125711428Y-42277714D02*
X125673333Y-42315809D01*
X125673333Y-42315809D02*
X125597142Y-42353904D01*
X125597142Y-42353904D02*
X125368571Y-42353904D01*
X125368571Y-42353904D02*
X125292380Y-42315809D01*
X125292380Y-42315809D02*
X125254285Y-42277714D01*
%TO.C,R20*%
X118723904Y-46214285D02*
X118342952Y-46480952D01*
X118723904Y-46671428D02*
X117923904Y-46671428D01*
X117923904Y-46671428D02*
X117923904Y-46366666D01*
X117923904Y-46366666D02*
X117962000Y-46290476D01*
X117962000Y-46290476D02*
X118000095Y-46252381D01*
X118000095Y-46252381D02*
X118076285Y-46214285D01*
X118076285Y-46214285D02*
X118190571Y-46214285D01*
X118190571Y-46214285D02*
X118266761Y-46252381D01*
X118266761Y-46252381D02*
X118304857Y-46290476D01*
X118304857Y-46290476D02*
X118342952Y-46366666D01*
X118342952Y-46366666D02*
X118342952Y-46671428D01*
X118000095Y-45909524D02*
X117962000Y-45871428D01*
X117962000Y-45871428D02*
X117923904Y-45795238D01*
X117923904Y-45795238D02*
X117923904Y-45604762D01*
X117923904Y-45604762D02*
X117962000Y-45528571D01*
X117962000Y-45528571D02*
X118000095Y-45490476D01*
X118000095Y-45490476D02*
X118076285Y-45452381D01*
X118076285Y-45452381D02*
X118152476Y-45452381D01*
X118152476Y-45452381D02*
X118266761Y-45490476D01*
X118266761Y-45490476D02*
X118723904Y-45947619D01*
X118723904Y-45947619D02*
X118723904Y-45452381D01*
X117923904Y-44957142D02*
X117923904Y-44880952D01*
X117923904Y-44880952D02*
X117962000Y-44804761D01*
X117962000Y-44804761D02*
X118000095Y-44766666D01*
X118000095Y-44766666D02*
X118076285Y-44728571D01*
X118076285Y-44728571D02*
X118228666Y-44690476D01*
X118228666Y-44690476D02*
X118419142Y-44690476D01*
X118419142Y-44690476D02*
X118571523Y-44728571D01*
X118571523Y-44728571D02*
X118647714Y-44766666D01*
X118647714Y-44766666D02*
X118685809Y-44804761D01*
X118685809Y-44804761D02*
X118723904Y-44880952D01*
X118723904Y-44880952D02*
X118723904Y-44957142D01*
X118723904Y-44957142D02*
X118685809Y-45033333D01*
X118685809Y-45033333D02*
X118647714Y-45071428D01*
X118647714Y-45071428D02*
X118571523Y-45109523D01*
X118571523Y-45109523D02*
X118419142Y-45147619D01*
X118419142Y-45147619D02*
X118228666Y-45147619D01*
X118228666Y-45147619D02*
X118076285Y-45109523D01*
X118076285Y-45109523D02*
X118000095Y-45071428D01*
X118000095Y-45071428D02*
X117962000Y-45033333D01*
X117962000Y-45033333D02*
X117923904Y-44957142D01*
%TO.C,R32*%
X102883904Y-34304285D02*
X102502952Y-34570952D01*
X102883904Y-34761428D02*
X102083904Y-34761428D01*
X102083904Y-34761428D02*
X102083904Y-34456666D01*
X102083904Y-34456666D02*
X102122000Y-34380476D01*
X102122000Y-34380476D02*
X102160095Y-34342381D01*
X102160095Y-34342381D02*
X102236285Y-34304285D01*
X102236285Y-34304285D02*
X102350571Y-34304285D01*
X102350571Y-34304285D02*
X102426761Y-34342381D01*
X102426761Y-34342381D02*
X102464857Y-34380476D01*
X102464857Y-34380476D02*
X102502952Y-34456666D01*
X102502952Y-34456666D02*
X102502952Y-34761428D01*
X102083904Y-34037619D02*
X102083904Y-33542381D01*
X102083904Y-33542381D02*
X102388666Y-33809047D01*
X102388666Y-33809047D02*
X102388666Y-33694762D01*
X102388666Y-33694762D02*
X102426761Y-33618571D01*
X102426761Y-33618571D02*
X102464857Y-33580476D01*
X102464857Y-33580476D02*
X102541047Y-33542381D01*
X102541047Y-33542381D02*
X102731523Y-33542381D01*
X102731523Y-33542381D02*
X102807714Y-33580476D01*
X102807714Y-33580476D02*
X102845809Y-33618571D01*
X102845809Y-33618571D02*
X102883904Y-33694762D01*
X102883904Y-33694762D02*
X102883904Y-33923333D01*
X102883904Y-33923333D02*
X102845809Y-33999524D01*
X102845809Y-33999524D02*
X102807714Y-34037619D01*
X102160095Y-33237619D02*
X102122000Y-33199523D01*
X102122000Y-33199523D02*
X102083904Y-33123333D01*
X102083904Y-33123333D02*
X102083904Y-32932857D01*
X102083904Y-32932857D02*
X102122000Y-32856666D01*
X102122000Y-32856666D02*
X102160095Y-32818571D01*
X102160095Y-32818571D02*
X102236285Y-32780476D01*
X102236285Y-32780476D02*
X102312476Y-32780476D01*
X102312476Y-32780476D02*
X102426761Y-32818571D01*
X102426761Y-32818571D02*
X102883904Y-33275714D01*
X102883904Y-33275714D02*
X102883904Y-32780476D01*
%TO.C,R42*%
X121093904Y-54784285D02*
X120712952Y-55050952D01*
X121093904Y-55241428D02*
X120293904Y-55241428D01*
X120293904Y-55241428D02*
X120293904Y-54936666D01*
X120293904Y-54936666D02*
X120332000Y-54860476D01*
X120332000Y-54860476D02*
X120370095Y-54822381D01*
X120370095Y-54822381D02*
X120446285Y-54784285D01*
X120446285Y-54784285D02*
X120560571Y-54784285D01*
X120560571Y-54784285D02*
X120636761Y-54822381D01*
X120636761Y-54822381D02*
X120674857Y-54860476D01*
X120674857Y-54860476D02*
X120712952Y-54936666D01*
X120712952Y-54936666D02*
X120712952Y-55241428D01*
X120560571Y-54098571D02*
X121093904Y-54098571D01*
X120255809Y-54289047D02*
X120827238Y-54479524D01*
X120827238Y-54479524D02*
X120827238Y-53984285D01*
X120370095Y-53717619D02*
X120332000Y-53679523D01*
X120332000Y-53679523D02*
X120293904Y-53603333D01*
X120293904Y-53603333D02*
X120293904Y-53412857D01*
X120293904Y-53412857D02*
X120332000Y-53336666D01*
X120332000Y-53336666D02*
X120370095Y-53298571D01*
X120370095Y-53298571D02*
X120446285Y-53260476D01*
X120446285Y-53260476D02*
X120522476Y-53260476D01*
X120522476Y-53260476D02*
X120636761Y-53298571D01*
X120636761Y-53298571D02*
X121093904Y-53755714D01*
X121093904Y-53755714D02*
X121093904Y-53260476D01*
%TO.C,TP1*%
X107553810Y-70713904D02*
X107287143Y-70332952D01*
X107096667Y-70713904D02*
X107096667Y-69913904D01*
X107096667Y-69913904D02*
X107401429Y-69913904D01*
X107401429Y-69913904D02*
X107477619Y-69952000D01*
X107477619Y-69952000D02*
X107515714Y-69990095D01*
X107515714Y-69990095D02*
X107553810Y-70066285D01*
X107553810Y-70066285D02*
X107553810Y-70180571D01*
X107553810Y-70180571D02*
X107515714Y-70256761D01*
X107515714Y-70256761D02*
X107477619Y-70294857D01*
X107477619Y-70294857D02*
X107401429Y-70332952D01*
X107401429Y-70332952D02*
X107096667Y-70332952D01*
X107858571Y-70485333D02*
X108239524Y-70485333D01*
X107782381Y-70713904D02*
X108049048Y-69913904D01*
X108049048Y-69913904D02*
X108315714Y-70713904D01*
X108734762Y-69913904D02*
X108810952Y-69913904D01*
X108810952Y-69913904D02*
X108887143Y-69952000D01*
X108887143Y-69952000D02*
X108925238Y-69990095D01*
X108925238Y-69990095D02*
X108963333Y-70066285D01*
X108963333Y-70066285D02*
X109001428Y-70218666D01*
X109001428Y-70218666D02*
X109001428Y-70409142D01*
X109001428Y-70409142D02*
X108963333Y-70561523D01*
X108963333Y-70561523D02*
X108925238Y-70637714D01*
X108925238Y-70637714D02*
X108887143Y-70675809D01*
X108887143Y-70675809D02*
X108810952Y-70713904D01*
X108810952Y-70713904D02*
X108734762Y-70713904D01*
X108734762Y-70713904D02*
X108658571Y-70675809D01*
X108658571Y-70675809D02*
X108620476Y-70637714D01*
X108620476Y-70637714D02*
X108582381Y-70561523D01*
X108582381Y-70561523D02*
X108544285Y-70409142D01*
X108544285Y-70409142D02*
X108544285Y-70218666D01*
X108544285Y-70218666D02*
X108582381Y-70066285D01*
X108582381Y-70066285D02*
X108620476Y-69990095D01*
X108620476Y-69990095D02*
X108658571Y-69952000D01*
X108658571Y-69952000D02*
X108734762Y-69913904D01*
%TO.C,C7*%
X122456667Y-78377714D02*
X122418571Y-78415809D01*
X122418571Y-78415809D02*
X122304286Y-78453904D01*
X122304286Y-78453904D02*
X122228095Y-78453904D01*
X122228095Y-78453904D02*
X122113809Y-78415809D01*
X122113809Y-78415809D02*
X122037619Y-78339619D01*
X122037619Y-78339619D02*
X121999524Y-78263428D01*
X121999524Y-78263428D02*
X121961428Y-78111047D01*
X121961428Y-78111047D02*
X121961428Y-77996761D01*
X121961428Y-77996761D02*
X121999524Y-77844380D01*
X121999524Y-77844380D02*
X122037619Y-77768190D01*
X122037619Y-77768190D02*
X122113809Y-77692000D01*
X122113809Y-77692000D02*
X122228095Y-77653904D01*
X122228095Y-77653904D02*
X122304286Y-77653904D01*
X122304286Y-77653904D02*
X122418571Y-77692000D01*
X122418571Y-77692000D02*
X122456667Y-77730095D01*
X122723333Y-77653904D02*
X123256667Y-77653904D01*
X123256667Y-77653904D02*
X122913809Y-78453904D01*
%TO.C,R2*%
X109106667Y-55953904D02*
X108840000Y-55572952D01*
X108649524Y-55953904D02*
X108649524Y-55153904D01*
X108649524Y-55153904D02*
X108954286Y-55153904D01*
X108954286Y-55153904D02*
X109030476Y-55192000D01*
X109030476Y-55192000D02*
X109068571Y-55230095D01*
X109068571Y-55230095D02*
X109106667Y-55306285D01*
X109106667Y-55306285D02*
X109106667Y-55420571D01*
X109106667Y-55420571D02*
X109068571Y-55496761D01*
X109068571Y-55496761D02*
X109030476Y-55534857D01*
X109030476Y-55534857D02*
X108954286Y-55572952D01*
X108954286Y-55572952D02*
X108649524Y-55572952D01*
X109411428Y-55230095D02*
X109449524Y-55192000D01*
X109449524Y-55192000D02*
X109525714Y-55153904D01*
X109525714Y-55153904D02*
X109716190Y-55153904D01*
X109716190Y-55153904D02*
X109792381Y-55192000D01*
X109792381Y-55192000D02*
X109830476Y-55230095D01*
X109830476Y-55230095D02*
X109868571Y-55306285D01*
X109868571Y-55306285D02*
X109868571Y-55382476D01*
X109868571Y-55382476D02*
X109830476Y-55496761D01*
X109830476Y-55496761D02*
X109373333Y-55953904D01*
X109373333Y-55953904D02*
X109868571Y-55953904D01*
%TO.C,C14*%
X116645714Y-22627714D02*
X116607618Y-22665809D01*
X116607618Y-22665809D02*
X116493333Y-22703904D01*
X116493333Y-22703904D02*
X116417142Y-22703904D01*
X116417142Y-22703904D02*
X116302856Y-22665809D01*
X116302856Y-22665809D02*
X116226666Y-22589619D01*
X116226666Y-22589619D02*
X116188571Y-22513428D01*
X116188571Y-22513428D02*
X116150475Y-22361047D01*
X116150475Y-22361047D02*
X116150475Y-22246761D01*
X116150475Y-22246761D02*
X116188571Y-22094380D01*
X116188571Y-22094380D02*
X116226666Y-22018190D01*
X116226666Y-22018190D02*
X116302856Y-21942000D01*
X116302856Y-21942000D02*
X116417142Y-21903904D01*
X116417142Y-21903904D02*
X116493333Y-21903904D01*
X116493333Y-21903904D02*
X116607618Y-21942000D01*
X116607618Y-21942000D02*
X116645714Y-21980095D01*
X117407618Y-22703904D02*
X116950475Y-22703904D01*
X117179047Y-22703904D02*
X117179047Y-21903904D01*
X117179047Y-21903904D02*
X117102856Y-22018190D01*
X117102856Y-22018190D02*
X117026666Y-22094380D01*
X117026666Y-22094380D02*
X116950475Y-22132476D01*
X118093333Y-22170571D02*
X118093333Y-22703904D01*
X117902857Y-21865809D02*
X117712380Y-22437238D01*
X117712380Y-22437238D02*
X118207619Y-22437238D01*
%TO.C,TP16*%
X99601429Y-57373904D02*
X99601429Y-56573904D01*
X100439524Y-57297714D02*
X100401428Y-57335809D01*
X100401428Y-57335809D02*
X100287143Y-57373904D01*
X100287143Y-57373904D02*
X100210952Y-57373904D01*
X100210952Y-57373904D02*
X100096666Y-57335809D01*
X100096666Y-57335809D02*
X100020476Y-57259619D01*
X100020476Y-57259619D02*
X99982381Y-57183428D01*
X99982381Y-57183428D02*
X99944285Y-57031047D01*
X99944285Y-57031047D02*
X99944285Y-56916761D01*
X99944285Y-56916761D02*
X99982381Y-56764380D01*
X99982381Y-56764380D02*
X100020476Y-56688190D01*
X100020476Y-56688190D02*
X100096666Y-56612000D01*
X100096666Y-56612000D02*
X100210952Y-56573904D01*
X100210952Y-56573904D02*
X100287143Y-56573904D01*
X100287143Y-56573904D02*
X100401428Y-56612000D01*
X100401428Y-56612000D02*
X100439524Y-56650095D01*
X100744285Y-57335809D02*
X100858571Y-57373904D01*
X100858571Y-57373904D02*
X101049047Y-57373904D01*
X101049047Y-57373904D02*
X101125238Y-57335809D01*
X101125238Y-57335809D02*
X101163333Y-57297714D01*
X101163333Y-57297714D02*
X101201428Y-57221523D01*
X101201428Y-57221523D02*
X101201428Y-57145333D01*
X101201428Y-57145333D02*
X101163333Y-57069142D01*
X101163333Y-57069142D02*
X101125238Y-57031047D01*
X101125238Y-57031047D02*
X101049047Y-56992952D01*
X101049047Y-56992952D02*
X100896666Y-56954857D01*
X100896666Y-56954857D02*
X100820476Y-56916761D01*
X100820476Y-56916761D02*
X100782381Y-56878666D01*
X100782381Y-56878666D02*
X100744285Y-56802476D01*
X100744285Y-56802476D02*
X100744285Y-56726285D01*
X100744285Y-56726285D02*
X100782381Y-56650095D01*
X100782381Y-56650095D02*
X100820476Y-56612000D01*
X100820476Y-56612000D02*
X100896666Y-56573904D01*
X100896666Y-56573904D02*
X101087143Y-56573904D01*
X101087143Y-56573904D02*
X101201428Y-56612000D01*
X101544286Y-57373904D02*
X101544286Y-56573904D01*
X101544286Y-56573904D02*
X101734762Y-56573904D01*
X101734762Y-56573904D02*
X101849048Y-56612000D01*
X101849048Y-56612000D02*
X101925238Y-56688190D01*
X101925238Y-56688190D02*
X101963333Y-56764380D01*
X101963333Y-56764380D02*
X102001429Y-56916761D01*
X102001429Y-56916761D02*
X102001429Y-57031047D01*
X102001429Y-57031047D02*
X101963333Y-57183428D01*
X101963333Y-57183428D02*
X101925238Y-57259619D01*
X101925238Y-57259619D02*
X101849048Y-57335809D01*
X101849048Y-57335809D02*
X101734762Y-57373904D01*
X101734762Y-57373904D02*
X101544286Y-57373904D01*
X102306190Y-57145333D02*
X102687143Y-57145333D01*
X102230000Y-57373904D02*
X102496667Y-56573904D01*
X102496667Y-56573904D02*
X102763333Y-57373904D01*
X102915714Y-56573904D02*
X103372857Y-56573904D01*
X103144285Y-57373904D02*
X103144285Y-56573904D01*
%TO.C,R33*%
X105985714Y-23293904D02*
X105719047Y-22912952D01*
X105528571Y-23293904D02*
X105528571Y-22493904D01*
X105528571Y-22493904D02*
X105833333Y-22493904D01*
X105833333Y-22493904D02*
X105909523Y-22532000D01*
X105909523Y-22532000D02*
X105947618Y-22570095D01*
X105947618Y-22570095D02*
X105985714Y-22646285D01*
X105985714Y-22646285D02*
X105985714Y-22760571D01*
X105985714Y-22760571D02*
X105947618Y-22836761D01*
X105947618Y-22836761D02*
X105909523Y-22874857D01*
X105909523Y-22874857D02*
X105833333Y-22912952D01*
X105833333Y-22912952D02*
X105528571Y-22912952D01*
X106252380Y-22493904D02*
X106747618Y-22493904D01*
X106747618Y-22493904D02*
X106480952Y-22798666D01*
X106480952Y-22798666D02*
X106595237Y-22798666D01*
X106595237Y-22798666D02*
X106671428Y-22836761D01*
X106671428Y-22836761D02*
X106709523Y-22874857D01*
X106709523Y-22874857D02*
X106747618Y-22951047D01*
X106747618Y-22951047D02*
X106747618Y-23141523D01*
X106747618Y-23141523D02*
X106709523Y-23217714D01*
X106709523Y-23217714D02*
X106671428Y-23255809D01*
X106671428Y-23255809D02*
X106595237Y-23293904D01*
X106595237Y-23293904D02*
X106366666Y-23293904D01*
X106366666Y-23293904D02*
X106290475Y-23255809D01*
X106290475Y-23255809D02*
X106252380Y-23217714D01*
X107014285Y-22493904D02*
X107509523Y-22493904D01*
X107509523Y-22493904D02*
X107242857Y-22798666D01*
X107242857Y-22798666D02*
X107357142Y-22798666D01*
X107357142Y-22798666D02*
X107433333Y-22836761D01*
X107433333Y-22836761D02*
X107471428Y-22874857D01*
X107471428Y-22874857D02*
X107509523Y-22951047D01*
X107509523Y-22951047D02*
X107509523Y-23141523D01*
X107509523Y-23141523D02*
X107471428Y-23217714D01*
X107471428Y-23217714D02*
X107433333Y-23255809D01*
X107433333Y-23255809D02*
X107357142Y-23293904D01*
X107357142Y-23293904D02*
X107128571Y-23293904D01*
X107128571Y-23293904D02*
X107052380Y-23255809D01*
X107052380Y-23255809D02*
X107014285Y-23217714D01*
%TO.C,R31*%
X100843904Y-33854285D02*
X100462952Y-34120952D01*
X100843904Y-34311428D02*
X100043904Y-34311428D01*
X100043904Y-34311428D02*
X100043904Y-34006666D01*
X100043904Y-34006666D02*
X100082000Y-33930476D01*
X100082000Y-33930476D02*
X100120095Y-33892381D01*
X100120095Y-33892381D02*
X100196285Y-33854285D01*
X100196285Y-33854285D02*
X100310571Y-33854285D01*
X100310571Y-33854285D02*
X100386761Y-33892381D01*
X100386761Y-33892381D02*
X100424857Y-33930476D01*
X100424857Y-33930476D02*
X100462952Y-34006666D01*
X100462952Y-34006666D02*
X100462952Y-34311428D01*
X100043904Y-33587619D02*
X100043904Y-33092381D01*
X100043904Y-33092381D02*
X100348666Y-33359047D01*
X100348666Y-33359047D02*
X100348666Y-33244762D01*
X100348666Y-33244762D02*
X100386761Y-33168571D01*
X100386761Y-33168571D02*
X100424857Y-33130476D01*
X100424857Y-33130476D02*
X100501047Y-33092381D01*
X100501047Y-33092381D02*
X100691523Y-33092381D01*
X100691523Y-33092381D02*
X100767714Y-33130476D01*
X100767714Y-33130476D02*
X100805809Y-33168571D01*
X100805809Y-33168571D02*
X100843904Y-33244762D01*
X100843904Y-33244762D02*
X100843904Y-33473333D01*
X100843904Y-33473333D02*
X100805809Y-33549524D01*
X100805809Y-33549524D02*
X100767714Y-33587619D01*
X100843904Y-32330476D02*
X100843904Y-32787619D01*
X100843904Y-32559047D02*
X100043904Y-32559047D01*
X100043904Y-32559047D02*
X100158190Y-32635238D01*
X100158190Y-32635238D02*
X100234380Y-32711428D01*
X100234380Y-32711428D02*
X100272476Y-32787619D01*
%TO.C,R7*%
X114263904Y-50763332D02*
X113882952Y-51029999D01*
X114263904Y-51220475D02*
X113463904Y-51220475D01*
X113463904Y-51220475D02*
X113463904Y-50915713D01*
X113463904Y-50915713D02*
X113502000Y-50839523D01*
X113502000Y-50839523D02*
X113540095Y-50801428D01*
X113540095Y-50801428D02*
X113616285Y-50763332D01*
X113616285Y-50763332D02*
X113730571Y-50763332D01*
X113730571Y-50763332D02*
X113806761Y-50801428D01*
X113806761Y-50801428D02*
X113844857Y-50839523D01*
X113844857Y-50839523D02*
X113882952Y-50915713D01*
X113882952Y-50915713D02*
X113882952Y-51220475D01*
X113463904Y-50496666D02*
X113463904Y-49963332D01*
X113463904Y-49963332D02*
X114263904Y-50306190D01*
%TO.C,D4*%
X116879524Y-32513904D02*
X116879524Y-31713904D01*
X116879524Y-31713904D02*
X117070000Y-31713904D01*
X117070000Y-31713904D02*
X117184286Y-31752000D01*
X117184286Y-31752000D02*
X117260476Y-31828190D01*
X117260476Y-31828190D02*
X117298571Y-31904380D01*
X117298571Y-31904380D02*
X117336667Y-32056761D01*
X117336667Y-32056761D02*
X117336667Y-32171047D01*
X117336667Y-32171047D02*
X117298571Y-32323428D01*
X117298571Y-32323428D02*
X117260476Y-32399619D01*
X117260476Y-32399619D02*
X117184286Y-32475809D01*
X117184286Y-32475809D02*
X117070000Y-32513904D01*
X117070000Y-32513904D02*
X116879524Y-32513904D01*
X118022381Y-31980571D02*
X118022381Y-32513904D01*
X117831905Y-31675809D02*
X117641428Y-32247238D01*
X117641428Y-32247238D02*
X118136667Y-32247238D01*
%TO.C,C6*%
X103526667Y-78237714D02*
X103488571Y-78275809D01*
X103488571Y-78275809D02*
X103374286Y-78313904D01*
X103374286Y-78313904D02*
X103298095Y-78313904D01*
X103298095Y-78313904D02*
X103183809Y-78275809D01*
X103183809Y-78275809D02*
X103107619Y-78199619D01*
X103107619Y-78199619D02*
X103069524Y-78123428D01*
X103069524Y-78123428D02*
X103031428Y-77971047D01*
X103031428Y-77971047D02*
X103031428Y-77856761D01*
X103031428Y-77856761D02*
X103069524Y-77704380D01*
X103069524Y-77704380D02*
X103107619Y-77628190D01*
X103107619Y-77628190D02*
X103183809Y-77552000D01*
X103183809Y-77552000D02*
X103298095Y-77513904D01*
X103298095Y-77513904D02*
X103374286Y-77513904D01*
X103374286Y-77513904D02*
X103488571Y-77552000D01*
X103488571Y-77552000D02*
X103526667Y-77590095D01*
X104212381Y-77513904D02*
X104060000Y-77513904D01*
X104060000Y-77513904D02*
X103983809Y-77552000D01*
X103983809Y-77552000D02*
X103945714Y-77590095D01*
X103945714Y-77590095D02*
X103869524Y-77704380D01*
X103869524Y-77704380D02*
X103831428Y-77856761D01*
X103831428Y-77856761D02*
X103831428Y-78161523D01*
X103831428Y-78161523D02*
X103869524Y-78237714D01*
X103869524Y-78237714D02*
X103907619Y-78275809D01*
X103907619Y-78275809D02*
X103983809Y-78313904D01*
X103983809Y-78313904D02*
X104136190Y-78313904D01*
X104136190Y-78313904D02*
X104212381Y-78275809D01*
X104212381Y-78275809D02*
X104250476Y-78237714D01*
X104250476Y-78237714D02*
X104288571Y-78161523D01*
X104288571Y-78161523D02*
X104288571Y-77971047D01*
X104288571Y-77971047D02*
X104250476Y-77894857D01*
X104250476Y-77894857D02*
X104212381Y-77856761D01*
X104212381Y-77856761D02*
X104136190Y-77818666D01*
X104136190Y-77818666D02*
X103983809Y-77818666D01*
X103983809Y-77818666D02*
X103907619Y-77856761D01*
X103907619Y-77856761D02*
X103869524Y-77894857D01*
X103869524Y-77894857D02*
X103831428Y-77971047D01*
%TO.C,TP31*%
X120328572Y-70573904D02*
X120061905Y-70192952D01*
X119871429Y-70573904D02*
X119871429Y-69773904D01*
X119871429Y-69773904D02*
X120176191Y-69773904D01*
X120176191Y-69773904D02*
X120252381Y-69812000D01*
X120252381Y-69812000D02*
X120290476Y-69850095D01*
X120290476Y-69850095D02*
X120328572Y-69926285D01*
X120328572Y-69926285D02*
X120328572Y-70040571D01*
X120328572Y-70040571D02*
X120290476Y-70116761D01*
X120290476Y-70116761D02*
X120252381Y-70154857D01*
X120252381Y-70154857D02*
X120176191Y-70192952D01*
X120176191Y-70192952D02*
X119871429Y-70192952D01*
X121128572Y-70497714D02*
X121090476Y-70535809D01*
X121090476Y-70535809D02*
X120976191Y-70573904D01*
X120976191Y-70573904D02*
X120900000Y-70573904D01*
X120900000Y-70573904D02*
X120785714Y-70535809D01*
X120785714Y-70535809D02*
X120709524Y-70459619D01*
X120709524Y-70459619D02*
X120671429Y-70383428D01*
X120671429Y-70383428D02*
X120633333Y-70231047D01*
X120633333Y-70231047D02*
X120633333Y-70116761D01*
X120633333Y-70116761D02*
X120671429Y-69964380D01*
X120671429Y-69964380D02*
X120709524Y-69888190D01*
X120709524Y-69888190D02*
X120785714Y-69812000D01*
X120785714Y-69812000D02*
X120900000Y-69773904D01*
X120900000Y-69773904D02*
X120976191Y-69773904D01*
X120976191Y-69773904D02*
X121090476Y-69812000D01*
X121090476Y-69812000D02*
X121128572Y-69850095D01*
X121623810Y-69773904D02*
X121776191Y-69773904D01*
X121776191Y-69773904D02*
X121852381Y-69812000D01*
X121852381Y-69812000D02*
X121928572Y-69888190D01*
X121928572Y-69888190D02*
X121966667Y-70040571D01*
X121966667Y-70040571D02*
X121966667Y-70307238D01*
X121966667Y-70307238D02*
X121928572Y-70459619D01*
X121928572Y-70459619D02*
X121852381Y-70535809D01*
X121852381Y-70535809D02*
X121776191Y-70573904D01*
X121776191Y-70573904D02*
X121623810Y-70573904D01*
X121623810Y-70573904D02*
X121547619Y-70535809D01*
X121547619Y-70535809D02*
X121471429Y-70459619D01*
X121471429Y-70459619D02*
X121433333Y-70307238D01*
X121433333Y-70307238D02*
X121433333Y-70040571D01*
X121433333Y-70040571D02*
X121471429Y-69888190D01*
X121471429Y-69888190D02*
X121547619Y-69812000D01*
X121547619Y-69812000D02*
X121623810Y-69773904D01*
%TO.C,C1*%
X120046667Y-46997714D02*
X120008571Y-47035809D01*
X120008571Y-47035809D02*
X119894286Y-47073904D01*
X119894286Y-47073904D02*
X119818095Y-47073904D01*
X119818095Y-47073904D02*
X119703809Y-47035809D01*
X119703809Y-47035809D02*
X119627619Y-46959619D01*
X119627619Y-46959619D02*
X119589524Y-46883428D01*
X119589524Y-46883428D02*
X119551428Y-46731047D01*
X119551428Y-46731047D02*
X119551428Y-46616761D01*
X119551428Y-46616761D02*
X119589524Y-46464380D01*
X119589524Y-46464380D02*
X119627619Y-46388190D01*
X119627619Y-46388190D02*
X119703809Y-46312000D01*
X119703809Y-46312000D02*
X119818095Y-46273904D01*
X119818095Y-46273904D02*
X119894286Y-46273904D01*
X119894286Y-46273904D02*
X120008571Y-46312000D01*
X120008571Y-46312000D02*
X120046667Y-46350095D01*
X120808571Y-47073904D02*
X120351428Y-47073904D01*
X120580000Y-47073904D02*
X120580000Y-46273904D01*
X120580000Y-46273904D02*
X120503809Y-46388190D01*
X120503809Y-46388190D02*
X120427619Y-46464380D01*
X120427619Y-46464380D02*
X120351428Y-46502476D01*
D11*
%TO.C,TP12*%
X108944833Y-57290000D02*
G75*
G03*
X108944833Y-57290000I-374833J0D01*
G01*
%TO.C,R14*%
X126785000Y-55971359D02*
X126785000Y-56278641D01*
X126025000Y-55971359D02*
X126025000Y-56278641D01*
%TO.C,TP25*%
X115554833Y-57430000D02*
G75*
G03*
X115554833Y-57430000I-374833J0D01*
G01*
%TO.C,TP15*%
X105530833Y-56642000D02*
G75*
G03*
X105530833Y-56642000I-374833J0D01*
G01*
%TO.C,C13*%
X109502836Y-26715000D02*
X109287164Y-26715000D01*
X109502836Y-25995000D02*
X109287164Y-25995000D01*
D12*
%TO.C,U1*%
X104350000Y-69360000D02*
X104350000Y-67510000D01*
X104330000Y-67160000D02*
X104330000Y-60360000D01*
X122230000Y-67160000D02*
X104330000Y-67160000D01*
X104330000Y-60360000D02*
X122230000Y-60360000D01*
X122230000Y-60360000D02*
X122230000Y-67160000D01*
D13*
X103767500Y-69140000D02*
G75*
G03*
X103767500Y-69140000I-237500J0D01*
G01*
D11*
%TO.C,TP24*%
X108279833Y-52915000D02*
G75*
G03*
X108279833Y-52915000I-374833J0D01*
G01*
%TO.C,R36*%
X117302258Y-27707500D02*
X116827742Y-27707500D01*
X117302258Y-26662500D02*
X116827742Y-26662500D01*
%TO.C,U3*%
D14*
X113937500Y-43665000D02*
G75*
G03*
X113937500Y-43665000I-262500J0D01*
G01*
D11*
%TO.C,TP19*%
X127599833Y-41855000D02*
G75*
G03*
X127599833Y-41855000I-374833J0D01*
G01*
%TO.C,TP5*%
X109014833Y-73820000D02*
G75*
G03*
X109014833Y-73820000I-374833J0D01*
G01*
%TO.C,R22*%
X117205000Y-72981359D02*
X117205000Y-73288641D01*
X116445000Y-72981359D02*
X116445000Y-73288641D01*
%TO.C,TP2*%
X107114833Y-71990000D02*
G75*
G03*
X107114833Y-71990000I-374833J0D01*
G01*
%TO.C,R1*%
X104217742Y-53742500D02*
X104692258Y-53742500D01*
X104217742Y-54787500D02*
X104692258Y-54787500D01*
%TO.C,D2*%
X111950000Y-35966000D02*
X111950000Y-35810000D01*
X111950000Y-33650000D02*
X111950000Y-33494000D01*
X108717666Y-35808608D02*
G75*
G03*
X111949999Y-35965515I1672334J1078608D01*
G01*
X109348871Y-35809836D02*
G75*
G03*
X111430960Y-35809999I1041129J1079836D01*
G01*
X111430960Y-33650001D02*
G75*
G03*
X109348871Y-33650164I-1040960J-1079999D01*
G01*
X111949999Y-33494485D02*
G75*
G03*
X108717666Y-33651392I-1559999J-1235515D01*
G01*
D13*
X108697500Y-36530000D02*
G75*
G03*
X108697500Y-36530000I-237500J0D01*
G01*
D11*
%TO.C,TP38*%
X119374833Y-57460000D02*
G75*
G03*
X119374833Y-57460000I-374833J0D01*
G01*
%TO.C,R17*%
X119815000Y-41838641D02*
X119815000Y-41531359D01*
X120575000Y-41838641D02*
X120575000Y-41531359D01*
%TO.C,TP27*%
X116452833Y-71628000D02*
G75*
G03*
X116452833Y-71628000I-374833J0D01*
G01*
%TO.C,J6*%
X99775000Y-45655000D02*
X99775000Y-47455000D01*
X98325000Y-45655000D02*
X99775000Y-45655000D01*
X95505000Y-46925000D02*
X95505000Y-51605000D01*
X99775000Y-47455000D02*
X100765000Y-47455000D01*
X99775000Y-52875000D02*
X99775000Y-51075000D01*
X98325000Y-52875000D02*
X99775000Y-52875000D01*
D13*
X100632500Y-46755000D02*
G75*
G03*
X100632500Y-46755000I-237500J0D01*
G01*
D11*
%TO.C,R11*%
X104605000Y-70958641D02*
X104605000Y-70651359D01*
X105365000Y-70958641D02*
X105365000Y-70651359D01*
%TO.C,TP22*%
X102274833Y-50750000D02*
G75*
G03*
X102274833Y-50750000I-374833J0D01*
G01*
%TO.C,R40*%
X110408641Y-39455000D02*
X110101359Y-39455000D01*
X110408641Y-38695000D02*
X110101359Y-38695000D01*
%TO.C,R39*%
X110428641Y-40545000D02*
X110121359Y-40545000D01*
X110428641Y-39785000D02*
X110121359Y-39785000D01*
%TO.C,TP33*%
X124529833Y-57055000D02*
G75*
G03*
X124529833Y-57055000I-374833J0D01*
G01*
%TO.C,TP4*%
X107184833Y-74300000D02*
G75*
G03*
X107184833Y-74300000I-374833J0D01*
G01*
%TO.C,TP9*%
X122514833Y-72410000D02*
G75*
G03*
X122514833Y-72410000I-374833J0D01*
G01*
%TO.C,C2*%
X102642836Y-74505000D02*
X102427164Y-74505000D01*
X102642836Y-73785000D02*
X102427164Y-73785000D01*
D12*
%TO.C,Y2*%
X107565000Y-76805000D02*
X118965000Y-76805000D01*
X107565000Y-77555000D02*
X107565000Y-76805000D01*
X107565000Y-81505000D02*
X107565000Y-80755000D01*
X118965000Y-76805000D02*
X118965000Y-77555000D01*
X118965000Y-80755000D02*
X118965000Y-81505000D01*
X118965000Y-81505000D02*
X107565000Y-81505000D01*
%TO.C,U4*%
X104075000Y-27255000D02*
X105575000Y-27255000D01*
X105925000Y-27385000D02*
X109125000Y-27385000D01*
X105925000Y-32285000D02*
X105925000Y-27385000D01*
X109125000Y-27385000D02*
X109125000Y-32285000D01*
X109125000Y-32285000D02*
X105925000Y-32285000D01*
D13*
X103732500Y-27915000D02*
G75*
G03*
X103732500Y-27915000I-237500J0D01*
G01*
D11*
%TO.C,TP29*%
X109814833Y-49900000D02*
G75*
G03*
X109814833Y-49900000I-374833J0D01*
G01*
%TO.C,TP6*%
X110594833Y-74520000D02*
G75*
G03*
X110594833Y-74520000I-374833J0D01*
G01*
%TO.C,R34*%
X105332500Y-24882742D02*
X105332500Y-25357258D01*
X104287500Y-24882742D02*
X104287500Y-25357258D01*
%TO.C,TP3*%
X107214833Y-73130000D02*
G75*
G03*
X107214833Y-73130000I-374833J0D01*
G01*
%TO.C,TP17*%
X115182833Y-31750000D02*
G75*
G03*
X115182833Y-31750000I-374833J0D01*
G01*
%TO.C,R4*%
X102775000Y-48441359D02*
X102775000Y-48748641D01*
X102015000Y-48441359D02*
X102015000Y-48748641D01*
D15*
%TO.C,R16*%
X122375000Y-40285000D02*
X122375000Y-41745000D01*
X121255000Y-40285000D02*
X121255000Y-41745000D01*
D11*
%TO.C,TP39*%
X118104833Y-57460000D02*
G75*
G03*
X118104833Y-57460000I-374833J0D01*
G01*
%TO.C,R37*%
X116132258Y-29597500D02*
X115657742Y-29597500D01*
X116132258Y-28552500D02*
X115657742Y-28552500D01*
%TO.C,TP26*%
X117722833Y-71628000D02*
G75*
G03*
X117722833Y-71628000I-374833J0D01*
G01*
%TO.C,J4*%
X124465000Y-53765000D02*
X126465000Y-53765000D01*
X128365000Y-53765000D02*
X130265000Y-53765000D01*
X130265000Y-53765000D02*
X130265000Y-44365000D01*
X124465000Y-44365000D02*
X126465000Y-44365000D01*
X128365000Y-44365000D02*
X130265000Y-44365000D01*
D16*
X121785000Y-53115000D02*
G75*
G03*
X121785000Y-53115000I-180000J0D01*
G01*
D11*
%TO.C,R29*%
X105942258Y-36067500D02*
X105467742Y-36067500D01*
X105942258Y-35022500D02*
X105467742Y-35022500D01*
%TO.C,R38*%
X119205000Y-39858641D02*
X119205000Y-39551359D01*
X119965000Y-39858641D02*
X119965000Y-39551359D01*
%TO.C,JP1*%
X105235000Y-74955000D02*
X104635000Y-74955000D01*
X103935000Y-74255000D02*
X103935000Y-72855000D01*
X105935000Y-72855000D02*
X105935000Y-74255000D01*
X104635000Y-72155000D02*
X105235000Y-72155000D01*
X103935000Y-74255000D02*
G75*
G03*
X104635000Y-74955000I699999J-1D01*
G01*
X105235000Y-74955000D02*
G75*
G03*
X105935000Y-74255000I1J699999D01*
G01*
X104635000Y-72155000D02*
G75*
G03*
X103935000Y-72855000I0J-700000D01*
G01*
X105935000Y-72855000D02*
G75*
G03*
X105235000Y-72155000I-700000J0D01*
G01*
%TO.C,R30*%
X105487742Y-33232500D02*
X105962258Y-33232500D01*
X105487742Y-34277500D02*
X105962258Y-34277500D01*
%TO.C,TP8*%
X120954833Y-72200000D02*
G75*
G03*
X120954833Y-72200000I-374833J0D01*
G01*
%TO.C,TP32*%
X116124833Y-48540000D02*
G75*
G03*
X116124833Y-48540000I-374833J0D01*
G01*
%TO.C,R21*%
X104421359Y-43835000D02*
X104728641Y-43835000D01*
X104421359Y-44595000D02*
X104728641Y-44595000D01*
%TO.C,C5*%
X115510000Y-55742164D02*
X115510000Y-55957836D01*
X114790000Y-55742164D02*
X114790000Y-55957836D01*
%TO.C,TP7*%
X118814833Y-48510000D02*
G75*
G03*
X118814833Y-48510000I-374833J0D01*
G01*
%TO.C,TP23*%
X104429833Y-52925000D02*
G75*
G03*
X104429833Y-52925000I-374833J0D01*
G01*
%TO.C,R26*%
X118627500Y-55777258D02*
X118627500Y-55302742D01*
X119672500Y-55777258D02*
X119672500Y-55302742D01*
%TO.C,TP21*%
X102659833Y-46275000D02*
G75*
G03*
X102659833Y-46275000I-374833J0D01*
G01*
%TO.C,TP10*%
X107574833Y-57310000D02*
G75*
G03*
X107574833Y-57310000I-374833J0D01*
G01*
%TO.C,SBU2*%
X125424833Y-55690000D02*
G75*
G03*
X125424833Y-55690000I-374833J0D01*
G01*
%TO.C,TP18*%
X115182833Y-30480000D02*
G75*
G03*
X115182833Y-30480000I-374833J0D01*
G01*
%TO.C,TP30*%
X108334833Y-44350000D02*
G75*
G03*
X108334833Y-44350000I-374833J0D01*
G01*
%TO.C,R25*%
X117092500Y-55837258D02*
X117092500Y-55362742D01*
X118137500Y-55837258D02*
X118137500Y-55362742D01*
D12*
%TO.C,U2*%
X103430000Y-52085000D02*
X103430000Y-50585000D01*
X103560000Y-50235000D02*
X103560000Y-47035000D01*
X108460000Y-50235000D02*
X103560000Y-50235000D01*
X103560000Y-47035000D02*
X108460000Y-47035000D01*
X108460000Y-47035000D02*
X108460000Y-50235000D01*
D13*
X102947500Y-51275000D02*
G75*
G03*
X102947500Y-51275000I-237500J0D01*
G01*
D11*
%TO.C,R35*%
X108902742Y-23097500D02*
X109377258Y-23097500D01*
X108902742Y-24142500D02*
X109377258Y-24142500D01*
%TO.C,R10*%
X102951359Y-70865000D02*
X103258641Y-70865000D01*
X102951359Y-71625000D02*
X103258641Y-71625000D01*
%TO.C,C8*%
X116700000Y-55722164D02*
X116700000Y-55937836D01*
X115980000Y-55722164D02*
X115980000Y-55937836D01*
%TO.C,R5*%
X115182500Y-45642742D02*
X115182500Y-46117258D01*
X114137500Y-45642742D02*
X114137500Y-46117258D01*
%TO.C,TP11*%
X122204833Y-37930000D02*
G75*
G03*
X122204833Y-37930000I-374833J0D01*
G01*
%TO.C,R6*%
X118725000Y-72951359D02*
X118725000Y-73258641D01*
X117965000Y-72951359D02*
X117965000Y-73258641D01*
%TO.C,TP20*%
X121024833Y-37846000D02*
G75*
G03*
X121024833Y-37846000I-374833J0D01*
G01*
%TO.C,R13*%
X124713641Y-43440000D02*
X124406359Y-43440000D01*
X124713641Y-42680000D02*
X124406359Y-42680000D01*
%TO.C,R20*%
X117397500Y-45627742D02*
X117397500Y-46102258D01*
X116352500Y-45627742D02*
X116352500Y-46102258D01*
%TO.C,R32*%
X102272500Y-30312258D02*
X102272500Y-29837742D01*
X103317500Y-30312258D02*
X103317500Y-29837742D01*
%TO.C,R42*%
X120290000Y-56553641D02*
X120290000Y-56246359D01*
X121050000Y-56553641D02*
X121050000Y-56246359D01*
%TO.C,TP1*%
X106800833Y-70612000D02*
G75*
G03*
X106800833Y-70612000I-374833J0D01*
G01*
%TO.C,C7*%
X122702164Y-78660000D02*
X122917836Y-78660000D01*
X122702164Y-79380000D02*
X122917836Y-79380000D01*
%TO.C,R2*%
X107852258Y-54787500D02*
X107377742Y-54787500D01*
X107852258Y-53742500D02*
X107377742Y-53742500D01*
%TO.C,C14*%
X109502836Y-25685000D02*
X109287164Y-25685000D01*
X109502836Y-24965000D02*
X109287164Y-24965000D01*
%TO.C,TP16*%
X104260833Y-57150000D02*
G75*
G03*
X104260833Y-57150000I-374833J0D01*
G01*
%TO.C,R33*%
X105767500Y-25317258D02*
X105767500Y-24842742D01*
X106812500Y-25317258D02*
X106812500Y-24842742D01*
%TO.C,R31*%
X101487500Y-30577742D02*
X101487500Y-31052258D01*
X100442500Y-30577742D02*
X100442500Y-31052258D01*
%TO.C,R7*%
X114367500Y-55537742D02*
X114367500Y-56012258D01*
X113322500Y-55537742D02*
X113322500Y-56012258D01*
%TO.C,D4*%
X114920000Y-33474000D02*
X114920000Y-33630000D01*
X114920000Y-35790000D02*
X114920000Y-35946000D01*
X118152334Y-33631392D02*
G75*
G03*
X114920001Y-33474485I-1672334J-1078608D01*
G01*
X117521129Y-33630164D02*
G75*
G03*
X115439040Y-33630001I-1041129J-1079836D01*
G01*
X115439040Y-35789999D02*
G75*
G03*
X117521129Y-35789836I1040960J1079999D01*
G01*
X114920001Y-35945515D02*
G75*
G03*
X118152334Y-35788608I1559999J1235515D01*
G01*
D13*
X118747500Y-33110000D02*
G75*
G03*
X118747500Y-33110000I-237500J0D01*
G01*
D11*
%TO.C,C6*%
X103877836Y-79230000D02*
X103662164Y-79230000D01*
X103877836Y-78510000D02*
X103662164Y-78510000D01*
%TO.C,TP31*%
X119246833Y-71120000D02*
G75*
G03*
X119246833Y-71120000I-374833J0D01*
G01*
%TO.C,C1*%
X120122836Y-45995000D02*
X119907164Y-45995000D01*
X120122836Y-45275000D02*
X119907164Y-45275000D01*
%TD*%
D17*
X99575000Y-70405000D02*
X98315000Y-59845000D01*
X127275000Y-67245000D02*
X126405000Y-72885000D01*
X113155000Y-21015000D02*
X120425000Y-21345000D01*
X95177500Y-45452500D02*
X97702500Y-45467500D01*
X124405000Y-80835000D02*
X120905000Y-83535000D01*
X126405000Y-72885000D02*
X125395000Y-78155000D01*
X105135000Y-83395000D02*
X101945000Y-80795000D01*
X120905000Y-83535000D02*
X120115000Y-83685000D01*
X95177500Y-45452500D02*
X95180000Y-53062500D01*
X101945000Y-80795000D02*
X101185000Y-79165000D01*
X104065000Y-22155000D02*
X105665000Y-21385000D01*
X128195000Y-58465000D02*
X128355000Y-53832500D01*
X106335000Y-83685000D02*
X105135000Y-83395000D01*
X120425000Y-21345000D02*
X122185000Y-22175000D01*
X128355000Y-53832500D02*
X130300000Y-53827500D01*
X105665000Y-21385000D02*
X113155000Y-21015000D01*
X128195000Y-58465000D02*
X127975000Y-61175000D01*
X98935000Y-30435000D02*
X104065000Y-22155000D01*
X98935000Y-30435000D02*
X97702500Y-45467500D01*
X101185000Y-79165000D02*
X99575000Y-70405000D01*
X98315000Y-59845000D02*
X98075000Y-56345000D01*
X127975000Y-61175000D02*
X127275000Y-67245000D01*
X127155000Y-30005000D02*
X122185000Y-22175000D01*
X130290000Y-44300000D02*
X128665000Y-44300000D01*
X130290000Y-44300000D02*
X130300000Y-53827500D01*
X120115000Y-83685000D02*
X106335000Y-83685000D01*
X95180000Y-53062500D02*
X97965000Y-53077500D01*
X125395000Y-78155000D02*
X125015000Y-79825000D01*
X127155000Y-30005000D02*
X128665000Y-44300000D01*
X98075000Y-56345000D02*
X97965000Y-53077500D01*
X125015000Y-79825000D02*
X124405000Y-80835000D01*
M02*
