%TF.GenerationSoftware,KiCad,Pcbnew,(7.0.0)*%
%TF.CreationDate,2023-06-26T15:04:23+05:30*%
%TF.ProjectId,EMO SN65 OBD,454d4f20-534e-4363-9520-4f42442e6b69,1*%
%TF.SameCoordinates,Original*%
%TF.FileFunction,Copper,L2,Bot*%
%TF.FilePolarity,Positive*%
%FSLAX46Y46*%
G04 Gerber Fmt 4.6, Leading zero omitted, Abs format (unit mm)*
G04 Created by KiCad (PCBNEW (7.0.0)) date 2023-06-26 15:04:23*
%MOMM*%
%LPD*%
G01*
G04 APERTURE LIST*
G04 Aperture macros list*
%AMRoundRect*
0 Rectangle with rounded corners*
0 $1 Rounding radius*
0 $2 $3 $4 $5 $6 $7 $8 $9 X,Y pos of 4 corners*
0 Add a 4 corners polygon primitive as box body*
4,1,4,$2,$3,$4,$5,$6,$7,$8,$9,$2,$3,0*
0 Add four circle primitives for the rounded corners*
1,1,$1+$1,$2,$3*
1,1,$1+$1,$4,$5*
1,1,$1+$1,$6,$7*
1,1,$1+$1,$8,$9*
0 Add four rect primitives between the rounded corners*
20,1,$1+$1,$2,$3,$4,$5,0*
20,1,$1+$1,$4,$5,$6,$7,0*
20,1,$1+$1,$6,$7,$8,$9,0*
20,1,$1+$1,$8,$9,$2,$3,0*%
G04 Aperture macros list end*
%TA.AperFunction,SMDPad,CuDef*%
%ADD10RoundRect,0.135000X0.185000X-0.135000X0.185000X0.135000X-0.185000X0.135000X-0.185000X-0.135000X0*%
%TD*%
%TA.AperFunction,SMDPad,CuDef*%
%ADD11C,1.000000*%
%TD*%
%TA.AperFunction,ComponentPad*%
%ADD12R,1.800000X1.800000*%
%TD*%
%TA.AperFunction,ComponentPad*%
%ADD13C,1.800000*%
%TD*%
%TA.AperFunction,ComponentPad*%
%ADD14O,2.100000X1.000000*%
%TD*%
%TA.AperFunction,ComponentPad*%
%ADD15O,1.600000X1.000000*%
%TD*%
%TA.AperFunction,SMDPad,CuDef*%
%ADD16RoundRect,0.140000X-0.140000X-0.170000X0.140000X-0.170000X0.140000X0.170000X-0.140000X0.170000X0*%
%TD*%
%TA.AperFunction,SMDPad,CuDef*%
%ADD17RoundRect,0.135000X-0.185000X0.135000X-0.185000X-0.135000X0.185000X-0.135000X0.185000X0.135000X0*%
%TD*%
%TA.AperFunction,SMDPad,CuDef*%
%ADD18RoundRect,0.135000X0.135000X0.185000X-0.135000X0.185000X-0.135000X-0.185000X0.135000X-0.185000X0*%
%TD*%
%TA.AperFunction,SMDPad,CuDef*%
%ADD19RoundRect,0.140000X0.140000X0.170000X-0.140000X0.170000X-0.140000X-0.170000X0.140000X-0.170000X0*%
%TD*%
%TA.AperFunction,ComponentPad*%
%ADD20R,1.000000X1.000000*%
%TD*%
%TA.AperFunction,ComponentPad*%
%ADD21O,1.000000X1.000000*%
%TD*%
%TA.AperFunction,SMDPad,CuDef*%
%ADD22RoundRect,0.218750X-0.218750X-0.256250X0.218750X-0.256250X0.218750X0.256250X-0.218750X0.256250X0*%
%TD*%
%TA.AperFunction,SMDPad,CuDef*%
%ADD23RoundRect,0.140000X0.170000X-0.140000X0.170000X0.140000X-0.170000X0.140000X-0.170000X-0.140000X0*%
%TD*%
%TA.AperFunction,SMDPad,CuDef*%
%ADD24RoundRect,0.200000X-0.275000X0.200000X-0.275000X-0.200000X0.275000X-0.200000X0.275000X0.200000X0*%
%TD*%
%TA.AperFunction,SMDPad,CuDef*%
%ADD25RoundRect,0.250000X-0.262500X-0.450000X0.262500X-0.450000X0.262500X0.450000X-0.262500X0.450000X0*%
%TD*%
%TA.AperFunction,SMDPad,CuDef*%
%ADD26R,1.300000X0.600000*%
%TD*%
%TA.AperFunction,SMDPad,CuDef*%
%ADD27R,2.790000X0.740000*%
%TD*%
%TA.AperFunction,ViaPad*%
%ADD28C,0.600000*%
%TD*%
%TA.AperFunction,Conductor*%
%ADD29C,0.400000*%
%TD*%
%TA.AperFunction,Conductor*%
%ADD30C,0.500000*%
%TD*%
%TA.AperFunction,Conductor*%
%ADD31C,0.300000*%
%TD*%
%TA.AperFunction,Conductor*%
%ADD32C,0.600000*%
%TD*%
%TA.AperFunction,Profile*%
%ADD33C,0.100000*%
%TD*%
G04 APERTURE END LIST*
D10*
%TO.P,R24,1*%
%TO.N,SCL*%
X120142000Y-66804000D03*
%TO.P,R24,2*%
%TO.N,5V*%
X120142000Y-65784000D03*
%TD*%
D11*
%TO.P,REF\u002A\u002A,1*%
%TO.N,N/C*%
X121160000Y-23390000D03*
%TD*%
%TO.P,REF\u002A\u002A,1*%
%TO.N,N/C*%
X120310000Y-82130000D03*
%TD*%
%TO.P,REF\u002A\u002A,1*%
%TO.N,N/C*%
X106470000Y-82170000D03*
%TD*%
D12*
%TO.P,D2,1,K*%
%TO.N,GND*%
X111659999Y-34729999D03*
D13*
%TO.P,D2,2,A*%
%TO.N,Net-(D2-A)*%
X109120000Y-34730000D03*
%TD*%
D14*
%TO.P,J4,S1*%
%TO.N,N/C*%
X123234999Y-53384999D03*
D15*
X127414999Y-53384999D03*
D14*
X123234999Y-44744999D03*
D15*
X127414999Y-44744999D03*
%TD*%
D12*
%TO.P,D4,1,K*%
%TO.N,GND*%
X115209999Y-34709999D03*
D13*
%TO.P,D4,2,A*%
%TO.N,Net-(D4-A)*%
X117750000Y-34710000D03*
%TD*%
D16*
%TO.P,C10,1*%
%TO.N,GND*%
X115150000Y-43760000D03*
%TO.P,C10,2*%
%TO.N,Net-(U3-VDD)*%
X116110000Y-43760000D03*
%TD*%
D17*
%TO.P,R23,2*%
%TO.N,5V*%
X120142000Y-64264000D03*
%TO.P,R23,1*%
%TO.N,SDA*%
X120142000Y-63244000D03*
%TD*%
D18*
%TO.P,R8,1*%
%TO.N,SDA*%
X106290000Y-31750000D03*
%TO.P,R8,2*%
%TO.N,5V*%
X105270000Y-31750000D03*
%TD*%
D10*
%TO.P,R41,1*%
%TO.N,Net-(U1-RB0)*%
X111460000Y-55150001D03*
%TO.P,R41,2*%
%TO.N,Net-(D2-A)*%
X111460000Y-54130001D03*
%TD*%
D19*
%TO.P,C3,1*%
%TO.N,Net-(U2-VDD)*%
X106485000Y-47485000D03*
%TO.P,C3,2*%
%TO.N,GND*%
X105525000Y-47485000D03*
%TD*%
D18*
%TO.P,R12,1*%
%TO.N,SCL*%
X106280000Y-30500000D03*
%TO.P,R12,2*%
%TO.N,5V*%
X105260000Y-30500000D03*
%TD*%
D20*
%TO.P,J2,1,Pin_1*%
%TO.N,5V*%
X123879999Y-33479999D03*
D21*
%TO.P,J2,2,Pin_2*%
%TO.N,GND*%
X123879999Y-32209999D03*
%TO.P,J2,3,Pin_3*%
%TO.N,SDA*%
X123879999Y-30939999D03*
%TO.P,J2,4,Pin_4*%
%TO.N,SCL*%
X123879999Y-29669999D03*
%TD*%
D10*
%TO.P,R19,1*%
%TO.N,Net-(U3-VBUS)*%
X120180000Y-41280000D03*
%TO.P,R19,2*%
%TO.N,GND*%
X120180000Y-40260000D03*
%TD*%
D22*
%TO.P,D3,1,K*%
%TO.N,GND*%
X102712500Y-29090000D03*
%TO.P,D3,2,A*%
%TO.N,Net-(D3-A)*%
X104287500Y-29090000D03*
%TD*%
D23*
%TO.P,C12,1*%
%TO.N,GND*%
X118465000Y-44575000D03*
%TO.P,C12,2*%
%TO.N,Net-(U3-REGIN)*%
X118465000Y-43615000D03*
%TD*%
D24*
%TO.P,R27,1*%
%TO.N,ICSDAT*%
X103490000Y-64555000D03*
%TO.P,R27,2*%
%TO.N,Net-(J1-Pad04)*%
X103490000Y-66205000D03*
%TD*%
%TO.P,R3,1*%
%TO.N,5V*%
X108050000Y-45995000D03*
%TO.P,R3,2*%
%TO.N,Net-(U2-VDD)*%
X108050000Y-47645000D03*
%TD*%
D25*
%TO.P,R15,1*%
%TO.N,Net-(U3-REGIN)*%
X123332500Y-42405000D03*
%TO.P,R15,2*%
%TO.N,5V*%
X125157500Y-42405000D03*
%TD*%
D24*
%TO.P,R28,1*%
%TO.N,ICSPLK*%
X106185000Y-62250000D03*
%TO.P,R28,2*%
%TO.N,Net-(J1-Pad02)*%
X106185000Y-63900000D03*
%TD*%
D23*
%TO.P,C11,1*%
%TO.N,GND*%
X119665000Y-44595000D03*
%TO.P,C11,2*%
%TO.N,Net-(U3-REGIN)*%
X119665000Y-43635000D03*
%TD*%
D26*
%TO.P,D1,1,L1*%
%TO.N,D-*%
X116954999Y-49694999D03*
%TO.P,D1,2,VN*%
%TO.N,GND*%
X116954999Y-50644999D03*
%TO.P,D1,3,L2*%
%TO.N,unconnected-(D1-L2-Pad3)*%
X116954999Y-51594999D03*
%TO.P,D1,4,L3*%
%TO.N,unconnected-(D1-L3-Pad4)*%
X114554999Y-51594999D03*
%TO.P,D1,5,L4*%
%TO.N,+5.0V*%
X114554999Y-50644999D03*
%TO.P,D1,6,L5*%
%TO.N,D+*%
X114554999Y-49694999D03*
%TD*%
D10*
%TO.P,R18,1*%
%TO.N,Net-(U3-REGIN)*%
X121205000Y-42355000D03*
%TO.P,R18,2*%
%TO.N,Net-(U3-VBUS)*%
X121205000Y-41335000D03*
%TD*%
D27*
%TO.P,J1,01,01*%
%TO.N,+5.0V*%
X110239999Y-65709999D03*
%TO.P,J1,02,02*%
%TO.N,Net-(J1-Pad02)*%
X106169999Y-65709999D03*
%TO.P,J1,03,03*%
%TO.N,GND*%
X110239999Y-66979999D03*
%TO.P,J1,04,04*%
%TO.N,Net-(J1-Pad04)*%
X106169999Y-66979999D03*
%TO.P,J1,05,05*%
%TO.N,GND*%
X110239999Y-68249999D03*
%TO.P,J1,06,06*%
%TO.N,MCLR*%
X106169999Y-68249999D03*
%TD*%
D17*
%TO.P,R9,1*%
%TO.N,5V*%
X104690000Y-26530000D03*
%TO.P,R9,2*%
%TO.N,Net-(D3-A)*%
X104690000Y-27550000D03*
%TD*%
D19*
%TO.P,C4,1*%
%TO.N,Net-(U2-VDD)*%
X106445000Y-48695000D03*
%TO.P,C4,2*%
%TO.N,GND*%
X105485000Y-48695000D03*
%TD*%
%TO.P,C9,1*%
%TO.N,Net-(U3-VDD)*%
X116100000Y-45020000D03*
%TO.P,C9,2*%
%TO.N,GND*%
X115140000Y-45020000D03*
%TD*%
D28*
%TO.N,GND*%
X118400000Y-61160000D03*
X115160000Y-60980000D03*
%TO.N,5V*%
X102645000Y-69630000D03*
%TO.N,SDA*%
X119990000Y-62400000D03*
%TO.N,SCL*%
X121535000Y-66760000D03*
X109110000Y-61950000D03*
%TO.N,SDA*%
X108150000Y-60910000D03*
%TO.N,5V*%
X107330000Y-24050000D03*
X101315000Y-32955000D03*
X108240000Y-65060000D03*
X110390000Y-47680000D03*
X124783829Y-41130283D03*
%TO.N,GND*%
X114500000Y-41400000D03*
X116390000Y-54380000D03*
X104330000Y-40720000D03*
X105485000Y-49695000D03*
X114590000Y-39130000D03*
X115620000Y-40310000D03*
X117740000Y-29030000D03*
X121330000Y-34300000D03*
X115570000Y-41430000D03*
X120650000Y-39370000D03*
X104350000Y-37610000D03*
X118540000Y-45380000D03*
X121440000Y-54340000D03*
X123510000Y-77520000D03*
X103290000Y-77220000D03*
X118920000Y-25000000D03*
X119504750Y-51465250D03*
X111585000Y-82605000D03*
X116730000Y-39110000D03*
X115300000Y-54210000D03*
X114370000Y-43790000D03*
X104910000Y-23110000D03*
X104350000Y-39570000D03*
X108025000Y-25305000D03*
X121280000Y-32910000D03*
X112760000Y-66510000D03*
X114170000Y-32900000D03*
X116980000Y-22980000D03*
X114825000Y-82555000D03*
X108280000Y-42400000D03*
X113880000Y-66670000D03*
X116980000Y-24990000D03*
X114570000Y-40310000D03*
X107985000Y-26415000D03*
X116720000Y-40310000D03*
X103520000Y-32700000D03*
X119634000Y-38354000D03*
X123060000Y-40820000D03*
X127270000Y-56630000D03*
X98990000Y-51780000D03*
X115540000Y-39120000D03*
X106005000Y-44255000D03*
X116440000Y-57560000D03*
X118870000Y-22950000D03*
X121550000Y-45060000D03*
X102680000Y-32258000D03*
X119280000Y-46520000D03*
X116700000Y-41410000D03*
X100680000Y-43210000D03*
X126320000Y-41380000D03*
%TO.N,D+*%
X114925736Y-47814264D03*
X126625000Y-49745000D03*
X126425000Y-48045000D03*
%TO.N,D-*%
X116620000Y-47760000D03*
%TO.N,ICSDAT*%
X105120121Y-63370000D03*
%TO.N,SCL*%
X108540000Y-30460000D03*
%TO.N,SDA*%
X107840000Y-31740000D03*
%TO.N,Net-(U2-VDD)*%
X106445000Y-49705000D03*
X107400000Y-48750000D03*
%TO.N,ICSPLK*%
X106185000Y-60880000D03*
%TO.N,Net-(U3-VDD)*%
X116885000Y-43775000D03*
%TO.N,Net-(U3-REGIN)*%
X117965000Y-42835000D03*
%TO.N,Net-(U3-VBUS)*%
X119025000Y-42665000D03*
%TO.N,MCLR*%
X103535000Y-68265000D03*
%TO.N,Net-(U3-RXD)*%
X111655000Y-40215000D03*
X111655000Y-42645000D03*
%TO.N,+5.0V*%
X120515000Y-50360000D03*
X120515000Y-47590000D03*
%TO.N,WP*%
X119280000Y-28960000D03*
X112645000Y-53870000D03*
%TO.N,Net-(U1-RB0)*%
X111460000Y-60850000D03*
%TO.N,Net-(D4-A)*%
X113130000Y-46600000D03*
X120060000Y-34590000D03*
%TD*%
D29*
%TO.N,Net-(J1-Pad02)*%
X106190000Y-65690000D02*
X106190000Y-63905000D01*
X106125000Y-65755000D02*
X106190000Y-65690000D01*
X105915000Y-65755000D02*
X106125000Y-65755000D01*
D30*
%TO.N,5V*%
X102865000Y-69850000D02*
X102645000Y-69630000D01*
X115316000Y-69850000D02*
X102865000Y-69850000D01*
X119382000Y-65784000D02*
X115316000Y-69850000D01*
X120142000Y-65784000D02*
X119382000Y-65784000D01*
X120142000Y-64264000D02*
X120142000Y-65784000D01*
D31*
%TO.N,SDA*%
X120142000Y-63244000D02*
X120142000Y-62552000D01*
X120142000Y-62552000D02*
X119990000Y-62400000D01*
%TO.N,SCL*%
X121491000Y-66804000D02*
X121535000Y-66760000D01*
X120142000Y-66804000D02*
X121491000Y-66804000D01*
%TO.N,Net-(U1-RB0)*%
X111460000Y-60850000D02*
X111460000Y-55150001D01*
D30*
%TO.N,5V*%
X109655000Y-45995000D02*
X109270000Y-45995000D01*
X108240000Y-65060000D02*
X110180000Y-63120000D01*
X110180000Y-63120000D02*
X110180000Y-46520000D01*
X110180000Y-46520000D02*
X109655000Y-45995000D01*
D29*
%TO.N,SCL*%
X108970000Y-30890000D02*
X108540000Y-30460000D01*
X108970000Y-32130000D02*
X108970000Y-30890000D01*
X107320000Y-33780000D02*
X108970000Y-32130000D01*
X104500000Y-43938528D02*
X107320000Y-41118528D01*
X104500000Y-50930000D02*
X104500000Y-43938528D01*
X107320000Y-41118528D02*
X107320000Y-33780000D01*
X109110000Y-61950000D02*
X109110000Y-55540000D01*
X109110000Y-55540000D02*
X104500000Y-50930000D01*
%TO.N,SDA*%
X106390000Y-33190000D02*
X107840000Y-31740000D01*
X106390000Y-40880000D02*
X106390000Y-33190000D01*
X103650000Y-43620000D02*
X106390000Y-40880000D01*
X108150000Y-55630000D02*
X103650000Y-51130000D01*
X103650000Y-51130000D02*
X103650000Y-43620000D01*
X108150000Y-60910000D02*
X108150000Y-55630000D01*
X106290000Y-31750000D02*
X107830000Y-31750000D01*
X107830000Y-31750000D02*
X107840000Y-31740000D01*
D30*
%TO.N,5V*%
X105980000Y-26340000D02*
X105980000Y-26640000D01*
D31*
X105680000Y-26340000D02*
X105980000Y-26340000D01*
D30*
X105470000Y-25750000D02*
X105270000Y-25950000D01*
X107170000Y-24050000D02*
X105470000Y-25750000D01*
D31*
X105408579Y-26068579D02*
X105680000Y-26340000D01*
D30*
X103010000Y-30500000D02*
X105260000Y-30500000D01*
X105980000Y-26640000D02*
X105980000Y-29148000D01*
X124783829Y-41130283D02*
X125157500Y-41503954D01*
D31*
X105810000Y-26090000D02*
X105470000Y-25750000D01*
D30*
X101315000Y-32195000D02*
X103010000Y-30500000D01*
X108050000Y-45995000D02*
X109270000Y-45995000D01*
X105270000Y-25950000D02*
X104690000Y-26530000D01*
X107330000Y-24050000D02*
X107170000Y-24050000D01*
D31*
X105980000Y-26340000D02*
X105980000Y-26260000D01*
D30*
X105270000Y-31750000D02*
X105270000Y-30510000D01*
D31*
X105980000Y-26260000D02*
X105810000Y-26090000D01*
D30*
X105260000Y-30500000D02*
X105260000Y-29868000D01*
X105260000Y-29868000D02*
X105980000Y-29148000D01*
D31*
X105680000Y-26340000D02*
X105980000Y-26640000D01*
X109270000Y-45995000D02*
X109280000Y-45995000D01*
D30*
X101315000Y-32955000D02*
X101315000Y-32195000D01*
X125157500Y-41503954D02*
X125157500Y-42405000D01*
X105980000Y-25400000D02*
X105980000Y-26340000D01*
D31*
X105270000Y-25950000D02*
X105410000Y-26090000D01*
D30*
X107330000Y-24050000D02*
X105980000Y-25400000D01*
D32*
%TO.N,GND*%
X119504750Y-51465250D02*
X118684500Y-50645000D01*
D29*
X105525000Y-47485000D02*
X105525000Y-48655000D01*
X118465000Y-44575000D02*
X119645000Y-44575000D01*
X105485000Y-49695000D02*
X105485000Y-48695000D01*
D32*
X118684500Y-50645000D02*
X116955000Y-50645000D01*
D31*
%TO.N,D+*%
X114925736Y-47814264D02*
X114925736Y-49582023D01*
X126625000Y-49745000D02*
X126625000Y-48245000D01*
X126625000Y-48245000D02*
X126425000Y-48045000D01*
%TO.N,D-*%
X116535000Y-47845000D02*
X116535000Y-49695000D01*
X116620000Y-47760000D02*
X116535000Y-47845000D01*
D29*
%TO.N,ICSDAT*%
X103935121Y-64555000D02*
X103490000Y-64555000D01*
X105120121Y-63370000D02*
X103935121Y-64555000D01*
%TO.N,SCL*%
X108530000Y-30450000D02*
X106330000Y-30450000D01*
X108540000Y-30460000D02*
X108530000Y-30450000D01*
%TO.N,Net-(U2-VDD)*%
X107790000Y-48750000D02*
X108050000Y-48490000D01*
X108050000Y-48490000D02*
X108050000Y-47645000D01*
X107400000Y-48750000D02*
X107790000Y-48750000D01*
X106445000Y-49705000D02*
X106445000Y-48695000D01*
X107400000Y-48750000D02*
X106500000Y-48750000D01*
X106445000Y-47525000D02*
X106445000Y-48695000D01*
%TO.N,ICSPLK*%
X106185000Y-60880000D02*
X106185000Y-62250000D01*
D31*
%TO.N,Net-(U3-VDD)*%
X116110000Y-43760000D02*
X116110000Y-45010000D01*
X116870000Y-43790000D02*
X116885000Y-43775000D01*
X116100000Y-43790000D02*
X116870000Y-43790000D01*
D29*
%TO.N,Net-(U3-REGIN)*%
X123332500Y-42405000D02*
X121255000Y-42405000D01*
D31*
X118465000Y-43615000D02*
X119545000Y-43615000D01*
X117965000Y-42885000D02*
X118465000Y-43385000D01*
X117965000Y-42835000D02*
X117965000Y-42885000D01*
X118465000Y-43385000D02*
X118465000Y-43615000D01*
D29*
X119605000Y-43555000D02*
X120005000Y-43555000D01*
X120005000Y-43555000D02*
X121205000Y-42355000D01*
D31*
%TO.N,Net-(U3-VBUS)*%
X120035000Y-41345000D02*
X121195000Y-41345000D01*
X119025000Y-42185000D02*
X119865000Y-41345000D01*
X119025000Y-42665000D02*
X119025000Y-42185000D01*
D29*
%TO.N,MCLR*%
X105860000Y-68240000D02*
X103560000Y-68240000D01*
X103560000Y-68240000D02*
X103535000Y-68265000D01*
D31*
%TO.N,Net-(U3-RXD)*%
X111655000Y-40215000D02*
X111655000Y-42645000D01*
%TO.N,+5.0V*%
X120190000Y-52485000D02*
X120190000Y-52430000D01*
X120190000Y-52430000D02*
X120580000Y-52040000D01*
D29*
X120580000Y-50425000D02*
X120580000Y-52040000D01*
D30*
X120515000Y-50360000D02*
X120515000Y-47590000D01*
D29*
X115455000Y-50645000D02*
X115785000Y-50975000D01*
X115785000Y-52145000D02*
X116125000Y-52485000D01*
X116125000Y-52485000D02*
X120190000Y-52485000D01*
X114555000Y-50645000D02*
X115455000Y-50645000D01*
X120190000Y-52485000D02*
X120580000Y-52485000D01*
X120580000Y-57050000D02*
X111930000Y-65700000D01*
X120580000Y-52870000D02*
X120580000Y-57050000D01*
D31*
X120575000Y-52870000D02*
X120190000Y-52485000D01*
X120580000Y-52870000D02*
X120575000Y-52870000D01*
D29*
X120515000Y-50360000D02*
X120580000Y-50425000D01*
X111930000Y-65700000D02*
X110060000Y-65700000D01*
X120580000Y-52040000D02*
X120580000Y-52870000D01*
X115785000Y-50975000D02*
X115785000Y-52145000D01*
%TO.N,Net-(J1-Pad04)*%
X104310000Y-67025000D02*
X105915000Y-67025000D01*
X103490000Y-66205000D02*
X104310000Y-67025000D01*
D31*
%TO.N,WP*%
X112305000Y-42914239D02*
X112305000Y-38345000D01*
X112305000Y-38345000D02*
X113260000Y-37390000D01*
X119280000Y-35520000D02*
X119280000Y-28960000D01*
X112270000Y-53495000D02*
X112270000Y-42949239D01*
X117410000Y-37390000D02*
X119280000Y-35520000D01*
X113260000Y-37390000D02*
X117410000Y-37390000D01*
X112645000Y-53870000D02*
X112270000Y-53495000D01*
X112270000Y-42949239D02*
X112305000Y-42914239D01*
D32*
%TO.N,Net-(D3-A)*%
X104690000Y-27550000D02*
X104690000Y-28687500D01*
X104690000Y-28687500D02*
X104287500Y-29090000D01*
D31*
%TO.N,Net-(D2-A)*%
X110740000Y-45520000D02*
X111460000Y-46240000D01*
X110740000Y-36350000D02*
X110740000Y-45520000D01*
X111460000Y-46240000D02*
X111460000Y-54130001D01*
X109120000Y-34730000D02*
X110740000Y-36350000D01*
%TO.N,Net-(D4-A)*%
X120060000Y-35780000D02*
X117770000Y-38070000D01*
X113150000Y-46580000D02*
X113130000Y-46600000D01*
X113150000Y-38690000D02*
X113150000Y-46580000D01*
X120060000Y-34590000D02*
X120060000Y-35780000D01*
X117770000Y-38070000D02*
X113770000Y-38070000D01*
X113770000Y-38070000D02*
X113150000Y-38690000D01*
%TD*%
%TA.AperFunction,Conductor*%
%TO.N,GND*%
G36*
X108011715Y-35236548D02*
G01*
X108055500Y-35285479D01*
X108092387Y-35359559D01*
X108092389Y-35359563D01*
X108094942Y-35364689D01*
X108098391Y-35369256D01*
X108098394Y-35369261D01*
X108225561Y-35537658D01*
X108225566Y-35537663D01*
X108229019Y-35542236D01*
X108233255Y-35546097D01*
X108233259Y-35546102D01*
X108288438Y-35596404D01*
X108393438Y-35692124D01*
X108398308Y-35695139D01*
X108398309Y-35695140D01*
X108543438Y-35785000D01*
X108582599Y-35809247D01*
X108587945Y-35811318D01*
X108587947Y-35811319D01*
X108612428Y-35820802D01*
X108636598Y-35830166D01*
X108651792Y-35837269D01*
X108675511Y-35850382D01*
X108679336Y-35851876D01*
X108679337Y-35851877D01*
X110174074Y-36435914D01*
X110216627Y-36463730D01*
X110253181Y-36500284D01*
X110280061Y-36540512D01*
X110289500Y-36587965D01*
X110289500Y-45487739D01*
X110288720Y-45501622D01*
X110286309Y-45523025D01*
X110284730Y-45537035D01*
X110286198Y-45544796D01*
X110274580Y-45601539D01*
X110237578Y-45647232D01*
X110183688Y-45670744D01*
X110125026Y-45666788D01*
X110074780Y-45636255D01*
X110052406Y-45613881D01*
X110049464Y-45610837D01*
X110011468Y-45570153D01*
X110011466Y-45570151D01*
X110005680Y-45563956D01*
X109998439Y-45559552D01*
X109998431Y-45559546D01*
X109970573Y-45542605D01*
X109960081Y-45535465D01*
X109949851Y-45527708D01*
X109927342Y-45510639D01*
X109919459Y-45507530D01*
X109919450Y-45507525D01*
X109910642Y-45504052D01*
X109891713Y-45494650D01*
X109883631Y-45489735D01*
X109883624Y-45489732D01*
X109876382Y-45485328D01*
X109868216Y-45483039D01*
X109868214Y-45483039D01*
X109847715Y-45477295D01*
X109836814Y-45474240D01*
X109824786Y-45470196D01*
X109794453Y-45458235D01*
X109786564Y-45455124D01*
X109778129Y-45454256D01*
X109778127Y-45454256D01*
X109768713Y-45453288D01*
X109747954Y-45449343D01*
X109738829Y-45446786D01*
X109738820Y-45446784D01*
X109730665Y-45444500D01*
X109722188Y-45444500D01*
X109689582Y-45444500D01*
X109676901Y-45443850D01*
X109644466Y-45440515D01*
X109644462Y-45440515D01*
X109636028Y-45439648D01*
X109627671Y-45441088D01*
X109627667Y-45441089D01*
X109618344Y-45442697D01*
X109597275Y-45444500D01*
X109345665Y-45444500D01*
X108733230Y-45444500D01*
X108694070Y-45438154D01*
X108658919Y-45419767D01*
X108655042Y-45416865D01*
X108567331Y-45351204D01*
X108432483Y-45300909D01*
X108424770Y-45300079D01*
X108424767Y-45300079D01*
X108376180Y-45294855D01*
X108376169Y-45294854D01*
X108372873Y-45294500D01*
X108369550Y-45294500D01*
X107730439Y-45294500D01*
X107730420Y-45294500D01*
X107727128Y-45294501D01*
X107723850Y-45294853D01*
X107723838Y-45294854D01*
X107675231Y-45300079D01*
X107675225Y-45300080D01*
X107667517Y-45300909D01*
X107660252Y-45303618D01*
X107660246Y-45303620D01*
X107540980Y-45348104D01*
X107540978Y-45348104D01*
X107532669Y-45351204D01*
X107525572Y-45356516D01*
X107525568Y-45356519D01*
X107424550Y-45432141D01*
X107424546Y-45432144D01*
X107417454Y-45437454D01*
X107412144Y-45444546D01*
X107412141Y-45444550D01*
X107336519Y-45545568D01*
X107336516Y-45545572D01*
X107331204Y-45552669D01*
X107328104Y-45560978D01*
X107328104Y-45560980D01*
X107283620Y-45680247D01*
X107283619Y-45680250D01*
X107280909Y-45687517D01*
X107280079Y-45695227D01*
X107280079Y-45695232D01*
X107274855Y-45743819D01*
X107274854Y-45743831D01*
X107274500Y-45747127D01*
X107274500Y-45750448D01*
X107274500Y-45750449D01*
X107274500Y-46239560D01*
X107274500Y-46239578D01*
X107274501Y-46242872D01*
X107274853Y-46246150D01*
X107274854Y-46246161D01*
X107280079Y-46294768D01*
X107280080Y-46294773D01*
X107280909Y-46302483D01*
X107283619Y-46309749D01*
X107283620Y-46309753D01*
X107306026Y-46369826D01*
X107331204Y-46437331D01*
X107336518Y-46444430D01*
X107336519Y-46444431D01*
X107406878Y-46538419D01*
X107417454Y-46552546D01*
X107532669Y-46638796D01*
X107667517Y-46689091D01*
X107727127Y-46695500D01*
X108372872Y-46695499D01*
X108432483Y-46689091D01*
X108567331Y-46638796D01*
X108658919Y-46570232D01*
X108694070Y-46551846D01*
X108733230Y-46545500D01*
X109194335Y-46545500D01*
X109307658Y-46545500D01*
X109375613Y-46545500D01*
X109423066Y-46554939D01*
X109463291Y-46581816D01*
X109593183Y-46711707D01*
X109620061Y-46751933D01*
X109629500Y-46799386D01*
X109629500Y-55051827D01*
X109612138Y-55115106D01*
X109564915Y-55160665D01*
X109501055Y-55175747D01*
X109438438Y-55156128D01*
X109437046Y-55155233D01*
X109416427Y-55138613D01*
X105036819Y-50759005D01*
X105009939Y-50718777D01*
X105000500Y-50671324D01*
X105000500Y-49705000D01*
X105839318Y-49705000D01*
X105840378Y-49713052D01*
X105840378Y-49713057D01*
X105858894Y-49853702D01*
X105858895Y-49853708D01*
X105859956Y-49861762D01*
X105863065Y-49869268D01*
X105863066Y-49869271D01*
X105879635Y-49909271D01*
X105920464Y-50007841D01*
X105925411Y-50014288D01*
X105970866Y-50073527D01*
X106016718Y-50133282D01*
X106142159Y-50229536D01*
X106288238Y-50290044D01*
X106445000Y-50310682D01*
X106601762Y-50290044D01*
X106747841Y-50229536D01*
X106873282Y-50133282D01*
X106969536Y-50007841D01*
X107030044Y-49861762D01*
X107050682Y-49705000D01*
X107048007Y-49684683D01*
X107047000Y-49664886D01*
X107047192Y-49658314D01*
X107026043Y-49467977D01*
X107032275Y-49413240D01*
X107061604Y-49366604D01*
X107108240Y-49337275D01*
X107162977Y-49331043D01*
X107353314Y-49352192D01*
X107359889Y-49352000D01*
X107379691Y-49353007D01*
X107400000Y-49355682D01*
X107556762Y-49335044D01*
X107623614Y-49307352D01*
X107624223Y-49307103D01*
X107643237Y-49299348D01*
X107680589Y-49284116D01*
X107682177Y-49283186D01*
X107684524Y-49282123D01*
X107687998Y-49280683D01*
X107702841Y-49274536D01*
X107708753Y-49269998D01*
X107761534Y-49253814D01*
X107793593Y-49251521D01*
X107803464Y-49250816D01*
X107812308Y-49250500D01*
X107821365Y-49250500D01*
X107825799Y-49250500D01*
X107839162Y-49248578D01*
X107847949Y-49247633D01*
X107897483Y-49244091D01*
X107905793Y-49240990D01*
X107914460Y-49239106D01*
X107914484Y-49239220D01*
X107915202Y-49239037D01*
X107915169Y-49238925D01*
X107923675Y-49236427D01*
X107932457Y-49235165D01*
X107977647Y-49214526D01*
X107985787Y-49211155D01*
X108032331Y-49193796D01*
X108039433Y-49188478D01*
X108047219Y-49184228D01*
X108047274Y-49184330D01*
X108047908Y-49183954D01*
X108047845Y-49183855D01*
X108055301Y-49179062D01*
X108063373Y-49175377D01*
X108100903Y-49142855D01*
X108107775Y-49137318D01*
X108118593Y-49129221D01*
X108128142Y-49119670D01*
X108134604Y-49113653D01*
X108172143Y-49081128D01*
X108176937Y-49073667D01*
X108182749Y-49066961D01*
X108182836Y-49067036D01*
X108191382Y-49056430D01*
X108356430Y-48891382D01*
X108367036Y-48882836D01*
X108366961Y-48882749D01*
X108373667Y-48876937D01*
X108381128Y-48872143D01*
X108413653Y-48834604D01*
X108419674Y-48828139D01*
X108429221Y-48818593D01*
X108437318Y-48807775D01*
X108442855Y-48800903D01*
X108475377Y-48763373D01*
X108479062Y-48755301D01*
X108483855Y-48747845D01*
X108483954Y-48747908D01*
X108484330Y-48747274D01*
X108484228Y-48747219D01*
X108488478Y-48739433D01*
X108493796Y-48732331D01*
X108511155Y-48685787D01*
X108514526Y-48677647D01*
X108535165Y-48632457D01*
X108536427Y-48623675D01*
X108538925Y-48615169D01*
X108539037Y-48615202D01*
X108539220Y-48614484D01*
X108539106Y-48614460D01*
X108540990Y-48605793D01*
X108544091Y-48597483D01*
X108547633Y-48547949D01*
X108548578Y-48539162D01*
X108550500Y-48525799D01*
X108550500Y-48512308D01*
X108550816Y-48503461D01*
X108553726Y-48462773D01*
X108554359Y-48453927D01*
X108552473Y-48445260D01*
X108551841Y-48436414D01*
X108551956Y-48436405D01*
X108550500Y-48422856D01*
X108550500Y-48363465D01*
X108563616Y-48307961D01*
X108600187Y-48264199D01*
X108682546Y-48202546D01*
X108768796Y-48087331D01*
X108819091Y-47952483D01*
X108825500Y-47892873D01*
X108825499Y-47397128D01*
X108819091Y-47337517D01*
X108768796Y-47202669D01*
X108682546Y-47087454D01*
X108622754Y-47042694D01*
X108574431Y-47006519D01*
X108574430Y-47006518D01*
X108567331Y-47001204D01*
X108432483Y-46950909D01*
X108424770Y-46950079D01*
X108424767Y-46950079D01*
X108376180Y-46944855D01*
X108376169Y-46944854D01*
X108372873Y-46944500D01*
X108369550Y-46944500D01*
X107730439Y-46944500D01*
X107730420Y-46944500D01*
X107727128Y-46944501D01*
X107723850Y-46944853D01*
X107723838Y-46944854D01*
X107675231Y-46950079D01*
X107675225Y-46950080D01*
X107667517Y-46950909D01*
X107660252Y-46953618D01*
X107660246Y-46953620D01*
X107540980Y-46998104D01*
X107540978Y-46998104D01*
X107532669Y-47001204D01*
X107525572Y-47006516D01*
X107525568Y-47006519D01*
X107424550Y-47082141D01*
X107424546Y-47082144D01*
X107417454Y-47087454D01*
X107412144Y-47094546D01*
X107412141Y-47094550D01*
X107336519Y-47195568D01*
X107336516Y-47195572D01*
X107331204Y-47202669D01*
X107328106Y-47210973D01*
X107328102Y-47210982D01*
X107303554Y-47276799D01*
X107264914Y-47330228D01*
X107204348Y-47356297D01*
X107138982Y-47347632D01*
X107087299Y-47306684D01*
X107063915Y-47245035D01*
X107062710Y-47232181D01*
X107018852Y-47106843D01*
X106939999Y-47000001D01*
X106833157Y-46921148D01*
X106824384Y-46918078D01*
X106714945Y-46879783D01*
X106714941Y-46879782D01*
X106707819Y-46877290D01*
X106700301Y-46876585D01*
X106680951Y-46874770D01*
X106680939Y-46874769D01*
X106678066Y-46874500D01*
X106291934Y-46874500D01*
X106289061Y-46874769D01*
X106289048Y-46874770D01*
X106269698Y-46876585D01*
X106269697Y-46876585D01*
X106262181Y-46877290D01*
X106255060Y-46879781D01*
X106255054Y-46879783D01*
X106145615Y-46918078D01*
X106145612Y-46918079D01*
X106136843Y-46921148D01*
X106129367Y-46926665D01*
X106129366Y-46926666D01*
X106037475Y-46994484D01*
X106037471Y-46994487D01*
X106030001Y-47000001D01*
X106024487Y-47007471D01*
X106024484Y-47007475D01*
X105956666Y-47099366D01*
X105951148Y-47106843D01*
X105948079Y-47115612D01*
X105948078Y-47115615D01*
X105909783Y-47225054D01*
X105909781Y-47225060D01*
X105907290Y-47232181D01*
X105906586Y-47239692D01*
X105906585Y-47239698D01*
X105904770Y-47259048D01*
X105904769Y-47259061D01*
X105904500Y-47261934D01*
X105904500Y-47708066D01*
X105904769Y-47710939D01*
X105904770Y-47710951D01*
X105906585Y-47730301D01*
X105907290Y-47737819D01*
X105909782Y-47744941D01*
X105909783Y-47744945D01*
X105937541Y-47824271D01*
X105944500Y-47865226D01*
X105944500Y-48230849D01*
X105938287Y-48269608D01*
X105920270Y-48304482D01*
X105916668Y-48309362D01*
X105916664Y-48309368D01*
X105911148Y-48316843D01*
X105908079Y-48325612D01*
X105908078Y-48325615D01*
X105869783Y-48435054D01*
X105869781Y-48435060D01*
X105867290Y-48442181D01*
X105866585Y-48449697D01*
X105866585Y-48449698D01*
X105864770Y-48469048D01*
X105864769Y-48469061D01*
X105864500Y-48471934D01*
X105864500Y-48918066D01*
X105864769Y-48920939D01*
X105864770Y-48920951D01*
X105866585Y-48940301D01*
X105867290Y-48947819D01*
X105899311Y-49039329D01*
X105905511Y-49093975D01*
X105845969Y-49629857D01*
X105842807Y-49658316D01*
X105842933Y-49662642D01*
X105842933Y-49662644D01*
X105842999Y-49664908D01*
X105841991Y-49684683D01*
X105840378Y-49696938D01*
X105840378Y-49696943D01*
X105839318Y-49705000D01*
X105000500Y-49705000D01*
X105000500Y-44197204D01*
X105009939Y-44149751D01*
X105036819Y-44109523D01*
X105459198Y-43687144D01*
X107626427Y-41519912D01*
X107637034Y-41511365D01*
X107636959Y-41511278D01*
X107643665Y-41505466D01*
X107651128Y-41500671D01*
X107683660Y-41463124D01*
X107689681Y-41456659D01*
X107699220Y-41447121D01*
X107707308Y-41436314D01*
X107712853Y-41429434D01*
X107745377Y-41391901D01*
X107749062Y-41383829D01*
X107753855Y-41376373D01*
X107753954Y-41376436D01*
X107754330Y-41375802D01*
X107754228Y-41375747D01*
X107758478Y-41367961D01*
X107763796Y-41360859D01*
X107781155Y-41314315D01*
X107784526Y-41306175D01*
X107805165Y-41260985D01*
X107806427Y-41252203D01*
X107808925Y-41243697D01*
X107809037Y-41243730D01*
X107809220Y-41243012D01*
X107809106Y-41242988D01*
X107810990Y-41234321D01*
X107814091Y-41226011D01*
X107817633Y-41176477D01*
X107818578Y-41167690D01*
X107820500Y-41154327D01*
X107820500Y-41140836D01*
X107820816Y-41131989D01*
X107823726Y-41091301D01*
X107824359Y-41082455D01*
X107822473Y-41073788D01*
X107821841Y-41064942D01*
X107821956Y-41064933D01*
X107820500Y-41051384D01*
X107820500Y-35340751D01*
X107837885Y-35277433D01*
X107885165Y-35231869D01*
X107949082Y-35216836D01*
X108011715Y-35236548D01*
G37*
%TD.AperFunction*%
%TA.AperFunction,Conductor*%
G36*
X120277368Y-21839313D02*
G01*
X120324629Y-21851029D01*
X121009227Y-22173879D01*
X121055606Y-22211727D01*
X121078849Y-22266894D01*
X121073538Y-22326521D01*
X121040911Y-22376712D01*
X120988572Y-22405768D01*
X120759999Y-22467307D01*
X120759993Y-22467309D01*
X120750000Y-22470000D01*
X120741434Y-22475812D01*
X120741431Y-22475814D01*
X120477705Y-22654771D01*
X120477702Y-22654773D01*
X120470000Y-22660000D01*
X120464183Y-22667270D01*
X120464183Y-22667271D01*
X120315896Y-22852629D01*
X120315893Y-22852632D01*
X120310000Y-22860000D01*
X120306580Y-22868794D01*
X120306579Y-22868796D01*
X120174178Y-23209254D01*
X120174177Y-23209258D01*
X120170000Y-23220000D01*
X120170000Y-23520000D01*
X120172303Y-23528190D01*
X120172304Y-23528194D01*
X120257121Y-23829766D01*
X120257122Y-23829769D01*
X120260000Y-23840000D01*
X120266142Y-23848671D01*
X120266144Y-23848675D01*
X120338173Y-23950362D01*
X120430000Y-24080000D01*
X120650000Y-24250000D01*
X120920000Y-24360000D01*
X121150000Y-24390000D01*
X121300000Y-24380000D01*
X121560000Y-24310000D01*
X121780000Y-24180000D01*
X121970000Y-23980000D01*
X122060000Y-23820000D01*
X122160000Y-23490000D01*
X122159047Y-23479520D01*
X122179442Y-23423511D01*
X122224834Y-23383156D01*
X122283945Y-23369197D01*
X122342594Y-23384985D01*
X122386709Y-23426730D01*
X126650448Y-30144049D01*
X126654018Y-30149672D01*
X126672641Y-30203097D01*
X127242342Y-35596404D01*
X127234155Y-35655493D01*
X127199324Y-35703921D01*
X127145910Y-35730481D01*
X127086274Y-35729026D01*
X127034219Y-35699892D01*
X126967344Y-35637196D01*
X126967327Y-35637182D01*
X126965000Y-35635000D01*
X126962455Y-35633066D01*
X126962447Y-35633059D01*
X126718127Y-35447376D01*
X126718121Y-35447372D01*
X126715000Y-35445000D01*
X126711605Y-35443041D01*
X126711600Y-35443038D01*
X126458042Y-35296755D01*
X126458042Y-35296754D01*
X126455000Y-35295000D01*
X126451787Y-35293603D01*
X126451779Y-35293599D01*
X126228107Y-35196350D01*
X126228093Y-35196344D01*
X126225000Y-35195000D01*
X126221769Y-35193997D01*
X126221763Y-35193995D01*
X125938848Y-35106194D01*
X125938845Y-35106193D01*
X125935000Y-35105000D01*
X125931038Y-35104316D01*
X125931026Y-35104314D01*
X125646641Y-35055283D01*
X125646643Y-35055283D01*
X125645000Y-35055000D01*
X125643356Y-35054806D01*
X125643352Y-35054806D01*
X125478608Y-35035424D01*
X125478600Y-35035423D01*
X125475000Y-35035000D01*
X125165000Y-35035000D01*
X125161774Y-35035339D01*
X125161765Y-35035340D01*
X124791567Y-35074308D01*
X124791560Y-35074309D01*
X124785000Y-35075000D01*
X124778735Y-35077060D01*
X124778725Y-35077063D01*
X124038668Y-35320503D01*
X124038664Y-35320505D01*
X124025000Y-35325000D01*
X124014769Y-35335118D01*
X124014768Y-35335119D01*
X123126360Y-36213764D01*
X123126358Y-36213766D01*
X123115000Y-36225000D01*
X123110611Y-36240359D01*
X123110610Y-36240362D01*
X122779118Y-37400584D01*
X122779117Y-37400587D01*
X122775000Y-37415000D01*
X122778023Y-37429683D01*
X122778023Y-37429684D01*
X122982704Y-38423851D01*
X122982705Y-38423854D01*
X122985000Y-38435000D01*
X122991134Y-38444585D01*
X122991135Y-38444586D01*
X123298611Y-38925018D01*
X123465000Y-39185000D01*
X124075000Y-39705000D01*
X124975000Y-40005000D01*
X125855000Y-39985000D01*
X126515000Y-39715000D01*
X126955000Y-39405000D01*
X127205000Y-39165000D01*
X127375734Y-38924707D01*
X127420730Y-38885941D01*
X127478598Y-38872546D01*
X127536057Y-38887601D01*
X127579921Y-38927651D01*
X127600127Y-38983507D01*
X128114075Y-43849002D01*
X128105073Y-43910078D01*
X128067736Y-43959243D01*
X128011319Y-43984312D01*
X127949807Y-43979070D01*
X127900828Y-43961931D01*
X127900819Y-43961929D01*
X127894255Y-43959632D01*
X127887333Y-43958852D01*
X127763418Y-43944890D01*
X127763412Y-43944889D01*
X127759954Y-43944500D01*
X127070046Y-43944500D01*
X127066588Y-43944889D01*
X127066581Y-43944890D01*
X126942666Y-43958852D01*
X126942664Y-43958852D01*
X126935745Y-43959632D01*
X126929176Y-43961930D01*
X126929174Y-43961931D01*
X126772043Y-44016913D01*
X126772036Y-44016915D01*
X126765478Y-44019211D01*
X126759590Y-44022910D01*
X126759587Y-44022912D01*
X126618638Y-44111476D01*
X126618633Y-44111479D01*
X126612738Y-44115184D01*
X126607813Y-44120108D01*
X126607809Y-44120112D01*
X126490112Y-44237809D01*
X126490108Y-44237813D01*
X126485184Y-44242738D01*
X126481479Y-44248633D01*
X126481476Y-44248638D01*
X126392912Y-44389587D01*
X126392910Y-44389590D01*
X126389211Y-44395478D01*
X126386915Y-44402036D01*
X126386913Y-44402043D01*
X126331930Y-44559175D01*
X126331928Y-44559182D01*
X126329632Y-44565745D01*
X126328852Y-44572662D01*
X126328852Y-44572665D01*
X126310215Y-44738077D01*
X126309435Y-44745000D01*
X126310215Y-44751923D01*
X126315612Y-44799828D01*
X126329632Y-44924255D01*
X126331928Y-44930819D01*
X126331930Y-44930824D01*
X126380793Y-45070466D01*
X126389211Y-45094522D01*
X126485184Y-45247262D01*
X126612738Y-45374816D01*
X126765478Y-45470789D01*
X126935745Y-45530368D01*
X127070046Y-45545500D01*
X127756470Y-45545500D01*
X127759954Y-45545500D01*
X127894255Y-45530368D01*
X128064522Y-45470789D01*
X128217262Y-45374816D01*
X128344816Y-45247262D01*
X128440789Y-45094522D01*
X128500368Y-44924255D01*
X128501587Y-44913432D01*
X128523235Y-44856189D01*
X128569629Y-44816270D01*
X128629466Y-44803405D01*
X128637286Y-44803698D01*
X128646013Y-44805290D01*
X128684863Y-44801186D01*
X128697890Y-44800500D01*
X129666155Y-44800500D01*
X129728117Y-44817091D01*
X129773499Y-44862425D01*
X129790155Y-44924370D01*
X129798845Y-53204474D01*
X129782329Y-53266437D01*
X129737066Y-53311863D01*
X129675164Y-53328604D01*
X128625646Y-53331302D01*
X128567572Y-53317031D01*
X128522931Y-53277239D01*
X128502107Y-53221184D01*
X128500368Y-53205745D01*
X128440789Y-53035478D01*
X128344816Y-52882738D01*
X128217262Y-52755184D01*
X128158316Y-52718146D01*
X128070412Y-52662912D01*
X128064522Y-52659211D01*
X128057959Y-52656914D01*
X128057956Y-52656913D01*
X127900825Y-52601931D01*
X127894255Y-52599632D01*
X127887333Y-52598852D01*
X127763418Y-52584890D01*
X127763412Y-52584889D01*
X127759954Y-52584500D01*
X127070046Y-52584500D01*
X127066588Y-52584889D01*
X127066581Y-52584890D01*
X126942666Y-52598852D01*
X126942664Y-52598852D01*
X126935745Y-52599632D01*
X126929176Y-52601930D01*
X126929174Y-52601931D01*
X126772043Y-52656913D01*
X126772036Y-52656915D01*
X126765478Y-52659211D01*
X126759590Y-52662910D01*
X126759587Y-52662912D01*
X126618638Y-52751476D01*
X126618633Y-52751479D01*
X126612738Y-52755184D01*
X126607813Y-52760108D01*
X126607809Y-52760112D01*
X126490112Y-52877809D01*
X126490108Y-52877813D01*
X126485184Y-52882738D01*
X126481479Y-52888633D01*
X126481476Y-52888638D01*
X126392912Y-53029587D01*
X126392910Y-53029590D01*
X126389211Y-53035478D01*
X126386915Y-53042036D01*
X126386913Y-53042043D01*
X126331930Y-53199175D01*
X126331928Y-53199182D01*
X126329632Y-53205745D01*
X126328853Y-53212659D01*
X126328852Y-53212665D01*
X126311999Y-53362242D01*
X126309435Y-53385000D01*
X126310215Y-53391923D01*
X126327675Y-53546891D01*
X126329632Y-53564255D01*
X126331928Y-53570819D01*
X126331930Y-53570824D01*
X126386913Y-53727956D01*
X126389211Y-53734522D01*
X126392912Y-53740412D01*
X126474337Y-53870000D01*
X126485184Y-53887262D01*
X126612738Y-54014816D01*
X126765478Y-54110789D01*
X126935745Y-54170368D01*
X127070046Y-54185500D01*
X127073530Y-54185500D01*
X127713653Y-54185500D01*
X127776885Y-54202833D01*
X127822439Y-54249988D01*
X127837578Y-54313779D01*
X127791625Y-55644298D01*
X127695299Y-58433217D01*
X127694966Y-58438971D01*
X127648061Y-59016745D01*
X127627383Y-59075881D01*
X127580435Y-59117362D01*
X127519201Y-59130599D01*
X127459312Y-59112213D01*
X127419057Y-59070043D01*
X127418268Y-59070537D01*
X127416551Y-59067793D01*
X127415000Y-59065000D01*
X127275000Y-58865000D01*
X127095000Y-58655000D01*
X126935000Y-58505000D01*
X126932455Y-58503066D01*
X126932447Y-58503059D01*
X126688127Y-58317376D01*
X126688121Y-58317372D01*
X126685000Y-58315000D01*
X126681605Y-58313041D01*
X126681600Y-58313038D01*
X126428042Y-58166755D01*
X126428041Y-58166754D01*
X126425000Y-58165000D01*
X126421787Y-58163603D01*
X126421779Y-58163599D01*
X126198107Y-58066350D01*
X126198093Y-58066344D01*
X126195000Y-58065000D01*
X126191769Y-58063997D01*
X126191763Y-58063995D01*
X125908848Y-57976194D01*
X125908845Y-57976193D01*
X125905000Y-57975000D01*
X125901038Y-57974316D01*
X125901026Y-57974314D01*
X125616641Y-57925283D01*
X125616643Y-57925283D01*
X125615000Y-57925000D01*
X125613356Y-57924806D01*
X125613352Y-57924806D01*
X125448608Y-57905424D01*
X125448600Y-57905423D01*
X125445000Y-57905000D01*
X125135000Y-57905000D01*
X125131774Y-57905339D01*
X125131765Y-57905340D01*
X124761567Y-57944308D01*
X124761560Y-57944309D01*
X124755000Y-57945000D01*
X124748735Y-57947060D01*
X124748725Y-57947063D01*
X124008668Y-58190503D01*
X124008664Y-58190505D01*
X123995000Y-58195000D01*
X123984769Y-58205118D01*
X123984768Y-58205119D01*
X123096360Y-59083764D01*
X123096358Y-59083766D01*
X123085000Y-59095000D01*
X123080611Y-59110359D01*
X123080610Y-59110362D01*
X122749118Y-60270584D01*
X122749117Y-60270587D01*
X122745000Y-60285000D01*
X122748023Y-60299683D01*
X122748023Y-60299684D01*
X122952704Y-61293851D01*
X122952705Y-61293854D01*
X122955000Y-61305000D01*
X122961134Y-61314585D01*
X122961135Y-61314586D01*
X123381699Y-61971718D01*
X123435000Y-62055000D01*
X124045000Y-62575000D01*
X124945000Y-62875000D01*
X125825000Y-62855000D01*
X126485000Y-62585000D01*
X126925000Y-62275000D01*
X127148008Y-62060912D01*
X127200222Y-62031021D01*
X127260364Y-62029227D01*
X127314270Y-62055956D01*
X127349248Y-62104913D01*
X127357063Y-62164572D01*
X126779162Y-67175798D01*
X126778529Y-67180496D01*
X125912080Y-72797480D01*
X125911313Y-72801916D01*
X124905460Y-78050279D01*
X124904585Y-78054451D01*
X124549306Y-79615810D01*
X124534540Y-79652404D01*
X124037061Y-80476098D01*
X124006658Y-80510173D01*
X121449489Y-82482846D01*
X121393096Y-82507146D01*
X121331960Y-82501411D01*
X121281071Y-82467047D01*
X121252909Y-82412480D01*
X121254380Y-82351092D01*
X121280000Y-82260000D01*
X121280000Y-81960000D01*
X121140000Y-81600000D01*
X120980000Y-81400000D01*
X120700000Y-81210000D01*
X120690003Y-81207308D01*
X120690000Y-81207307D01*
X120444890Y-81141316D01*
X120444883Y-81141314D01*
X120440000Y-81140000D01*
X120434966Y-81139496D01*
X120434963Y-81139496D01*
X120346054Y-81130605D01*
X120346049Y-81130604D01*
X120340000Y-81130000D01*
X120333944Y-81130586D01*
X120333939Y-81130586D01*
X120038777Y-81159150D01*
X120038772Y-81159151D01*
X120030000Y-81160000D01*
X120021819Y-81163272D01*
X120021812Y-81163274D01*
X119835262Y-81237895D01*
X119830000Y-81240000D01*
X119825220Y-81243018D01*
X119825210Y-81243024D01*
X119648212Y-81354812D01*
X119648205Y-81354817D01*
X119640000Y-81360000D01*
X119633783Y-81367460D01*
X119633780Y-81367463D01*
X119446250Y-81592499D01*
X119446247Y-81592502D01*
X119440000Y-81600000D01*
X119436375Y-81609061D01*
X119436374Y-81609064D01*
X119423295Y-81641761D01*
X119320000Y-81900000D01*
X119319185Y-81908959D01*
X119319184Y-81908966D01*
X119291083Y-82218081D01*
X119291083Y-82218083D01*
X119290000Y-82230000D01*
X119293469Y-82241449D01*
X119293470Y-82241453D01*
X119388036Y-82553521D01*
X119388038Y-82553526D01*
X119390000Y-82560000D01*
X119480000Y-82720000D01*
X119485283Y-82725561D01*
X119485286Y-82725565D01*
X119534890Y-82777779D01*
X119670000Y-82920000D01*
X119677416Y-82924382D01*
X119727107Y-82953745D01*
X119771910Y-82999370D01*
X119788023Y-83061252D01*
X119771161Y-83122934D01*
X119725808Y-83168012D01*
X119664025Y-83184500D01*
X107153201Y-83184500D01*
X107094107Y-83169513D01*
X107049298Y-83128176D01*
X107029603Y-83070480D01*
X107039785Y-83010372D01*
X107077379Y-82962382D01*
X107207596Y-82861761D01*
X107377596Y-82621761D01*
X107467596Y-82301761D01*
X107467596Y-82001761D01*
X107327596Y-81641761D01*
X107167596Y-81441761D01*
X106887596Y-81251761D01*
X106877599Y-81249069D01*
X106877596Y-81249068D01*
X106632486Y-81183077D01*
X106632479Y-81183075D01*
X106627596Y-81181761D01*
X106622562Y-81181257D01*
X106622559Y-81181257D01*
X106533650Y-81172366D01*
X106533645Y-81172365D01*
X106527596Y-81171761D01*
X106521540Y-81172347D01*
X106521535Y-81172347D01*
X106226373Y-81200911D01*
X106226368Y-81200912D01*
X106217596Y-81201761D01*
X106209415Y-81205033D01*
X106209408Y-81205035D01*
X106022858Y-81279656D01*
X106017596Y-81281761D01*
X106012816Y-81284779D01*
X106012806Y-81284785D01*
X105835808Y-81396573D01*
X105835801Y-81396578D01*
X105827596Y-81401761D01*
X105821379Y-81409221D01*
X105821376Y-81409224D01*
X105633846Y-81634260D01*
X105633843Y-81634263D01*
X105627596Y-81641761D01*
X105623971Y-81650822D01*
X105623970Y-81650825D01*
X105527644Y-81891639D01*
X105507596Y-81941761D01*
X105506781Y-81950720D01*
X105506780Y-81950727D01*
X105478679Y-82259842D01*
X105478679Y-82259844D01*
X105477596Y-82271761D01*
X105481065Y-82283210D01*
X105481066Y-82283214D01*
X105575632Y-82595282D01*
X105575634Y-82595287D01*
X105577596Y-82601761D01*
X105667596Y-82761761D01*
X105672879Y-82767322D01*
X105672882Y-82767326D01*
X105682813Y-82777779D01*
X105713173Y-82832960D01*
X105712509Y-82895937D01*
X105680992Y-82950465D01*
X105626753Y-82982477D01*
X105563784Y-82983714D01*
X105558665Y-82982477D01*
X105538630Y-82977635D01*
X105390457Y-82941826D01*
X105341245Y-82917414D01*
X102372166Y-80497476D01*
X102338123Y-80453758D01*
X102084343Y-79909467D01*
X101854278Y-79416037D01*
X101672383Y-79025919D01*
X101662810Y-78995934D01*
X100070813Y-70333889D01*
X100069643Y-70326165D01*
X99986578Y-69630000D01*
X102039318Y-69630000D01*
X102040379Y-69638059D01*
X102058894Y-69778702D01*
X102058895Y-69778708D01*
X102059956Y-69786762D01*
X102120464Y-69932841D01*
X102216718Y-70058282D01*
X102342159Y-70154536D01*
X102349666Y-70157645D01*
X102349669Y-70157647D01*
X102386371Y-70172849D01*
X102390070Y-70174452D01*
X102393988Y-70176226D01*
X102397976Y-70178396D01*
X102402233Y-70179959D01*
X102406375Y-70181835D01*
X102405798Y-70183107D01*
X102443983Y-70207508D01*
X102467593Y-70231118D01*
X102470535Y-70234162D01*
X102508529Y-70274844D01*
X102508531Y-70274845D01*
X102514320Y-70281044D01*
X102549419Y-70302388D01*
X102559914Y-70309530D01*
X102592658Y-70334361D01*
X102600543Y-70337470D01*
X102600546Y-70337472D01*
X102609349Y-70340943D01*
X102628281Y-70350345D01*
X102643618Y-70359672D01*
X102654693Y-70362775D01*
X102683181Y-70370757D01*
X102695207Y-70374800D01*
X102733436Y-70389876D01*
X102751278Y-70391710D01*
X102772051Y-70395657D01*
X102789335Y-70400500D01*
X102830418Y-70400500D01*
X102843098Y-70401149D01*
X102883972Y-70405352D01*
X102901655Y-70402303D01*
X102922725Y-70400500D01*
X103449722Y-70400500D01*
X103456877Y-70400707D01*
X103467344Y-70401312D01*
X103471939Y-70400895D01*
X103473820Y-70400865D01*
X103481909Y-70400500D01*
X111891625Y-70400500D01*
X111953082Y-70416801D01*
X111998381Y-70461419D01*
X112015611Y-70522622D01*
X112000242Y-70584319D01*
X111972927Y-70612904D01*
X111975000Y-70615000D01*
X111076360Y-71503764D01*
X111076358Y-71503766D01*
X111065000Y-71515000D01*
X111060611Y-71530359D01*
X111060610Y-71530362D01*
X110729118Y-72690584D01*
X110729117Y-72690587D01*
X110725000Y-72705000D01*
X110728023Y-72719683D01*
X110728023Y-72719684D01*
X110932704Y-73713851D01*
X110932705Y-73713854D01*
X110935000Y-73725000D01*
X111415000Y-74475000D01*
X112025000Y-74995000D01*
X112925000Y-75295000D01*
X113805000Y-75275000D01*
X114465000Y-75005000D01*
X114905000Y-74695000D01*
X115155000Y-74455000D01*
X115425000Y-74075000D01*
X115605000Y-73715000D01*
X115695000Y-73445000D01*
X115765000Y-73085000D01*
X115775000Y-72735000D01*
X115755000Y-72455000D01*
X115675000Y-72095000D01*
X115545000Y-71755000D01*
X115395000Y-71485000D01*
X115255000Y-71285000D01*
X115075000Y-71075000D01*
X114915000Y-70925000D01*
X114912455Y-70923066D01*
X114912447Y-70923059D01*
X114668127Y-70737376D01*
X114668121Y-70737372D01*
X114665000Y-70735000D01*
X114661605Y-70733041D01*
X114661594Y-70733034D01*
X114486306Y-70631907D01*
X114440900Y-70586528D01*
X114424271Y-70524524D01*
X114440876Y-70462514D01*
X114486264Y-70417117D01*
X114548271Y-70400500D01*
X115304478Y-70400500D01*
X115308710Y-70400571D01*
X115372826Y-70402762D01*
X115381068Y-70400753D01*
X115381071Y-70400753D01*
X115412739Y-70393035D01*
X115425196Y-70390666D01*
X115465920Y-70385070D01*
X115482380Y-70377919D01*
X115502423Y-70371179D01*
X115519852Y-70366933D01*
X115555688Y-70346783D01*
X115567023Y-70341153D01*
X115604720Y-70324780D01*
X115618637Y-70313456D01*
X115636120Y-70301558D01*
X115651759Y-70292766D01*
X115680812Y-70263711D01*
X115690244Y-70255200D01*
X115715527Y-70234632D01*
X115715527Y-70234631D01*
X115722108Y-70229278D01*
X115732456Y-70214616D01*
X115746074Y-70198449D01*
X119309821Y-66634702D01*
X119359182Y-66604454D01*
X119416898Y-66599912D01*
X119470385Y-66622067D01*
X119507985Y-66666090D01*
X119521500Y-66722385D01*
X119521500Y-66988553D01*
X119521500Y-66988574D01*
X119521501Y-66991456D01*
X119521770Y-66994329D01*
X119521771Y-66994343D01*
X119523554Y-67013362D01*
X119524259Y-67020879D01*
X119567619Y-67144794D01*
X119645577Y-67250423D01*
X119751206Y-67328381D01*
X119875121Y-67371741D01*
X119904543Y-67374500D01*
X120379456Y-67374499D01*
X120408879Y-67371741D01*
X120532794Y-67328381D01*
X120586544Y-67288710D01*
X120628455Y-67268607D01*
X120674824Y-67265348D01*
X121485881Y-67361811D01*
X121493251Y-67361648D01*
X121512174Y-67362677D01*
X121535000Y-67365682D01*
X121691762Y-67345044D01*
X121837841Y-67284536D01*
X121963282Y-67188282D01*
X122059536Y-67062841D01*
X122120044Y-66916762D01*
X122140682Y-66760000D01*
X122120044Y-66603238D01*
X122059536Y-66457159D01*
X121963282Y-66331718D01*
X121837841Y-66235464D01*
X121794313Y-66217434D01*
X121699271Y-66178066D01*
X121699268Y-66178065D01*
X121691762Y-66174956D01*
X121683708Y-66173895D01*
X121683702Y-66173894D01*
X121543059Y-66155379D01*
X121535000Y-66154318D01*
X121526941Y-66155379D01*
X121386297Y-66173894D01*
X121386289Y-66173896D01*
X121378238Y-66174956D01*
X121370730Y-66178065D01*
X121370728Y-66178066D01*
X121365991Y-66180028D01*
X121344693Y-66185747D01*
X121344882Y-66186603D01*
X120856152Y-66294341D01*
X120786760Y-66289665D01*
X120730800Y-66248365D01*
X120705877Y-66183434D01*
X120717786Y-66125285D01*
X120716381Y-66124794D01*
X120754087Y-66017036D01*
X120759741Y-66000879D01*
X120762500Y-65971457D01*
X120762499Y-65596544D01*
X120759741Y-65567121D01*
X120716381Y-65443206D01*
X120710864Y-65435731D01*
X120706868Y-65428169D01*
X120692500Y-65370231D01*
X120692500Y-64677769D01*
X120706868Y-64619831D01*
X120710863Y-64612269D01*
X120716381Y-64604794D01*
X120759741Y-64480879D01*
X120762500Y-64451457D01*
X120762499Y-64076544D01*
X120759741Y-64047121D01*
X120716381Y-63923206D01*
X120645844Y-63827632D01*
X120624389Y-63780084D01*
X120624389Y-63727916D01*
X120645845Y-63680366D01*
X120646832Y-63679029D01*
X120716381Y-63584794D01*
X120759741Y-63460879D01*
X120762500Y-63431457D01*
X120762499Y-63056544D01*
X120759741Y-63027121D01*
X120716381Y-62903206D01*
X120638423Y-62797577D01*
X120631991Y-62792830D01*
X120605720Y-62753564D01*
X120596225Y-62706269D01*
X120596172Y-62684019D01*
X120595865Y-62554663D01*
X120596314Y-62546513D01*
X120596227Y-62544207D01*
X120597270Y-62534965D01*
X120596235Y-62529499D01*
X120596775Y-62527201D01*
X120595801Y-62527204D01*
X120595526Y-62410909D01*
X120595221Y-62407886D01*
X120595066Y-62404854D01*
X120595081Y-62404853D01*
X120595070Y-62404641D01*
X120595682Y-62400000D01*
X120590621Y-62361567D01*
X120590196Y-62357899D01*
X120589557Y-62351531D01*
X120589556Y-62351528D01*
X120589555Y-62351516D01*
X120590825Y-62351388D01*
X120590945Y-62349809D01*
X120589106Y-62350052D01*
X120575044Y-62243238D01*
X120514536Y-62097159D01*
X120418282Y-61971718D01*
X120389978Y-61950000D01*
X120334779Y-61907644D01*
X120292841Y-61875464D01*
X120285333Y-61872354D01*
X120154271Y-61818066D01*
X120154268Y-61818065D01*
X120146762Y-61814956D01*
X120138708Y-61813895D01*
X120138702Y-61813894D01*
X119998059Y-61795379D01*
X119990000Y-61794318D01*
X119981941Y-61795379D01*
X119841297Y-61813894D01*
X119841289Y-61813896D01*
X119833238Y-61814956D01*
X119825733Y-61818064D01*
X119825728Y-61818066D01*
X119694666Y-61872354D01*
X119694662Y-61872355D01*
X119687159Y-61875464D01*
X119680714Y-61880408D01*
X119680711Y-61880411D01*
X119568164Y-61966771D01*
X119568160Y-61966774D01*
X119561718Y-61971718D01*
X119556774Y-61978160D01*
X119556771Y-61978164D01*
X119470411Y-62090711D01*
X119470408Y-62090714D01*
X119465464Y-62097159D01*
X119462355Y-62104662D01*
X119462354Y-62104666D01*
X119408066Y-62235728D01*
X119408064Y-62235733D01*
X119404956Y-62243238D01*
X119403896Y-62251289D01*
X119403894Y-62251297D01*
X119390718Y-62351388D01*
X119384318Y-62400000D01*
X119385379Y-62408059D01*
X119403895Y-62548707D01*
X119403896Y-62548710D01*
X119404956Y-62556762D01*
X119408063Y-62564265D01*
X119408064Y-62564266D01*
X119417424Y-62586864D01*
X119422392Y-62601320D01*
X119431587Y-62634630D01*
X119432649Y-62637405D01*
X119432652Y-62637413D01*
X119496830Y-62805051D01*
X119530108Y-62891976D01*
X119535520Y-62906111D01*
X119543703Y-62948645D01*
X119536758Y-62991398D01*
X119526750Y-63019999D01*
X119526748Y-63020006D01*
X119524259Y-63027121D01*
X119523555Y-63034624D01*
X119523554Y-63034631D01*
X119521770Y-63053657D01*
X119521769Y-63053670D01*
X119521500Y-63056543D01*
X119521500Y-63059435D01*
X119521500Y-63059436D01*
X119521500Y-63428553D01*
X119521500Y-63428574D01*
X119521501Y-63431456D01*
X119521770Y-63434329D01*
X119521771Y-63434343D01*
X119521887Y-63435578D01*
X119524259Y-63460879D01*
X119526752Y-63468005D01*
X119526753Y-63468007D01*
X119529715Y-63476471D01*
X119567619Y-63584794D01*
X119573137Y-63592270D01*
X119573139Y-63592274D01*
X119638154Y-63680367D01*
X119659610Y-63727917D01*
X119659610Y-63780083D01*
X119638154Y-63827633D01*
X119573139Y-63915725D01*
X119573137Y-63915729D01*
X119567619Y-63923206D01*
X119564550Y-63931975D01*
X119564549Y-63931978D01*
X119526752Y-64039994D01*
X119526750Y-64040000D01*
X119524259Y-64047121D01*
X119523554Y-64054637D01*
X119523554Y-64054638D01*
X119521770Y-64073657D01*
X119521769Y-64073670D01*
X119521500Y-64076543D01*
X119521500Y-64079435D01*
X119521500Y-64079436D01*
X119521500Y-64448553D01*
X119521500Y-64448574D01*
X119521501Y-64451456D01*
X119521770Y-64454329D01*
X119521771Y-64454343D01*
X119523554Y-64473361D01*
X119524259Y-64480879D01*
X119526752Y-64488005D01*
X119526753Y-64488007D01*
X119564549Y-64596022D01*
X119564550Y-64596024D01*
X119567619Y-64604794D01*
X119573134Y-64612267D01*
X119577132Y-64619831D01*
X119591500Y-64677769D01*
X119591500Y-65109500D01*
X119574887Y-65171500D01*
X119529500Y-65216887D01*
X119467500Y-65233500D01*
X119393522Y-65233500D01*
X119389289Y-65233428D01*
X119333648Y-65231527D01*
X119333644Y-65231527D01*
X119325174Y-65231238D01*
X119316940Y-65233244D01*
X119316934Y-65233245D01*
X119285256Y-65240965D01*
X119272785Y-65243335D01*
X119240479Y-65247775D01*
X119240475Y-65247776D01*
X119232080Y-65248930D01*
X119224308Y-65252305D01*
X119224300Y-65252308D01*
X119215609Y-65256083D01*
X119195581Y-65262817D01*
X119186395Y-65265056D01*
X119186387Y-65265059D01*
X119178148Y-65267067D01*
X119170757Y-65271222D01*
X119170753Y-65271224D01*
X119142333Y-65287203D01*
X119130969Y-65292847D01*
X119101061Y-65305839D01*
X119101055Y-65305842D01*
X119093280Y-65309220D01*
X119086704Y-65314569D01*
X119086702Y-65314571D01*
X119079358Y-65320546D01*
X119061883Y-65332439D01*
X119053635Y-65337076D01*
X119053627Y-65337081D01*
X119046241Y-65341235D01*
X119040250Y-65347225D01*
X119040239Y-65347234D01*
X119017184Y-65370289D01*
X119007764Y-65378790D01*
X118982473Y-65399367D01*
X118982469Y-65399370D01*
X118975892Y-65404722D01*
X118971005Y-65411644D01*
X118971002Y-65411648D01*
X118965539Y-65419388D01*
X118951920Y-65435554D01*
X115124294Y-69263181D01*
X115084066Y-69290061D01*
X115036613Y-69299500D01*
X103542106Y-69299500D01*
X103500507Y-69292314D01*
X102875504Y-69069745D01*
X102872738Y-69068760D01*
X102869906Y-69068045D01*
X102869883Y-69068038D01*
X102846896Y-69062235D01*
X102829808Y-69056573D01*
X102801762Y-69044956D01*
X102793704Y-69043895D01*
X102793700Y-69043894D01*
X102653059Y-69025379D01*
X102645000Y-69024318D01*
X102636941Y-69025379D01*
X102496297Y-69043894D01*
X102496289Y-69043896D01*
X102488238Y-69044956D01*
X102480733Y-69048064D01*
X102480728Y-69048066D01*
X102349666Y-69102354D01*
X102349662Y-69102355D01*
X102342159Y-69105464D01*
X102335714Y-69110408D01*
X102335711Y-69110411D01*
X102223164Y-69196771D01*
X102223160Y-69196774D01*
X102216718Y-69201718D01*
X102211774Y-69208160D01*
X102211771Y-69208164D01*
X102125411Y-69320711D01*
X102125408Y-69320714D01*
X102120464Y-69327159D01*
X102117355Y-69334662D01*
X102117354Y-69334666D01*
X102063066Y-69465728D01*
X102063064Y-69465733D01*
X102059956Y-69473238D01*
X102058896Y-69481289D01*
X102058894Y-69481297D01*
X102040702Y-69619482D01*
X102039318Y-69630000D01*
X99986578Y-69630000D01*
X99119871Y-62366170D01*
X99126962Y-62307758D01*
X99160180Y-62259190D01*
X99212047Y-62231404D01*
X99270884Y-62230655D01*
X99323439Y-62257112D01*
X99755000Y-62625000D01*
X100655000Y-62925000D01*
X101535000Y-62905000D01*
X102195000Y-62635000D01*
X102635000Y-62325000D01*
X102885000Y-62085000D01*
X103155000Y-61705000D01*
X103335000Y-61345000D01*
X103425000Y-61075000D01*
X103495000Y-60715000D01*
X103505000Y-60365000D01*
X103485000Y-60085000D01*
X103405000Y-59725000D01*
X103275000Y-59385000D01*
X103125000Y-59115000D01*
X102985000Y-58915000D01*
X102805000Y-58705000D01*
X102645000Y-58555000D01*
X102642455Y-58553066D01*
X102642447Y-58553059D01*
X102398127Y-58367376D01*
X102398121Y-58367372D01*
X102395000Y-58365000D01*
X102391605Y-58363041D01*
X102391600Y-58363038D01*
X102138042Y-58216755D01*
X102135000Y-58215000D01*
X102131787Y-58213603D01*
X102131779Y-58213599D01*
X101908107Y-58116350D01*
X101908093Y-58116344D01*
X101905000Y-58115000D01*
X101901769Y-58113997D01*
X101901763Y-58113995D01*
X101618848Y-58026194D01*
X101618845Y-58026193D01*
X101615000Y-58025000D01*
X101611038Y-58024316D01*
X101611026Y-58024314D01*
X101326641Y-57975283D01*
X101326643Y-57975283D01*
X101325000Y-57975000D01*
X101323356Y-57974806D01*
X101323352Y-57974806D01*
X101158608Y-57955424D01*
X101158600Y-57955423D01*
X101155000Y-57955000D01*
X100845000Y-57955000D01*
X100841774Y-57955339D01*
X100841765Y-57955340D01*
X100471567Y-57994308D01*
X100471560Y-57994309D01*
X100465000Y-57995000D01*
X100458735Y-57997060D01*
X100458725Y-57997063D01*
X99718668Y-58240503D01*
X99718664Y-58240505D01*
X99705000Y-58245000D01*
X99694769Y-58255118D01*
X99694768Y-58255119D01*
X98962739Y-58979104D01*
X98901311Y-59012233D01*
X98831719Y-59006937D01*
X98776011Y-58964894D01*
X98751835Y-58899423D01*
X98735250Y-58657565D01*
X98575071Y-56321632D01*
X98574851Y-56317322D01*
X98548081Y-55522121D01*
X98465625Y-53072826D01*
X98465558Y-53067990D01*
X98465832Y-53017101D01*
X98465880Y-53008236D01*
X98454947Y-52970246D01*
X98452036Y-52957718D01*
X98449973Y-52946146D01*
X98445097Y-52918800D01*
X98438398Y-52905350D01*
X98430233Y-52884370D01*
X98426077Y-52869927D01*
X98404878Y-52836547D01*
X98398556Y-52825347D01*
X98386948Y-52802038D01*
X98380938Y-52789970D01*
X98370719Y-52778949D01*
X98356978Y-52761124D01*
X98348920Y-52748435D01*
X98342250Y-52742592D01*
X98342244Y-52742585D01*
X98319186Y-52722387D01*
X98309965Y-52713424D01*
X98289113Y-52690935D01*
X98289111Y-52690933D01*
X98283083Y-52684432D01*
X98275467Y-52679892D01*
X98275461Y-52679887D01*
X98270164Y-52676730D01*
X98251960Y-52663500D01*
X98247332Y-52659446D01*
X98247330Y-52659444D01*
X98240660Y-52653602D01*
X98232613Y-52649874D01*
X98232608Y-52649871D01*
X98204793Y-52636986D01*
X98193426Y-52630987D01*
X98167077Y-52615281D01*
X98159459Y-52610740D01*
X98144901Y-52606992D01*
X98123701Y-52599424D01*
X98118115Y-52596836D01*
X98118111Y-52596834D01*
X98110068Y-52593109D01*
X98101303Y-52591800D01*
X98101298Y-52591799D01*
X98074392Y-52587783D01*
X98070959Y-52587270D01*
X98058359Y-52584715D01*
X98028672Y-52577073D01*
X98028669Y-52577072D01*
X98020081Y-52574862D01*
X98011217Y-52575160D01*
X98011215Y-52575160D01*
X97960337Y-52576872D01*
X97955499Y-52576940D01*
X95803627Y-52565351D01*
X95741922Y-52548524D01*
X95696810Y-52503184D01*
X95680295Y-52441394D01*
X95680288Y-52419179D01*
X95678205Y-46080759D01*
X95694927Y-46018533D01*
X95740619Y-45973097D01*
X95802941Y-45956724D01*
X97675840Y-45967850D01*
X97685232Y-45968262D01*
X97733322Y-45972206D01*
X97783313Y-45961874D01*
X97791465Y-45960472D01*
X97842073Y-45953503D01*
X97850162Y-45949866D01*
X97857939Y-45947633D01*
X97865576Y-45944874D01*
X97874266Y-45943079D01*
X97919353Y-45919064D01*
X97926750Y-45915436D01*
X97973342Y-45894493D01*
X97980083Y-45888721D01*
X97986929Y-45884379D01*
X97993459Y-45879595D01*
X98001294Y-45875423D01*
X98037775Y-45839691D01*
X98043868Y-45834111D01*
X98082670Y-45800892D01*
X98087514Y-45793450D01*
X98092843Y-45787374D01*
X98097773Y-45780928D01*
X98104116Y-45774718D01*
X98129046Y-45730170D01*
X98133327Y-45723087D01*
X98161198Y-45680282D01*
X98163748Y-45671780D01*
X98167155Y-45664437D01*
X98170067Y-45656869D01*
X98174402Y-45649126D01*
X98185781Y-45599312D01*
X98187884Y-45591348D01*
X98202564Y-45542433D01*
X98202850Y-45494160D01*
X98203263Y-45484766D01*
X98204221Y-45473086D01*
X98741091Y-38925014D01*
X98760947Y-38867206D01*
X98806011Y-38825906D01*
X98865331Y-38811153D01*
X98924492Y-38826533D01*
X98969117Y-38868308D01*
X99175610Y-39190954D01*
X99255000Y-39315000D01*
X99865000Y-39835000D01*
X100765000Y-40135000D01*
X101645000Y-40115000D01*
X102305000Y-39845000D01*
X102745000Y-39535000D01*
X102995000Y-39295000D01*
X103265000Y-38915000D01*
X103445000Y-38555000D01*
X103535000Y-38285000D01*
X103605000Y-37925000D01*
X103615000Y-37575000D01*
X103595000Y-37295000D01*
X103515000Y-36935000D01*
X103385000Y-36595000D01*
X103235000Y-36325000D01*
X103095000Y-36125000D01*
X102915000Y-35915000D01*
X102846074Y-35850382D01*
X102757333Y-35767187D01*
X102757330Y-35767185D01*
X102755000Y-35765000D01*
X102752455Y-35763066D01*
X102752447Y-35763059D01*
X102508127Y-35577376D01*
X102508121Y-35577372D01*
X102505000Y-35575000D01*
X102501605Y-35573041D01*
X102501600Y-35573038D01*
X102248042Y-35426755D01*
X102248041Y-35426754D01*
X102245000Y-35425000D01*
X102241787Y-35423603D01*
X102241779Y-35423599D01*
X102018107Y-35326350D01*
X102018093Y-35326344D01*
X102015000Y-35325000D01*
X102011769Y-35323997D01*
X102011763Y-35323995D01*
X101728848Y-35236194D01*
X101728845Y-35236193D01*
X101725000Y-35235000D01*
X101721038Y-35234316D01*
X101721026Y-35234314D01*
X101436641Y-35185283D01*
X101436643Y-35185283D01*
X101435000Y-35185000D01*
X101433356Y-35184806D01*
X101433352Y-35184806D01*
X101268608Y-35165424D01*
X101268600Y-35165423D01*
X101265000Y-35165000D01*
X100955000Y-35165000D01*
X100951774Y-35165339D01*
X100951765Y-35165340D01*
X100581567Y-35204308D01*
X100581560Y-35204309D01*
X100575000Y-35205000D01*
X100568735Y-35207060D01*
X100568725Y-35207063D01*
X99828668Y-35450503D01*
X99828664Y-35450505D01*
X99815000Y-35455000D01*
X99804769Y-35465118D01*
X99804768Y-35465119D01*
X99194084Y-36069091D01*
X99142748Y-36099629D01*
X99083091Y-36102622D01*
X99028956Y-36077376D01*
X98992905Y-36029750D01*
X98983304Y-35970794D01*
X98987220Y-35923036D01*
X99230566Y-32955000D01*
X100709318Y-32955000D01*
X100710379Y-32963059D01*
X100728894Y-33103702D01*
X100728895Y-33103708D01*
X100729956Y-33111762D01*
X100733065Y-33119268D01*
X100733066Y-33119271D01*
X100773641Y-33217226D01*
X100790464Y-33257841D01*
X100886718Y-33383282D01*
X101012159Y-33479536D01*
X101158238Y-33540044D01*
X101315000Y-33560682D01*
X101471762Y-33540044D01*
X101617841Y-33479536D01*
X101743282Y-33383282D01*
X101839536Y-33257841D01*
X101900044Y-33111762D01*
X101920682Y-32955000D01*
X101919620Y-32946937D01*
X101919620Y-32938811D01*
X101919790Y-32938810D01*
X101919596Y-32934926D01*
X101919878Y-32932070D01*
X101902469Y-32441894D01*
X101911006Y-32392082D01*
X101938708Y-32349815D01*
X103201705Y-31086819D01*
X103241934Y-31059939D01*
X103289387Y-31050500D01*
X104595500Y-31050500D01*
X104657500Y-31067113D01*
X104702887Y-31112500D01*
X104719500Y-31174500D01*
X104719500Y-31412779D01*
X104712541Y-31453734D01*
X104704752Y-31475991D01*
X104704748Y-31476005D01*
X104702259Y-31483121D01*
X104701554Y-31490635D01*
X104701554Y-31490637D01*
X104699770Y-31509657D01*
X104699769Y-31509670D01*
X104699500Y-31512543D01*
X104699500Y-31515435D01*
X104699500Y-31515436D01*
X104699500Y-31984553D01*
X104699500Y-31984574D01*
X104699501Y-31987456D01*
X104699770Y-31990329D01*
X104699771Y-31990343D01*
X104701554Y-32009362D01*
X104702259Y-32016879D01*
X104704752Y-32024005D01*
X104704753Y-32024007D01*
X104723089Y-32076407D01*
X104745619Y-32140794D01*
X104823577Y-32246423D01*
X104929206Y-32324381D01*
X105053121Y-32367741D01*
X105082543Y-32370500D01*
X105457456Y-32370499D01*
X105486879Y-32367741D01*
X105610794Y-32324381D01*
X105706367Y-32253844D01*
X105753916Y-32232389D01*
X105806084Y-32232389D01*
X105853632Y-32253844D01*
X105949206Y-32324381D01*
X106073121Y-32367741D01*
X106102543Y-32370500D01*
X106202325Y-32370499D01*
X106258617Y-32384014D01*
X106302641Y-32421613D01*
X106324796Y-32475101D01*
X106320254Y-32532817D01*
X106290004Y-32582180D01*
X106083570Y-32788614D01*
X106072957Y-32797167D01*
X106073033Y-32797255D01*
X106066328Y-32803064D01*
X106058872Y-32807857D01*
X106053067Y-32814555D01*
X106053066Y-32814557D01*
X106026353Y-32845385D01*
X106020327Y-32851858D01*
X106013907Y-32858278D01*
X106013902Y-32858283D01*
X106010779Y-32861407D01*
X106008132Y-32864942D01*
X106008117Y-32864960D01*
X106002674Y-32872230D01*
X105997132Y-32879107D01*
X105970429Y-32909925D01*
X105970425Y-32909930D01*
X105964623Y-32916627D01*
X105960940Y-32924689D01*
X105956144Y-32932153D01*
X105956048Y-32932091D01*
X105955667Y-32932732D01*
X105955768Y-32932787D01*
X105951519Y-32940568D01*
X105946204Y-32947669D01*
X105943105Y-32955976D01*
X105943104Y-32955979D01*
X105928852Y-32994191D01*
X105925466Y-33002366D01*
X105908518Y-33039476D01*
X105908516Y-33039482D01*
X105904835Y-33047543D01*
X105903572Y-33056319D01*
X105901075Y-33064827D01*
X105900964Y-33064794D01*
X105900779Y-33065520D01*
X105900892Y-33065545D01*
X105899007Y-33074208D01*
X105895909Y-33082517D01*
X105895276Y-33091360D01*
X105895276Y-33091362D01*
X105892365Y-33132054D01*
X105891420Y-33140843D01*
X105889500Y-33154201D01*
X105889500Y-33158630D01*
X105889500Y-33167692D01*
X105889184Y-33176539D01*
X105886273Y-33217226D01*
X105886273Y-33217231D01*
X105885641Y-33226073D01*
X105887525Y-33234737D01*
X105888159Y-33243586D01*
X105888043Y-33243594D01*
X105889500Y-33257144D01*
X105889500Y-40621324D01*
X105880061Y-40668777D01*
X105853181Y-40709005D01*
X103343570Y-43218614D01*
X103332957Y-43227167D01*
X103333033Y-43227255D01*
X103326328Y-43233064D01*
X103318872Y-43237857D01*
X103313067Y-43244555D01*
X103313066Y-43244557D01*
X103286353Y-43275385D01*
X103280327Y-43281858D01*
X103273907Y-43288278D01*
X103273902Y-43288283D01*
X103270779Y-43291407D01*
X103268132Y-43294942D01*
X103268117Y-43294960D01*
X103262674Y-43302230D01*
X103257132Y-43309107D01*
X103230429Y-43339925D01*
X103230425Y-43339930D01*
X103224623Y-43346627D01*
X103220940Y-43354689D01*
X103216144Y-43362153D01*
X103216048Y-43362091D01*
X103215667Y-43362732D01*
X103215768Y-43362787D01*
X103211519Y-43370568D01*
X103206204Y-43377669D01*
X103203105Y-43385976D01*
X103203104Y-43385979D01*
X103188852Y-43424191D01*
X103185466Y-43432366D01*
X103168518Y-43469476D01*
X103168516Y-43469482D01*
X103164835Y-43477543D01*
X103163572Y-43486319D01*
X103161075Y-43494827D01*
X103160964Y-43494794D01*
X103160779Y-43495520D01*
X103160892Y-43495545D01*
X103159007Y-43504208D01*
X103155909Y-43512517D01*
X103155276Y-43521360D01*
X103155276Y-43521362D01*
X103152365Y-43562054D01*
X103151420Y-43570843D01*
X103149500Y-43584201D01*
X103149500Y-43588630D01*
X103149500Y-43597692D01*
X103149184Y-43606539D01*
X103146273Y-43647226D01*
X103146273Y-43647231D01*
X103145641Y-43656073D01*
X103147525Y-43664737D01*
X103148159Y-43673586D01*
X103148043Y-43673594D01*
X103149500Y-43687144D01*
X103149500Y-51062856D01*
X103148043Y-51076405D01*
X103148159Y-51076414D01*
X103147525Y-51085262D01*
X103145641Y-51093927D01*
X103146273Y-51102767D01*
X103146273Y-51102773D01*
X103149184Y-51143461D01*
X103149500Y-51152308D01*
X103149500Y-51165799D01*
X103150130Y-51170180D01*
X103151420Y-51179155D01*
X103152365Y-51187946D01*
X103155016Y-51225009D01*
X103155909Y-51237483D01*
X103159006Y-51245789D01*
X103160892Y-51254455D01*
X103160779Y-51254479D01*
X103160964Y-51255203D01*
X103161075Y-51255171D01*
X103163572Y-51263676D01*
X103164835Y-51272457D01*
X103168519Y-51280524D01*
X103168520Y-51280527D01*
X103185457Y-51317613D01*
X103188845Y-51325790D01*
X103203104Y-51364021D01*
X103203105Y-51364023D01*
X103206204Y-51372331D01*
X103211519Y-51379431D01*
X103215768Y-51387212D01*
X103215666Y-51387267D01*
X103216046Y-51387907D01*
X103216143Y-51387845D01*
X103220939Y-51395307D01*
X103224623Y-51403373D01*
X103257147Y-51440907D01*
X103262688Y-51447785D01*
X103270779Y-51458593D01*
X103273915Y-51461729D01*
X103273916Y-51461730D01*
X103280322Y-51468136D01*
X103286354Y-51474615D01*
X103313065Y-51505442D01*
X103313067Y-51505444D01*
X103318872Y-51512143D01*
X103326328Y-51516934D01*
X103333037Y-51522748D01*
X103332961Y-51522835D01*
X103343571Y-51531385D01*
X107613181Y-55800995D01*
X107640061Y-55841223D01*
X107649500Y-55888676D01*
X107649500Y-59955739D01*
X107646980Y-59980609D01*
X107646847Y-59981255D01*
X107645213Y-59986671D01*
X107644589Y-59992280D01*
X107644588Y-59992289D01*
X107548284Y-60859014D01*
X107548283Y-60859028D01*
X107547807Y-60863316D01*
X107547932Y-60867644D01*
X107547933Y-60867644D01*
X107547999Y-60869908D01*
X107546991Y-60889683D01*
X107545378Y-60901938D01*
X107545378Y-60901947D01*
X107544318Y-60910000D01*
X107545378Y-60918052D01*
X107545378Y-60918057D01*
X107563894Y-61058702D01*
X107563895Y-61058708D01*
X107564956Y-61066762D01*
X107568065Y-61074268D01*
X107568066Y-61074271D01*
X107610010Y-61175533D01*
X107625464Y-61212841D01*
X107721718Y-61338282D01*
X107847159Y-61434536D01*
X107993238Y-61495044D01*
X108150000Y-61515682D01*
X108306762Y-61495044D01*
X108371190Y-61468356D01*
X108434205Y-61459897D01*
X108493129Y-61483782D01*
X108532470Y-61533730D01*
X108541885Y-61596610D01*
X108510352Y-61880411D01*
X108507807Y-61903316D01*
X108507932Y-61907644D01*
X108507933Y-61907644D01*
X108507999Y-61909908D01*
X108506991Y-61929683D01*
X108505378Y-61941938D01*
X108505378Y-61941947D01*
X108504318Y-61950000D01*
X108505378Y-61958052D01*
X108505378Y-61958057D01*
X108523894Y-62098702D01*
X108523895Y-62098708D01*
X108524956Y-62106762D01*
X108528065Y-62114268D01*
X108528066Y-62114271D01*
X108581486Y-62243238D01*
X108585464Y-62252841D01*
X108590411Y-62259288D01*
X108667502Y-62359756D01*
X108681718Y-62378282D01*
X108807159Y-62474536D01*
X108953238Y-62535044D01*
X109110000Y-62555682D01*
X109266762Y-62535044D01*
X109412841Y-62474536D01*
X109430014Y-62461358D01*
X109493347Y-62436332D01*
X109560344Y-62448523D01*
X109610801Y-62494255D01*
X109629500Y-62559735D01*
X109629500Y-62840614D01*
X109620061Y-62888067D01*
X109593181Y-62928295D01*
X108521930Y-63999543D01*
X108507826Y-64011674D01*
X108490027Y-64024793D01*
X108490008Y-64024808D01*
X108487667Y-64026534D01*
X108485496Y-64028476D01*
X108485483Y-64028487D01*
X107836467Y-64609186D01*
X107836461Y-64609191D01*
X107833344Y-64611981D01*
X107830628Y-64615168D01*
X107828907Y-64616932D01*
X107820848Y-64624086D01*
X107818158Y-64626776D01*
X107811718Y-64631718D01*
X107806774Y-64638160D01*
X107806772Y-64638163D01*
X107720411Y-64750711D01*
X107720408Y-64750714D01*
X107715464Y-64757159D01*
X107712355Y-64764662D01*
X107712354Y-64764666D01*
X107671837Y-64862483D01*
X107654956Y-64903238D01*
X107653895Y-64911293D01*
X107653894Y-64911299D01*
X107651211Y-64931684D01*
X107629847Y-64986623D01*
X107585529Y-65025489D01*
X107528272Y-65039500D01*
X106814500Y-65039500D01*
X106752500Y-65022887D01*
X106707113Y-64977500D01*
X106690500Y-64915500D01*
X106690500Y-64614722D01*
X106703616Y-64559218D01*
X106740187Y-64515456D01*
X106817546Y-64457546D01*
X106903796Y-64342331D01*
X106954091Y-64207483D01*
X106960500Y-64147873D01*
X106960499Y-63652128D01*
X106954091Y-63592517D01*
X106903796Y-63457669D01*
X106817546Y-63342454D01*
X106805212Y-63333221D01*
X106709431Y-63261519D01*
X106709430Y-63261518D01*
X106702331Y-63256204D01*
X106631965Y-63229959D01*
X106574752Y-63208620D01*
X106574750Y-63208619D01*
X106567483Y-63205909D01*
X106559770Y-63205079D01*
X106559767Y-63205079D01*
X106511180Y-63199855D01*
X106511169Y-63199854D01*
X106507873Y-63199500D01*
X106504550Y-63199500D01*
X105865439Y-63199500D01*
X105865420Y-63199500D01*
X105862128Y-63199501D01*
X105858850Y-63199853D01*
X105858838Y-63199854D01*
X105802517Y-63205909D01*
X105802324Y-63204119D01*
X105756391Y-63203980D01*
X105704984Y-63177668D01*
X105671071Y-63130929D01*
X105663284Y-63112130D01*
X105655358Y-63045391D01*
X105683416Y-62984318D01*
X105739216Y-62946855D01*
X105802508Y-62944170D01*
X105802517Y-62944091D01*
X105862127Y-62950500D01*
X106507872Y-62950499D01*
X106567483Y-62944091D01*
X106702331Y-62893796D01*
X106817546Y-62807546D01*
X106903796Y-62692331D01*
X106954091Y-62557483D01*
X106960500Y-62497873D01*
X106960499Y-62002128D01*
X106954091Y-61942517D01*
X106903796Y-61807669D01*
X106817546Y-61692454D01*
X106810449Y-61687141D01*
X106810447Y-61687139D01*
X106767732Y-61655163D01*
X106728258Y-61605184D01*
X106718800Y-61542205D01*
X106787192Y-60926685D01*
X106787000Y-60920109D01*
X106788008Y-60900304D01*
X106789621Y-60888056D01*
X106790682Y-60880000D01*
X106770044Y-60723238D01*
X106709536Y-60577159D01*
X106613282Y-60451718D01*
X106487841Y-60355464D01*
X106480333Y-60352354D01*
X106349271Y-60298066D01*
X106349268Y-60298065D01*
X106341762Y-60294956D01*
X106333708Y-60293895D01*
X106333702Y-60293894D01*
X106193059Y-60275379D01*
X106185000Y-60274318D01*
X106176941Y-60275379D01*
X106036297Y-60293894D01*
X106036289Y-60293896D01*
X106028238Y-60294956D01*
X106020733Y-60298064D01*
X106020728Y-60298066D01*
X105889666Y-60352354D01*
X105889662Y-60352355D01*
X105882159Y-60355464D01*
X105875714Y-60360408D01*
X105875711Y-60360411D01*
X105763164Y-60446771D01*
X105763160Y-60446774D01*
X105756718Y-60451718D01*
X105751774Y-60458160D01*
X105751771Y-60458164D01*
X105665411Y-60570711D01*
X105665408Y-60570714D01*
X105660464Y-60577159D01*
X105657355Y-60584662D01*
X105657354Y-60584666D01*
X105603066Y-60715728D01*
X105603064Y-60715733D01*
X105599956Y-60723238D01*
X105598896Y-60731289D01*
X105598894Y-60731297D01*
X105580378Y-60871942D01*
X105580378Y-60871948D01*
X105579318Y-60880000D01*
X105580378Y-60888053D01*
X105580378Y-60888059D01*
X105581991Y-60900315D01*
X105582998Y-60920090D01*
X105582807Y-60926682D01*
X105583285Y-60930984D01*
X105651198Y-61542204D01*
X105641740Y-61605184D01*
X105602268Y-61655163D01*
X105559550Y-61687141D01*
X105559546Y-61687144D01*
X105552454Y-61692454D01*
X105547144Y-61699546D01*
X105547140Y-61699551D01*
X105471519Y-61800568D01*
X105471516Y-61800572D01*
X105466204Y-61807669D01*
X105463104Y-61815978D01*
X105463104Y-61815980D01*
X105418620Y-61935247D01*
X105418619Y-61935250D01*
X105415909Y-61942517D01*
X105415079Y-61950227D01*
X105415079Y-61950232D01*
X105409855Y-61998819D01*
X105409854Y-61998831D01*
X105409500Y-62002127D01*
X105409500Y-62005448D01*
X105409500Y-62005449D01*
X105409500Y-62494560D01*
X105409500Y-62494578D01*
X105409501Y-62497872D01*
X105409853Y-62501150D01*
X105409854Y-62501161D01*
X105415079Y-62549768D01*
X105415080Y-62549773D01*
X105415909Y-62557483D01*
X105418619Y-62564749D01*
X105418620Y-62564753D01*
X105442105Y-62627719D01*
X105449213Y-62684303D01*
X105430243Y-62738084D01*
X105389208Y-62777687D01*
X105334788Y-62794735D01*
X105292839Y-62787944D01*
X105292243Y-62790170D01*
X105284390Y-62788065D01*
X105276883Y-62784956D01*
X105268829Y-62783895D01*
X105268823Y-62783894D01*
X105128180Y-62765379D01*
X105120121Y-62764318D01*
X105112062Y-62765379D01*
X104971418Y-62783894D01*
X104971410Y-62783896D01*
X104963359Y-62784956D01*
X104955854Y-62788064D01*
X104955849Y-62788066D01*
X104824787Y-62842354D01*
X104824783Y-62842355D01*
X104817280Y-62845464D01*
X104810835Y-62850408D01*
X104810832Y-62850411D01*
X104698285Y-62936771D01*
X104698281Y-62936774D01*
X104691839Y-62941718D01*
X104686895Y-62948160D01*
X104686894Y-62948162D01*
X104679368Y-62957971D01*
X104666083Y-62972679D01*
X104661296Y-62977196D01*
X104658594Y-62980572D01*
X104658587Y-62980581D01*
X104113824Y-63661534D01*
X104113819Y-63661541D01*
X104110289Y-63665954D01*
X104107615Y-63670939D01*
X104107248Y-63671496D01*
X104091447Y-63690858D01*
X103958598Y-63823707D01*
X103912170Y-63852963D01*
X103857664Y-63859315D01*
X103812873Y-63854500D01*
X103809550Y-63854500D01*
X103170439Y-63854500D01*
X103170420Y-63854500D01*
X103167128Y-63854501D01*
X103163850Y-63854853D01*
X103163838Y-63854854D01*
X103115231Y-63860079D01*
X103115225Y-63860080D01*
X103107517Y-63860909D01*
X103100252Y-63863618D01*
X103100246Y-63863620D01*
X102980980Y-63908104D01*
X102980978Y-63908104D01*
X102972669Y-63911204D01*
X102965572Y-63916516D01*
X102965568Y-63916519D01*
X102864550Y-63992141D01*
X102864546Y-63992144D01*
X102857454Y-63997454D01*
X102852144Y-64004546D01*
X102852141Y-64004550D01*
X102776519Y-64105568D01*
X102776516Y-64105572D01*
X102771204Y-64112669D01*
X102768104Y-64120978D01*
X102768104Y-64120980D01*
X102723620Y-64240247D01*
X102723619Y-64240250D01*
X102720909Y-64247517D01*
X102720079Y-64255227D01*
X102720079Y-64255232D01*
X102714855Y-64303819D01*
X102714854Y-64303831D01*
X102714500Y-64307127D01*
X102714500Y-64310448D01*
X102714500Y-64310449D01*
X102714500Y-64799560D01*
X102714500Y-64799578D01*
X102714501Y-64802872D01*
X102714853Y-64806150D01*
X102714854Y-64806161D01*
X102720079Y-64854768D01*
X102720080Y-64854773D01*
X102720909Y-64862483D01*
X102723619Y-64869749D01*
X102723620Y-64869753D01*
X102750681Y-64942307D01*
X102771204Y-64997331D01*
X102776518Y-65004430D01*
X102776519Y-65004431D01*
X102838924Y-65087794D01*
X102857454Y-65112546D01*
X102972669Y-65198796D01*
X103107517Y-65249091D01*
X103167127Y-65255500D01*
X103812872Y-65255499D01*
X103872483Y-65249091D01*
X104007331Y-65198796D01*
X104122546Y-65112546D01*
X104208796Y-64997331D01*
X104211896Y-64989016D01*
X104213186Y-64986656D01*
X104240821Y-64952364D01*
X104246025Y-64947854D01*
X104252911Y-64942307D01*
X104260168Y-64936875D01*
X104263714Y-64934221D01*
X104273263Y-64924670D01*
X104279725Y-64918653D01*
X104317264Y-64886128D01*
X104322058Y-64878667D01*
X104327870Y-64871961D01*
X104327957Y-64872036D01*
X104336503Y-64861430D01*
X104799264Y-64398669D01*
X104818631Y-64382866D01*
X104819167Y-64382512D01*
X104824169Y-64379830D01*
X105209528Y-64071540D01*
X105269669Y-64045585D01*
X105334645Y-64053892D01*
X105386322Y-64094147D01*
X105410279Y-64155114D01*
X105415079Y-64199769D01*
X105415080Y-64199774D01*
X105415909Y-64207483D01*
X105418619Y-64214749D01*
X105418620Y-64214753D01*
X105433718Y-64255232D01*
X105466204Y-64342331D01*
X105471518Y-64349430D01*
X105471519Y-64349431D01*
X105496548Y-64382866D01*
X105552454Y-64457546D01*
X105639812Y-64522942D01*
X105676384Y-64566704D01*
X105689500Y-64622208D01*
X105689500Y-64915501D01*
X105672887Y-64977501D01*
X105627500Y-65022888D01*
X105565500Y-65039501D01*
X104730136Y-65039501D01*
X104726589Y-65039912D01*
X104726577Y-65039913D01*
X104714277Y-65041340D01*
X104714275Y-65041340D01*
X104705009Y-65042415D01*
X104696479Y-65046180D01*
X104696476Y-65046182D01*
X104612745Y-65083153D01*
X104612743Y-65083154D01*
X104602235Y-65087794D01*
X104594112Y-65095916D01*
X104594109Y-65095919D01*
X104530919Y-65159109D01*
X104530916Y-65159112D01*
X104522794Y-65167235D01*
X104518154Y-65177743D01*
X104518153Y-65177745D01*
X104481181Y-65261477D01*
X104481179Y-65261484D01*
X104477415Y-65270009D01*
X104476340Y-65279271D01*
X104476340Y-65279273D01*
X104474911Y-65291585D01*
X104474910Y-65291599D01*
X104474500Y-65295135D01*
X104474500Y-65298709D01*
X104474500Y-65298710D01*
X104474500Y-65787765D01*
X104455762Y-65853308D01*
X104405211Y-65899043D01*
X104338125Y-65911146D01*
X104274779Y-65885960D01*
X104234318Y-65831098D01*
X104218156Y-65787765D01*
X104208796Y-65762669D01*
X104122546Y-65647454D01*
X104081903Y-65617029D01*
X104014431Y-65566519D01*
X104014430Y-65566518D01*
X104007331Y-65561204D01*
X103936965Y-65534959D01*
X103879752Y-65513620D01*
X103879750Y-65513619D01*
X103872483Y-65510909D01*
X103864770Y-65510079D01*
X103864767Y-65510079D01*
X103816180Y-65504855D01*
X103816169Y-65504854D01*
X103812873Y-65504500D01*
X103809550Y-65504500D01*
X103170439Y-65504500D01*
X103170420Y-65504500D01*
X103167128Y-65504501D01*
X103163850Y-65504853D01*
X103163838Y-65504854D01*
X103115231Y-65510079D01*
X103115225Y-65510080D01*
X103107517Y-65510909D01*
X103100252Y-65513618D01*
X103100246Y-65513620D01*
X102980980Y-65558104D01*
X102980978Y-65558104D01*
X102972669Y-65561204D01*
X102965572Y-65566516D01*
X102965568Y-65566519D01*
X102864550Y-65642141D01*
X102864546Y-65642144D01*
X102857454Y-65647454D01*
X102852144Y-65654546D01*
X102852141Y-65654550D01*
X102776519Y-65755568D01*
X102776516Y-65755572D01*
X102771204Y-65762669D01*
X102768104Y-65770978D01*
X102768104Y-65770980D01*
X102723620Y-65890247D01*
X102723619Y-65890250D01*
X102720909Y-65897517D01*
X102720079Y-65905227D01*
X102720079Y-65905232D01*
X102714855Y-65953819D01*
X102714854Y-65953831D01*
X102714500Y-65957127D01*
X102714500Y-65960448D01*
X102714500Y-65960449D01*
X102714500Y-66449560D01*
X102714500Y-66449578D01*
X102714501Y-66452872D01*
X102714853Y-66456150D01*
X102714854Y-66456161D01*
X102720079Y-66504768D01*
X102720080Y-66504773D01*
X102720909Y-66512483D01*
X102723619Y-66519749D01*
X102723620Y-66519753D01*
X102734632Y-66549277D01*
X102771204Y-66647331D01*
X102857454Y-66762546D01*
X102972669Y-66848796D01*
X103107517Y-66899091D01*
X103167127Y-66905500D01*
X103431323Y-66905499D01*
X103478776Y-66914938D01*
X103519004Y-66941818D01*
X103908613Y-67331427D01*
X103917164Y-67342038D01*
X103917252Y-67341963D01*
X103923063Y-67348668D01*
X103927857Y-67356128D01*
X103965400Y-67388658D01*
X103971861Y-67394675D01*
X103981407Y-67404221D01*
X103989390Y-67410197D01*
X103992207Y-67412306D01*
X103999099Y-67417860D01*
X104029919Y-67444566D01*
X104029925Y-67444570D01*
X104036627Y-67450377D01*
X104044694Y-67454061D01*
X104052154Y-67458855D01*
X104052090Y-67458953D01*
X104052723Y-67459328D01*
X104052779Y-67459227D01*
X104060564Y-67463477D01*
X104063607Y-67465755D01*
X104063688Y-67465834D01*
X104063806Y-67465904D01*
X104067668Y-67468795D01*
X104067271Y-67469324D01*
X104109988Y-67510935D01*
X104126725Y-67575560D01*
X104107529Y-67639498D01*
X104057963Y-67684217D01*
X103992394Y-67696756D01*
X103577387Y-67661980D01*
X103577375Y-67661979D01*
X103573141Y-67661625D01*
X103568888Y-67661854D01*
X103564614Y-67661792D01*
X103564617Y-67661587D01*
X103547136Y-67660915D01*
X103543057Y-67660378D01*
X103543053Y-67660378D01*
X103535000Y-67659318D01*
X103526948Y-67660378D01*
X103526942Y-67660378D01*
X103386297Y-67678894D01*
X103386289Y-67678896D01*
X103378238Y-67679956D01*
X103370733Y-67683064D01*
X103370728Y-67683066D01*
X103239666Y-67737354D01*
X103239662Y-67737355D01*
X103232159Y-67740464D01*
X103225714Y-67745408D01*
X103225711Y-67745411D01*
X103113164Y-67831771D01*
X103113160Y-67831774D01*
X103106718Y-67836718D01*
X103101774Y-67843160D01*
X103101771Y-67843164D01*
X103015411Y-67955711D01*
X103015408Y-67955714D01*
X103010464Y-67962159D01*
X103007355Y-67969662D01*
X103007354Y-67969666D01*
X102953066Y-68100728D01*
X102953064Y-68100733D01*
X102949956Y-68108238D01*
X102948896Y-68116289D01*
X102948894Y-68116297D01*
X102930702Y-68254482D01*
X102929318Y-68265000D01*
X102930379Y-68273059D01*
X102948894Y-68413702D01*
X102948895Y-68413708D01*
X102949956Y-68421762D01*
X103010464Y-68567841D01*
X103106718Y-68693282D01*
X103232159Y-68789536D01*
X103378238Y-68850044D01*
X103535000Y-68870682D01*
X103564973Y-68866735D01*
X103581570Y-68865677D01*
X103590529Y-68865709D01*
X104413280Y-68750803D01*
X104480502Y-68760170D01*
X104521418Y-68794140D01*
X104522794Y-68792765D01*
X104602235Y-68872206D01*
X104673111Y-68903501D01*
X104696477Y-68913818D01*
X104696478Y-68913818D01*
X104705009Y-68917585D01*
X104730135Y-68920500D01*
X107609864Y-68920499D01*
X107634991Y-68917585D01*
X107737765Y-68872206D01*
X107817206Y-68792765D01*
X107862585Y-68689991D01*
X107865500Y-68664865D01*
X107865499Y-67835136D01*
X107862585Y-67810009D01*
X107817206Y-67707235D01*
X107809079Y-67699108D01*
X107802588Y-67689632D01*
X107804400Y-67688390D01*
X107780558Y-67647094D01*
X107780558Y-67582906D01*
X107804400Y-67541609D01*
X107802588Y-67540368D01*
X107809079Y-67530891D01*
X107817206Y-67522765D01*
X107862585Y-67419991D01*
X107865500Y-67394865D01*
X107865499Y-66565136D01*
X107862585Y-66540009D01*
X107817206Y-66437235D01*
X107809079Y-66429108D01*
X107802588Y-66419632D01*
X107804400Y-66418390D01*
X107780558Y-66377094D01*
X107780558Y-66312906D01*
X107804400Y-66271609D01*
X107802588Y-66270368D01*
X107809079Y-66260891D01*
X107817206Y-66252765D01*
X107862585Y-66149991D01*
X107865500Y-66124865D01*
X107865499Y-65740430D01*
X107880141Y-65681979D01*
X107920609Y-65637329D01*
X107977346Y-65617029D01*
X108036952Y-65625871D01*
X108083238Y-65645044D01*
X108240000Y-65665682D01*
X108396762Y-65645044D01*
X108396875Y-65645907D01*
X108444689Y-65644341D01*
X108495985Y-65667582D01*
X108531712Y-65711114D01*
X108544500Y-65765959D01*
X108544500Y-66121285D01*
X108544500Y-66121302D01*
X108544501Y-66124864D01*
X108544912Y-66128411D01*
X108544913Y-66128422D01*
X108546340Y-66140722D01*
X108547415Y-66149991D01*
X108551181Y-66158521D01*
X108551182Y-66158523D01*
X108577194Y-66217434D01*
X108592794Y-66252765D01*
X108672235Y-66332206D01*
X108743111Y-66363501D01*
X108766477Y-66373818D01*
X108766478Y-66373818D01*
X108775009Y-66377585D01*
X108800135Y-66380500D01*
X111679864Y-66380499D01*
X111704991Y-66377585D01*
X111807765Y-66332206D01*
X111887206Y-66252765D01*
X111889109Y-66248453D01*
X111921526Y-66217434D01*
X111969375Y-66199985D01*
X111979172Y-66198576D01*
X111987949Y-66197633D01*
X112037483Y-66194091D01*
X112045793Y-66190990D01*
X112054460Y-66189106D01*
X112054484Y-66189220D01*
X112055202Y-66189037D01*
X112055169Y-66188925D01*
X112063675Y-66186427D01*
X112072457Y-66185165D01*
X112117647Y-66164526D01*
X112125787Y-66161155D01*
X112172331Y-66143796D01*
X112179433Y-66138478D01*
X112187219Y-66134228D01*
X112187274Y-66134330D01*
X112187908Y-66133954D01*
X112187845Y-66133855D01*
X112195301Y-66129062D01*
X112203373Y-66125377D01*
X112240903Y-66092855D01*
X112247775Y-66087318D01*
X112258593Y-66079221D01*
X112268142Y-66069670D01*
X112274604Y-66063653D01*
X112312143Y-66031128D01*
X112316937Y-66023667D01*
X112322749Y-66016961D01*
X112322836Y-66017036D01*
X112331382Y-66006430D01*
X120886427Y-57451384D01*
X120897034Y-57442837D01*
X120896959Y-57442750D01*
X120903665Y-57436938D01*
X120911128Y-57432143D01*
X120943660Y-57394596D01*
X120949681Y-57388131D01*
X120959220Y-57378593D01*
X120967308Y-57367786D01*
X120972853Y-57360906D01*
X121005377Y-57323373D01*
X121009062Y-57315301D01*
X121013855Y-57307845D01*
X121013954Y-57307908D01*
X121014330Y-57307274D01*
X121014228Y-57307219D01*
X121018478Y-57299433D01*
X121023796Y-57292331D01*
X121041155Y-57245787D01*
X121044526Y-57237647D01*
X121065165Y-57192457D01*
X121066427Y-57183675D01*
X121068925Y-57175169D01*
X121069037Y-57175202D01*
X121069220Y-57174484D01*
X121069106Y-57174460D01*
X121070990Y-57165793D01*
X121074091Y-57157483D01*
X121077633Y-57107949D01*
X121078578Y-57099162D01*
X121080500Y-57085799D01*
X121080500Y-57072308D01*
X121080816Y-57063461D01*
X121083726Y-57022773D01*
X121084359Y-57013927D01*
X121082473Y-57005260D01*
X121081841Y-56996414D01*
X121081956Y-56996405D01*
X121080500Y-56982856D01*
X121080500Y-53385000D01*
X121879435Y-53385000D01*
X121880215Y-53391923D01*
X121897675Y-53546891D01*
X121899632Y-53564255D01*
X121901928Y-53570819D01*
X121901930Y-53570824D01*
X121956913Y-53727956D01*
X121959211Y-53734522D01*
X121962912Y-53740412D01*
X122044337Y-53870000D01*
X122055184Y-53887262D01*
X122182738Y-54014816D01*
X122335478Y-54110789D01*
X122505745Y-54170368D01*
X122640046Y-54185500D01*
X123826470Y-54185500D01*
X123829954Y-54185500D01*
X123964255Y-54170368D01*
X124134522Y-54110789D01*
X124287262Y-54014816D01*
X124414816Y-53887262D01*
X124510789Y-53734522D01*
X124570368Y-53564255D01*
X124590565Y-53385000D01*
X124570368Y-53205745D01*
X124510789Y-53035478D01*
X124414816Y-52882738D01*
X124287262Y-52755184D01*
X124228316Y-52718146D01*
X124142500Y-52664224D01*
X124100969Y-52621029D01*
X124084542Y-52563402D01*
X124097056Y-52504802D01*
X124135585Y-52458914D01*
X124196587Y-52414594D01*
X124297324Y-52292823D01*
X124364614Y-52149826D01*
X124394227Y-51994588D01*
X124384304Y-51836862D01*
X124335467Y-51686559D01*
X124250786Y-51553123D01*
X124245100Y-51547784D01*
X124245099Y-51547782D01*
X124141268Y-51450278D01*
X124135582Y-51444938D01*
X124066749Y-51407097D01*
X124003929Y-51372561D01*
X124003924Y-51372559D01*
X123997092Y-51368803D01*
X123989536Y-51366863D01*
X123989534Y-51366862D01*
X123851575Y-51331440D01*
X123851574Y-51331439D01*
X123844019Y-51329500D01*
X123725650Y-51329500D01*
X123721790Y-51329987D01*
X123721783Y-51329988D01*
X123615946Y-51343358D01*
X123615942Y-51343358D01*
X123608208Y-51344336D01*
X123600958Y-51347206D01*
X123600956Y-51347207D01*
X123468517Y-51399643D01*
X123468511Y-51399646D01*
X123461268Y-51402514D01*
X123454963Y-51407094D01*
X123454959Y-51407097D01*
X123339726Y-51490818D01*
X123339719Y-51490823D01*
X123333413Y-51495406D01*
X123328444Y-51501411D01*
X123328438Y-51501418D01*
X123237649Y-51611165D01*
X123237647Y-51611167D01*
X123232676Y-51617177D01*
X123229356Y-51624232D01*
X123229353Y-51624237D01*
X123196536Y-51693977D01*
X123165386Y-51760174D01*
X123163925Y-51767830D01*
X123163924Y-51767835D01*
X123137233Y-51907754D01*
X123137232Y-51907760D01*
X123135773Y-51915412D01*
X123136262Y-51923189D01*
X123136262Y-51923195D01*
X123140264Y-51986804D01*
X123145696Y-52073138D01*
X123148105Y-52080553D01*
X123148106Y-52080556D01*
X123189094Y-52206704D01*
X123194533Y-52223441D01*
X123198710Y-52230023D01*
X123198712Y-52230027D01*
X123242379Y-52298834D01*
X123279214Y-52356877D01*
X123284899Y-52362215D01*
X123284901Y-52362218D01*
X123293305Y-52370110D01*
X123325351Y-52419232D01*
X123331236Y-52477588D01*
X123309644Y-52532120D01*
X123265406Y-52570629D01*
X123208419Y-52584500D01*
X122640046Y-52584500D01*
X122636588Y-52584889D01*
X122636581Y-52584890D01*
X122512666Y-52598852D01*
X122512664Y-52598852D01*
X122505745Y-52599632D01*
X122499176Y-52601930D01*
X122499174Y-52601931D01*
X122342043Y-52656913D01*
X122342036Y-52656915D01*
X122335478Y-52659211D01*
X122329590Y-52662910D01*
X122329587Y-52662912D01*
X122188638Y-52751476D01*
X122188633Y-52751479D01*
X122182738Y-52755184D01*
X122177813Y-52760108D01*
X122177809Y-52760112D01*
X122060112Y-52877809D01*
X122060108Y-52877813D01*
X122055184Y-52882738D01*
X122051479Y-52888633D01*
X122051476Y-52888638D01*
X121962912Y-53029587D01*
X121962910Y-53029590D01*
X121959211Y-53035478D01*
X121956915Y-53042036D01*
X121956913Y-53042043D01*
X121901930Y-53199175D01*
X121901928Y-53199182D01*
X121899632Y-53205745D01*
X121898853Y-53212659D01*
X121898852Y-53212665D01*
X121881999Y-53362242D01*
X121879435Y-53385000D01*
X121080500Y-53385000D01*
X121080500Y-51294546D01*
X121081629Y-51277853D01*
X121085705Y-51247876D01*
X121119783Y-50384164D01*
X121119461Y-50380778D01*
X121119700Y-50376189D01*
X121119620Y-50376189D01*
X121119620Y-50368063D01*
X121120682Y-50360000D01*
X121119620Y-50351936D01*
X121119620Y-50348133D01*
X121118981Y-50337373D01*
X121119010Y-50334940D01*
X121119346Y-50330746D01*
X121070644Y-49454105D01*
X121066895Y-49429340D01*
X121065500Y-49410786D01*
X121065500Y-48539214D01*
X121066896Y-48520657D01*
X121070644Y-48495895D01*
X121095694Y-48045000D01*
X125819318Y-48045000D01*
X125820379Y-48053059D01*
X125838894Y-48193702D01*
X125838895Y-48193708D01*
X125839956Y-48201762D01*
X125843065Y-48209268D01*
X125843066Y-48209271D01*
X125860075Y-48250335D01*
X125863968Y-48261121D01*
X125874575Y-48295392D01*
X125874579Y-48295402D01*
X125875807Y-48299370D01*
X125877554Y-48303137D01*
X125877556Y-48303142D01*
X126139533Y-48868019D01*
X126149921Y-48903556D01*
X126149355Y-48940575D01*
X126042988Y-49578778D01*
X126042015Y-49583264D01*
X126039956Y-49588238D01*
X126038897Y-49596277D01*
X126038896Y-49596283D01*
X126034754Y-49627745D01*
X126034128Y-49631939D01*
X126026655Y-49676779D01*
X126026655Y-49676783D01*
X126025919Y-49681201D01*
X126025826Y-49685668D01*
X126025825Y-49685683D01*
X126025724Y-49690582D01*
X126024691Y-49704183D01*
X126019318Y-49745000D01*
X126020379Y-49753059D01*
X126038894Y-49893702D01*
X126038895Y-49893708D01*
X126039956Y-49901762D01*
X126043065Y-49909268D01*
X126043066Y-49909271D01*
X126083895Y-50007841D01*
X126100464Y-50047841D01*
X126105411Y-50054288D01*
X126176589Y-50147050D01*
X126196718Y-50173282D01*
X126322159Y-50269536D01*
X126468238Y-50330044D01*
X126625000Y-50350682D01*
X126781762Y-50330044D01*
X126927841Y-50269536D01*
X127053282Y-50173282D01*
X127149536Y-50047841D01*
X127210044Y-49901762D01*
X127230682Y-49745000D01*
X127225307Y-49704176D01*
X127224274Y-49690564D01*
X127224080Y-49681198D01*
X127215869Y-49631938D01*
X127215244Y-49627737D01*
X127211105Y-49596298D01*
X127210044Y-49588238D01*
X127207980Y-49583257D01*
X127207010Y-49578781D01*
X127186231Y-49454104D01*
X127078079Y-48805190D01*
X127076624Y-48792372D01*
X127075728Y-48777662D01*
X127075500Y-48770151D01*
X127075500Y-48277261D01*
X127076280Y-48263378D01*
X127077152Y-48255635D01*
X127080270Y-48227965D01*
X127069635Y-48171761D01*
X127068864Y-48167218D01*
X127068578Y-48165322D01*
X127062370Y-48124133D01*
X127061733Y-48119902D01*
X127061732Y-48119901D01*
X127060348Y-48110713D01*
X127056622Y-48102976D01*
X127055024Y-48094529D01*
X127042717Y-48071244D01*
X127029834Y-48032453D01*
X127027351Y-48016572D01*
X127024958Y-48001260D01*
X127024545Y-47998392D01*
X127010044Y-47888238D01*
X126949536Y-47742159D01*
X126853282Y-47616718D01*
X126835714Y-47603238D01*
X126734288Y-47525411D01*
X126727841Y-47520464D01*
X126706014Y-47511423D01*
X126589271Y-47463066D01*
X126589268Y-47463065D01*
X126581762Y-47459956D01*
X126573708Y-47458895D01*
X126573702Y-47458894D01*
X126433059Y-47440379D01*
X126425000Y-47439318D01*
X126416941Y-47440379D01*
X126276297Y-47458894D01*
X126276289Y-47458896D01*
X126268238Y-47459956D01*
X126260733Y-47463064D01*
X126260728Y-47463066D01*
X126129666Y-47517354D01*
X126129662Y-47517355D01*
X126122159Y-47520464D01*
X126115714Y-47525408D01*
X126115711Y-47525411D01*
X126003164Y-47611771D01*
X126003160Y-47611774D01*
X125996718Y-47616718D01*
X125991774Y-47623160D01*
X125991771Y-47623164D01*
X125905411Y-47735711D01*
X125905408Y-47735714D01*
X125900464Y-47742159D01*
X125897355Y-47749662D01*
X125897354Y-47749666D01*
X125843066Y-47880728D01*
X125843064Y-47880733D01*
X125839956Y-47888238D01*
X125838896Y-47896289D01*
X125838894Y-47896297D01*
X125825072Y-48001294D01*
X125819318Y-48045000D01*
X121095694Y-48045000D01*
X121119346Y-47619253D01*
X121119010Y-47615058D01*
X121118981Y-47612621D01*
X121119620Y-47601882D01*
X121119620Y-47598063D01*
X121120682Y-47590000D01*
X121100044Y-47433238D01*
X121039536Y-47287159D01*
X120943282Y-47161718D01*
X120924098Y-47146998D01*
X120824288Y-47070411D01*
X120817841Y-47065464D01*
X120810333Y-47062354D01*
X120679271Y-47008066D01*
X120679268Y-47008065D01*
X120671762Y-47004956D01*
X120663708Y-47003895D01*
X120663702Y-47003894D01*
X120523059Y-46985379D01*
X120515000Y-46984318D01*
X120506941Y-46985379D01*
X120366297Y-47003894D01*
X120366289Y-47003896D01*
X120358238Y-47004956D01*
X120350733Y-47008064D01*
X120350728Y-47008066D01*
X120219666Y-47062354D01*
X120219662Y-47062355D01*
X120212159Y-47065464D01*
X120205714Y-47070408D01*
X120205711Y-47070411D01*
X120093164Y-47156771D01*
X120093160Y-47156774D01*
X120086718Y-47161718D01*
X120081774Y-47168160D01*
X120081771Y-47168164D01*
X119995411Y-47280711D01*
X119995408Y-47280714D01*
X119990464Y-47287159D01*
X119987355Y-47294662D01*
X119987354Y-47294666D01*
X119933066Y-47425728D01*
X119933064Y-47425733D01*
X119929956Y-47433238D01*
X119928896Y-47441289D01*
X119928894Y-47441297D01*
X119910378Y-47581942D01*
X119910378Y-47581948D01*
X119909318Y-47590000D01*
X119910378Y-47598054D01*
X119910378Y-47601856D01*
X119911017Y-47612606D01*
X119910986Y-47615070D01*
X119910653Y-47619250D01*
X119910885Y-47623428D01*
X119910885Y-47623439D01*
X119959193Y-48492965D01*
X119959356Y-48495895D01*
X119959794Y-48498788D01*
X119963104Y-48520657D01*
X119964500Y-48539214D01*
X119964500Y-49410792D01*
X119963103Y-49429350D01*
X119959795Y-49451197D01*
X119959794Y-49451211D01*
X119959356Y-49454104D01*
X119959193Y-49457033D01*
X119959193Y-49457036D01*
X119910885Y-50326558D01*
X119910885Y-50326569D01*
X119910653Y-50330748D01*
X119910986Y-50334927D01*
X119911017Y-50337393D01*
X119910378Y-50348138D01*
X119910378Y-50351946D01*
X119909318Y-50360000D01*
X119910378Y-50368051D01*
X119910378Y-50368058D01*
X119915948Y-50410365D01*
X119916919Y-50421838D01*
X119917043Y-50425117D01*
X119917045Y-50425139D01*
X119917217Y-50429658D01*
X119920970Y-50449841D01*
X119921996Y-50456304D01*
X119929956Y-50516762D01*
X119933064Y-50524267D01*
X119935169Y-50532121D01*
X119934905Y-50532191D01*
X119938616Y-50544709D01*
X120077409Y-51290878D01*
X120079500Y-51313554D01*
X120079500Y-51807278D01*
X120072088Y-51849505D01*
X120050740Y-51886684D01*
X120006366Y-51939906D01*
X119963707Y-51972800D01*
X119911126Y-51984500D01*
X118029500Y-51984500D01*
X117967500Y-51967887D01*
X117922113Y-51922500D01*
X117905500Y-51860500D01*
X117905499Y-51253714D01*
X117905499Y-51253709D01*
X117905499Y-51250136D01*
X117902585Y-51225009D01*
X117857206Y-51122235D01*
X117777765Y-51042794D01*
X117762833Y-51036201D01*
X117683522Y-51001181D01*
X117683517Y-51001179D01*
X117674991Y-50997415D01*
X117665726Y-50996340D01*
X117653414Y-50994911D01*
X117653401Y-50994910D01*
X117649865Y-50994500D01*
X117646290Y-50994500D01*
X116403621Y-50994500D01*
X116344194Y-50979332D01*
X116299306Y-50937540D01*
X116281813Y-50884985D01*
X116281609Y-50885030D01*
X116281194Y-50883126D01*
X116279937Y-50879347D01*
X116279723Y-50876362D01*
X116279091Y-50867517D01*
X116275992Y-50859208D01*
X116274106Y-50850538D01*
X116274220Y-50850513D01*
X116274037Y-50849798D01*
X116273925Y-50849832D01*
X116271427Y-50841326D01*
X116270165Y-50832543D01*
X116249528Y-50787356D01*
X116246148Y-50779194D01*
X116231893Y-50740976D01*
X116228795Y-50732669D01*
X116223479Y-50725568D01*
X116219231Y-50717788D01*
X116219333Y-50717731D01*
X116218954Y-50717091D01*
X116218856Y-50717155D01*
X116214060Y-50709692D01*
X116210377Y-50701627D01*
X116204570Y-50694926D01*
X116204568Y-50694922D01*
X116177862Y-50664102D01*
X116172303Y-50657205D01*
X116166872Y-50649949D01*
X116164220Y-50646406D01*
X116154675Y-50636861D01*
X116148658Y-50630400D01*
X116116128Y-50592857D01*
X116108668Y-50588063D01*
X116101963Y-50582252D01*
X116102038Y-50582164D01*
X116091427Y-50573613D01*
X115856385Y-50338571D01*
X115847835Y-50327961D01*
X115847748Y-50328037D01*
X115841934Y-50321328D01*
X115837143Y-50313872D01*
X115830444Y-50308067D01*
X115830442Y-50308065D01*
X115799615Y-50281354D01*
X115793136Y-50275322D01*
X115786730Y-50268916D01*
X115786729Y-50268915D01*
X115783593Y-50265779D01*
X115772785Y-50257688D01*
X115765907Y-50252147D01*
X115728373Y-50219623D01*
X115720307Y-50215939D01*
X115712845Y-50211143D01*
X115712907Y-50211046D01*
X115712267Y-50210666D01*
X115712212Y-50210768D01*
X115704431Y-50206519D01*
X115697331Y-50201204D01*
X115689023Y-50198105D01*
X115689021Y-50198104D01*
X115650790Y-50183845D01*
X115642613Y-50180457D01*
X115605529Y-50163521D01*
X115605526Y-50163520D01*
X115597457Y-50159835D01*
X115592382Y-50159105D01*
X115546424Y-50133431D01*
X115514722Y-50088429D01*
X115506583Y-50039865D01*
X115505500Y-50039865D01*
X115505500Y-50036302D01*
X116004500Y-50036302D01*
X116004501Y-50039864D01*
X116004912Y-50043411D01*
X116004913Y-50043422D01*
X116005426Y-50047841D01*
X116007415Y-50064991D01*
X116052794Y-50167765D01*
X116132235Y-50247206D01*
X116181404Y-50268916D01*
X116226477Y-50288818D01*
X116226478Y-50288818D01*
X116235009Y-50292585D01*
X116260135Y-50295500D01*
X117649864Y-50295499D01*
X117674991Y-50292585D01*
X117777765Y-50247206D01*
X117857206Y-50167765D01*
X117902585Y-50064991D01*
X117905500Y-50039865D01*
X117905499Y-49350136D01*
X117902585Y-49325009D01*
X117857206Y-49222235D01*
X117777765Y-49142794D01*
X117739932Y-49126089D01*
X117683522Y-49101181D01*
X117683517Y-49101179D01*
X117674991Y-49097415D01*
X117665726Y-49096340D01*
X117653414Y-49094911D01*
X117653401Y-49094910D01*
X117649865Y-49094500D01*
X117646290Y-49094500D01*
X117109500Y-49094500D01*
X117047500Y-49077887D01*
X117002113Y-49032500D01*
X116985500Y-48970500D01*
X116985500Y-48719413D01*
X116989974Y-48686406D01*
X117043393Y-48492965D01*
X117188898Y-47966062D01*
X117189270Y-47961873D01*
X117196394Y-47937643D01*
X117199803Y-47929415D01*
X117205044Y-47916762D01*
X117225682Y-47760000D01*
X117207705Y-47623448D01*
X117206105Y-47611297D01*
X117206104Y-47611296D01*
X117205044Y-47603238D01*
X117144536Y-47457159D01*
X117048282Y-47331718D01*
X117000006Y-47294675D01*
X116929288Y-47240411D01*
X116922841Y-47235464D01*
X116867348Y-47212478D01*
X116784271Y-47178066D01*
X116784268Y-47178065D01*
X116776762Y-47174956D01*
X116768708Y-47173895D01*
X116768702Y-47173894D01*
X116628059Y-47155379D01*
X116620000Y-47154318D01*
X116611941Y-47155379D01*
X116471297Y-47173894D01*
X116471289Y-47173896D01*
X116463238Y-47174956D01*
X116455733Y-47178064D01*
X116455728Y-47178066D01*
X116324666Y-47232354D01*
X116324662Y-47232355D01*
X116317159Y-47235464D01*
X116310714Y-47240408D01*
X116310711Y-47240411D01*
X116198164Y-47326771D01*
X116198160Y-47326774D01*
X116191718Y-47331718D01*
X116186774Y-47338160D01*
X116186771Y-47338164D01*
X116100411Y-47450711D01*
X116100408Y-47450714D01*
X116095464Y-47457159D01*
X116092355Y-47464662D01*
X116092354Y-47464666D01*
X116038066Y-47595728D01*
X116038064Y-47595733D01*
X116034956Y-47603238D01*
X116033896Y-47611289D01*
X116033894Y-47611297D01*
X116024850Y-47680000D01*
X116014318Y-47760000D01*
X116015379Y-47768059D01*
X116015379Y-47768060D01*
X116015537Y-47769260D01*
X116016120Y-47786469D01*
X116016491Y-47786468D01*
X116016512Y-47790712D01*
X116016245Y-47794941D01*
X116016555Y-47799166D01*
X116016556Y-47799169D01*
X116076617Y-48615169D01*
X116079526Y-48654678D01*
X116080006Y-48657527D01*
X116080008Y-48657540D01*
X116082774Y-48673941D01*
X116084500Y-48694558D01*
X116084500Y-49141288D01*
X116078950Y-49177969D01*
X116062799Y-49211367D01*
X116060921Y-49214107D01*
X116052794Y-49222235D01*
X116048154Y-49232743D01*
X116048151Y-49232748D01*
X116011181Y-49316477D01*
X116011179Y-49316484D01*
X116007415Y-49325009D01*
X116006340Y-49334271D01*
X116006340Y-49334273D01*
X116004911Y-49346585D01*
X116004910Y-49346599D01*
X116004500Y-49350135D01*
X116004500Y-49353708D01*
X116004500Y-49353709D01*
X116004500Y-50036285D01*
X116004500Y-50036302D01*
X115505500Y-50036302D01*
X115505499Y-49353714D01*
X115505499Y-49353709D01*
X115505499Y-49350136D01*
X115502585Y-49325009D01*
X115457206Y-49222235D01*
X115412554Y-49177583D01*
X115385675Y-49137356D01*
X115376236Y-49089903D01*
X115376236Y-48778136D01*
X115379204Y-48754793D01*
X115378709Y-48754711D01*
X115390192Y-48685814D01*
X115507749Y-47980462D01*
X115508714Y-47976010D01*
X115510780Y-47971026D01*
X115515987Y-47931462D01*
X115516603Y-47927336D01*
X115524816Y-47878065D01*
X115525011Y-47868681D01*
X115526044Y-47855081D01*
X115526045Y-47855078D01*
X115531418Y-47814264D01*
X115510780Y-47657502D01*
X115450272Y-47511423D01*
X115354018Y-47385982D01*
X115228577Y-47289728D01*
X115181918Y-47270401D01*
X115090007Y-47232330D01*
X115090004Y-47232329D01*
X115082498Y-47229220D01*
X115074444Y-47228159D01*
X115074438Y-47228158D01*
X114933795Y-47209643D01*
X114925736Y-47208582D01*
X114917677Y-47209643D01*
X114777033Y-47228158D01*
X114777025Y-47228160D01*
X114768974Y-47229220D01*
X114761469Y-47232328D01*
X114761464Y-47232330D01*
X114630402Y-47286618D01*
X114630398Y-47286619D01*
X114622895Y-47289728D01*
X114616450Y-47294672D01*
X114616447Y-47294675D01*
X114503900Y-47381035D01*
X114503896Y-47381038D01*
X114497454Y-47385982D01*
X114492510Y-47392424D01*
X114492507Y-47392428D01*
X114406147Y-47504975D01*
X114406144Y-47504978D01*
X114401200Y-47511423D01*
X114398091Y-47518926D01*
X114398090Y-47518930D01*
X114343802Y-47649992D01*
X114343800Y-47649997D01*
X114340692Y-47657502D01*
X114339632Y-47665553D01*
X114339630Y-47665561D01*
X114328259Y-47751941D01*
X114320054Y-47814264D01*
X114325336Y-47854385D01*
X114325427Y-47855078D01*
X114326460Y-47868681D01*
X114326561Y-47873579D01*
X114326562Y-47873593D01*
X114326655Y-47878062D01*
X114327389Y-47882470D01*
X114327391Y-47882485D01*
X114334862Y-47927315D01*
X114335488Y-47931507D01*
X114339632Y-47962979D01*
X114340692Y-47971026D01*
X114342752Y-47976000D01*
X114343724Y-47980484D01*
X114472763Y-48754711D01*
X114472266Y-48754793D01*
X114475236Y-48778137D01*
X114475236Y-48970501D01*
X114458623Y-49032501D01*
X114413236Y-49077888D01*
X114351236Y-49094501D01*
X113860136Y-49094501D01*
X113856589Y-49094912D01*
X113856577Y-49094913D01*
X113844277Y-49096340D01*
X113844275Y-49096340D01*
X113835009Y-49097415D01*
X113826479Y-49101180D01*
X113826476Y-49101182D01*
X113742745Y-49138153D01*
X113742743Y-49138154D01*
X113732235Y-49142794D01*
X113724112Y-49150916D01*
X113724109Y-49150919D01*
X113660919Y-49214109D01*
X113660916Y-49214112D01*
X113652794Y-49222235D01*
X113648154Y-49232743D01*
X113648153Y-49232745D01*
X113611181Y-49316477D01*
X113611179Y-49316484D01*
X113607415Y-49325009D01*
X113606340Y-49334271D01*
X113606340Y-49334273D01*
X113604911Y-49346585D01*
X113604910Y-49346599D01*
X113604500Y-49350135D01*
X113604500Y-49353708D01*
X113604500Y-49353709D01*
X113604500Y-50036285D01*
X113604500Y-50036302D01*
X113604501Y-50039864D01*
X113604912Y-50043411D01*
X113604913Y-50043422D01*
X113605426Y-50047841D01*
X113607415Y-50064991D01*
X113611181Y-50073521D01*
X113611183Y-50073527D01*
X113631665Y-50119915D01*
X113642230Y-50170000D01*
X113631665Y-50220085D01*
X113611182Y-50266474D01*
X113611179Y-50266483D01*
X113607415Y-50275009D01*
X113606340Y-50284271D01*
X113606340Y-50284273D01*
X113604911Y-50296585D01*
X113604910Y-50296599D01*
X113604500Y-50300135D01*
X113604500Y-50303708D01*
X113604500Y-50303709D01*
X113604500Y-50986285D01*
X113604500Y-50986302D01*
X113604501Y-50989864D01*
X113604912Y-50993411D01*
X113604913Y-50993422D01*
X113605813Y-51001181D01*
X113607415Y-51014991D01*
X113611182Y-51023522D01*
X113611183Y-51023526D01*
X113631665Y-51069914D01*
X113642230Y-51119998D01*
X113631665Y-51170083D01*
X113611183Y-51216471D01*
X113611179Y-51216482D01*
X113607415Y-51225009D01*
X113606340Y-51234271D01*
X113606340Y-51234273D01*
X113604911Y-51246585D01*
X113604910Y-51246599D01*
X113604500Y-51250135D01*
X113604500Y-51253708D01*
X113604500Y-51253709D01*
X113604500Y-51936285D01*
X113604500Y-51936302D01*
X113604501Y-51939864D01*
X113604912Y-51943411D01*
X113604913Y-51943422D01*
X113606340Y-51955722D01*
X113607415Y-51964991D01*
X113652794Y-52067765D01*
X113732235Y-52147206D01*
X113803111Y-52178501D01*
X113826477Y-52188818D01*
X113826478Y-52188818D01*
X113835009Y-52192585D01*
X113860135Y-52195500D01*
X115181324Y-52195499D01*
X115232835Y-52206704D01*
X115275036Y-52238295D01*
X115299103Y-52282371D01*
X115299835Y-52287457D01*
X115303516Y-52295519D01*
X115303518Y-52295523D01*
X115320457Y-52332613D01*
X115323845Y-52340790D01*
X115338104Y-52379021D01*
X115338105Y-52379023D01*
X115341204Y-52387331D01*
X115346519Y-52394431D01*
X115350768Y-52402212D01*
X115350666Y-52402267D01*
X115351046Y-52402907D01*
X115351143Y-52402845D01*
X115355939Y-52410307D01*
X115359623Y-52418373D01*
X115392147Y-52455907D01*
X115397688Y-52462785D01*
X115405779Y-52473593D01*
X115408916Y-52476730D01*
X115415322Y-52483136D01*
X115421354Y-52489615D01*
X115448065Y-52520442D01*
X115448067Y-52520444D01*
X115453872Y-52527143D01*
X115461328Y-52531934D01*
X115468037Y-52537748D01*
X115467961Y-52537835D01*
X115478571Y-52546385D01*
X115723613Y-52791427D01*
X115732164Y-52802038D01*
X115732252Y-52801963D01*
X115738063Y-52808668D01*
X115742857Y-52816128D01*
X115780400Y-52848658D01*
X115786861Y-52854675D01*
X115796407Y-52864221D01*
X115804030Y-52869927D01*
X115807207Y-52872306D01*
X115814099Y-52877860D01*
X115844919Y-52904566D01*
X115844925Y-52904570D01*
X115851627Y-52910377D01*
X115859694Y-52914061D01*
X115867154Y-52918855D01*
X115867090Y-52918953D01*
X115867729Y-52919332D01*
X115867785Y-52919230D01*
X115875565Y-52923478D01*
X115882669Y-52928796D01*
X115929222Y-52946159D01*
X115937360Y-52949530D01*
X115982543Y-52970165D01*
X115991326Y-52971427D01*
X115999832Y-52973925D01*
X115999798Y-52974037D01*
X116000515Y-52974220D01*
X116000540Y-52974106D01*
X116009204Y-52975990D01*
X116017517Y-52979091D01*
X116067052Y-52982633D01*
X116075837Y-52983578D01*
X116089201Y-52985500D01*
X116102692Y-52985500D01*
X116111538Y-52985815D01*
X116161073Y-52989359D01*
X116169739Y-52987473D01*
X116178586Y-52986841D01*
X116178594Y-52986956D01*
X116192144Y-52985500D01*
X119955500Y-52985500D01*
X120017500Y-53002113D01*
X120062887Y-53047500D01*
X120079500Y-53109500D01*
X120079500Y-56791325D01*
X120070061Y-56838778D01*
X120043181Y-56879006D01*
X111886298Y-65035886D01*
X111845186Y-65063128D01*
X111796707Y-65072190D01*
X111748530Y-65061639D01*
X111713525Y-65046182D01*
X111713518Y-65046180D01*
X111704991Y-65042415D01*
X111695726Y-65041340D01*
X111683414Y-65039911D01*
X111683401Y-65039910D01*
X111679865Y-65039500D01*
X111676290Y-65039500D01*
X109347546Y-65039500D01*
X109292481Y-65026603D01*
X109248870Y-64990594D01*
X109225786Y-64938964D01*
X109228031Y-64882454D01*
X109255136Y-64832817D01*
X109255188Y-64832757D01*
X109273463Y-64812334D01*
X109288319Y-64792177D01*
X109300446Y-64778077D01*
X110561130Y-63517392D01*
X110564115Y-63514507D01*
X110611044Y-63470680D01*
X110632394Y-63435568D01*
X110639539Y-63425072D01*
X110664361Y-63392342D01*
X110670943Y-63375648D01*
X110680352Y-63356707D01*
X110689672Y-63341382D01*
X110700759Y-63301807D01*
X110704803Y-63289786D01*
X110716764Y-63259456D01*
X110716763Y-63259456D01*
X110719876Y-63251565D01*
X110721711Y-63233705D01*
X110725658Y-63212943D01*
X110730500Y-63195665D01*
X110730500Y-63154583D01*
X110731150Y-63141902D01*
X110732278Y-63130926D01*
X110735352Y-63101029D01*
X110732303Y-63083345D01*
X110730500Y-63062276D01*
X110730500Y-61251019D01*
X110745527Y-61191851D01*
X110786965Y-61147024D01*
X110844771Y-61127401D01*
X110904935Y-61137739D01*
X110952876Y-61175533D01*
X111031718Y-61278282D01*
X111157159Y-61374536D01*
X111303238Y-61435044D01*
X111460000Y-61455682D01*
X111616762Y-61435044D01*
X111762841Y-61374536D01*
X111888282Y-61278282D01*
X111984536Y-61152841D01*
X112045044Y-61006762D01*
X112065682Y-60850000D01*
X112060307Y-60809176D01*
X112059274Y-60795564D01*
X112059080Y-60786198D01*
X112050869Y-60736938D01*
X112050244Y-60732737D01*
X112046105Y-60701298D01*
X112045044Y-60693238D01*
X112042980Y-60688257D01*
X112042010Y-60683781D01*
X111912973Y-59909553D01*
X111913468Y-59909470D01*
X111910500Y-59886128D01*
X111910500Y-55691751D01*
X111919939Y-55644298D01*
X111946819Y-55604070D01*
X111948948Y-55601940D01*
X111956423Y-55596424D01*
X112034381Y-55490795D01*
X112077741Y-55366880D01*
X112080500Y-55337458D01*
X112080499Y-54962545D01*
X112077741Y-54933122D01*
X112034381Y-54809207D01*
X111963844Y-54713633D01*
X111942389Y-54666085D01*
X111942389Y-54613917D01*
X111963845Y-54566367D01*
X112034381Y-54470795D01*
X112063973Y-54386225D01*
X112095405Y-54337477D01*
X112145573Y-54308355D01*
X112203496Y-54305238D01*
X112256499Y-54328807D01*
X112342159Y-54394536D01*
X112488238Y-54455044D01*
X112645000Y-54475682D01*
X112801762Y-54455044D01*
X112947841Y-54394536D01*
X113073282Y-54298282D01*
X113169536Y-54172841D01*
X113230044Y-54026762D01*
X113250682Y-53870000D01*
X113230044Y-53713238D01*
X113169536Y-53567159D01*
X113098424Y-53474484D01*
X113092572Y-53465531D01*
X113092505Y-53465577D01*
X113089306Y-53460855D01*
X113086553Y-53455858D01*
X113028389Y-53385000D01*
X112748655Y-53044212D01*
X112727751Y-53007318D01*
X112720500Y-52965538D01*
X112720500Y-47265936D01*
X112735142Y-47207483D01*
X112775609Y-47162834D01*
X112832346Y-47142533D01*
X112891952Y-47151375D01*
X112964964Y-47181617D01*
X112973238Y-47185044D01*
X113130000Y-47205682D01*
X113286762Y-47185044D01*
X113432841Y-47124536D01*
X113558282Y-47028282D01*
X113654536Y-46902841D01*
X113715044Y-46756762D01*
X113735682Y-46600000D01*
X113731472Y-46568023D01*
X113730412Y-46552023D01*
X113730400Y-46542800D01*
X113603789Y-45670134D01*
X113603458Y-45669143D01*
X113600500Y-45643895D01*
X113600500Y-45243066D01*
X115519500Y-45243066D01*
X115519769Y-45245939D01*
X115519770Y-45245951D01*
X115521585Y-45265301D01*
X115522290Y-45272819D01*
X115524782Y-45279941D01*
X115524783Y-45279945D01*
X115558943Y-45377567D01*
X115566148Y-45398157D01*
X115595151Y-45437454D01*
X115632262Y-45487739D01*
X115645001Y-45504999D01*
X115751843Y-45583852D01*
X115877181Y-45627710D01*
X115906934Y-45630500D01*
X116290172Y-45630500D01*
X116293066Y-45630500D01*
X116322819Y-45627710D01*
X116448157Y-45583852D01*
X116554999Y-45504999D01*
X116633852Y-45398157D01*
X116677710Y-45272819D01*
X116680500Y-45243066D01*
X116680500Y-44796934D01*
X116677710Y-44767181D01*
X116669948Y-44745000D01*
X121879435Y-44745000D01*
X121880215Y-44751923D01*
X121885612Y-44799828D01*
X121899632Y-44924255D01*
X121901928Y-44930819D01*
X121901930Y-44930824D01*
X121950793Y-45070466D01*
X121959211Y-45094522D01*
X122055184Y-45247262D01*
X122182738Y-45374816D01*
X122335478Y-45470789D01*
X122505745Y-45530368D01*
X122640046Y-45545500D01*
X122643530Y-45545500D01*
X123210458Y-45545500D01*
X123276900Y-45564803D01*
X123322656Y-45616703D01*
X123333480Y-45685041D01*
X123306002Y-45748540D01*
X123237649Y-45831165D01*
X123237647Y-45831167D01*
X123232676Y-45837177D01*
X123229356Y-45844232D01*
X123229353Y-45844237D01*
X123169477Y-45971480D01*
X123165386Y-45980174D01*
X123163925Y-45987830D01*
X123163924Y-45987835D01*
X123137233Y-46127754D01*
X123137232Y-46127760D01*
X123135773Y-46135412D01*
X123136262Y-46143189D01*
X123136262Y-46143195D01*
X123144542Y-46274796D01*
X123145696Y-46293138D01*
X123148105Y-46300553D01*
X123148106Y-46300556D01*
X123185969Y-46417086D01*
X123194533Y-46443441D01*
X123198710Y-46450023D01*
X123198712Y-46450027D01*
X123249082Y-46529397D01*
X123279214Y-46576877D01*
X123284898Y-46582215D01*
X123284900Y-46582217D01*
X123303837Y-46600000D01*
X123394418Y-46685062D01*
X123476808Y-46730356D01*
X123524840Y-46756762D01*
X123532908Y-46761197D01*
X123685981Y-46800500D01*
X123800455Y-46800500D01*
X123804350Y-46800500D01*
X123921792Y-46785664D01*
X124068732Y-46727486D01*
X124196587Y-46634594D01*
X124297324Y-46512823D01*
X124364614Y-46369826D01*
X124394227Y-46214588D01*
X124384304Y-46056862D01*
X124335467Y-45906559D01*
X124250786Y-45773123D01*
X124245100Y-45767784D01*
X124245099Y-45767782D01*
X124156989Y-45685041D01*
X124137511Y-45666749D01*
X124137509Y-45666747D01*
X124135582Y-45664938D01*
X124135797Y-45664708D01*
X124100698Y-45622904D01*
X124088186Y-45564304D01*
X124104614Y-45506679D01*
X124146143Y-45463486D01*
X124287262Y-45374816D01*
X124414816Y-45247262D01*
X124510789Y-45094522D01*
X124570368Y-44924255D01*
X124590565Y-44745000D01*
X124570368Y-44565745D01*
X124510789Y-44395478D01*
X124414816Y-44242738D01*
X124287262Y-44115184D01*
X124249965Y-44091749D01*
X124140412Y-44022912D01*
X124134522Y-44019211D01*
X124127959Y-44016914D01*
X124127956Y-44016913D01*
X123970825Y-43961931D01*
X123964255Y-43959632D01*
X123957333Y-43958852D01*
X123833418Y-43944890D01*
X123833412Y-43944889D01*
X123829954Y-43944500D01*
X122640046Y-43944500D01*
X122636588Y-43944889D01*
X122636581Y-43944890D01*
X122512666Y-43958852D01*
X122512664Y-43958852D01*
X122505745Y-43959632D01*
X122499176Y-43961930D01*
X122499174Y-43961931D01*
X122342043Y-44016913D01*
X122342036Y-44016915D01*
X122335478Y-44019211D01*
X122329590Y-44022910D01*
X122329587Y-44022912D01*
X122188638Y-44111476D01*
X122188633Y-44111479D01*
X122182738Y-44115184D01*
X122177813Y-44120108D01*
X122177809Y-44120112D01*
X122060112Y-44237809D01*
X122060108Y-44237813D01*
X122055184Y-44242738D01*
X122051479Y-44248633D01*
X122051476Y-44248638D01*
X121962912Y-44389587D01*
X121962910Y-44389590D01*
X121959211Y-44395478D01*
X121956915Y-44402036D01*
X121956913Y-44402043D01*
X121901930Y-44559175D01*
X121901928Y-44559182D01*
X121899632Y-44565745D01*
X121898852Y-44572662D01*
X121898852Y-44572665D01*
X121880215Y-44738077D01*
X121879435Y-44745000D01*
X116669948Y-44745000D01*
X116633852Y-44641843D01*
X116584730Y-44575285D01*
X116566713Y-44540410D01*
X116560500Y-44501651D01*
X116560500Y-44476323D01*
X116572063Y-44424037D01*
X116604594Y-44381502D01*
X116652027Y-44356650D01*
X116705516Y-44354117D01*
X116713052Y-44355413D01*
X116721572Y-44357282D01*
X116728238Y-44360044D01*
X116775939Y-44366323D01*
X116780706Y-44367047D01*
X116815146Y-44372971D01*
X116815152Y-44372971D01*
X116819585Y-44373734D01*
X116828716Y-44373966D01*
X116841735Y-44374986D01*
X116885000Y-44380682D01*
X117041762Y-44360044D01*
X117187841Y-44299536D01*
X117313282Y-44203282D01*
X117409536Y-44077841D01*
X117470044Y-43931762D01*
X117490682Y-43775000D01*
X117470044Y-43618238D01*
X117409536Y-43472159D01*
X117407607Y-43469645D01*
X117391644Y-43405161D01*
X117413229Y-43339868D01*
X117466285Y-43296117D01*
X117534494Y-43287364D01*
X117596878Y-43316302D01*
X117811825Y-43503045D01*
X117843328Y-43545214D01*
X117854500Y-43596652D01*
X117854500Y-43808066D01*
X117854769Y-43810939D01*
X117854770Y-43810951D01*
X117856533Y-43829749D01*
X117857290Y-43837819D01*
X117859782Y-43844941D01*
X117859783Y-43844945D01*
X117894800Y-43945015D01*
X117901148Y-43963157D01*
X117980001Y-44069999D01*
X118086843Y-44148852D01*
X118212181Y-44192710D01*
X118241934Y-44195500D01*
X118685172Y-44195500D01*
X118688066Y-44195500D01*
X118717819Y-44192710D01*
X118843157Y-44148852D01*
X118923265Y-44089729D01*
X118958139Y-44071713D01*
X118996898Y-44065500D01*
X119106098Y-44065500D01*
X119153551Y-44074939D01*
X119178709Y-44091749D01*
X119180001Y-44089999D01*
X119286843Y-44168852D01*
X119412181Y-44212710D01*
X119441934Y-44215500D01*
X119885172Y-44215500D01*
X119888066Y-44215500D01*
X119917819Y-44212710D01*
X120043157Y-44168852D01*
X120149999Y-44089999D01*
X120184017Y-44043905D01*
X120209138Y-44018528D01*
X120231349Y-44006352D01*
X120231237Y-44006146D01*
X120239022Y-44001894D01*
X120247331Y-43998796D01*
X120254429Y-43993482D01*
X120262218Y-43989229D01*
X120262273Y-43989331D01*
X120262908Y-43988954D01*
X120262845Y-43988855D01*
X120270301Y-43984062D01*
X120278373Y-43980377D01*
X120315903Y-43947855D01*
X120322775Y-43942318D01*
X120333593Y-43934221D01*
X120343142Y-43924670D01*
X120349604Y-43918653D01*
X120387143Y-43886128D01*
X120391937Y-43878667D01*
X120397749Y-43871961D01*
X120397836Y-43872036D01*
X120406382Y-43861430D01*
X121305994Y-42961817D01*
X121346222Y-42934938D01*
X121393675Y-42925499D01*
X121439554Y-42925499D01*
X121442456Y-42925499D01*
X121471879Y-42922741D01*
X121478998Y-42920249D01*
X121479002Y-42920249D01*
X121501266Y-42912459D01*
X121542221Y-42905500D01*
X122414123Y-42905500D01*
X122467054Y-42917365D01*
X122509855Y-42950688D01*
X122528353Y-42987261D01*
X122530123Y-42986564D01*
X122585639Y-43127342D01*
X122635479Y-43193066D01*
X122663520Y-43230044D01*
X122677078Y-43247922D01*
X122797658Y-43339361D01*
X122938436Y-43394877D01*
X123026898Y-43405500D01*
X123634401Y-43405500D01*
X123638102Y-43405500D01*
X123726564Y-43394877D01*
X123867342Y-43339361D01*
X123987922Y-43247922D01*
X124079361Y-43127342D01*
X124129647Y-42999823D01*
X124163507Y-42951858D01*
X124215641Y-42924844D01*
X124274359Y-42924844D01*
X124326493Y-42951858D01*
X124360352Y-42999823D01*
X124410639Y-43127342D01*
X124460479Y-43193066D01*
X124488520Y-43230044D01*
X124502078Y-43247922D01*
X124622658Y-43339361D01*
X124763436Y-43394877D01*
X124851898Y-43405500D01*
X125459401Y-43405500D01*
X125463102Y-43405500D01*
X125551564Y-43394877D01*
X125692342Y-43339361D01*
X125812922Y-43247922D01*
X125904361Y-43127342D01*
X125959877Y-42986564D01*
X125970500Y-42898102D01*
X125970500Y-41911898D01*
X125959877Y-41823436D01*
X125904361Y-41682658D01*
X125812922Y-41562078D01*
X125756056Y-41518955D01*
X125722895Y-41480924D01*
X125712033Y-41446698D01*
X125710264Y-41447130D01*
X125700534Y-41407208D01*
X125698166Y-41394757D01*
X125692570Y-41354034D01*
X125685419Y-41337572D01*
X125678683Y-41317541D01*
X125674434Y-41300102D01*
X125654284Y-41264266D01*
X125648650Y-41252923D01*
X125632280Y-41215234D01*
X125620953Y-41201311D01*
X125609059Y-41183834D01*
X125600266Y-41168195D01*
X125571212Y-41139141D01*
X125562704Y-41129714D01*
X125559387Y-41125637D01*
X125536778Y-41097846D01*
X125527506Y-41091301D01*
X125522115Y-41087495D01*
X125505944Y-41073873D01*
X125366503Y-40934432D01*
X125346233Y-40907763D01*
X125332732Y-40883875D01*
X125326125Y-40870320D01*
X125311474Y-40834949D01*
X125308365Y-40827442D01*
X125212111Y-40702001D01*
X125086670Y-40605747D01*
X125079162Y-40602637D01*
X124948100Y-40548349D01*
X124948097Y-40548348D01*
X124940591Y-40545239D01*
X124932537Y-40544178D01*
X124932531Y-40544177D01*
X124791888Y-40525662D01*
X124783829Y-40524601D01*
X124775770Y-40525662D01*
X124635126Y-40544177D01*
X124635118Y-40544179D01*
X124627067Y-40545239D01*
X124619562Y-40548347D01*
X124619557Y-40548349D01*
X124488495Y-40602637D01*
X124488491Y-40602638D01*
X124480988Y-40605747D01*
X124474543Y-40610691D01*
X124474540Y-40610694D01*
X124361993Y-40697054D01*
X124361989Y-40697057D01*
X124355547Y-40702001D01*
X124350603Y-40708443D01*
X124350600Y-40708447D01*
X124264240Y-40820994D01*
X124264237Y-40820997D01*
X124259293Y-40827442D01*
X124256184Y-40834945D01*
X124256183Y-40834949D01*
X124201895Y-40966011D01*
X124201893Y-40966016D01*
X124198785Y-40973521D01*
X124197725Y-40981572D01*
X124197723Y-40981580D01*
X124180687Y-41110992D01*
X124178147Y-41130283D01*
X124179208Y-41138342D01*
X124197723Y-41278985D01*
X124197724Y-41278991D01*
X124198785Y-41287045D01*
X124201893Y-41294550D01*
X124201896Y-41294559D01*
X124217878Y-41333143D01*
X124219130Y-41336364D01*
X124220189Y-41340099D01*
X124222021Y-41344190D01*
X124222027Y-41344204D01*
X124227032Y-41355375D01*
X124228431Y-41358619D01*
X124253044Y-41418040D01*
X124259293Y-41433124D01*
X124270038Y-41447128D01*
X124284594Y-41466097D01*
X124290853Y-41475045D01*
X124381438Y-41617513D01*
X124400236Y-41672237D01*
X124392154Y-41729531D01*
X124360352Y-41810173D01*
X124326493Y-41858141D01*
X124274359Y-41885155D01*
X124215641Y-41885155D01*
X124163507Y-41858142D01*
X124129646Y-41810171D01*
X124113835Y-41770078D01*
X124079361Y-41682658D01*
X123987922Y-41562078D01*
X123867342Y-41470639D01*
X123726564Y-41415123D01*
X123718674Y-41414175D01*
X123718668Y-41414174D01*
X123641781Y-41404941D01*
X123641767Y-41404940D01*
X123638102Y-41404500D01*
X123026898Y-41404500D01*
X123023233Y-41404940D01*
X123023218Y-41404941D01*
X122946331Y-41414174D01*
X122946324Y-41414175D01*
X122938436Y-41415123D01*
X122931040Y-41418039D01*
X122931038Y-41418040D01*
X122805551Y-41467526D01*
X122805548Y-41467527D01*
X122797658Y-41470639D01*
X122790899Y-41475764D01*
X122790898Y-41475765D01*
X122683835Y-41556953D01*
X122683830Y-41556957D01*
X122677078Y-41562078D01*
X122671957Y-41568830D01*
X122671953Y-41568835D01*
X122592286Y-41673892D01*
X122585639Y-41682658D01*
X122582527Y-41690548D01*
X122582526Y-41690551D01*
X122530123Y-41823436D01*
X122528353Y-41822738D01*
X122509855Y-41859312D01*
X122467054Y-41892635D01*
X122414123Y-41904500D01*
X121856219Y-41904500D01*
X121791232Y-41886106D01*
X121745525Y-41836381D01*
X121732658Y-41770078D01*
X121756449Y-41706867D01*
X121773860Y-41683274D01*
X121779381Y-41675794D01*
X121822741Y-41551879D01*
X121825500Y-41522457D01*
X121825499Y-41147544D01*
X121822741Y-41118121D01*
X121779381Y-40994206D01*
X121701423Y-40888577D01*
X121595794Y-40810619D01*
X121587021Y-40807549D01*
X121479005Y-40769752D01*
X121479001Y-40769751D01*
X121471879Y-40767259D01*
X121464361Y-40766554D01*
X121445342Y-40764770D01*
X121445330Y-40764769D01*
X121442457Y-40764500D01*
X121439563Y-40764500D01*
X120970446Y-40764500D01*
X120970424Y-40764500D01*
X120967544Y-40764501D01*
X120964671Y-40764770D01*
X120964656Y-40764771D01*
X120945637Y-40766554D01*
X120945633Y-40766554D01*
X120938121Y-40767259D01*
X120930996Y-40769752D01*
X120930992Y-40769753D01*
X120822979Y-40807548D01*
X120822972Y-40807551D01*
X120814206Y-40810619D01*
X120806732Y-40816134D01*
X120806728Y-40816137D01*
X120803391Y-40818601D01*
X120755841Y-40840054D01*
X120703676Y-40840053D01*
X120656127Y-40818598D01*
X120570794Y-40755619D01*
X120562021Y-40752549D01*
X120454005Y-40714752D01*
X120454001Y-40714751D01*
X120446879Y-40712259D01*
X120439361Y-40711554D01*
X120420342Y-40709770D01*
X120420330Y-40709769D01*
X120417457Y-40709500D01*
X120414563Y-40709500D01*
X119945446Y-40709500D01*
X119945424Y-40709500D01*
X119942544Y-40709501D01*
X119939671Y-40709770D01*
X119939656Y-40709771D01*
X119920637Y-40711554D01*
X119920633Y-40711554D01*
X119913121Y-40712259D01*
X119905996Y-40714752D01*
X119905992Y-40714753D01*
X119797978Y-40752549D01*
X119797975Y-40752550D01*
X119789206Y-40755619D01*
X119781730Y-40761136D01*
X119781729Y-40761137D01*
X119691051Y-40828060D01*
X119691047Y-40828063D01*
X119683577Y-40833577D01*
X119678063Y-40841047D01*
X119678060Y-40841051D01*
X119611134Y-40931732D01*
X119611131Y-40931737D01*
X119605619Y-40939206D01*
X119602552Y-40947969D01*
X119602550Y-40947974D01*
X119599854Y-40955679D01*
X119570495Y-41002400D01*
X119018301Y-41554594D01*
X119011618Y-41560412D01*
X119011371Y-41560664D01*
X119011485Y-41560793D01*
X119009784Y-41562290D01*
X119009777Y-41562296D01*
X119006274Y-41565382D01*
X119003270Y-41568961D01*
X119003243Y-41568990D01*
X118995980Y-41576915D01*
X118729263Y-41843632D01*
X118718898Y-41852895D01*
X118698297Y-41869324D01*
X118698291Y-41869329D01*
X118691030Y-41875121D01*
X118685797Y-41882795D01*
X118685796Y-41882797D01*
X118658824Y-41922356D01*
X118656144Y-41926132D01*
X118627724Y-41964641D01*
X118627721Y-41964646D01*
X118622207Y-41972118D01*
X118619370Y-41980224D01*
X118614528Y-41987327D01*
X118611791Y-41996199D01*
X118611788Y-41996206D01*
X118597672Y-42041968D01*
X118596225Y-42046367D01*
X118580422Y-42091532D01*
X118577354Y-42100301D01*
X118577032Y-42108886D01*
X118574500Y-42117098D01*
X118574500Y-42126385D01*
X118574500Y-42174262D01*
X118574413Y-42178899D01*
X118572879Y-42219893D01*
X118554858Y-42279777D01*
X118524317Y-42329901D01*
X118516810Y-42340855D01*
X118514718Y-42343582D01*
X118463795Y-42382664D01*
X118400153Y-42391047D01*
X118340847Y-42366483D01*
X118274288Y-42315411D01*
X118267841Y-42310464D01*
X118252248Y-42304005D01*
X118129271Y-42253066D01*
X118129268Y-42253065D01*
X118121762Y-42249956D01*
X118113708Y-42248895D01*
X118113702Y-42248894D01*
X117973059Y-42230379D01*
X117965000Y-42229318D01*
X117956941Y-42230379D01*
X117816297Y-42248894D01*
X117816289Y-42248896D01*
X117808238Y-42249956D01*
X117800733Y-42253064D01*
X117800728Y-42253066D01*
X117669666Y-42307354D01*
X117669662Y-42307355D01*
X117662159Y-42310464D01*
X117655714Y-42315408D01*
X117655711Y-42315411D01*
X117543164Y-42401771D01*
X117543160Y-42401774D01*
X117536718Y-42406718D01*
X117531774Y-42413160D01*
X117531771Y-42413164D01*
X117445411Y-42525711D01*
X117445408Y-42525714D01*
X117440464Y-42532159D01*
X117437355Y-42539662D01*
X117437354Y-42539666D01*
X117383066Y-42670728D01*
X117383064Y-42670733D01*
X117379956Y-42678238D01*
X117378896Y-42686289D01*
X117378894Y-42686297D01*
X117362122Y-42813702D01*
X117359318Y-42835000D01*
X117360379Y-42843059D01*
X117378894Y-42983702D01*
X117378895Y-42983708D01*
X117379956Y-42991762D01*
X117383065Y-42999268D01*
X117383066Y-42999271D01*
X117437355Y-43130337D01*
X117437357Y-43130341D01*
X117440464Y-43137841D01*
X117445407Y-43144283D01*
X117448641Y-43149884D01*
X117465211Y-43215129D01*
X117445249Y-43279418D01*
X117394637Y-43323804D01*
X117328293Y-43335204D01*
X117265768Y-43310259D01*
X117194288Y-43255411D01*
X117187841Y-43250464D01*
X117157405Y-43237857D01*
X117049271Y-43193066D01*
X117049268Y-43193065D01*
X117041762Y-43189956D01*
X117033708Y-43188895D01*
X117033702Y-43188894D01*
X116893059Y-43170379D01*
X116885000Y-43169318D01*
X116876941Y-43170379D01*
X116736292Y-43188895D01*
X116736287Y-43188896D01*
X116728238Y-43189956D01*
X116720735Y-43193063D01*
X116720730Y-43193065D01*
X116716597Y-43194777D01*
X116694881Y-43201514D01*
X116571173Y-43227755D01*
X116519182Y-43227641D01*
X116471808Y-43206223D01*
X116465634Y-43201666D01*
X116465632Y-43201665D01*
X116458157Y-43196148D01*
X116449384Y-43193078D01*
X116339945Y-43154783D01*
X116339941Y-43154782D01*
X116332819Y-43152290D01*
X116325301Y-43151585D01*
X116305951Y-43149770D01*
X116305939Y-43149769D01*
X116303066Y-43149500D01*
X115916934Y-43149500D01*
X115914061Y-43149769D01*
X115914048Y-43149770D01*
X115894698Y-43151585D01*
X115894697Y-43151585D01*
X115887181Y-43152290D01*
X115880060Y-43154781D01*
X115880054Y-43154783D01*
X115770615Y-43193078D01*
X115770612Y-43193079D01*
X115761843Y-43196148D01*
X115754367Y-43201665D01*
X115754366Y-43201666D01*
X115662475Y-43269484D01*
X115662471Y-43269487D01*
X115655001Y-43275001D01*
X115649487Y-43282471D01*
X115649484Y-43282475D01*
X115581666Y-43374366D01*
X115576148Y-43381843D01*
X115573079Y-43390612D01*
X115573078Y-43390615D01*
X115534783Y-43500054D01*
X115534781Y-43500060D01*
X115532290Y-43507181D01*
X115531585Y-43514697D01*
X115531585Y-43514698D01*
X115529770Y-43534048D01*
X115529769Y-43534061D01*
X115529500Y-43536934D01*
X115529500Y-43983066D01*
X115529769Y-43985939D01*
X115529770Y-43985951D01*
X115530087Y-43989331D01*
X115532290Y-44012819D01*
X115534782Y-44019941D01*
X115534783Y-44019945D01*
X115559909Y-44091749D01*
X115576148Y-44138157D01*
X115633030Y-44215229D01*
X115635270Y-44218264D01*
X115653287Y-44253139D01*
X115659500Y-44291898D01*
X115659500Y-44474552D01*
X115653287Y-44513311D01*
X115635270Y-44548186D01*
X115571666Y-44634365D01*
X115571663Y-44634369D01*
X115566148Y-44641843D01*
X115563079Y-44650612D01*
X115563078Y-44650615D01*
X115524783Y-44760054D01*
X115524781Y-44760060D01*
X115522290Y-44767181D01*
X115521585Y-44774697D01*
X115521585Y-44774698D01*
X115519770Y-44794048D01*
X115519769Y-44794061D01*
X115519500Y-44796934D01*
X115519500Y-45243066D01*
X113600500Y-45243066D01*
X113600500Y-38927966D01*
X113609939Y-38880513D01*
X113636819Y-38840285D01*
X113920285Y-38556819D01*
X113960513Y-38529939D01*
X114007966Y-38520500D01*
X117737739Y-38520500D01*
X117751621Y-38521279D01*
X117787035Y-38525270D01*
X117843219Y-38514638D01*
X117847778Y-38513864D01*
X117904287Y-38505348D01*
X117912026Y-38501620D01*
X117920472Y-38500023D01*
X117971045Y-38473292D01*
X117975153Y-38471220D01*
X117983717Y-38467095D01*
X118026642Y-38446425D01*
X118032939Y-38440582D01*
X118040538Y-38436566D01*
X118080975Y-38396127D01*
X118084260Y-38392962D01*
X118126194Y-38354055D01*
X118129663Y-38348045D01*
X118134747Y-38342355D01*
X120355744Y-36121357D01*
X120366093Y-36112109D01*
X120393970Y-36089879D01*
X120426191Y-36042618D01*
X120428830Y-36038898D01*
X120462793Y-35992882D01*
X120465629Y-35984775D01*
X120470472Y-35977673D01*
X120487325Y-35923030D01*
X120488762Y-35918662D01*
X120507646Y-35864699D01*
X120507967Y-35856113D01*
X120510500Y-35847902D01*
X120510500Y-35790738D01*
X120510587Y-35786101D01*
X120511295Y-35767187D01*
X120512724Y-35728990D01*
X120510928Y-35722287D01*
X120510500Y-35714658D01*
X120510500Y-35553872D01*
X120513468Y-35530529D01*
X120512973Y-35530447D01*
X120552447Y-35293599D01*
X120642013Y-34756198D01*
X120642978Y-34751746D01*
X120645044Y-34746762D01*
X120650251Y-34707198D01*
X120650867Y-34703072D01*
X120659080Y-34653801D01*
X120659274Y-34644433D01*
X120660308Y-34630817D01*
X120664621Y-34598059D01*
X120665682Y-34590000D01*
X120645044Y-34433238D01*
X120584536Y-34287159D01*
X120488282Y-34161718D01*
X120362841Y-34065464D01*
X120325486Y-34049991D01*
X120256225Y-34021302D01*
X123079500Y-34021302D01*
X123079501Y-34024864D01*
X123079912Y-34028411D01*
X123079913Y-34028422D01*
X123081103Y-34038676D01*
X123082415Y-34049991D01*
X123086181Y-34058521D01*
X123086182Y-34058523D01*
X123098279Y-34085920D01*
X123127794Y-34152765D01*
X123207235Y-34232206D01*
X123278111Y-34263501D01*
X123301477Y-34273818D01*
X123301478Y-34273818D01*
X123310009Y-34277585D01*
X123335135Y-34280500D01*
X124424864Y-34280499D01*
X124449991Y-34277585D01*
X124552765Y-34232206D01*
X124632206Y-34152765D01*
X124677585Y-34049991D01*
X124680500Y-34024865D01*
X124680499Y-32935136D01*
X124677585Y-32910009D01*
X124632206Y-32807235D01*
X124552765Y-32727794D01*
X124537833Y-32721201D01*
X124458522Y-32686181D01*
X124458517Y-32686179D01*
X124449991Y-32682415D01*
X124440726Y-32681340D01*
X124428414Y-32679911D01*
X124428401Y-32679910D01*
X124424865Y-32679500D01*
X124421290Y-32679500D01*
X123338714Y-32679500D01*
X123338696Y-32679500D01*
X123335136Y-32679501D01*
X123331589Y-32679912D01*
X123331577Y-32679913D01*
X123319277Y-32681340D01*
X123319275Y-32681340D01*
X123310009Y-32682415D01*
X123301479Y-32686180D01*
X123301476Y-32686182D01*
X123217745Y-32723153D01*
X123217743Y-32723154D01*
X123207235Y-32727794D01*
X123199112Y-32735916D01*
X123199109Y-32735919D01*
X123135919Y-32799109D01*
X123135916Y-32799112D01*
X123127794Y-32807235D01*
X123123154Y-32817743D01*
X123123153Y-32817745D01*
X123086181Y-32901477D01*
X123086179Y-32901484D01*
X123082415Y-32910009D01*
X123081340Y-32919271D01*
X123081340Y-32919273D01*
X123079911Y-32931585D01*
X123079910Y-32931599D01*
X123079500Y-32935135D01*
X123079500Y-32938708D01*
X123079500Y-32938709D01*
X123079500Y-34021285D01*
X123079500Y-34021302D01*
X120256225Y-34021302D01*
X120224271Y-34008066D01*
X120224268Y-34008065D01*
X120216762Y-34004956D01*
X120208708Y-34003895D01*
X120208702Y-34003894D01*
X120068059Y-33985379D01*
X120060000Y-33984318D01*
X120051941Y-33985379D01*
X119911297Y-34003894D01*
X119911289Y-34003896D01*
X119903238Y-34004956D01*
X119895731Y-34008065D01*
X119887878Y-34010170D01*
X119887210Y-34007677D01*
X119842330Y-34014328D01*
X119785600Y-33994023D01*
X119745139Y-33949375D01*
X119730500Y-33890927D01*
X119730500Y-30940000D01*
X123074435Y-30940000D01*
X123094632Y-31119255D01*
X123096928Y-31125819D01*
X123096930Y-31125824D01*
X123141633Y-31253577D01*
X123154211Y-31289522D01*
X123157912Y-31295412D01*
X123231658Y-31412779D01*
X123250184Y-31442262D01*
X123377738Y-31569816D01*
X123530478Y-31665789D01*
X123700745Y-31725368D01*
X123880000Y-31745565D01*
X124059255Y-31725368D01*
X124229522Y-31665789D01*
X124382262Y-31569816D01*
X124509816Y-31442262D01*
X124605789Y-31289522D01*
X124665368Y-31119255D01*
X124685565Y-30940000D01*
X124665368Y-30760745D01*
X124605789Y-30590478D01*
X124509816Y-30437738D01*
X124464758Y-30392680D01*
X124432665Y-30337094D01*
X124432665Y-30272906D01*
X124464759Y-30217319D01*
X124482173Y-30199905D01*
X124509816Y-30172262D01*
X124605789Y-30019522D01*
X124665368Y-29849255D01*
X124685565Y-29670000D01*
X124665368Y-29490745D01*
X124605789Y-29320478D01*
X124509816Y-29167738D01*
X124382262Y-29040184D01*
X124229522Y-28944211D01*
X124222959Y-28941914D01*
X124222956Y-28941913D01*
X124065824Y-28886930D01*
X124065819Y-28886928D01*
X124059255Y-28884632D01*
X124052335Y-28883852D01*
X124052334Y-28883852D01*
X123886923Y-28865215D01*
X123880000Y-28864435D01*
X123873077Y-28865215D01*
X123707665Y-28883852D01*
X123707662Y-28883852D01*
X123700745Y-28884632D01*
X123694182Y-28886928D01*
X123694175Y-28886930D01*
X123537043Y-28941913D01*
X123537036Y-28941915D01*
X123530478Y-28944211D01*
X123524590Y-28947910D01*
X123524587Y-28947912D01*
X123383638Y-29036476D01*
X123383633Y-29036479D01*
X123377738Y-29040184D01*
X123372813Y-29045108D01*
X123372809Y-29045112D01*
X123255112Y-29162809D01*
X123255108Y-29162813D01*
X123250184Y-29167738D01*
X123246479Y-29173633D01*
X123246476Y-29173638D01*
X123157912Y-29314587D01*
X123157910Y-29314590D01*
X123154211Y-29320478D01*
X123151915Y-29327036D01*
X123151913Y-29327043D01*
X123096930Y-29484175D01*
X123096928Y-29484182D01*
X123094632Y-29490745D01*
X123074435Y-29670000D01*
X123075215Y-29676923D01*
X123092280Y-29828385D01*
X123094632Y-29849255D01*
X123096928Y-29855819D01*
X123096930Y-29855824D01*
X123150125Y-30007845D01*
X123154211Y-30019522D01*
X123157912Y-30025412D01*
X123236642Y-30150711D01*
X123250184Y-30172262D01*
X123255112Y-30177190D01*
X123295241Y-30217319D01*
X123327335Y-30272906D01*
X123327335Y-30337094D01*
X123295241Y-30392681D01*
X123255112Y-30432809D01*
X123255108Y-30432813D01*
X123250184Y-30437738D01*
X123246479Y-30443633D01*
X123246476Y-30443638D01*
X123157912Y-30584587D01*
X123157910Y-30584590D01*
X123154211Y-30590478D01*
X123151915Y-30597036D01*
X123151913Y-30597043D01*
X123096930Y-30754175D01*
X123096928Y-30754182D01*
X123094632Y-30760745D01*
X123093852Y-30767662D01*
X123093852Y-30767665D01*
X123084102Y-30854201D01*
X123074435Y-30940000D01*
X119730500Y-30940000D01*
X119730500Y-29923872D01*
X119733468Y-29900529D01*
X119732973Y-29900447D01*
X119753898Y-29774898D01*
X119862013Y-29126198D01*
X119862978Y-29121746D01*
X119865044Y-29116762D01*
X119870251Y-29077198D01*
X119870867Y-29073072D01*
X119879080Y-29023801D01*
X119879275Y-29014417D01*
X119880308Y-29000817D01*
X119880309Y-29000814D01*
X119885682Y-28960000D01*
X119865044Y-28803238D01*
X119804536Y-28657159D01*
X119708282Y-28531718D01*
X119582841Y-28435464D01*
X119575333Y-28432354D01*
X119444271Y-28378066D01*
X119444268Y-28378065D01*
X119436762Y-28374956D01*
X119428708Y-28373895D01*
X119428702Y-28373894D01*
X119288059Y-28355379D01*
X119280000Y-28354318D01*
X119271941Y-28355379D01*
X119131297Y-28373894D01*
X119131289Y-28373896D01*
X119123238Y-28374956D01*
X119115733Y-28378064D01*
X119115728Y-28378066D01*
X118984666Y-28432354D01*
X118984662Y-28432355D01*
X118977159Y-28435464D01*
X118970714Y-28440408D01*
X118970711Y-28440411D01*
X118858164Y-28526771D01*
X118858160Y-28526774D01*
X118851718Y-28531718D01*
X118846774Y-28538160D01*
X118846771Y-28538164D01*
X118760411Y-28650711D01*
X118760408Y-28650714D01*
X118755464Y-28657159D01*
X118752355Y-28664662D01*
X118752354Y-28664666D01*
X118698066Y-28795728D01*
X118698064Y-28795733D01*
X118694956Y-28803238D01*
X118693896Y-28811289D01*
X118693894Y-28811297D01*
X118679587Y-28919975D01*
X118674318Y-28960000D01*
X118678312Y-28990341D01*
X118679691Y-29000814D01*
X118680724Y-29014417D01*
X118680825Y-29019315D01*
X118680826Y-29019329D01*
X118680919Y-29023798D01*
X118681653Y-29028206D01*
X118681655Y-29028221D01*
X118689126Y-29073051D01*
X118689752Y-29077243D01*
X118693896Y-29108715D01*
X118694956Y-29116762D01*
X118697016Y-29121736D01*
X118697988Y-29126220D01*
X118827027Y-29900447D01*
X118826530Y-29900529D01*
X118829500Y-29923873D01*
X118829500Y-33788789D01*
X118816500Y-33844061D01*
X118780227Y-33887743D01*
X118728285Y-33910678D01*
X118671566Y-33908055D01*
X118621962Y-33880426D01*
X118582072Y-33844061D01*
X118476562Y-33747876D01*
X118471692Y-33744861D01*
X118471690Y-33744859D01*
X118343782Y-33665663D01*
X118287401Y-33630753D01*
X118257388Y-33619126D01*
X118085286Y-33552453D01*
X118085285Y-33552452D01*
X118079940Y-33550382D01*
X118074302Y-33549328D01*
X117866872Y-33510552D01*
X117866869Y-33510551D01*
X117861243Y-33509500D01*
X117638757Y-33509500D01*
X117633131Y-33510551D01*
X117633127Y-33510552D01*
X117425697Y-33549328D01*
X117425694Y-33549328D01*
X117420060Y-33550382D01*
X117414717Y-33552451D01*
X117414713Y-33552453D01*
X117217941Y-33628683D01*
X117217936Y-33628685D01*
X117212599Y-33630753D01*
X117207727Y-33633769D01*
X117207724Y-33633771D01*
X117028309Y-33744859D01*
X117028301Y-33744864D01*
X117023438Y-33747876D01*
X117019207Y-33751732D01*
X117019203Y-33751736D01*
X116863259Y-33893897D01*
X116863249Y-33893907D01*
X116859019Y-33897764D01*
X116855570Y-33902330D01*
X116855561Y-33902341D01*
X116728394Y-34070738D01*
X116728387Y-34070748D01*
X116724942Y-34075311D01*
X116722392Y-34080431D01*
X116722387Y-34080440D01*
X116628325Y-34269341D01*
X116628321Y-34269349D01*
X116625771Y-34274472D01*
X116624205Y-34279975D01*
X116624201Y-34279986D01*
X116582735Y-34425728D01*
X116564885Y-34488464D01*
X116564356Y-34494169D01*
X116564356Y-34494171D01*
X116549155Y-34658223D01*
X116544357Y-34710000D01*
X116564885Y-34931536D01*
X116574195Y-34964258D01*
X116624201Y-35140013D01*
X116624204Y-35140021D01*
X116625771Y-35145528D01*
X116628323Y-35150653D01*
X116628325Y-35150658D01*
X116722387Y-35339559D01*
X116722389Y-35339563D01*
X116724942Y-35344689D01*
X116728391Y-35349256D01*
X116728394Y-35349261D01*
X116855561Y-35517658D01*
X116855566Y-35517663D01*
X116859019Y-35522236D01*
X116863255Y-35526097D01*
X116863259Y-35526102D01*
X116940377Y-35596404D01*
X117023438Y-35672124D01*
X117212599Y-35789247D01*
X117420060Y-35869618D01*
X117638757Y-35910500D01*
X117855514Y-35910500D01*
X117861243Y-35910500D01*
X117948711Y-35894149D01*
X118010902Y-35898466D01*
X118063133Y-35932499D01*
X118092202Y-35987648D01*
X118090762Y-36049972D01*
X118059177Y-36103719D01*
X117259716Y-36903181D01*
X117219488Y-36930061D01*
X117172035Y-36939500D01*
X113292261Y-36939500D01*
X113278378Y-36938720D01*
X113252199Y-36935770D01*
X113252196Y-36935770D01*
X113242965Y-36934730D01*
X113186795Y-36945357D01*
X113182242Y-36946131D01*
X113134894Y-36953268D01*
X113134893Y-36953268D01*
X113125713Y-36954652D01*
X113117973Y-36958379D01*
X113109528Y-36959977D01*
X113101317Y-36964316D01*
X113101310Y-36964319D01*
X113058963Y-36986699D01*
X113054830Y-36988786D01*
X113011724Y-37009546D01*
X113003358Y-37013575D01*
X112997060Y-37019417D01*
X112989462Y-37023434D01*
X112982901Y-37029994D01*
X112982894Y-37030000D01*
X112949045Y-37063849D01*
X112945709Y-37067063D01*
X112910617Y-37099624D01*
X112910613Y-37099628D01*
X112903806Y-37105945D01*
X112900337Y-37111950D01*
X112895241Y-37117653D01*
X112009263Y-38003632D01*
X111998898Y-38012895D01*
X111978297Y-38029324D01*
X111978291Y-38029329D01*
X111971030Y-38035121D01*
X111965797Y-38042795D01*
X111965796Y-38042797D01*
X111938824Y-38082356D01*
X111936144Y-38086132D01*
X111907724Y-38124641D01*
X111907721Y-38124646D01*
X111902207Y-38132118D01*
X111899370Y-38140224D01*
X111894528Y-38147327D01*
X111891791Y-38156199D01*
X111891788Y-38156206D01*
X111877672Y-38201968D01*
X111876225Y-38206367D01*
X111860422Y-38251532D01*
X111857354Y-38260301D01*
X111857032Y-38268886D01*
X111854500Y-38277098D01*
X111854500Y-38286385D01*
X111854500Y-38334262D01*
X111854413Y-38338899D01*
X111852623Y-38386719D01*
X111852623Y-38386723D01*
X111852276Y-38396010D01*
X111854071Y-38402712D01*
X111854500Y-38410342D01*
X111854500Y-39494188D01*
X111835081Y-39560813D01*
X111782905Y-39606570D01*
X111714315Y-39617126D01*
X111655000Y-39609318D01*
X111646941Y-39610379D01*
X111506297Y-39628894D01*
X111506289Y-39628896D01*
X111498238Y-39629956D01*
X111490733Y-39633064D01*
X111490728Y-39633066D01*
X111361953Y-39686407D01*
X111302346Y-39695249D01*
X111245609Y-39674948D01*
X111205142Y-39630299D01*
X111190500Y-39571846D01*
X111190500Y-36382261D01*
X111191280Y-36368378D01*
X111195270Y-36332965D01*
X111184635Y-36276761D01*
X111183864Y-36272220D01*
X111176747Y-36225000D01*
X111175348Y-36215713D01*
X111171620Y-36207973D01*
X111170023Y-36199528D01*
X111143293Y-36148954D01*
X111141220Y-36144846D01*
X111120458Y-36101732D01*
X111120456Y-36101730D01*
X111116425Y-36093358D01*
X111110582Y-36087060D01*
X111106566Y-36079462D01*
X111066151Y-36039047D01*
X111062934Y-36035708D01*
X111057406Y-36029750D01*
X111024055Y-35993806D01*
X111018046Y-35990336D01*
X111012343Y-35985239D01*
X110853729Y-35826625D01*
X110825913Y-35784072D01*
X110245325Y-34298161D01*
X110245324Y-34298160D01*
X110245155Y-34297726D01*
X110244229Y-34294472D01*
X110242623Y-34291247D01*
X110240382Y-34285511D01*
X110235476Y-34276639D01*
X110232995Y-34271912D01*
X110147614Y-34100444D01*
X110147612Y-34100440D01*
X110145058Y-34095311D01*
X110141606Y-34090740D01*
X110141605Y-34090738D01*
X110014438Y-33922341D01*
X110014434Y-33922337D01*
X110010981Y-33917764D01*
X110006744Y-33913901D01*
X110006740Y-33913897D01*
X109850796Y-33771736D01*
X109850797Y-33771736D01*
X109846562Y-33767876D01*
X109841692Y-33764861D01*
X109841690Y-33764859D01*
X109662275Y-33653771D01*
X109662276Y-33653771D01*
X109657401Y-33650753D01*
X109575762Y-33619126D01*
X109455286Y-33572453D01*
X109455285Y-33572452D01*
X109449940Y-33570382D01*
X109444302Y-33569328D01*
X109236872Y-33530552D01*
X109236869Y-33530551D01*
X109231243Y-33529500D01*
X109008757Y-33529500D01*
X109003131Y-33530551D01*
X109003127Y-33530552D01*
X108795697Y-33569328D01*
X108795694Y-33569328D01*
X108790060Y-33570382D01*
X108784717Y-33572451D01*
X108784713Y-33572453D01*
X108587941Y-33648683D01*
X108587936Y-33648685D01*
X108582599Y-33650753D01*
X108577727Y-33653769D01*
X108577724Y-33653771D01*
X108398309Y-33764859D01*
X108398301Y-33764864D01*
X108393438Y-33767876D01*
X108389207Y-33771732D01*
X108389203Y-33771736D01*
X108359903Y-33798446D01*
X108303824Y-33827729D01*
X108240598Y-33825536D01*
X108186683Y-33792439D01*
X108156112Y-33737051D01*
X108156843Y-33673792D01*
X108188683Y-33619129D01*
X109276427Y-32531384D01*
X109287034Y-32522837D01*
X109286959Y-32522750D01*
X109293665Y-32516938D01*
X109301128Y-32512143D01*
X109333660Y-32474596D01*
X109339681Y-32468131D01*
X109349220Y-32458593D01*
X109357308Y-32447786D01*
X109362853Y-32440906D01*
X109395377Y-32403373D01*
X109399062Y-32395301D01*
X109403855Y-32387845D01*
X109403954Y-32387908D01*
X109404330Y-32387274D01*
X109404228Y-32387219D01*
X109408478Y-32379433D01*
X109413796Y-32372331D01*
X109431155Y-32325787D01*
X109434526Y-32317647D01*
X109455165Y-32272457D01*
X109456427Y-32263675D01*
X109458925Y-32255169D01*
X109459037Y-32255202D01*
X109459220Y-32254486D01*
X109459106Y-32254462D01*
X109460992Y-32245791D01*
X109464091Y-32237483D01*
X109467633Y-32187940D01*
X109468574Y-32179187D01*
X109470500Y-32165799D01*
X109470500Y-32152299D01*
X109470816Y-32143453D01*
X109471053Y-32140133D01*
X109474358Y-32093927D01*
X109472472Y-32085259D01*
X109471840Y-32076416D01*
X109471956Y-32076407D01*
X109470500Y-32062862D01*
X109470500Y-30957144D01*
X109471956Y-30943594D01*
X109471841Y-30943586D01*
X109472473Y-30934739D01*
X109474359Y-30926073D01*
X109470815Y-30876538D01*
X109470500Y-30867692D01*
X109470500Y-30858636D01*
X109470500Y-30854201D01*
X109468578Y-30840837D01*
X109467633Y-30832046D01*
X109464091Y-30782517D01*
X109460990Y-30774204D01*
X109459106Y-30765540D01*
X109459220Y-30765515D01*
X109459037Y-30764798D01*
X109458925Y-30764832D01*
X109456427Y-30756326D01*
X109455165Y-30747543D01*
X109434530Y-30702360D01*
X109431159Y-30694222D01*
X109413796Y-30647669D01*
X109408478Y-30640565D01*
X109404230Y-30632785D01*
X109404332Y-30632729D01*
X109403953Y-30632090D01*
X109403855Y-30632154D01*
X109399061Y-30624694D01*
X109395377Y-30616627D01*
X109389570Y-30609925D01*
X109389566Y-30609919D01*
X109362860Y-30579099D01*
X109357306Y-30572207D01*
X109355197Y-30569390D01*
X109349221Y-30561407D01*
X109339675Y-30551861D01*
X109333658Y-30545400D01*
X109301128Y-30507857D01*
X109293668Y-30503063D01*
X109286963Y-30497252D01*
X109287038Y-30497164D01*
X109276427Y-30488613D01*
X109177321Y-30389507D01*
X109150746Y-30350008D01*
X109129580Y-30299816D01*
X109103161Y-30237167D01*
X109082958Y-30199889D01*
X109077424Y-30188273D01*
X109070792Y-30172262D01*
X109064536Y-30157159D01*
X108968282Y-30031718D01*
X108842841Y-29935464D01*
X108814858Y-29923873D01*
X108704271Y-29878066D01*
X108704268Y-29878065D01*
X108696762Y-29874956D01*
X108688708Y-29873895D01*
X108688702Y-29873894D01*
X108548059Y-29855379D01*
X108540000Y-29854318D01*
X108531940Y-29855379D01*
X108523041Y-29856550D01*
X108502033Y-29857516D01*
X108501022Y-29857476D01*
X108501015Y-29857476D01*
X108496711Y-29857308D01*
X108492421Y-29857737D01*
X108492419Y-29857738D01*
X107627731Y-29944398D01*
X107627728Y-29944398D01*
X107622056Y-29944967D01*
X107616579Y-29946564D01*
X107613178Y-29947225D01*
X107589535Y-29949500D01*
X106693769Y-29949500D01*
X106635831Y-29935132D01*
X106628267Y-29931134D01*
X106620794Y-29925619D01*
X106612024Y-29922550D01*
X106612022Y-29922549D01*
X106504005Y-29884752D01*
X106504001Y-29884751D01*
X106496879Y-29882259D01*
X106489361Y-29881554D01*
X106470342Y-29879770D01*
X106470330Y-29879769D01*
X106467457Y-29879500D01*
X106464563Y-29879500D01*
X106326385Y-29879500D01*
X106270090Y-29865985D01*
X106226067Y-29828385D01*
X106203912Y-29774898D01*
X106208454Y-29717182D01*
X106238702Y-29667821D01*
X106361145Y-29545378D01*
X106364130Y-29542493D01*
X106411044Y-29498680D01*
X106432398Y-29463562D01*
X106439525Y-29453091D01*
X106464361Y-29420342D01*
X106470943Y-29403648D01*
X106480352Y-29384707D01*
X106489672Y-29369382D01*
X106500758Y-29329811D01*
X106504802Y-29317786D01*
X106519876Y-29279564D01*
X106521711Y-29261713D01*
X106525660Y-29240937D01*
X106530500Y-29223665D01*
X106530500Y-29182582D01*
X106531150Y-29169901D01*
X106534229Y-29139951D01*
X106535352Y-29129028D01*
X106532303Y-29111344D01*
X106530500Y-29090275D01*
X106530500Y-25679387D01*
X106539939Y-25631934D01*
X106566819Y-25591706D01*
X106851291Y-25307233D01*
X107033523Y-25125000D01*
X110645000Y-25125000D01*
X110648023Y-25139683D01*
X110648023Y-25139684D01*
X110852704Y-26133851D01*
X110852705Y-26133854D01*
X110855000Y-26145000D01*
X110861134Y-26154585D01*
X110861135Y-26154586D01*
X111272689Y-26797640D01*
X111335000Y-26895000D01*
X111945000Y-27415000D01*
X112845000Y-27715000D01*
X113725000Y-27695000D01*
X114385000Y-27425000D01*
X114825000Y-27115000D01*
X115075000Y-26875000D01*
X115345000Y-26495000D01*
X115525000Y-26135000D01*
X115615000Y-25865000D01*
X115685000Y-25505000D01*
X115695000Y-25155000D01*
X115675000Y-24875000D01*
X115595000Y-24515000D01*
X115465000Y-24175000D01*
X115315000Y-23905000D01*
X115275572Y-23848675D01*
X115176738Y-23707483D01*
X115175000Y-23705000D01*
X114995000Y-23495000D01*
X114835000Y-23345000D01*
X114832455Y-23343066D01*
X114832447Y-23343059D01*
X114588127Y-23157376D01*
X114588121Y-23157372D01*
X114585000Y-23155000D01*
X114581605Y-23153041D01*
X114581600Y-23153038D01*
X114328042Y-23006755D01*
X114328041Y-23006754D01*
X114325000Y-23005000D01*
X114321787Y-23003603D01*
X114321779Y-23003599D01*
X114098107Y-22906350D01*
X114098093Y-22906344D01*
X114095000Y-22905000D01*
X114091769Y-22903997D01*
X114091763Y-22903995D01*
X113808848Y-22816194D01*
X113808845Y-22816193D01*
X113805000Y-22815000D01*
X113801038Y-22814316D01*
X113801026Y-22814314D01*
X113516641Y-22765283D01*
X113516643Y-22765283D01*
X113515000Y-22765000D01*
X113513356Y-22764806D01*
X113513352Y-22764806D01*
X113348608Y-22745424D01*
X113348600Y-22745423D01*
X113345000Y-22745000D01*
X113035000Y-22745000D01*
X113031774Y-22745339D01*
X113031765Y-22745340D01*
X112661567Y-22784308D01*
X112661560Y-22784309D01*
X112655000Y-22785000D01*
X112648735Y-22787060D01*
X112648725Y-22787063D01*
X111908668Y-23030503D01*
X111908664Y-23030505D01*
X111895000Y-23035000D01*
X111884769Y-23045118D01*
X111884768Y-23045119D01*
X110996360Y-23923764D01*
X110996358Y-23923766D01*
X110985000Y-23935000D01*
X110980611Y-23950359D01*
X110980610Y-23950362D01*
X110649118Y-25110584D01*
X110649117Y-25110587D01*
X110645000Y-25125000D01*
X107033523Y-25125000D01*
X107048077Y-25110446D01*
X107062175Y-25098321D01*
X107082334Y-25083463D01*
X107736651Y-24498022D01*
X107739382Y-24494815D01*
X107741075Y-24493082D01*
X107749140Y-24485922D01*
X107751828Y-24483233D01*
X107758282Y-24478282D01*
X107854536Y-24352841D01*
X107915044Y-24206762D01*
X107935682Y-24050000D01*
X107916960Y-23907793D01*
X107916105Y-23901297D01*
X107916104Y-23901296D01*
X107915044Y-23893238D01*
X107854536Y-23747159D01*
X107758282Y-23621718D01*
X107632841Y-23525464D01*
X107607410Y-23514930D01*
X107494271Y-23468066D01*
X107494268Y-23468065D01*
X107486762Y-23464956D01*
X107478708Y-23463895D01*
X107478702Y-23463894D01*
X107338059Y-23445379D01*
X107330000Y-23444318D01*
X107321941Y-23445379D01*
X107181297Y-23463894D01*
X107181289Y-23463896D01*
X107173238Y-23464956D01*
X107165731Y-23468065D01*
X107165725Y-23468067D01*
X107083484Y-23502132D01*
X107052919Y-23510416D01*
X107028479Y-23513775D01*
X107028475Y-23513776D01*
X107020080Y-23514930D01*
X107012308Y-23518305D01*
X107012300Y-23518308D01*
X107003609Y-23522083D01*
X106983581Y-23528817D01*
X106974395Y-23531056D01*
X106974387Y-23531059D01*
X106966148Y-23533067D01*
X106958757Y-23537222D01*
X106958753Y-23537224D01*
X106930333Y-23553203D01*
X106918969Y-23558847D01*
X106889061Y-23571839D01*
X106889055Y-23571842D01*
X106881280Y-23575220D01*
X106874704Y-23580569D01*
X106874702Y-23580571D01*
X106867358Y-23586546D01*
X106849883Y-23598439D01*
X106841635Y-23603076D01*
X106841627Y-23603081D01*
X106834241Y-23607235D01*
X106828250Y-23613225D01*
X106828239Y-23613234D01*
X106805184Y-23636289D01*
X106795764Y-23644790D01*
X106770473Y-23665367D01*
X106770469Y-23665370D01*
X106763892Y-23670722D01*
X106759005Y-23677644D01*
X106759002Y-23677648D01*
X106753539Y-23685388D01*
X106739920Y-23701554D01*
X106300310Y-24141163D01*
X106293796Y-24147226D01*
X106265487Y-24171736D01*
X106265477Y-24171745D01*
X106262281Y-24174513D01*
X106259491Y-24177691D01*
X106259482Y-24177701D01*
X106231376Y-24209727D01*
X106225859Y-24215615D01*
X105134238Y-25307236D01*
X104934241Y-25507234D01*
X104516623Y-25924850D01*
X104481696Y-25949387D01*
X104440518Y-25960627D01*
X104430644Y-25961552D01*
X104430629Y-25961555D01*
X104423121Y-25962259D01*
X104415996Y-25964752D01*
X104415992Y-25964753D01*
X104307978Y-26002549D01*
X104307975Y-26002550D01*
X104299206Y-26005619D01*
X104291730Y-26011136D01*
X104291729Y-26011137D01*
X104201051Y-26078060D01*
X104201047Y-26078063D01*
X104193577Y-26083577D01*
X104188063Y-26091047D01*
X104188060Y-26091051D01*
X104121137Y-26181729D01*
X104115619Y-26189206D01*
X104112550Y-26197975D01*
X104112549Y-26197978D01*
X104074752Y-26305994D01*
X104074750Y-26306000D01*
X104072259Y-26313121D01*
X104071554Y-26320637D01*
X104071554Y-26320638D01*
X104069770Y-26339657D01*
X104069769Y-26339670D01*
X104069500Y-26342543D01*
X104069500Y-26345435D01*
X104069500Y-26345436D01*
X104069500Y-26714553D01*
X104069500Y-26714574D01*
X104069501Y-26717456D01*
X104069770Y-26720329D01*
X104069771Y-26720343D01*
X104071554Y-26739362D01*
X104072259Y-26746879D01*
X104115619Y-26870794D01*
X104121137Y-26878271D01*
X104121139Y-26878274D01*
X104186154Y-26966367D01*
X104207610Y-27013917D01*
X104207610Y-27066083D01*
X104186154Y-27113633D01*
X104121139Y-27201725D01*
X104121135Y-27201730D01*
X104115619Y-27209206D01*
X104112550Y-27217975D01*
X104112549Y-27217978D01*
X104074752Y-27325994D01*
X104074750Y-27326000D01*
X104072259Y-27333121D01*
X104071554Y-27340637D01*
X104071554Y-27340638D01*
X104069770Y-27359657D01*
X104069769Y-27359670D01*
X104069500Y-27362543D01*
X104069500Y-27365435D01*
X104069500Y-27365436D01*
X104069500Y-27734553D01*
X104069500Y-27734574D01*
X104069501Y-27737456D01*
X104069770Y-27740329D01*
X104069771Y-27740343D01*
X104071555Y-27759371D01*
X104072259Y-27766879D01*
X104074747Y-27773991D01*
X104074750Y-27774002D01*
X104082541Y-27796266D01*
X104089500Y-27837221D01*
X104089500Y-28197127D01*
X104075271Y-28254801D01*
X104035851Y-28299239D01*
X103980285Y-28320242D01*
X103952548Y-28323572D01*
X103952540Y-28323573D01*
X103944654Y-28324521D01*
X103937265Y-28327434D01*
X103937260Y-28327436D01*
X103819755Y-28373774D01*
X103819750Y-28373776D01*
X103811868Y-28376885D01*
X103805116Y-28382005D01*
X103805111Y-28382008D01*
X103704889Y-28458009D01*
X103704885Y-28458012D01*
X103698133Y-28463133D01*
X103693012Y-28469885D01*
X103693009Y-28469889D01*
X103617008Y-28570111D01*
X103617005Y-28570116D01*
X103611885Y-28576868D01*
X103608776Y-28584750D01*
X103608774Y-28584755D01*
X103562436Y-28702260D01*
X103562434Y-28702265D01*
X103559521Y-28709654D01*
X103558573Y-28717540D01*
X103558572Y-28717548D01*
X103549941Y-28789420D01*
X103549940Y-28789431D01*
X103549500Y-28793098D01*
X103549500Y-29386902D01*
X103549940Y-29390569D01*
X103549941Y-29390579D01*
X103558572Y-29462451D01*
X103558573Y-29462457D01*
X103559521Y-29470346D01*
X103611885Y-29603132D01*
X103698133Y-29716867D01*
X103704889Y-29721990D01*
X103704892Y-29721993D01*
X103711096Y-29726698D01*
X103749219Y-29774551D01*
X103759819Y-29834808D01*
X103740317Y-29892799D01*
X103695460Y-29934406D01*
X103636169Y-29949500D01*
X103021522Y-29949500D01*
X103017289Y-29949428D01*
X102961648Y-29947527D01*
X102961644Y-29947527D01*
X102953174Y-29947238D01*
X102944940Y-29949244D01*
X102944934Y-29949245D01*
X102913256Y-29956965D01*
X102900785Y-29959335D01*
X102868479Y-29963775D01*
X102868475Y-29963776D01*
X102860080Y-29964930D01*
X102852308Y-29968305D01*
X102852300Y-29968308D01*
X102843609Y-29972083D01*
X102823581Y-29978817D01*
X102814391Y-29981056D01*
X102814376Y-29981061D01*
X102806148Y-29983067D01*
X102798763Y-29987218D01*
X102798758Y-29987221D01*
X102770332Y-30003204D01*
X102758968Y-30008848D01*
X102729061Y-30021839D01*
X102729055Y-30021842D01*
X102721280Y-30025220D01*
X102714705Y-30030568D01*
X102714698Y-30030573D01*
X102707355Y-30036547D01*
X102689889Y-30048434D01*
X102681637Y-30053074D01*
X102681630Y-30053078D01*
X102674241Y-30057234D01*
X102668246Y-30063228D01*
X102668239Y-30063234D01*
X102645178Y-30086294D01*
X102635758Y-30094796D01*
X102603892Y-30120722D01*
X102599003Y-30127647D01*
X102598998Y-30127653D01*
X102593540Y-30135385D01*
X102579922Y-30151551D01*
X100933894Y-31797579D01*
X100930852Y-31800520D01*
X100890153Y-31838531D01*
X100890148Y-31838536D01*
X100883956Y-31844320D01*
X100879551Y-31851562D01*
X100879547Y-31851568D01*
X100862604Y-31879428D01*
X100855467Y-31889915D01*
X100840139Y-31910129D01*
X100830639Y-31922658D01*
X100827528Y-31930545D01*
X100827528Y-31930546D01*
X100824054Y-31939355D01*
X100814654Y-31958279D01*
X100809737Y-31966364D01*
X100809732Y-31966375D01*
X100805328Y-31973618D01*
X100803041Y-31981778D01*
X100803039Y-31981784D01*
X100794242Y-32013181D01*
X100790197Y-32025207D01*
X100778236Y-32055540D01*
X100778233Y-32055550D01*
X100775124Y-32063436D01*
X100774256Y-32071872D01*
X100774256Y-32071874D01*
X100773288Y-32081287D01*
X100769343Y-32102044D01*
X100766787Y-32111167D01*
X100766785Y-32111175D01*
X100764500Y-32119335D01*
X100764500Y-32127812D01*
X100764500Y-32160418D01*
X100763850Y-32173099D01*
X100760515Y-32205533D01*
X100760515Y-32205537D01*
X100759648Y-32213972D01*
X100761088Y-32222329D01*
X100761089Y-32222332D01*
X100762697Y-32231656D01*
X100764500Y-32252725D01*
X100764500Y-32645667D01*
X100761692Y-32671903D01*
X100759959Y-32679911D01*
X100741506Y-32765145D01*
X100734879Y-32786351D01*
X100729956Y-32798238D01*
X100728896Y-32806289D01*
X100728894Y-32806297D01*
X100712101Y-32933860D01*
X100709318Y-32955000D01*
X99230566Y-32955000D01*
X99421530Y-30625859D01*
X99439706Y-30570690D01*
X104394528Y-22573432D01*
X104446164Y-22527006D01*
X105768211Y-21890771D01*
X105815860Y-21878657D01*
X113150148Y-21516348D01*
X113161858Y-21516326D01*
X120277368Y-21839313D01*
G37*
%TD.AperFunction*%
%TD*%
%TA.AperFunction,Conductor*%
%TO.N,5V*%
G36*
X103446098Y-69597231D02*
G01*
X103451734Y-69601509D01*
X103453873Y-69608253D01*
X103453873Y-70085605D01*
X103451881Y-70092136D01*
X103446582Y-70096442D01*
X103439782Y-70097058D01*
X102543973Y-69910040D01*
X102538047Y-69906816D01*
X102534886Y-69900857D01*
X102535541Y-69894143D01*
X102643973Y-69630063D01*
X102644021Y-69630009D01*
X102644000Y-69630000D01*
X102755530Y-69363067D01*
X102761593Y-69356878D01*
X102770251Y-69356556D01*
X103446098Y-69597231D01*
G37*
%TD.AperFunction*%
%TD*%
%TA.AperFunction,Conductor*%
%TO.N,SDA*%
G36*
X120278366Y-62399961D02*
G01*
X120286604Y-62403392D01*
X120290027Y-62411633D01*
X120291972Y-63232272D01*
X120290414Y-63238134D01*
X120286130Y-63242428D01*
X120280272Y-63244000D01*
X120000049Y-63244000D01*
X119993418Y-63241939D01*
X119989122Y-63236483D01*
X119987510Y-63232272D01*
X119716894Y-62525404D01*
X119717066Y-62516617D01*
X119723308Y-62510429D01*
X119987822Y-62399909D01*
X119992362Y-62399007D01*
X120278366Y-62399961D01*
G37*
%TD.AperFunction*%
%TD*%
%TA.AperFunction,Conductor*%
%TO.N,SCL*%
G36*
X121418560Y-66485983D02*
G01*
X121423963Y-66491855D01*
X121535088Y-66757817D01*
X121535992Y-66762367D01*
X121535043Y-67046870D01*
X121533223Y-67053098D01*
X121528364Y-67057399D01*
X121521961Y-67058449D01*
X120654070Y-66955227D01*
X120646704Y-66951378D01*
X120643752Y-66943609D01*
X120643752Y-66663402D01*
X120646332Y-66656073D01*
X120652933Y-66651976D01*
X121410649Y-66484940D01*
X121418560Y-66485983D01*
G37*
%TD.AperFunction*%
%TD*%
%TA.AperFunction,Conductor*%
%TO.N,Net-(U1-RB0)*%
G36*
X111607652Y-59952773D02*
G01*
X111611630Y-59959777D01*
X111757737Y-60836422D01*
X111756915Y-60843034D01*
X111752616Y-60848126D01*
X111746235Y-60850045D01*
X111460039Y-60850999D01*
X111459961Y-60850999D01*
X111173764Y-60850045D01*
X111167383Y-60848126D01*
X111163084Y-60843034D01*
X111162262Y-60836425D01*
X111308370Y-59959775D01*
X111312348Y-59952773D01*
X111319911Y-59950000D01*
X111600089Y-59950000D01*
X111607652Y-59952773D01*
G37*
%TD.AperFunction*%
%TD*%
%TA.AperFunction,Conductor*%
%TO.N,5V*%
G36*
X108707444Y-64254653D02*
G01*
X109045346Y-64592555D01*
X109048768Y-64600503D01*
X109045792Y-64608628D01*
X108828791Y-64851160D01*
X108460351Y-65262946D01*
X108455089Y-65266322D01*
X108448839Y-65266506D01*
X108443388Y-65263446D01*
X108239293Y-65060707D01*
X108036552Y-64856610D01*
X108033493Y-64851160D01*
X108033677Y-64844910D01*
X108037050Y-64839652D01*
X108691373Y-64254205D01*
X108699496Y-64251231D01*
X108707444Y-64254653D01*
G37*
%TD.AperFunction*%
%TD*%
%TA.AperFunction,Conductor*%
%TO.N,SCL*%
G36*
X108815346Y-30349603D02*
G01*
X108821667Y-30355874D01*
X109163149Y-31165643D01*
X109163682Y-31173169D01*
X109159510Y-31179456D01*
X109152368Y-31181889D01*
X108775340Y-31181889D01*
X108770482Y-31180833D01*
X108766501Y-31177855D01*
X108334992Y-30680345D01*
X108332138Y-30672278D01*
X108335537Y-30664426D01*
X108538338Y-30460669D01*
X108542181Y-30458104D01*
X108806443Y-30349597D01*
X108815346Y-30349603D01*
G37*
%TD.AperFunction*%
%TD*%
%TA.AperFunction,Conductor*%
%TO.N,SCL*%
G36*
X109307331Y-61052982D02*
G01*
X109311156Y-61060408D01*
X109408561Y-61937051D01*
X109407475Y-61943419D01*
X109403175Y-61948239D01*
X109396972Y-61950043D01*
X109110039Y-61950999D01*
X109109961Y-61950999D01*
X108823027Y-61950043D01*
X108816824Y-61948239D01*
X108812524Y-61943419D01*
X108811438Y-61937053D01*
X108908844Y-61060408D01*
X108912669Y-61052982D01*
X108920472Y-61050000D01*
X109299528Y-61050000D01*
X109307331Y-61052982D01*
G37*
%TD.AperFunction*%
%TD*%
%TA.AperFunction,Conductor*%
%TO.N,SDA*%
G36*
X107637109Y-31537048D02*
G01*
X107840707Y-31739293D01*
X108042950Y-31942889D01*
X108046060Y-31948550D01*
X108045692Y-31954999D01*
X108041958Y-31960270D01*
X107353203Y-32511275D01*
X107345247Y-32513821D01*
X107337621Y-32510412D01*
X107069587Y-32242378D01*
X107066178Y-32234752D01*
X107068723Y-32226798D01*
X107619730Y-31538040D01*
X107625000Y-31534307D01*
X107631449Y-31533939D01*
X107637109Y-31537048D01*
G37*
%TD.AperFunction*%
%TD*%
%TA.AperFunction,Conductor*%
%TO.N,SDA*%
G36*
X108347331Y-60012982D02*
G01*
X108351156Y-60020408D01*
X108448561Y-60897051D01*
X108447475Y-60903419D01*
X108443175Y-60908239D01*
X108436972Y-60910043D01*
X108150039Y-60910999D01*
X108149961Y-60910999D01*
X107863027Y-60910043D01*
X107856824Y-60908239D01*
X107852524Y-60903419D01*
X107851438Y-60897053D01*
X107948844Y-60020408D01*
X107952669Y-60012982D01*
X107960472Y-60010000D01*
X108339528Y-60010000D01*
X108347331Y-60012982D01*
G37*
%TD.AperFunction*%
%TD*%
%TA.AperFunction,Conductor*%
%TO.N,SDA*%
G36*
X107833340Y-31442636D02*
G01*
X107838216Y-31446936D01*
X107840043Y-31453176D01*
X107841000Y-31740000D01*
X107841000Y-31740078D01*
X107840042Y-32027111D01*
X107838260Y-32033278D01*
X107833493Y-32037577D01*
X107827175Y-32038714D01*
X107265292Y-31982401D01*
X106952521Y-31951055D01*
X106945013Y-31947264D01*
X106941989Y-31939414D01*
X106941989Y-31560354D01*
X106944927Y-31552600D01*
X106952265Y-31548741D01*
X107826920Y-31441602D01*
X107833340Y-31442636D01*
G37*
%TD.AperFunction*%
%TD*%
%TA.AperFunction,Conductor*%
%TO.N,5V*%
G36*
X107125567Y-23845516D02*
G01*
X107330707Y-24049293D01*
X107330762Y-24049348D01*
X107532245Y-24252179D01*
X107535415Y-24258120D01*
X107534786Y-24264824D01*
X107530566Y-24270071D01*
X106814311Y-24761754D01*
X106806615Y-24763759D01*
X106799416Y-24760381D01*
X106461630Y-24422595D01*
X106458532Y-24417079D01*
X106458760Y-24410756D01*
X106462242Y-24405480D01*
X107109664Y-23844970D01*
X107117722Y-23842124D01*
X107125567Y-23845516D01*
G37*
%TD.AperFunction*%
%TD*%
%TA.AperFunction,Conductor*%
%TO.N,5V*%
G36*
X125061734Y-41021545D02*
G01*
X125065394Y-41026402D01*
X125401025Y-41859432D01*
X125401455Y-41866905D01*
X125397265Y-41873109D01*
X125390173Y-41875504D01*
X124913926Y-41875504D01*
X124908294Y-41874059D01*
X124904053Y-41870082D01*
X124772487Y-41663162D01*
X124514115Y-41256805D01*
X124512290Y-41250365D01*
X124514297Y-41243976D01*
X124519476Y-41239734D01*
X124783829Y-41129283D01*
X124783838Y-41129304D01*
X124783892Y-41129256D01*
X125050099Y-41019950D01*
X125056130Y-41019182D01*
X125061734Y-41021545D01*
G37*
%TD.AperFunction*%
%TD*%
%TA.AperFunction,Conductor*%
%TO.N,5V*%
G36*
X101252388Y-31934398D02*
G01*
X101587514Y-32269524D01*
X101590934Y-32277382D01*
X101614570Y-32942913D01*
X101613149Y-32948929D01*
X101608862Y-32953381D01*
X101602905Y-32955028D01*
X101316655Y-32955701D01*
X101312116Y-32954797D01*
X101142333Y-32883857D01*
X101046819Y-32843948D01*
X101040958Y-32838565D01*
X101039896Y-32830678D01*
X101232680Y-31940194D01*
X101237097Y-31933309D01*
X101244946Y-31931001D01*
X101252388Y-31934398D01*
G37*
%TD.AperFunction*%
%TD*%
%TA.AperFunction,Conductor*%
%TO.N,5V*%
G36*
X107126610Y-23846552D02*
G01*
X107330707Y-24049293D01*
X107533446Y-24253388D01*
X107536506Y-24258839D01*
X107536322Y-24265089D01*
X107532945Y-24270351D01*
X106878628Y-24855792D01*
X106870503Y-24858768D01*
X106862555Y-24855346D01*
X106524653Y-24517444D01*
X106521231Y-24509496D01*
X106524205Y-24501373D01*
X107109652Y-23847050D01*
X107114910Y-23843677D01*
X107121160Y-23843493D01*
X107126610Y-23846552D01*
G37*
%TD.AperFunction*%
%TD*%
%TA.AperFunction,Conductor*%
%TO.N,GND*%
G36*
X105785000Y-49695000D02*
G01*
X105485000Y-49696000D01*
X105185000Y-49695000D01*
X105285000Y-48795000D01*
X105685000Y-48795000D01*
X105785000Y-49695000D01*
G37*
%TD.AperFunction*%
%TD*%
%TA.AperFunction,Conductor*%
%TO.N,D+*%
G36*
X115211971Y-47814218D02*
G01*
X115218352Y-47816137D01*
X115222651Y-47821229D01*
X115223473Y-47827841D01*
X115077366Y-48704487D01*
X115073388Y-48711491D01*
X115065825Y-48714264D01*
X114785647Y-48714264D01*
X114778084Y-48711491D01*
X114774106Y-48704487D01*
X114627998Y-47827838D01*
X114628820Y-47821229D01*
X114633119Y-47816137D01*
X114639499Y-47814218D01*
X114925736Y-47813264D01*
X115211971Y-47814218D01*
G37*
%TD.AperFunction*%
%TD*%
%TA.AperFunction,Conductor*%
%TO.N,D+*%
G36*
X126772652Y-48847773D02*
G01*
X126776630Y-48854777D01*
X126922737Y-49731422D01*
X126921915Y-49738034D01*
X126917616Y-49743126D01*
X126911235Y-49745045D01*
X126625039Y-49745999D01*
X126624961Y-49745999D01*
X126338764Y-49745045D01*
X126332383Y-49743126D01*
X126328084Y-49738034D01*
X126327262Y-49731425D01*
X126473370Y-48854775D01*
X126477348Y-48847773D01*
X126484911Y-48845000D01*
X126765089Y-48845000D01*
X126772652Y-48847773D01*
G37*
%TD.AperFunction*%
%TD*%
%TA.AperFunction,Conductor*%
%TO.N,D+*%
G36*
X126714029Y-48044963D02*
G01*
X126722021Y-48048155D01*
X126725667Y-48055951D01*
X126774243Y-48852826D01*
X126772927Y-48858972D01*
X126768619Y-48863550D01*
X126762565Y-48865238D01*
X126482471Y-48865238D01*
X126476174Y-48863399D01*
X126471857Y-48858461D01*
X126152952Y-48170836D01*
X126151927Y-48164720D01*
X126154172Y-48158939D01*
X126159053Y-48155117D01*
X126422822Y-48044909D01*
X126427362Y-48044007D01*
X126714029Y-48044963D01*
G37*
%TD.AperFunction*%
%TD*%
%TA.AperFunction,Conductor*%
%TO.N,D-*%
G36*
X116622178Y-47759910D02*
G01*
X116887653Y-47870831D01*
X116893663Y-47876509D01*
X116894420Y-47884741D01*
X116687371Y-48634507D01*
X116683180Y-48640702D01*
X116676093Y-48643093D01*
X116395870Y-48643093D01*
X116387906Y-48639964D01*
X116384202Y-48632252D01*
X116320921Y-47772515D01*
X116322176Y-47766323D01*
X116326470Y-47761685D01*
X116332549Y-47759958D01*
X116617636Y-47759007D01*
X116622178Y-47759910D01*
G37*
%TD.AperFunction*%
%TD*%
%TA.AperFunction,Conductor*%
%TO.N,ICSDAT*%
G36*
X104917230Y-63167048D02*
G01*
X105120828Y-63369293D01*
X105323071Y-63572889D01*
X105326181Y-63578550D01*
X105325813Y-63584999D01*
X105322079Y-63590270D01*
X104633324Y-64141275D01*
X104625368Y-64143821D01*
X104617742Y-64140412D01*
X104349708Y-63872378D01*
X104346299Y-63864752D01*
X104348844Y-63856798D01*
X104899851Y-63168040D01*
X104905121Y-63164307D01*
X104911570Y-63163939D01*
X104917230Y-63167048D01*
G37*
%TD.AperFunction*%
%TD*%
%TA.AperFunction,Conductor*%
%TO.N,SCL*%
G36*
X108533493Y-30162422D02*
G01*
X108538260Y-30166721D01*
X108540042Y-30172888D01*
X108541000Y-30460000D01*
X108541000Y-30460078D01*
X108540043Y-30746823D01*
X108538216Y-30753063D01*
X108533340Y-30757363D01*
X108526920Y-30758397D01*
X107783700Y-30667358D01*
X107652265Y-30651258D01*
X107644927Y-30647400D01*
X107641989Y-30639646D01*
X107641989Y-30260586D01*
X107645013Y-30252736D01*
X107652521Y-30248944D01*
X108527176Y-30161285D01*
X108533493Y-30162422D01*
G37*
%TD.AperFunction*%
%TD*%
%TA.AperFunction,Conductor*%
%TO.N,Net-(U2-VDD)*%
G36*
X107908123Y-48350080D02*
G01*
X107913002Y-48353004D01*
X108180701Y-48620703D01*
X108183946Y-48626923D01*
X108183050Y-48633881D01*
X108178335Y-48639075D01*
X107526351Y-49020410D01*
X107519990Y-49022002D01*
X107513771Y-49019921D01*
X107509648Y-49014822D01*
X107399293Y-48750707D01*
X107290589Y-48485974D01*
X107289942Y-48479228D01*
X107293146Y-48473254D01*
X107299125Y-48470059D01*
X107902442Y-48349803D01*
X107908123Y-48350080D01*
G37*
%TD.AperFunction*%
%TD*%
%TA.AperFunction,Conductor*%
%TO.N,Net-(U2-VDD)*%
G36*
X106642331Y-48807982D02*
G01*
X106646156Y-48815408D01*
X106743561Y-49692051D01*
X106742475Y-49698419D01*
X106738175Y-49703239D01*
X106731972Y-49705043D01*
X106445039Y-49705999D01*
X106444961Y-49705999D01*
X106158027Y-49705043D01*
X106151824Y-49703239D01*
X106147524Y-49698419D01*
X106146438Y-49692053D01*
X106243844Y-48815408D01*
X106247669Y-48807982D01*
X106255472Y-48805000D01*
X106634528Y-48805000D01*
X106642331Y-48807982D01*
G37*
%TD.AperFunction*%
%TD*%
%TA.AperFunction,Conductor*%
%TO.N,Net-(U2-VDD)*%
G36*
X107393419Y-48452524D02*
G01*
X107398239Y-48456824D01*
X107400043Y-48463027D01*
X107401000Y-48750000D01*
X107401000Y-48750078D01*
X107400043Y-49036972D01*
X107398239Y-49043175D01*
X107393419Y-49047475D01*
X107387051Y-49048561D01*
X106510408Y-48951156D01*
X106502982Y-48947331D01*
X106500000Y-48939528D01*
X106500000Y-48560472D01*
X106502982Y-48552669D01*
X106510408Y-48548844D01*
X106829187Y-48513423D01*
X107387053Y-48451438D01*
X107393419Y-48452524D01*
G37*
%TD.AperFunction*%
%TD*%
%TA.AperFunction,Conductor*%
%TO.N,ICSPLK*%
G36*
X106471973Y-60879956D02*
G01*
X106478175Y-60881760D01*
X106482475Y-60886580D01*
X106483561Y-60892948D01*
X106386156Y-61769592D01*
X106382331Y-61777018D01*
X106374528Y-61780000D01*
X105995472Y-61780000D01*
X105987669Y-61777018D01*
X105983844Y-61769592D01*
X105944881Y-61418934D01*
X105886438Y-60892945D01*
X105887524Y-60886580D01*
X105891824Y-60881760D01*
X105898024Y-60879956D01*
X106185000Y-60879000D01*
X106471973Y-60879956D01*
G37*
%TD.AperFunction*%
%TD*%
%TA.AperFunction,Conductor*%
%TO.N,Net-(U3-VDD)*%
G36*
X116768570Y-43500931D02*
G01*
X116773932Y-43506782D01*
X116885088Y-43772817D01*
X116885992Y-43777367D01*
X116885046Y-44061162D01*
X116883116Y-44067560D01*
X116877998Y-44071858D01*
X116871363Y-44072654D01*
X116109717Y-43941671D01*
X116102753Y-43937680D01*
X116100000Y-43930140D01*
X116100000Y-43649478D01*
X116102609Y-43642113D01*
X116109271Y-43638033D01*
X116760709Y-43499848D01*
X116768570Y-43500931D01*
G37*
%TD.AperFunction*%
%TD*%
%TA.AperFunction,Conductor*%
%TO.N,Net-(U3-REGIN)*%
G36*
X118246841Y-42730423D02*
G01*
X118387612Y-43038258D01*
X118607424Y-43518939D01*
X118608155Y-43526560D01*
X118604018Y-43533001D01*
X118596784Y-43535505D01*
X118319372Y-43535505D01*
X118311699Y-43532637D01*
X117762320Y-43055344D01*
X117758848Y-43050074D01*
X117758620Y-43043767D01*
X117761700Y-43038258D01*
X117963338Y-42835669D01*
X117967181Y-42833104D01*
X118231759Y-42724466D01*
X118240500Y-42724408D01*
X118246841Y-42730423D01*
G37*
%TD.AperFunction*%
%TD*%
%TA.AperFunction,Conductor*%
%TO.N,Net-(U3-VBUS)*%
G36*
X119226439Y-41792471D02*
G01*
X119423859Y-41989891D01*
X119426705Y-41994523D01*
X119427150Y-41999940D01*
X119326520Y-42655099D01*
X119322586Y-42662193D01*
X119314984Y-42665023D01*
X119026655Y-42665701D01*
X119022116Y-42664797D01*
X118760403Y-42555446D01*
X118755264Y-42551265D01*
X118753218Y-42544964D01*
X118754922Y-42538564D01*
X119208178Y-41794653D01*
X119213389Y-41790064D01*
X119220288Y-41789238D01*
X119226439Y-41792471D01*
G37*
%TD.AperFunction*%
%TD*%
%TA.AperFunction,Conductor*%
%TO.N,MCLR*%
G36*
X104419305Y-68039101D02*
G01*
X104426939Y-68042840D01*
X104430027Y-68050760D01*
X104430027Y-68429820D01*
X104427154Y-68437500D01*
X104419945Y-68441408D01*
X103548273Y-68563146D01*
X103541778Y-68562193D01*
X103536818Y-68557892D01*
X103534955Y-68551597D01*
X103534000Y-68265078D01*
X103534000Y-68265000D01*
X103534714Y-68050760D01*
X103534957Y-67977675D01*
X103536705Y-67971565D01*
X103541392Y-67967269D01*
X103547631Y-67966058D01*
X104419305Y-68039101D01*
G37*
%TD.AperFunction*%
%TD*%
%TA.AperFunction,Conductor*%
%TO.N,Net-(U3-RXD)*%
G36*
X111941238Y-40214954D02*
G01*
X111947616Y-40216872D01*
X111951915Y-40221964D01*
X111952737Y-40228576D01*
X111806630Y-41105223D01*
X111802652Y-41112227D01*
X111795089Y-41115000D01*
X111514911Y-41115000D01*
X111507348Y-41112227D01*
X111503370Y-41105223D01*
X111357262Y-40228574D01*
X111358084Y-40221965D01*
X111362383Y-40216873D01*
X111368763Y-40214954D01*
X111655000Y-40214000D01*
X111941238Y-40214954D01*
G37*
%TD.AperFunction*%
%TD*%
%TA.AperFunction,Conductor*%
%TO.N,Net-(U3-RXD)*%
G36*
X111802652Y-41747773D02*
G01*
X111806630Y-41754777D01*
X111952737Y-42631423D01*
X111951915Y-42638035D01*
X111947616Y-42643127D01*
X111941235Y-42645045D01*
X111907394Y-42645158D01*
X111655039Y-42645999D01*
X111654961Y-42645999D01*
X111368764Y-42645045D01*
X111362383Y-42643126D01*
X111358084Y-42638034D01*
X111357262Y-42631425D01*
X111503370Y-41754775D01*
X111507348Y-41747773D01*
X111514911Y-41745000D01*
X111795089Y-41745000D01*
X111802652Y-41747773D01*
G37*
%TD.AperFunction*%
%TD*%
%TA.AperFunction,Conductor*%
%TO.N,+5.0V*%
G36*
X120802871Y-50359959D02*
G01*
X120808835Y-50361618D01*
X120813119Y-50366089D01*
X120814521Y-50372120D01*
X120780443Y-51235832D01*
X120776860Y-51243806D01*
X120768752Y-51247071D01*
X120389725Y-51247071D01*
X120382246Y-51244369D01*
X120378222Y-51237511D01*
X120334859Y-51004384D01*
X120217565Y-50373791D01*
X120218291Y-50367098D01*
X120222587Y-50361912D01*
X120229028Y-50359953D01*
X120515000Y-50359000D01*
X120802871Y-50359959D01*
G37*
%TD.AperFunction*%
%TD*%
%TA.AperFunction,Conductor*%
%TO.N,+5.0V*%
G36*
X120761972Y-49463200D02*
G01*
X120765614Y-49471051D01*
X120814316Y-50347692D01*
X120812982Y-50353801D01*
X120808693Y-50358350D01*
X120802673Y-50360041D01*
X120515039Y-50360999D01*
X120514961Y-50360999D01*
X120227326Y-50360041D01*
X120221306Y-50358350D01*
X120217017Y-50353801D01*
X120215683Y-50347694D01*
X120264386Y-49471050D01*
X120268028Y-49463200D01*
X120276068Y-49460000D01*
X120753932Y-49460000D01*
X120761972Y-49463200D01*
G37*
%TD.AperFunction*%
%TD*%
%TA.AperFunction,Conductor*%
%TO.N,+5.0V*%
G36*
X120802676Y-47589958D02*
G01*
X120808693Y-47591649D01*
X120812982Y-47596198D01*
X120814316Y-47602307D01*
X120765614Y-48478949D01*
X120761972Y-48486800D01*
X120753932Y-48490000D01*
X120276068Y-48490000D01*
X120268028Y-48486800D01*
X120264386Y-48478949D01*
X120215683Y-47602304D01*
X120217017Y-47596198D01*
X120221306Y-47591649D01*
X120227322Y-47589958D01*
X120515000Y-47589000D01*
X120802676Y-47589958D01*
G37*
%TD.AperFunction*%
%TD*%
%TA.AperFunction,Conductor*%
%TO.N,WP*%
G36*
X119566235Y-28959954D02*
G01*
X119572616Y-28961873D01*
X119576915Y-28966965D01*
X119577737Y-28973577D01*
X119431630Y-29850223D01*
X119427652Y-29857227D01*
X119420089Y-29860000D01*
X119139911Y-29860000D01*
X119132348Y-29857227D01*
X119128370Y-29850223D01*
X118982262Y-28973574D01*
X118983084Y-28966965D01*
X118987383Y-28961873D01*
X118993763Y-28959954D01*
X119280000Y-28959000D01*
X119566235Y-28959954D01*
G37*
%TD.AperFunction*%
%TD*%
%TA.AperFunction,Conductor*%
%TO.N,WP*%
G36*
X112419470Y-53126453D02*
G01*
X112423511Y-53129607D01*
X112850418Y-53649689D01*
X112853062Y-53657672D01*
X112849668Y-53665366D01*
X112646663Y-53869328D01*
X112642814Y-53871897D01*
X112379906Y-53979848D01*
X112373479Y-53980556D01*
X112367658Y-53977742D01*
X112364221Y-53972268D01*
X112124309Y-53140272D01*
X112124507Y-53133168D01*
X112128780Y-53127488D01*
X112135551Y-53125330D01*
X112414468Y-53125330D01*
X112419470Y-53126453D01*
G37*
%TD.AperFunction*%
%TD*%
%TA.AperFunction,Conductor*%
%TO.N,Net-(D2-A)*%
G36*
X109952184Y-34391768D02*
G01*
X109955832Y-34396693D01*
X110566784Y-35960313D01*
X110567338Y-35966969D01*
X110564159Y-35972844D01*
X110362844Y-36174159D01*
X110356969Y-36177338D01*
X110350313Y-36176784D01*
X108786693Y-35565832D01*
X108781768Y-35562184D01*
X108779363Y-35556547D01*
X108780136Y-35550471D01*
X109117438Y-34733782D01*
X109119978Y-34729978D01*
X109123782Y-34727438D01*
X109940471Y-34390136D01*
X109946547Y-34389363D01*
X109952184Y-34391768D01*
G37*
%TD.AperFunction*%
%TD*%
%TA.AperFunction,Conductor*%
%TO.N,Net-(D4-A)*%
G36*
X113297531Y-45706831D02*
G01*
X113301454Y-45713998D01*
X113428065Y-46586664D01*
X113427138Y-46593183D01*
X113422838Y-46598170D01*
X113416525Y-46600044D01*
X113130039Y-46600999D01*
X113129961Y-46600999D01*
X112844080Y-46600046D01*
X112837626Y-46598079D01*
X112833331Y-46592875D01*
X112832624Y-46586167D01*
X112998193Y-45713497D01*
X113002227Y-45706667D01*
X113009689Y-45703978D01*
X113289875Y-45703978D01*
X113297531Y-45706831D01*
G37*
%TD.AperFunction*%
%TD*%
%TA.AperFunction,Conductor*%
%TO.N,Net-(D4-A)*%
G36*
X120346235Y-34589954D02*
G01*
X120352616Y-34591873D01*
X120356915Y-34596965D01*
X120357737Y-34603577D01*
X120211630Y-35480223D01*
X120207652Y-35487227D01*
X120200089Y-35490000D01*
X119919911Y-35490000D01*
X119912348Y-35487227D01*
X119908370Y-35480223D01*
X119762262Y-34603574D01*
X119763084Y-34596965D01*
X119767383Y-34591873D01*
X119773763Y-34589954D01*
X120060000Y-34589000D01*
X120346235Y-34589954D01*
G37*
%TD.AperFunction*%
%TD*%
%TA.AperFunction,Conductor*%
%TO.N,5V*%
G36*
X105706256Y-25662429D02*
G01*
X105910875Y-25975980D01*
X105912714Y-25983584D01*
X105909350Y-25990647D01*
X105710647Y-26189350D01*
X105703584Y-26192714D01*
X105695980Y-26190875D01*
X105382429Y-25986256D01*
X105377652Y-25979936D01*
X105377997Y-25972021D01*
X105467436Y-25753821D01*
X105469988Y-25749988D01*
X105473821Y-25747436D01*
X105692021Y-25657996D01*
X105699936Y-25657652D01*
X105706256Y-25662429D01*
G37*
%TD.AperFunction*%
%TD*%
%TA.AperFunction,Conductor*%
%TO.N,5V*%
G36*
X105706256Y-25662429D02*
G01*
X105910875Y-25975980D01*
X105912714Y-25983584D01*
X105909350Y-25990647D01*
X105710647Y-26189350D01*
X105703584Y-26192714D01*
X105695980Y-26190875D01*
X105382429Y-25986256D01*
X105377652Y-25979936D01*
X105377997Y-25972021D01*
X105467436Y-25753821D01*
X105469988Y-25749988D01*
X105473821Y-25747436D01*
X105692021Y-25657996D01*
X105699936Y-25657652D01*
X105706256Y-25662429D01*
G37*
%TD.AperFunction*%
%TD*%
%TA.AperFunction,Conductor*%
%TO.N,5V*%
G36*
X105882508Y-26113352D02*
G01*
X105888760Y-26119618D01*
X105979109Y-26335482D01*
X105980016Y-26339999D01*
X105979109Y-26344516D01*
X105888760Y-26560381D01*
X105882508Y-26566647D01*
X105873657Y-26566741D01*
X105687390Y-26492928D01*
X105682022Y-26488626D01*
X105680000Y-26482051D01*
X105680000Y-26197949D01*
X105682022Y-26191374D01*
X105687390Y-26187072D01*
X105744777Y-26164330D01*
X105873659Y-26113258D01*
X105882508Y-26113352D01*
G37*
%TD.AperFunction*%
%TD*%
%TA.AperFunction,Conductor*%
%TO.N,5V*%
G36*
X105882508Y-26113352D02*
G01*
X105888760Y-26119618D01*
X105979109Y-26335482D01*
X105980016Y-26339999D01*
X105979109Y-26344516D01*
X105888760Y-26560381D01*
X105882508Y-26566647D01*
X105873657Y-26566741D01*
X105687390Y-26492928D01*
X105682022Y-26488626D01*
X105680000Y-26482051D01*
X105680000Y-26197949D01*
X105682022Y-26191374D01*
X105687390Y-26187072D01*
X105744777Y-26164330D01*
X105873659Y-26113258D01*
X105882508Y-26113352D01*
G37*
%TD.AperFunction*%
%TD*%
%TA.AperFunction,Conductor*%
%TO.N,5V*%
G36*
X105793909Y-26238676D02*
G01*
X106067099Y-26403847D01*
X106072156Y-26410190D01*
X106071872Y-26418296D01*
X105982564Y-26636175D01*
X105980011Y-26640011D01*
X105976175Y-26642564D01*
X105758296Y-26731872D01*
X105750190Y-26732156D01*
X105743847Y-26727099D01*
X105692737Y-26642564D01*
X105578676Y-26453909D01*
X105577074Y-26446448D01*
X105580415Y-26439586D01*
X105779586Y-26240415D01*
X105786448Y-26237074D01*
X105793909Y-26238676D01*
G37*
%TD.AperFunction*%
%TD*%
%TA.AperFunction,Conductor*%
%TO.N,5V*%
G36*
X105793909Y-26238676D02*
G01*
X106067099Y-26403847D01*
X106072156Y-26410190D01*
X106071872Y-26418296D01*
X105982564Y-26636175D01*
X105980011Y-26640011D01*
X105976175Y-26642564D01*
X105758296Y-26731872D01*
X105750190Y-26732156D01*
X105743847Y-26727099D01*
X105692737Y-26642564D01*
X105578676Y-26453909D01*
X105577074Y-26446448D01*
X105580415Y-26439586D01*
X105779586Y-26240415D01*
X105786448Y-26237074D01*
X105793909Y-26238676D01*
G37*
%TD.AperFunction*%
%TD*%
%TA.AperFunction,Conductor*%
%TO.N,+5.0V*%
G36*
X120447635Y-51907545D02*
G01*
X120580665Y-52039252D01*
X120580747Y-52039334D01*
X120712454Y-52172364D01*
X120715536Y-52177948D01*
X120715232Y-52184318D01*
X120711632Y-52189582D01*
X120304275Y-52529221D01*
X120296254Y-52531923D01*
X120288510Y-52528508D01*
X120091491Y-52331489D01*
X120088076Y-52323745D01*
X120090777Y-52315726D01*
X120430419Y-51908365D01*
X120435681Y-51904767D01*
X120442051Y-51904463D01*
X120447635Y-51907545D01*
G37*
%TD.AperFunction*%
%TD*%
%TA.AperFunction,Conductor*%
%TO.N,+5.0V*%
G36*
X120447635Y-51907545D02*
G01*
X120580665Y-52039252D01*
X120580747Y-52039334D01*
X120712454Y-52172364D01*
X120715536Y-52177948D01*
X120715232Y-52184318D01*
X120711632Y-52189582D01*
X120304275Y-52529221D01*
X120296254Y-52531923D01*
X120288510Y-52528508D01*
X120091491Y-52331489D01*
X120088076Y-52323745D01*
X120090777Y-52315726D01*
X120430419Y-51908365D01*
X120435681Y-51904767D01*
X120442051Y-51904463D01*
X120447635Y-51907545D01*
G37*
%TD.AperFunction*%
%TD*%
%TA.AperFunction,Conductor*%
%TO.N,+5.0V*%
G36*
X120334316Y-52349781D02*
G01*
X120339580Y-52353388D01*
X120674238Y-52755726D01*
X120676931Y-52763744D01*
X120673516Y-52771481D01*
X120476481Y-52968516D01*
X120468744Y-52971931D01*
X120460726Y-52969238D01*
X120058388Y-52634580D01*
X120054781Y-52629316D01*
X120054473Y-52622941D01*
X120057555Y-52617354D01*
X120189293Y-52484293D01*
X120322354Y-52352555D01*
X120327941Y-52349473D01*
X120334316Y-52349781D01*
G37*
%TD.AperFunction*%
%TD*%
%TA.AperFunction,Conductor*%
%TO.N,+5.0V*%
G36*
X120334316Y-52349781D02*
G01*
X120339580Y-52353388D01*
X120674238Y-52755726D01*
X120676931Y-52763744D01*
X120673516Y-52771481D01*
X120476481Y-52968516D01*
X120468744Y-52971931D01*
X120460726Y-52969238D01*
X120058388Y-52634580D01*
X120054781Y-52629316D01*
X120054473Y-52622941D01*
X120057555Y-52617354D01*
X120189293Y-52484293D01*
X120322354Y-52352555D01*
X120327941Y-52349473D01*
X120334316Y-52349781D01*
G37*
%TD.AperFunction*%
%TD*%
%TA.AperFunction,Conductor*%
%TO.N,+5.0V*%
G36*
X120304265Y-52385674D02*
G01*
X120711507Y-52720430D01*
X120715152Y-52725694D01*
X120715479Y-52732089D01*
X120712391Y-52737699D01*
X120580747Y-52870665D01*
X120580665Y-52870747D01*
X120447583Y-53002505D01*
X120442021Y-53005582D01*
X120435672Y-53005298D01*
X120430408Y-53001736D01*
X120319895Y-52870747D01*
X120090865Y-52599281D01*
X120088119Y-52591243D01*
X120091535Y-52583466D01*
X120288563Y-52386438D01*
X120296266Y-52383026D01*
X120304265Y-52385674D01*
G37*
%TD.AperFunction*%
%TD*%
%TA.AperFunction,Conductor*%
%TO.N,+5.0V*%
G36*
X120304265Y-52385674D02*
G01*
X120711507Y-52720430D01*
X120715152Y-52725694D01*
X120715479Y-52732089D01*
X120712391Y-52737699D01*
X120580747Y-52870665D01*
X120580665Y-52870747D01*
X120447583Y-53002505D01*
X120442021Y-53005582D01*
X120435672Y-53005298D01*
X120430408Y-53001736D01*
X120319895Y-52870747D01*
X120090865Y-52599281D01*
X120088119Y-52591243D01*
X120091535Y-52583466D01*
X120288563Y-52386438D01*
X120296266Y-52383026D01*
X120304265Y-52385674D01*
G37*
%TD.AperFunction*%
%TD*%
D33*
X99575000Y-70405000D02*
X98315000Y-59845000D01*
X127275000Y-67245000D02*
X126405000Y-72885000D01*
X113155000Y-21015000D02*
X120425000Y-21345000D01*
X95177500Y-45452500D02*
X97702500Y-45467500D01*
X124405000Y-80835000D02*
X120905000Y-83535000D01*
X126405000Y-72885000D02*
X125395000Y-78155000D01*
X105135000Y-83395000D02*
X101945000Y-80795000D01*
X120905000Y-83535000D02*
X120115000Y-83685000D01*
X95177500Y-45452500D02*
X95180000Y-53062500D01*
X101945000Y-80795000D02*
X101185000Y-79165000D01*
X104065000Y-22155000D02*
X105665000Y-21385000D01*
X128195000Y-58465000D02*
X128355000Y-53832500D01*
X106335000Y-83685000D02*
X105135000Y-83395000D01*
X120425000Y-21345000D02*
X122185000Y-22175000D01*
X128355000Y-53832500D02*
X130300000Y-53827500D01*
X105665000Y-21385000D02*
X113155000Y-21015000D01*
X128195000Y-58465000D02*
X127975000Y-61175000D01*
X98935000Y-30435000D02*
X104065000Y-22155000D01*
X98935000Y-30435000D02*
X97702500Y-45467500D01*
X101185000Y-79165000D02*
X99575000Y-70405000D01*
X98315000Y-59845000D02*
X98075000Y-56345000D01*
X127975000Y-61175000D02*
X127275000Y-67245000D01*
X127155000Y-30005000D02*
X122185000Y-22175000D01*
X130290000Y-44300000D02*
X128665000Y-44300000D01*
X130290000Y-44300000D02*
X130300000Y-53827500D01*
X120115000Y-83685000D02*
X106335000Y-83685000D01*
X95180000Y-53062500D02*
X97965000Y-53077500D01*
X125395000Y-78155000D02*
X125015000Y-79825000D01*
X127155000Y-30005000D02*
X128665000Y-44300000D01*
X98075000Y-56345000D02*
X97965000Y-53077500D01*
X125015000Y-79825000D02*
X124405000Y-80835000D01*
M02*
